<svg width="82" height="95" viewBox="0 0 82 95" fill="none" xmlns="http://www.w3.org/2000/svg">
<path d="M77.7205 52.1211C80.3914 46.4746 83.2302 40.2044 81.4389 33.8462C80.5593 30.6871 78.7281 28.6556 78.944 25.1846C79.1679 21.7696 78.7441 18.2425 77.4167 15.0834C72.2989 2.91082 55.4501 -2.79159 43.951 2.9908C37.6018 -0.408253 28.6296 -0.952101 21.9365 1.57519C14.9715 4.20646 11.8208 9.33302 8.80613 15.6593C7.33477 18.7784 3.88825 20.6819 2.21696 23.9209C0.633644 26.9601 -0.221989 30.5431 0.0498946 33.9821C0.17784 35.6457 0.809568 37.0853 1.17741 38.6928C1.59323 40.5643 1.39332 42.3878 1.70518 44.2833C2.25695 47.6903 3.88825 50.6255 6.19925 53.1128C5.43158 54.3605 4.98378 55.832 4.9278 57.4796C4.83184 60.4547 5.97535 63.23 7.9665 64.8935C9.85368 66.4691 12.1647 66.837 14.6356 66.837C15.1714 66.837 15.7232 66.821 16.2829 66.789C16.6588 69.3243 17.2425 71.8835 18.2101 74.3389C20.9849 81.4249 26.4865 86.0956 33.9873 87.9271C32.8758 91.926 29.7811 94.4612 26.5105 97.1165C25.8468 97.6603 25.1831 98.1962 24.5354 98.756C21.2328 101.587 19.0257 104.85 17.5864 109.009C14.2198 118.742 14.4037 129.339 14.5717 139.585L14.5956 140.824C14.6036 141.568 15.2114 141.96 15.7791 141.96H15.8031C16.3789 141.952 16.9546 141.552 16.9386 140.808C16.9226 139.873 16.8987 138.921 16.8827 137.961C16.6748 127.868 16.4429 116.431 20.825 107.194C22.0005 104.706 23.8957 102.699 25.9428 100.851C30.5248 105.122 36.7861 107.29 43.0394 107.29C48.725 107.29 54.3706 105.474 58.7367 101.859C60.224 103.363 61.6154 104.962 62.8389 106.842C65.8616 111.464 66.5493 117.551 67.1651 122.917C67.8208 128.652 67.9967 134.514 68.1726 140.184L68.1806 140.408C68.2046 141.152 68.8124 141.536 69.3881 141.536H69.4201C69.9879 141.52 70.5476 141.12 70.5316 140.384C70.4836 139.089 70.4517 137.761 70.4277 136.426C70.2118 127.244 69.9958 117.759 66.8132 109.425C65.4058 105.746 62.743 102.563 60.5839 100.204C59.5603 99.084 58.3049 98.0202 57.0894 96.9965C54.0347 94.4133 50.8841 91.758 50.7241 87.7431C58.001 85.9196 63.6306 81.8248 66.4934 75.9784C67.8288 73.2512 68.4765 70.236 68.8603 67.1649C73.7063 66.677 78.5682 63.4139 78.904 57.8075C79.024 55.7361 78.5442 53.9446 77.4566 52.473C77.5606 52.393 77.6486 52.273 77.7205 52.1211ZM7.31877 58.5113C7.11086 56.1919 7.91052 54.1525 9.50983 52.9288C11.1011 51.6972 13.2522 51.4173 15.4593 52.0971C15.4993 54.0965 15.5552 56.096 15.6112 58.0634C15.6752 60.0948 15.7711 62.2462 15.995 64.4376C10.4614 64.5576 7.69461 62.6621 7.31877 58.5113ZM17.5624 45.7948C17.5784 43.8434 17.5864 41.8439 17.5784 39.8685C19.4336 41.3721 21.7366 42.2918 24.3834 42.4998C25.2151 42.5717 25.8388 41.628 25.6149 40.8762C24.3834 36.6134 24.6473 31.7188 27.8619 28.3117C30.9566 25.0166 35.8985 24.4168 39.6889 26.7921C40.2566 27.1441 40.8004 26.9921 41.1602 26.6242C47.9013 26.5042 44.7987 37.7251 42.9435 41.0362C42.5676 41.708 42.8635 42.7637 43.7031 42.9156C46.1581 43.3715 48.4931 43.0836 50.5642 42.1559C50.6602 42.2038 50.7721 42.2438 50.9001 42.2598C54.1067 42.7717 57.2093 42.0359 59.6883 40.2444C61.8154 41.604 64.7181 40.8762 67.261 39.4766C67.4609 42.7317 67.6369 46.1227 67.7008 49.5538C67.6848 49.6258 67.6768 49.6978 67.6768 49.7777C67.6689 49.8737 67.6848 49.9857 67.7168 50.0896V50.4895C66.5413 50.8894 65.4058 51.3773 64.3103 51.9771C62.3431 49.1859 58.2569 48.754 54.4745 49.0259C52.2435 48.9859 49.8925 49.1779 48.3971 50.4255C47.0297 51.5532 46.7658 53.2648 46.7498 54.9923C44.3829 54.9523 42.0239 54.9843 39.6649 55.0802C39.6569 55.0083 39.6489 54.9363 39.6409 54.8643C38.8732 49.4738 33.5235 48.69 28.6936 49.0339C26.4705 48.9939 24.1196 49.1859 22.6242 50.4335C21.9285 51.0094 21.5207 51.7372 21.2808 52.537C20.0813 52.409 18.7139 52.1771 17.5304 52.425C17.5224 50.2096 17.5384 47.9862 17.5624 45.7948ZM49.1088 56.4319C49.0688 54.2965 49.0928 52.345 51.2599 51.7532C51.6038 51.6972 51.9556 51.6412 52.3394 51.5852C54.2026 51.4093 56.1218 51.4573 57.985 51.5212C58.1529 51.5292 58.2969 51.4972 58.4328 51.4493C60.9997 51.8891 63.0548 53.2248 63.2388 56.4159C63.3347 58.0954 63.2388 59.9349 62.727 61.5584C61.6634 64.9095 58.2809 65.2374 55.3062 65.1014C52.3714 64.9735 50.0524 64.4456 49.3167 61.2545C48.9569 59.7189 49.1408 57.9914 49.1088 56.4319ZM23.3439 56.4319C23.3039 54.2965 23.3279 52.345 25.487 51.7532C25.8308 51.6972 26.1907 51.6412 26.5585 51.5852C28.4297 51.4093 30.3409 51.4573 32.2121 51.5212C32.38 51.5292 32.5239 51.4972 32.6599 51.4493C35.2268 51.8891 37.2819 53.2248 37.4578 56.4159C37.5538 58.0954 37.4578 59.9349 36.954 61.5584C35.8905 64.9095 32.508 65.2374 29.5252 65.1014C26.5985 64.9735 24.2795 64.4456 23.5438 61.2545C23.192 59.7189 23.3679 57.9914 23.3439 56.4319ZM54.7224 98.0762C54.8024 98.1482 54.8823 98.2202 54.9623 98.2922C55.746 99.004 56.5136 99.7158 57.2653 100.42C53.243 103.723 47.7334 105.466 42.0079 105.218C36.4663 104.97 31.2605 102.883 27.5181 99.4758C27.734 99.2919 27.9579 99.0999 28.1738 98.916C28.4697 98.6681 28.7576 98.4201 29.0534 98.1642C32.7079 101.371 37.2099 103.139 41.8559 103.139H42.0399C46.6779 103.091 51.132 101.291 54.7224 98.0762ZM52.6353 96.1568C52.8272 96.3327 53.0191 96.5007 53.2031 96.6766C46.5419 102.539 37.3539 102.603 30.6128 96.7966C33.1477 94.4772 35.4027 91.902 36.3063 88.3989C37.7377 88.6229 39.2091 88.7668 40.7604 88.8068C41.0963 88.8148 41.4321 88.8148 41.768 88.8148C44.079 88.8148 46.302 88.6149 48.3971 88.247C48.5811 91.0782 49.9485 93.6215 52.6353 96.1568ZM65.7737 70.9158C64.2303 77.0661 59.1285 83.4723 49.4047 85.6717C49.3887 85.6717 49.3647 85.6797 49.3487 85.6797C46.8138 86.2475 43.967 86.5435 40.7764 86.4555C29.4373 86.1676 21.5447 79.9053 19.1217 69.2603C18.0262 64.4536 17.6663 59.375 17.5704 54.2725C18.0582 54.0005 18.9778 54.2165 19.4736 54.2565C19.9773 54.2965 20.4971 54.3365 21.0089 54.3604C20.9529 55.4082 21.0329 56.4719 21.0489 57.4316C21.1049 60.0469 20.857 63.19 22.7441 65.2694C24.7353 67.4768 28.5576 67.5008 31.2765 67.4128C34.0513 67.3248 36.6982 66.717 38.2815 64.2377C39.5609 62.2382 39.9288 59.431 39.8248 56.9037C42.1438 56.8158 44.4708 56.7918 46.7898 56.8238C46.7978 57.0317 46.8058 57.2316 46.8138 57.4316C46.8618 60.0469 46.6139 63.19 48.5011 65.2694C50.4922 67.4768 54.3146 67.5008 57.0334 67.4128C59.8162 67.3248 62.4551 66.717 64.0384 64.2377C65.6857 61.6784 65.8216 57.7755 65.4058 54.8643C65.3419 54.4084 65.2379 54.0085 65.11 53.6167C65.9496 53.1448 66.8052 52.7449 67.7088 52.409C67.7088 58.7432 67.237 65.1014 65.7737 70.9158ZM76.4891 58.1114C75.9373 62.1743 72.5228 64.3257 69.1162 64.7975C69.2122 63.6778 69.2922 62.5502 69.3721 61.4385L69.4841 59.8709C69.7 57.0237 69.8039 54.0805 69.8439 51.0894C72.2109 51.3453 74.1781 52.225 75.3376 53.5927C76.3451 54.7843 76.737 56.3039 76.4891 58.1114Z" fill="#C8CFD3"/>
<path d="M55.7139 62.3183C58.4486 62.0863 58.9363 59.0232 58.5525 56.8558C58.3446 55.6961 57.8808 54.5205 56.7934 53.9366C56.1617 53.6007 55.498 53.5367 54.8744 53.7127C50.9563 54.0166 50.9004 62.7262 55.7139 62.3183Z" fill="#C8CFD3"/>
<path d="M30.9725 62.3183C33.7071 62.0863 34.1949 59.0232 33.8111 56.8558C33.6032 55.6961 33.1394 54.5205 32.052 53.9366C31.4203 53.6007 30.7566 53.5367 30.1329 53.7127C26.2229 54.0166 26.1589 62.7262 30.9725 62.3183Z" fill="#C8CFD3"/>
<path d="M45.1346 69.2125C43.6394 69.4364 42.1361 69.4524 40.6329 69.3164C39.4655 69.2125 39.4655 71.0359 40.6329 71.1479C42.312 71.2999 43.9512 71.2279 45.6144 70.98C46.7818 70.804 46.294 69.0445 45.1346 69.2125Z" fill="#C8CFD3"/>
<path d="M23.3928 46.9545C26.4792 47.0105 29.5657 47.1385 32.6441 47.3464C33.8195 47.4264 33.8116 45.5949 32.6441 45.5149C29.5657 45.315 26.4792 45.179 23.3928 45.123C22.2174 45.099 22.2174 46.9305 23.3928 46.9545Z" fill="#C8CFD3"/>
<path d="M50.756 47.5463C54.1063 47.3703 57.4566 47.3464 60.807 47.4743C61.9824 47.5223 61.9824 45.6908 60.807 45.6428C57.4566 45.5149 54.1063 45.5389 50.756 45.7148C49.5886 45.7788 49.5806 47.6103 50.756 47.5463Z" fill="#C8CFD3"/>
</svg>
