<svg width="24" height="24" viewBox="0 0 24 24" fill="none" xmlns="http://www.w3.org/2000/svg">
<path d="M21.1683 24H2.83024C1.26732 24 0 22.7312 0 21.1683V2.83024C0 1.26732 1.26732 0 2.83024 0H21.1683C22.7312 0 24 1.26732 24 2.83024V21.1683C24 22.7312 22.7312 24 21.1683 24Z" fill="#06DCFF"/>
<path d="M11.7044 3.88525H15.5136V2.38379H11.2112C9.61023 2.38379 8.48779 3.53403 8.48779 5.16428C8.48779 6.01452 8.73072 7.07257 9.70974 7.66672C8.95316 8.13794 8.48779 8.98818 8.48779 10.0316C8.48779 10.7326 8.6956 11.5828 9.5034 12.1331H8.48486V13.6199H13.0449V12.1184H11.719C10.5468 12.1184 9.91023 11.3106 9.91023 10.3462C9.91023 9.34525 10.5541 8.75257 11.7044 8.75257H15.5136V7.25111H11.719C10.5468 7.25111 9.91023 6.4433 9.91023 5.47891C9.91023 4.47794 10.5541 3.88525 11.7044 3.88525Z" fill="white"/>
<path d="M14.0122 12.124C14.0122 12.124 14.0122 18.3787 14.0122 18.3816C14.0122 18.9845 13.7605 19.5318 13.238 19.8509C12.6497 20.2123 11.9107 20.2752 11.2419 20.1626C11.018 20.1245 10.8014 20.044 10.6171 19.9123C10.1371 19.567 9.98633 18.9567 9.98633 18.3948V14.5826H8.48486V18.3801C8.48486 19.8113 8.89901 20.3894 8.89901 20.3894C9.36438 21.1372 10.1985 21.5967 11.2214 21.6128C11.2214 21.6128 11.9166 21.6113 11.9297 21.6113C11.9297 21.6113 11.9605 21.6113 11.9605 21.6099C12.6541 21.6026 13.4839 21.3904 14.0253 20.5957V21.6157H15.5136V12.124H14.0122Z" fill="white"/>
</svg>
