<svg width="49" height="48" viewBox="0 0 49 48" fill="none" xmlns="http://www.w3.org/2000/svg">
  <path fill-rule="evenodd" clip-rule="evenodd" d="M24.5 45C36.098 45 45.5 35.598 45.5 24C45.5 12.402 36.098 3 24.5 3C12.902 3 3.5 12.402 3.5 24C3.5 34.3504 10.9881 42.9519 20.8425 44.6826V30.4223H15.5V24.4951H20.8425V19.9777C20.8425 14.8394 23.9823 12 28.7904 12C31.0918 12 33.5 12.4005 33.5 12.4005V17.4466H30.8452C28.2315 17.4466 27.4178 19.0286 27.4178 20.6505V24.4951H33.2534L32.3206 30.4223H27.4178V44.7517C26.405 44.9068 25.3702 44.9904 24.3168 44.9992C24.3778 44.9997 24.4389 45 24.5 45Z" fill="white"/>
  </svg>
  