<svg width="534" height="285" viewBox="0 0 534 285" fill="none" xmlns="http://www.w3.org/2000/svg">
<path d="M285.114 284.363C405.538 284.363 503.162 271.729 503.162 256.144C503.162 240.559 405.538 227.925 285.114 227.925C164.689 227.925 67.0654 240.559 67.0654 256.144C67.0654 271.729 164.689 284.363 285.114 284.363Z" fill="#D4D7DC"/>
<g opacity="0.6">
<path d="M405.916 211.424C405.916 211.424 454.038 41.5105 499.654 56.3C545.269 71.0896 442.18 163.014 429.738 212.919L405.916 211.424Z" fill="#B2C9C6"/>
</g>
<path d="M423.919 194.403C423.919 194.403 482.803 92.5309 515.359 109.888C547.915 127.246 457.76 169.223 441.746 199.433L423.919 194.403Z" fill="#CFD3A3"/>
<path d="M433.866 197.303C444.547 176.237 463.304 157.2 477.157 144.939C492.177 131.647 504.822 123.241 504.949 123.158L504.428 122.371C504.301 122.454 491.6 130.897 476.532 144.234C462.617 156.549 443.773 175.679 433.025 196.875L433.866 197.303Z" fill="#C4C695"/>
<path d="M511.2 212.186C497.064 216.232 500.876 237.781 484.27 234.829C470.226 232.324 468.978 231.126 464.457 235.423C462.906 236.895 461.598 238.601 460.52 240.447C459.229 242.66 456.671 245.965 452.524 246.976C427.177 253.163 389.624 217.546 415.002 194.889C416.835 193.253 419.608 192.487 422.689 191.794C439.403 188.048 445.174 195.454 457.17 174.677C469.169 153.896 489.101 181.247 500.361 179.497C511.622 177.747 521.377 173.697 530.991 185.115C540.603 196.552 525.338 208.15 511.2 212.186Z" fill="#B2C9C6"/>
<g opacity="0.5">
<path d="M424.985 221.943L424.394 221.177C424.73 220.916 458.997 195.017 533.245 188.395L533.33 189.358C459.362 195.956 425.322 221.684 424.985 221.943Z" fill="#74A1BD"/>
<path d="M469.366 190.186C458.977 182.003 456.791 175.108 456.704 174.82L457.63 174.537C457.651 174.606 459.843 181.453 469.968 189.427L469.366 190.186Z" fill="#74A1BD"/>
<path d="M471.747 200.486C468.673 195.811 468.474 188.794 471.172 180.197C473.192 173.759 476.157 168.619 476.186 168.567L477.023 169.053C476.906 169.252 465.486 189.205 472.555 199.956L471.747 200.486Z" fill="#74A1BD"/>
<path d="M491.208 197.524C489.977 196.623 489.305 196.029 489.273 196.002L489.919 195.282C490.06 195.408 504.239 207.891 523.833 206.01L523.924 206.972C508.138 208.489 495.796 200.879 491.208 197.524Z" fill="#74A1BD"/>
<path d="M502.318 219.203C497.51 214.499 495.903 209.587 495.402 206.296C494.856 202.713 495.452 200.27 495.479 200.166L496.418 200.4C496.395 200.494 494.192 209.898 502.996 218.512L502.318 219.203Z" fill="#74A1BD"/>
</g>
<path d="M519.857 90.1144C523.533 87.5733 525.586 88.2045 526.77 89.9172C527.953 91.6299 527.82 93.7744 524.144 96.3154C517.446 100.945 512.065 100.081 512.065 100.081C512.065 100.081 513.062 94.8124 519.857 90.1144Z" fill="#B2C9C6"/>
<path d="M509.979 164.475C514.663 163.672 516.311 164.922 516.626 166.757C516.942 168.592 515.804 170.319 511.121 171.123C502.588 172.586 497.895 169.97 497.895 169.97C497.895 169.97 501.322 165.96 509.979 164.475Z" fill="#B2C9C6"/>
<path d="M495.974 157.147C498.497 153.458 500.421 153.163 501.866 154.151C503.313 155.139 503.734 157.039 501.21 160.728C496.614 167.448 491.775 168.906 491.775 168.906C491.775 168.906 491.31 163.965 495.974 157.147Z" fill="#B2C9C6"/>
<path d="M458.537 48.0247C457.379 48.0247 456.39 47.157 456.235 46.0089L455.801 42.7766C455.701 42.0251 455.176 41.3981 454.466 41.178C454.273 41.1178 454.082 41.0556 453.891 40.9871C453.685 40.9144 453.474 40.877 453.256 40.877C452.718 40.877 452.199 41.1054 451.831 41.504L449.475 44.0596C449.037 44.535 448.412 44.809 447.764 44.809C447.179 44.809 446.621 44.591 446.189 44.1945L443.434 41.6555C442.977 41.2341 442.711 40.6611 442.687 40.0404C442.662 39.4197 442.88 38.8259 443.301 38.3692L445.325 36.1769C445.89 35.5645 446 34.6614 445.599 33.9286L445.587 33.9058C445.246 33.2788 444.594 32.8927 443.886 32.8927C443.799 32.8927 443.712 32.8989 443.625 32.9093L440.849 33.283C440.745 33.2975 440.64 33.3037 440.536 33.3037C439.379 33.3037 438.389 32.438 438.233 31.2879L437.733 27.576C437.65 26.9594 437.812 26.3491 438.19 25.855C438.568 25.3609 439.114 25.0432 439.73 24.9602L442.508 24.5886C443.299 24.4827 443.953 23.8911 444.136 23.1188L444.142 23.0897C444.335 22.278 443.99 21.4351 443.284 20.9929L440.754 19.411C439.666 18.7322 439.336 17.2935 440.015 16.2077L442.001 13.0314C442.429 12.3463 443.166 11.9394 443.974 11.9394C444.41 11.9394 444.835 12.0619 445.205 12.2944L448.151 14.1379C448.796 14.5407 449.656 14.5241 450.274 14.0943C450.44 13.9781 450.609 13.8681 450.779 13.758C451.406 13.3574 451.746 12.6141 451.645 11.8626L451.211 8.63234C451.128 8.01784 451.29 7.40542 451.667 6.9134C452.043 6.41931 452.591 6.10168 453.206 6.01864L456.916 5.51832C457.019 5.50379 457.125 5.49756 457.229 5.49756C458.387 5.49756 459.376 6.36326 459.531 7.51337L459.855 9.91532C459.969 10.7644 460.621 11.4308 461.481 11.5741C462.18 11.6903 462.878 11.8564 463.555 12.0702C464.269 12.2944 465.074 12.0827 465.575 11.5408L467.663 9.27799C468.101 8.80258 468.724 8.53062 469.372 8.53062C469.957 8.53062 470.518 8.7486 470.947 9.1472L473.7 11.6862C474.157 12.1076 474.423 12.6806 474.447 13.3013C474.472 13.922 474.254 14.5158 473.833 14.9704L472.357 16.571C471.772 17.2042 471.674 18.128 472.112 18.8692C472.203 19.0249 472.293 19.1827 472.38 19.3404C472.712 19.9529 473.36 20.3328 474.07 20.3328C474.157 20.3328 474.244 20.3265 474.329 20.3162L476.291 20.0546C476.395 20.0401 476.499 20.0338 476.602 20.0338C477.759 20.0338 478.749 20.8995 478.905 22.0496L479.405 25.7595C479.488 26.3761 479.326 26.9864 478.948 27.4805C478.57 27.9746 478.024 28.2922 477.41 28.3753L475.45 28.6389C474.657 28.7448 474.005 29.3302 473.825 30.0963C473.783 30.2727 473.74 30.4492 473.692 30.6257C473.466 31.4561 473.804 32.3197 474.535 32.7764L476.382 33.9307C476.91 34.2608 477.277 34.7735 477.416 35.3797C477.555 35.9859 477.452 36.6087 477.121 37.136L475.137 40.3103C474.709 40.9954 473.97 41.4023 473.162 41.4023C472.729 41.4023 472.303 41.2798 471.933 41.0493L469.322 39.4176C468.695 39.0252 467.858 39.0356 467.231 39.4404C466.633 39.8266 466.004 40.1712 465.363 40.466C464.574 40.8293 464.119 41.6452 464.233 42.4942L464.555 44.8983C464.726 46.1688 463.831 47.3417 462.56 47.512L458.848 48.0102C458.747 48.0164 458.641 48.0247 458.537 48.0247ZM453.26 40.4909C453.521 40.4909 453.777 40.5345 454.024 40.6217C454.208 40.686 454.395 40.7483 454.584 40.8064C455.437 41.0701 456.066 41.8237 456.187 42.7226L456.621 45.955C456.749 46.9141 457.574 47.6365 458.539 47.6365C458.626 47.6365 458.713 47.6303 458.801 47.6199L462.512 47.1217C463.571 46.9784 464.319 46.0006 464.175 44.9419L463.854 42.5378C463.717 41.5206 464.258 40.5428 465.203 40.1089C465.828 39.8203 466.44 39.484 467.024 39.1083C467.773 38.6245 468.776 38.6121 469.527 39.0813L472.139 40.713C472.448 40.9061 472.801 41.0078 473.165 41.0078C473.839 41.0078 474.454 40.6673 474.811 40.0964L476.795 36.9222C477.07 36.4821 477.157 35.9631 477.04 35.4586C476.924 34.9541 476.617 34.5244 476.179 34.2504L474.331 33.0961C473.455 32.548 473.05 31.5121 473.32 30.5156C473.366 30.3454 473.41 30.1731 473.451 30.0008C473.667 29.0811 474.45 28.3773 475.4 28.2507L477.36 27.987C477.873 27.9185 478.33 27.6528 478.643 27.2418C478.957 26.8307 479.094 26.32 479.023 25.8072L478.523 22.0974C478.394 21.1383 477.57 20.4158 476.604 20.4158C476.517 20.4158 476.43 20.422 476.345 20.4324L474.383 20.694C474.279 20.7085 474.176 20.7148 474.072 20.7148C473.221 20.7148 472.444 20.258 472.043 19.521C471.958 19.3653 471.873 19.2117 471.782 19.0622C471.257 18.1716 471.373 17.0651 472.075 16.3053L473.551 14.7047C473.902 14.3248 474.084 13.8286 474.063 13.3117C474.043 12.7948 473.821 12.3152 473.441 11.9643L470.688 9.42538C470.329 9.09322 469.862 8.9126 469.374 8.9126C468.834 8.9126 468.315 9.14097 467.948 9.53749L465.859 11.8003C465.423 12.2737 464.8 12.5456 464.15 12.5456C463.91 12.5456 463.671 12.5083 463.44 12.4356C462.78 12.228 462.099 12.0661 461.418 11.9519C460.393 11.7817 459.61 10.9845 459.473 9.96515L459.149 7.56319C459.021 6.60407 458.196 5.88162 457.231 5.88162C457.144 5.88162 457.057 5.88785 456.97 5.89823L453.26 6.39855C452.747 6.46706 452.29 6.73279 451.977 7.14384C451.663 7.55489 451.528 8.06559 451.597 8.57837L452.031 11.8086C452.151 12.7076 451.742 13.6002 450.989 14.0798C450.822 14.1857 450.658 14.2957 450.497 14.4078C450.11 14.6756 449.658 14.8168 449.184 14.8168C448.746 14.8168 448.319 14.6943 447.947 14.4618L445.001 12.6183C444.692 12.4252 444.337 12.3235 443.976 12.3235C443.301 12.3235 442.687 12.664 442.329 13.2349L440.343 16.4112C440.069 16.8513 439.981 17.3703 440.098 17.8748C440.214 18.3792 440.519 18.809 440.959 19.083L443.49 20.6649C444.335 21.1943 444.748 22.2033 444.518 23.1769L444.322 23.1603L444.509 23.2039C444.291 24.1319 443.507 24.8398 442.558 24.9685L439.78 25.3401C439.267 25.4086 438.811 25.6744 438.497 26.0854C438.184 26.4965 438.049 27.0072 438.117 27.5199L438.618 31.2319C438.746 32.191 439.573 32.9134 440.536 32.9134C440.623 32.9134 440.71 32.9072 440.797 32.8968L443.573 32.5231C443.677 32.5086 443.781 32.5024 443.884 32.5024C444.736 32.5024 445.516 32.9653 445.921 33.7085L445.938 33.7376C446.417 34.6158 446.286 35.6994 445.61 36.4323L443.585 38.6245C443.235 39.0045 443.052 39.5006 443.073 40.0176C443.093 40.5345 443.316 41.014 443.695 41.3649L446.45 43.9039C446.81 44.2339 447.277 44.4166 447.764 44.4166C448.304 44.4166 448.825 44.1883 449.191 43.7918L451.547 41.2362C451.991 40.7649 452.612 40.4909 453.26 40.4909Z" fill="#436E8E"/>
<path d="M459.201 35.3339C455.012 35.3339 450.347 31.211 449.785 27.0112C449.504 24.9289 450.245 22.8031 451.871 21.0281C453.405 19.3528 455.525 18.2255 457.688 17.9369C457.954 17.9016 458.224 17.8829 458.491 17.8829C462.67 17.8829 466.056 22.1803 466.596 26.1953C466.887 28.3523 466.389 30.4719 465.189 32.1659C463.966 33.8911 462.131 34.9997 460.015 35.282C459.75 35.3152 459.475 35.3339 459.201 35.3339ZM458.489 18.267C458.24 18.267 457.987 18.2836 457.738 18.3168C455.662 18.595 453.627 19.6766 452.153 21.2876C450.607 22.9775 449.901 24.9912 450.167 26.9593C450.708 30.9909 455.184 34.9478 459.201 34.9478C459.459 34.9478 459.716 34.9312 459.963 34.898C461.971 34.6281 463.713 33.5776 464.873 31.9396C466.015 30.3266 466.49 28.3045 466.212 26.2431C465.693 22.392 462.467 18.267 458.489 18.267Z" fill="#436E8E"/>
<path d="M269.132 93.3269L279.514 88.2135C283.482 86.2588 285.126 81.4386 283.184 77.4481L277.01 64.7509C275.066 60.7563 270.271 59.1031 266.301 61.0578L258.956 64.674C255.788 66.2336 251.979 65.5245 249.579 62.9231C249.122 62.4261 248.654 61.9374 248.177 61.4571C245.855 59.1135 245.259 55.5452 246.611 52.5299L249.663 45.728C251.481 41.6751 249.686 36.9069 245.654 35.0791L232.838 29.2712C228.81 27.4454 224.072 29.2483 222.255 33.297L219.197 40.1052C217.844 43.1162 214.798 45.0293 211.517 44.8318C210.847 44.7923 210.177 44.7631 209.507 44.7486C205.977 44.6654 202.921 42.2657 201.984 38.8408L199.815 30.916C198.643 26.6302 194.234 24.1099 189.973 25.2911L176.416 29.0445C172.154 30.2236 169.65 34.6528 170.823 38.9407L173.889 50.1552C174.716 53.1787 173.707 56.3894 171.342 58.4314C169.352 60.1491 167.471 62.0123 165.717 64.019C163.377 66.6973 159.597 67.5665 156.365 66.1005L148.069 62.3388C144.039 60.5109 139.297 62.3159 137.48 66.3708L131.708 79.2552C129.893 83.308 131.688 88.0742 135.716 89.8999L146.876 94.9593C149.708 96.2444 151.59 99.0496 151.623 102.175C151.632 102.93 151.654 103.683 151.691 104.435C151.853 107.634 150.072 110.611 147.213 112.019L135.492 117.781C131.52 119.734 129.874 124.556 131.818 128.551L137.999 141.256C139.94 145.251 144.735 146.904 148.706 144.949L158.774 139.996C161.863 138.476 165.566 139.119 167.988 141.577C168.015 141.604 168.039 141.631 168.066 141.656C170.399 144.016 171.027 147.584 169.667 150.618L165.339 160.265C163.519 164.32 165.316 169.088 169.348 170.916L182.173 176.726C186.205 178.552 190.944 176.744 192.76 172.692L197.077 163.047C198.436 160.013 201.513 158.121 204.815 158.316C204.856 158.318 204.898 158.32 204.939 158.323C208.374 158.518 211.306 160.884 212.218 164.222L215.189 175.083C216.362 179.373 220.772 181.891 225.036 180.708L238.597 176.946C242.858 175.765 245.36 171.332 244.184 167.046L240.716 154.394C239.87 151.306 240.91 147.994 243.4 145.998C243.985 145.53 244.56 145.049 245.127 144.556C247.476 142.512 250.811 142.072 253.644 143.357L264.804 148.42C268.834 150.248 273.575 148.445 275.393 144.392L281.172 131.502C282.99 127.449 281.195 122.683 277.165 120.855L268.865 117.091C265.635 115.627 263.782 112.206 264.223 108.671C264.554 106.024 264.696 103.375 264.653 100.74C264.601 97.6002 266.328 94.7076 269.132 93.3269ZM237.153 115.259C230.443 130.227 206.331 137.921 191.447 131.173C176.581 124.431 171.863 103.645 178.577 88.6918C185.274 73.73 206.732 70.249 221.616 76.9969C236.494 83.7322 243.863 100.291 237.153 115.259Z" fill="#BED5DC"/>
<path d="M227.381 188.003C223.669 188.003 220.389 185.501 219.403 181.918L216.42 171.075C215.534 167.849 212.683 165.553 209.33 165.362L209.206 165.353C205.982 165.162 202.99 167.004 201.672 169.933L197.337 179.562C196.002 182.528 193.038 184.444 189.785 184.444C188.61 184.444 187.468 184.197 186.39 183.712L173.515 177.911C171.499 177.002 169.957 175.364 169.174 173.294C168.391 171.224 168.46 168.976 169.371 166.96L173.716 157.33C175.037 154.404 174.41 150.917 172.157 148.652L172.078 148.571C170.596 147.074 168.622 146.25 166.521 146.25C165.329 146.25 164.179 146.516 163.106 147.041L152.998 151.986C151.854 152.546 150.631 152.829 149.367 152.829C146.178 152.829 143.326 151.05 141.924 148.187L135.719 135.502C134.747 133.516 134.608 131.269 135.325 129.179C136.043 127.086 137.531 125.4 139.518 124.429L151.285 118.676C154.092 117.304 155.804 114.422 155.647 111.335C155.609 110.584 155.584 109.822 155.578 109.07C155.545 106.079 153.731 103.337 150.955 102.085L139.751 97.0337C135.59 95.1591 133.73 90.2472 135.605 86.0869L141.401 73.2239C142.736 70.2594 145.7 68.3453 148.954 68.3453C150.129 68.3453 151.273 68.5923 152.352 69.0781L160.681 72.8336C161.688 73.2883 162.757 73.5187 163.859 73.5187C166.118 73.5187 168.281 72.5326 169.791 70.8157C171.541 68.8248 173.449 66.9398 175.462 65.2126C177.767 63.2362 178.74 60.091 177.945 57.1971L174.866 46.0011C173.656 41.602 176.251 37.0369 180.65 35.8245L194.261 32.0773C194.981 31.878 195.722 31.7783 196.463 31.7783C200.173 31.7783 203.453 34.2799 204.439 37.861L206.617 45.7727C207.537 49.1131 210.48 51.4112 213.943 51.4922C214.616 51.5067 215.299 51.5358 215.969 51.5752C219.148 51.762 222.123 49.9248 223.443 46.9976L226.514 40.2007C227.851 37.2403 230.813 35.3283 234.062 35.3283C235.237 35.3283 236.379 35.5753 237.458 36.0611L250.325 41.8595C252.341 42.7687 253.884 44.4067 254.666 46.4765C255.449 48.5442 255.381 50.7946 254.471 52.8104L251.409 59.6011C250.087 62.5324 250.699 66.0056 252.931 68.2435C253.408 68.7231 253.884 69.2172 254.345 69.7134C255.812 71.2953 257.893 72.2025 260.052 72.2025C261.231 72.2025 262.414 71.9285 263.475 71.4095L270.849 67.7993C271.995 67.2388 273.216 66.9543 274.482 66.9543C277.673 66.9543 280.523 68.7335 281.925 71.5963L288.123 84.2725C290.129 88.3705 288.425 93.3364 284.329 95.3439L273.905 100.449C271.206 101.769 269.495 104.586 269.543 107.626C269.585 110.277 269.439 112.953 269.109 115.577C268.673 119.04 270.49 122.318 273.629 123.733L281.962 127.491C283.978 128.4 285.518 130.038 286.301 132.108C287.083 134.176 287.015 136.424 286.106 138.44L280.303 151.309C278.968 154.272 276.004 156.186 272.753 156.186C271.578 156.186 270.434 155.939 269.352 155.451L258.148 150.396C257.116 149.931 256.022 149.694 254.893 149.694C253.031 149.694 251.241 150.354 249.854 151.556C249.287 152.046 248.702 152.534 248.112 153.001C245.694 154.928 244.668 158.118 245.499 161.131L248.98 173.761C250.193 178.16 247.602 182.728 243.201 183.942L229.586 187.698C228.866 187.901 228.125 188.003 227.381 188.003ZM208.751 164.857C208.913 164.857 209.073 164.861 209.235 164.872L209.359 164.88C212.92 165.081 215.945 167.521 216.887 170.946L219.87 181.789C220.798 185.163 223.887 187.519 227.381 187.519C228.079 187.519 228.778 187.423 229.459 187.237L243.074 183.481C247.216 182.339 249.657 178.038 248.515 173.896L245.034 161.266C244.151 158.067 245.241 154.676 247.811 152.629C248.395 152.164 248.976 151.683 249.537 151.197C251.013 149.92 252.914 149.219 254.891 149.219C256.088 149.219 257.251 149.47 258.345 149.962L269.549 155.017C270.567 155.476 271.644 155.708 272.751 155.708C275.813 155.708 278.603 153.906 279.861 151.116L285.663 138.247C286.519 136.349 286.585 134.232 285.848 132.284C285.111 130.337 283.66 128.793 281.763 127.937L273.429 124.18C270.095 122.677 268.167 119.197 268.63 115.523C268.958 112.921 269.103 110.268 269.062 107.64C269.01 104.414 270.828 101.425 273.693 100.021L284.117 94.9162C287.976 93.027 289.579 88.3498 287.692 84.4904L281.493 71.8143C280.174 69.1175 277.488 67.4422 274.484 67.4422C273.292 67.4422 272.142 67.71 271.063 68.2373L263.689 71.8475C262.562 72.3997 261.306 72.6904 260.054 72.6904C257.76 72.6904 255.551 71.7271 253.992 70.0476C253.535 69.5556 253.064 69.0656 252.59 68.5902C250.218 66.209 249.568 62.52 250.971 59.408L254.033 52.6174C254.889 50.7178 254.955 48.6003 254.218 46.653C253.481 44.7057 252.028 43.1611 250.13 42.3058L237.263 36.5075C236.248 36.0487 235.171 35.8182 234.066 35.8182C231.006 35.8182 228.216 37.6202 226.958 40.4062L223.887 47.2031C222.484 50.3109 219.326 52.2644 215.945 52.0631C215.28 52.0236 214.603 51.9946 213.937 51.98C210.26 51.8949 207.132 49.4514 206.156 45.9056L203.978 37.9939C203.05 34.6204 199.961 32.2662 196.467 32.2662C195.77 32.2662 195.072 32.3617 194.393 32.5485L180.783 36.2957C176.641 37.4355 174.196 41.7349 175.336 45.8786L178.414 57.0746C179.259 60.1471 178.225 63.4874 175.78 65.5842C173.783 67.2969 171.892 69.1653 170.156 71.1396C168.555 72.9623 166.259 74.0066 163.861 74.0066C162.691 74.0066 161.555 73.7616 160.486 73.28L152.157 69.5244C151.14 69.0656 150.064 68.8331 148.958 68.8331C145.896 68.8331 143.103 70.6372 141.845 73.4274L136.049 86.2904C134.284 90.2078 136.035 94.8332 139.952 96.5978L151.156 101.649C154.104 102.977 156.031 105.89 156.064 109.07C156.072 109.816 156.095 110.571 156.132 111.317C156.299 114.597 154.48 117.659 151.501 119.116L139.734 124.869C137.864 125.784 136.46 127.373 135.785 129.341C135.109 131.311 135.242 133.424 136.155 135.297L142.36 147.981C143.678 150.678 146.365 152.353 149.369 152.353C150.56 152.353 151.711 152.086 152.788 151.558L162.896 146.613C164.019 146.063 165.275 145.772 166.523 145.772C168.755 145.772 170.849 146.648 172.423 148.237L172.502 148.315C174.893 150.722 175.56 154.425 174.159 157.533L169.813 167.164C168.956 169.063 168.892 171.181 169.629 173.128C170.366 175.075 171.819 176.62 173.716 177.475L186.592 183.276C187.607 183.732 188.684 183.965 189.789 183.965C192.853 183.965 195.645 182.161 196.901 179.369L201.236 169.74C202.567 166.773 205.519 164.857 208.751 164.857Z" fill="#436E8E"/>
<path d="M120.167 49.9162C117.46 52.5818 115.807 52.5133 114.763 51.4525C113.719 50.3916 113.677 48.7391 116.384 46.0735C121.315 41.2198 125.589 40.7942 125.589 40.7942C125.589 40.7942 125.17 44.9919 120.167 49.9162Z" fill="#B2C9C6"/>
<path d="M126.017 73.8254C124.316 77.2218 122.732 77.693 121.402 77.0266C120.071 76.3602 119.496 74.8094 121.196 71.4131C124.291 65.2245 128.198 63.4391 128.198 63.4391C128.198 63.4391 129.158 67.5475 126.017 73.8254Z" fill="#B2C9C6"/>
<path d="M140.189 136.314L139.479 136.428C139.462 136.318 137.623 125.315 130.02 110.43C123.007 96.6971 109.511 76.759 85.0517 59.7565L85.4627 59.1669C110.057 76.2629 123.624 96.3193 130.676 110.133C138.32 125.112 140.17 136.204 140.189 136.314Z" fill="#B2C9C6"/>
<path d="M111.072 81.9613L110.389 81.733C118.675 56.9744 103.929 33.1604 103.779 32.9217L104.388 32.5376C104.539 32.7784 119.468 56.8747 111.072 81.9613Z" fill="#B2C9C6"/>
<path d="M97.7256 73.2923C90.6443 75.0756 84.3997 72.8771 84.3291 72.8522L84.5741 72.1754C84.653 72.2045 92.6539 75.0092 100.68 71.5339L100.966 72.1941C99.8785 72.6654 98.7906 73.0245 97.7256 73.2923Z" fill="#B2C9C6"/>
<path d="M83.6092 55.9884C88.1349 58.3862 88.9155 60.1675 88.2201 61.4816C87.5225 62.7978 85.6126 63.1507 81.0848 60.7508C72.8388 56.3808 70.1172 51.8883 70.1172 51.8883C70.1172 51.8883 75.2429 51.5541 83.6092 55.9884Z" fill="#B2C9C6"/>
<path d="M85.6306 70.1281C90.6691 71.0498 91.95 72.5114 91.6822 73.977C91.4144 75.4406 89.6975 76.3541 84.659 75.4323C75.4809 73.7528 71.5303 70.288 71.5303 70.288C71.5303 70.288 76.3176 68.4237 85.6306 70.1281Z" fill="#B2C9C6"/>
<path d="M102.057 60.3918C103.801 63.7674 103.247 65.3244 101.924 66.0074C100.602 66.6904 99.0118 66.2399 97.268 62.8664C94.0917 56.7193 94.9532 52.5112 94.9532 52.5112C94.9532 52.5112 98.8354 54.1554 102.057 60.3918Z" fill="#B2C9C6"/>
<path d="M105.149 29.3444C107.521 33.8826 107.158 35.7925 105.84 36.4839C104.522 37.1731 102.745 36.3821 100.372 31.844C96.0473 23.5752 96.3462 18.3291 96.3462 18.3291C96.3462 18.3291 100.76 20.9553 105.149 29.3444Z" fill="#B2C9C6"/>
<path d="M164.445 183.388C164.445 183.388 91.261 62.7774 59.28 83.8655C27.2989 104.952 126.227 153.819 146.419 189.605L164.445 183.388Z" fill="#B2C9C6"/>
<path d="M121.082 170.738C121.082 170.738 36.8495 81.3927 7.94716 106.826C-20.9551 132.261 80.6742 153.277 104.183 180.12L121.082 170.738Z" fill="#9BBCB6"/>
<path d="M111.676 176.071C95.7775 157.238 72.1629 142.4 55.152 133.27C36.7107 123.372 21.8506 117.866 21.7032 117.81L22.0437 116.886C22.1931 116.94 37.1155 122.471 55.617 132.402C72.7026 141.574 96.4294 156.484 112.427 175.436L111.676 176.071Z" fill="#74A1BD"/>
<path d="M32.8115 196.56C51.7697 200.245 49.237 228.878 70.6303 223.123C92.0237 217.356 90.2113 216.017 100.753 225.141C100.753 225.141 104.972 234.084 113.556 235.405C147.426 240.611 192.511 189.732 156.725 162.974C154.14 161.042 150.424 160.357 146.314 159.8C124.015 156.802 117.307 167.149 99.2461 141.33C81.1786 115.502 58.2116 153.564 43.2788 152.557C28.346 151.55 15.1177 147.359 3.83866 163.396C-7.44449 179.45 13.8513 192.89 32.8115 196.56Z" fill="#CFD3A3"/>
<path d="M146.74 199.51L147.427 198.441C146.956 198.138 99.1701 168.149 1.25687 167.94L1.25479 169.21C98.7985 169.42 146.271 199.209 146.74 199.51Z" fill="#C4C695"/>
<path d="M85.0476 163.01C97.7092 151.118 99.7852 141.847 99.8662 141.458L98.6227 141.195C98.604 141.286 96.5134 150.495 84.1757 162.084L85.0476 163.01Z" fill="#C4C695"/>
<path d="M83.1001 176.759C86.5898 170.29 86.0522 161.087 81.541 150.144C78.1633 141.95 73.6999 135.562 73.6563 135.498L72.6183 136.229C72.7926 136.478 90.0091 161.284 81.9811 176.157L83.1001 176.759Z" fill="#C4C695"/>
<path d="M57.2985 175.096C58.8078 173.778 59.6195 172.925 59.6569 172.885L58.731 172.017C58.5607 172.198 41.4294 190.149 15.5747 189.919L15.5644 191.189C36.3951 191.374 51.6767 180.008 57.2985 175.096Z" fill="#C4C695"/>
<path d="M45.2319 204.731C50.9886 198.028 52.5311 191.418 52.8114 187.054C53.1166 182.304 52.0599 179.173 52.0142 179.04L50.8122 179.454C50.8537 179.574 54.8064 191.627 44.2665 203.903L45.2319 204.731Z" fill="#C4C695"/>
<path d="M78.6843 118.209L228.876 124.103C234.309 124.317 238.967 128.047 240.362 133.304L268.789 240.449L95.2384 242.978L66.2303 133.777C64.0816 125.718 70.3512 117.883 78.6843 118.209Z" fill="#707B8E"/>
<path d="M327.39 247.894H100.17C98.5114 247.894 96.5101 247.441 96.1468 246.368C95.8666 245.539 95.497 243.81 95.2251 242.98C94.7123 241.412 96.4956 239.98 98.9059 239.988L204.179 239.693L328.461 240.854C330.903 240.864 332.644 242.396 331.943 243.918L330.892 246.198C330.429 247.204 329.005 247.894 327.39 247.894Z" fill="#707B8E"/>
<path d="M329.53 247.894H205.609C204.704 247.894 203.612 247.441 203.414 246.368C203.261 245.539 203.059 243.81 202.912 242.98C202.632 241.412 202.864 239.685 204.18 239.693L330.116 240.854C331.446 240.864 332.397 242.396 332.015 243.918L331.442 246.198C331.189 247.204 330.413 247.894 329.53 247.894Z" fill="#515966"/>
<path d="M264.051 239.513L226.255 239.627L183.772 239.758L180.054 239.77L137.755 239.899L124.742 239.936L103.127 240.003L101.117 231.825L76.7655 132.726C76.041 129.779 78.335 126.955 81.366 127.057L133.335 128.811L143.715 129.162H143.717L146.626 129.262L160.398 129.725L162.108 129.785L169.343 130.028L212.649 131.491L224.584 131.894C226.569 131.96 228.446 132.523 230.081 133.48C230.304 133.609 230.524 133.746 230.737 133.889C232.955 135.388 234.651 137.638 235.429 140.339L242.728 165.64L264.051 239.513Z" fill="#F8F8F9"/>
<path d="M159.638 125.402C160.022 126.563 158.861 127.053 158.307 127.053C157.753 127.053 156.65 126.314 156.65 125.402C156.65 124.049 157.753 123.752 158.307 123.752C158.861 123.752 159.351 124.537 159.638 125.402Z" fill="#2F1A31"/>
<path d="M271.322 30.4371C271.322 15.7202 278.323 0.0400391 300.92 0.0400391C315.637 0.0400391 328.238 12.5958 329.719 27.2379C331.518 45.0377 320.719 55.8371 299.444 58.0356C284.806 59.549 271.322 48.8347 271.322 30.4371Z" fill="#06DCFF"/>
<path d="M297.253 54.6309C291.77 54.6309 286.644 52.6961 282.615 49.0609C277.643 44.5747 274.902 37.8899 274.902 30.2377C274.902 25.1618 275.866 17.8999 280.454 12.1224C284.952 6.45902 291.822 3.58789 300.873 3.58789C313.487 3.58789 324.831 14.2877 326.159 27.4372C327.729 42.9658 318.333 52.5777 299.7 54.5043C298.88 54.5894 298.062 54.6309 297.253 54.6309ZM300.873 5.18642C293.545 5.18642 276.503 7.62782 276.503 30.2377C276.503 37.4311 279.054 43.6944 283.686 47.8735C287.969 51.7369 293.599 53.5265 299.536 52.912C308.372 51.9985 315.015 49.3454 319.281 45.0252C323.525 40.7278 325.304 34.8651 324.569 27.597C323.319 15.2406 312.69 5.18642 300.873 5.18642Z" fill="#00A8C8"/>
<path d="M300.752 45.6499L300.472 43.821C300.371 43.1546 299.781 42.6854 299.108 42.7124C297.524 42.7809 295.938 42.567 294.668 42.1415C294.051 41.9359 293.686 41.3027 293.804 40.6633L293.885 40.2211C294.028 39.4489 294.813 38.9797 295.562 39.2122C297.009 39.6606 298.726 39.8599 300.464 39.5921C303.426 39.1375 304.471 36.941 304.097 34.4934C303.736 32.133 302.571 31.0535 299.287 30.2397C294.767 29.1747 290.254 27.8439 289.681 24.1113C289.181 20.8561 290.682 17.2625 295.573 16.3532C296.156 16.2452 296.434 15.5435 296.345 14.956L296.038 12.9527C295.928 12.2385 296.418 11.57 297.134 11.46C297.848 11.35 298.517 11.8399 298.627 12.5541L298.884 14.2253C298.984 14.8771 299.555 15.3588 300.215 15.3339C301.541 15.2861 302.646 15.446 303.568 15.6992C304.228 15.8799 304.63 16.5483 304.493 17.221L304.408 17.6445C304.259 18.3835 303.514 18.8319 302.785 18.6368C301.761 18.3628 300.371 18.1676 298.633 18.4334C295.419 18.9254 294.512 21.0865 294.776 22.8034C295.118 25.0351 297.4 24.9043 301.267 25.8925C305.841 27.0364 308.947 29.1601 309.883 32.9094C310.883 36.9078 308.932 40.109 303.831 41.7117C303.264 41.8903 302.968 42.5214 303.059 43.1089L303.387 45.243C303.497 45.9572 303.007 46.6257 302.291 46.7357L302.249 46.7419C301.531 46.8561 300.863 46.3641 300.752 45.6499Z" fill="#00A8C8"/>
<path d="M308.831 79.0576C312.192 70.465 319.861 62.9103 333.054 68.0713C341.645 71.4324 346.133 81.6422 343.654 90.5276C340.64 101.329 331.869 105.168 318.946 101.593C310.054 99.1327 304.629 89.7989 308.831 79.0576Z" fill="#06DCFF"/>
<path d="M327.407 100.712C325.128 100.712 322.622 100.341 319.902 99.5891C316.018 98.5158 312.919 95.9996 311.171 92.5098C309.292 88.7564 309.219 84.2265 310.967 79.759C312.126 76.7965 314.349 72.7752 318.348 70.4501C322.267 68.1706 326.934 68.0648 332.217 70.1325C339.581 73.014 343.76 81.8495 341.533 89.8318C339.533 96.992 334.617 100.712 327.407 100.712ZM311.902 80.1243C310.257 84.3241 310.318 88.5633 312.068 92.0614C313.685 95.2959 316.562 97.6252 320.17 98.6237C325.537 100.108 330.021 100.077 333.498 98.5282C336.957 96.9878 339.334 93.9714 340.565 89.5619C342.658 82.0633 338.749 73.7655 331.852 71.0667C327.573 69.3934 317.067 66.925 311.902 80.1243Z" fill="#00A8C8"/>
<path d="M322.541 94.6626L322.794 93.5291C322.888 93.1181 322.649 92.707 322.25 92.57C321.31 92.2482 320.432 91.7603 319.788 91.2226C319.475 90.9611 319.406 90.5085 319.622 90.1639L319.772 89.9251C320.031 89.5079 320.596 89.4124 320.982 89.7196C321.725 90.3113 322.68 90.8199 323.755 91.0607C325.589 91.4718 326.701 90.4275 327.04 88.9141C327.368 87.4526 326.936 86.5578 325.202 85.333C322.807 83.6805 320.475 81.8723 320.994 79.5617C321.447 77.5479 323.143 75.7916 326.205 76.3791C326.57 76.4497 326.892 76.103 326.975 75.7397L327.253 74.5003C327.353 74.0581 327.791 73.78 328.233 73.8796C328.676 73.9793 328.954 74.4173 328.854 74.8595L328.622 75.8933C328.53 76.2961 328.754 76.7071 329.145 76.8442C329.929 77.1182 330.538 77.4649 331.019 77.822C331.364 78.0794 331.445 78.561 331.212 78.9222L331.065 79.1506C330.808 79.5471 330.272 79.6385 329.89 79.3582C329.354 78.9638 328.586 78.534 327.513 78.2911C325.524 77.8448 324.503 78.8994 324.264 79.9603C323.955 81.3408 325.317 81.7871 327.349 83.2466C329.759 84.9593 331.086 86.9087 330.776 89.3106C330.446 91.8745 328.578 93.2966 325.234 93.0682C324.862 93.0433 324.544 93.3443 324.463 93.7076L324.166 95.028C324.067 95.4702 323.629 95.7484 323.187 95.6487L323.162 95.6425C322.719 95.5428 322.441 95.1048 322.541 94.6626Z" fill="#00A8C8"/>
<path d="M312.492 266.11V262.301L368.227 261.956L368.148 266.11H312.492Z" fill="#1F7280"/>
<path d="M314.676 262.195C319.748 257.974 331.317 254.265 351.222 256.799C364.185 258.45 370.957 263.465 367.216 267.829C362.667 273.136 349.433 275.021 329.937 273.264C316.522 272.056 308.336 267.47 314.676 262.195Z" fill="#1F7280"/>
<path d="M314.676 258.527C319.748 254.306 331.317 250.596 351.222 253.131C364.185 254.782 370.957 259.797 367.216 264.161C362.667 269.467 349.433 271.352 329.937 269.596C316.522 268.386 308.336 263.802 314.676 258.527Z" fill="#00A8C8"/>
<path d="M342.696 269.349C339.308 269.349 335.583 269.166 331.544 268.803C323.138 268.045 317.352 265.768 316.447 262.859C316.146 261.894 316.229 260.376 318.33 258.628C321.051 256.363 329.561 251.373 349.74 253.943C357.591 254.943 363.195 257.449 364.365 260.486C364.83 261.69 364.569 262.917 363.614 264.032C361.623 266.353 357.805 267.939 352.264 268.741C349.468 269.148 346.271 269.349 342.696 269.349ZM339.244 254.096C335.706 254.096 332.449 254.377 329.492 254.935C323.74 256.025 320.545 257.906 318.88 259.293C317.487 260.451 316.945 261.564 317.269 262.602C318.058 265.133 323.69 267.229 331.62 267.943C348.085 269.426 359.213 267.838 362.958 263.47C363.705 262.598 363.907 261.699 363.558 260.796C362.518 258.099 357.052 255.745 349.63 254.798C345.949 254.331 342.48 254.096 339.244 254.096Z" fill="#06DCFF"/>
<path d="M335.357 266.189L335.741 265.633C335.88 265.429 335.523 265.23 334.921 265.162C333.501 265.004 332.179 264.765 331.207 264.499C330.736 264.371 330.632 264.149 330.956 263.978L331.18 263.86C331.572 263.654 332.426 263.609 333.005 263.758C334.126 264.049 335.569 264.298 337.19 264.416C339.955 264.618 341.633 264.105 342.146 263.362C342.64 262.643 341.988 262.205 339.374 261.603C335.76 260.792 332.243 259.903 333.026 258.768C333.707 257.777 336.266 256.916 340.888 257.204C341.44 257.24 341.926 257.069 342.048 256.891L342.467 256.283C342.617 256.065 343.279 255.93 343.946 255.977C344.612 256.025 345.031 256.241 344.882 256.459L344.531 256.968C344.394 257.167 344.732 257.368 345.322 257.435C346.507 257.57 347.425 257.74 348.149 257.916C348.668 258.043 348.793 258.28 348.442 258.456L348.22 258.568C347.834 258.763 347.022 258.809 346.447 258.67C345.64 258.477 344.481 258.265 342.86 258.147C339.86 257.927 338.317 258.446 337.956 258.967C337.489 259.646 339.544 259.864 342.611 260.58C346.246 261.421 348.249 262.378 347.782 263.559C347.284 264.819 344.465 265.517 339.418 265.405C338.857 265.392 338.378 265.539 338.255 265.718L337.809 266.366C337.659 266.584 336.997 266.719 336.331 266.671L336.291 266.669C335.627 266.623 335.208 266.407 335.357 266.189Z" fill="#06DCFF"/>
<path d="M232.625 263.302V260.802L269.184 260.576L269.132 263.302H232.625Z" fill="#1F7280"/>
<path d="M234.058 260.734C237.384 257.966 244.974 255.531 258.03 257.194C266.534 258.278 270.974 261.566 268.52 264.429C265.537 267.908 256.855 269.146 244.067 267.993C235.267 267.2 229.898 264.194 234.058 260.734Z" fill="#1F7280"/>
<path d="M234.058 258.326C237.384 255.558 244.974 253.123 258.03 254.786C266.534 255.87 270.974 259.158 268.52 262.021C265.537 265.5 256.855 266.738 244.067 265.586C235.267 264.795 229.898 261.786 234.058 258.326Z" fill="#00A8C8"/>
<path d="M252.357 265.42C250.157 265.42 247.74 265.303 245.122 265.067C239.609 264.57 235.814 263.076 235.22 261.168C235.023 260.535 235.077 259.54 236.455 258.392C238.24 256.906 243.823 253.634 257.057 255.32C262.208 255.976 265.883 257.62 266.651 259.611C266.956 260.402 266.786 261.205 266.159 261.936C264.195 264.23 259.391 265.42 252.357 265.42ZM236.636 258.612L236.816 258.83C235.903 259.59 235.548 260.321 235.76 261.002C236.277 262.663 239.972 264.037 245.172 264.506C255.972 265.478 263.271 264.436 265.727 261.573C266.217 261.002 266.35 260.412 266.121 259.818C265.44 258.05 261.853 256.505 256.985 255.884C251.932 255.241 247.489 255.27 243.777 255.974C240.003 256.688 237.908 257.921 236.816 258.83L236.636 258.612Z" fill="#06DCFF"/>
<path d="M247.624 263.354L247.875 262.988C247.967 262.856 247.732 262.725 247.338 262.679C246.408 262.575 245.538 262.418 244.903 262.245C244.593 262.16 244.525 262.015 244.736 261.905L244.884 261.828C245.141 261.693 245.7 261.662 246.082 261.762C246.817 261.953 247.763 262.117 248.828 262.193C250.643 262.326 251.743 261.99 252.079 261.502C252.403 261.031 251.976 260.742 250.261 260.348C247.89 259.814 245.583 259.233 246.096 258.488C246.543 257.84 248.222 257.273 251.253 257.462C251.614 257.485 251.934 257.373 252.015 257.257L252.291 256.856C252.389 256.713 252.825 256.623 253.261 256.657C253.699 256.688 253.973 256.831 253.875 256.972L253.645 257.304C253.555 257.435 253.775 257.566 254.164 257.612C254.94 257.701 255.542 257.811 256.018 257.927C256.358 258.01 256.439 258.166 256.209 258.282L256.063 258.355C255.81 258.483 255.278 258.513 254.901 258.421C254.371 258.295 253.611 258.155 252.549 258.079C250.58 257.935 249.569 258.274 249.333 258.616C249.026 259.061 250.375 259.204 252.385 259.675C254.77 260.227 256.082 260.854 255.777 261.629C255.451 262.455 253.601 262.914 250.29 262.839C249.922 262.831 249.607 262.928 249.528 263.044L249.235 263.47C249.138 263.613 248.702 263.703 248.266 263.669L248.241 263.667C247.801 263.638 247.527 263.497 247.624 263.354Z" fill="#06DCFF"/>
<path d="M295.966 128.381C295.503 123.229 297.463 117.519 305.372 116.809C310.525 116.346 315.331 120.347 316.309 125.427C317.498 131.601 314.056 135.722 306.678 137.161C301.6 138.149 296.543 134.821 295.966 128.381Z" fill="#06DCFF"/>
<path d="M305.084 136.069C303.423 136.069 301.837 135.548 300.504 134.547C298.621 133.134 297.452 130.879 297.214 128.199C297.054 126.422 297.164 123.85 298.588 121.682C299.985 119.559 302.3 118.338 305.468 118.053C309.883 117.659 314.191 121.047 315.069 125.61C316.107 130.997 313.118 134.657 306.655 135.918C306.13 136.019 305.603 136.069 305.084 136.069ZM297.774 128.149C298 130.667 299.09 132.781 300.842 134.097C302.464 135.316 304.49 135.764 306.549 135.363C312.744 134.155 315.501 130.819 314.517 125.714C313.691 121.427 309.653 118.238 305.518 118.612C302.954 118.842 297.064 120.233 297.774 128.149Z" fill="#00A8C8"/>
<path d="M306.748 132.783L306.592 132.151C306.536 131.921 306.314 131.776 306.079 131.807C305.527 131.879 304.965 131.855 304.508 131.747C304.286 131.695 304.138 131.483 304.159 131.257L304.174 131.099C304.199 130.825 304.46 130.636 304.73 130.692C305.251 130.804 305.857 130.819 306.457 130.671C307.481 130.42 307.778 129.617 307.568 128.772C307.367 127.956 306.926 127.615 305.749 127.433C304.134 127.202 302.511 126.878 302.193 125.589C301.917 124.466 302.328 123.16 304.012 122.687C304.213 122.631 304.288 122.375 304.238 122.174L304.068 121.483C304.008 121.236 304.157 120.987 304.404 120.926C304.651 120.866 304.9 121.016 304.96 121.263L305.102 121.84C305.158 122.064 305.372 122.216 305.602 122.187C306.065 122.128 306.457 122.149 306.787 122.209C307.024 122.253 307.186 122.473 307.159 122.712L307.142 122.863C307.113 123.127 306.866 123.308 306.605 123.262C306.237 123.198 305.743 123.175 305.145 123.322C304.037 123.596 303.785 124.381 303.933 124.973C304.124 125.743 304.917 125.627 306.302 125.851C307.94 126.108 309.092 126.754 309.538 128.037C310.014 129.405 309.432 130.588 307.697 131.309C307.504 131.39 307.421 131.62 307.47 131.821L307.651 132.558C307.711 132.805 307.562 133.054 307.315 133.115L307.3 133.119C307.057 133.181 306.808 133.03 306.748 132.783Z" fill="#00A8C8"/>
<path d="M309.198 177.646C288.552 167.066 259.83 149.821 240.256 127.751C235.72 122.637 234.063 120.595 231.85 117.105C230.069 114.296 223.34 115.587 218.744 119.889C214.43 123.927 211.92 131.799 212.67 133.476C213.944 136.331 217.054 140.034 222.018 145.845C239.263 166.034 266.989 184.957 302.138 201.528L309.198 177.646Z" fill="#F7B686"/>
<path d="M232.626 192.649C232.626 192.649 232.539 194.929 232.13 199.429C231.75 203.93 231.019 210.652 229.763 219.538C229.676 220.152 229.589 220.794 229.499 221.466C229.323 222.548 229.177 223.688 229.003 224.856C229.003 224.856 228.974 224.886 228.974 224.915L228.945 225.118C228.301 229.503 227.512 234.354 226.547 239.644L137.984 239.966L139.093 229.222L140.148 221.757L140.615 217.927L140.76 216.787L143.303 195.537L190.742 189.575C190.742 189.575 190.626 192.41 190.099 197.964L232.626 192.649Z" fill="#436E8E"/>
<path d="M137.038 218.321C136.878 221.888 158.309 224.815 184.994 225.855C211.679 226.895 233.216 224.707 233.376 221.14C233.535 217.574 212.256 213.978 185.571 212.938C158.886 211.898 137.198 214.754 137.038 218.321Z" fill="#2F1A31"/>
<path d="M150.638 117.983C150.638 117.983 156.656 99.6517 191.41 101.902C241.528 105.149 233.655 150.855 233.377 221.138C233.377 221.138 184.52 210.694 137.077 217.443C137.075 217.443 137.756 145.733 150.638 117.983Z" fill="#E28569"/>
<path d="M138.002 114.406L159.81 128.554C159.81 128.554 209.174 136.555 222.514 135.309C235.855 134.064 240.154 124.632 240.154 124.632C240.154 124.632 227.129 109.112 203.525 103.555C201.308 103.029 199.001 102.595 196.599 102.269C192.568 101.723 188.509 101.493 184.515 101.661C154.014 102.946 138.002 114.406 138.002 114.406Z" fill="#E28569"/>
<path d="M186.932 97.2977L190.15 89.0185L191.086 86.6083L196.592 72.4374L196.171 86.8906L195.915 95.5642L195.834 98.3108C195.78 100.175 196.885 100.644 198.151 102.357C198.664 103.05 201.959 107.269 197.777 108.778C192.567 110.657 183.355 106.611 180.075 101.929C180.102 101.923 185.892 99.9716 186.932 97.2977Z" fill="#F7B686"/>
<path d="M228.98 223.725C228.98 223.725 200.726 213.21 140.156 220.665L139.091 229.228L226.464 238.477L228.98 223.725Z" fill="#436E8E"/>
<path d="M209.555 219.677C209.555 219.677 196.806 218.464 191.137 228.587C191.137 228.587 194.629 218.329 189.246 218.116C187.018 218.026 191.569 216.839 191.569 216.839L209.555 219.677Z" fill="#2F1A31"/>
<path d="M137.474 114.915C135.033 117.912 138.55 124.933 145.332 130.595C152.114 136.256 159.592 138.417 162.034 135.419C164.475 132.422 160.958 125.4 154.176 119.739C147.394 114.078 139.916 111.917 137.474 114.915Z" fill="#2F1A31"/>
<path d="M160.256 135.638C160 136.003 159.755 136.358 159.519 136.705C157.217 140.086 155.668 142.931 152.342 149.499C146.996 160.049 142.458 171.623 138.611 183.417C132.265 202.869 127.804 222.913 124.739 239.932L103.124 239.999L101.114 231.822C107.581 191.372 117.104 159.545 130.203 134.689C131.351 132.513 132.385 130.556 133.332 128.81C135.041 125.652 136.463 123.181 137.739 121.332C138.36 120.437 138.943 119.69 139.51 119.081C140.067 118.483 141.692 118.126 143.766 118.143C145.659 118.158 147.926 118.481 150.087 119.21C151.516 119.69 152.896 120.348 154.096 121.211C156.729 123.101 158.801 125.874 159.957 128.577C160.121 128.961 160.266 129.343 160.393 129.723C161.184 132.077 161.217 134.267 160.256 135.638Z" fill="#F7B686"/>
<path d="M208.523 67.8062C208.523 67.8062 209.192 71.3769 207.969 75.7095C206.744 80.0422 203.032 68.921 203.032 68.921L208.523 67.8062Z" fill="#56335B"/>
<path d="M208.411 77.015C207.892 68.4348 201.703 61.8289 194.588 62.2607C187.474 62.6905 182.126 69.9939 182.645 78.5741C183.164 87.1542 189.353 93.7601 196.467 93.3283C203.582 92.8986 208.93 85.5952 208.411 77.015Z" fill="#F7B686"/>
<path d="M182.634 74.1067L188.912 73.897C190.293 73.8513 191.596 73.2036 192.421 72.095C193.839 70.1871 195.447 69.2675 201.244 69.8944C208.587 70.6875 213.754 66.6413 214.821 62.8443C215.909 58.9704 212.33 56.0412 208.499 57.6542C204.671 59.2694 206.581 54.7831 203.06 54.0461C196.479 52.6676 194.877 57.702 189.448 57.1539C182.331 56.4356 169.173 60.9572 174.351 73.9385L182.634 74.1067Z" fill="#2F1A31"/>
<path d="M196.25 77.1918C196.321 77.1545 196.373 77.086 196.385 77.0008C196.408 76.8576 196.31 76.7247 196.167 76.7019C196.084 76.6894 194.164 76.2037 193.038 78.2029C192.968 78.3295 193.007 78.4873 193.132 78.562C193.256 78.6347 193.391 78.5745 193.491 78.4686C194.479 77.4098 196.02 77.2084 196.088 77.2188C196.146 77.2292 196.202 77.2188 196.25 77.1918Z" fill="#060633"/>
<path d="M194.882 80.4612C195.004 81.0736 195.463 81.4992 195.908 81.4099C196.352 81.3227 196.613 80.7539 196.493 80.1415C196.37 79.529 195.912 79.1035 195.467 79.1927C195.021 79.2799 194.762 79.8488 194.882 80.4612Z" fill="#060633"/>
<path d="M205.961 77.0963C206.021 77.0901 206.08 77.0486 206.111 76.9759C206.167 76.8534 206.131 76.6936 206.034 76.6168C205.976 76.5711 204.716 75.3587 203.352 76.733C203.267 76.8202 203.25 76.9801 203.321 77.0984C203.391 77.2147 203.505 77.2147 203.607 77.1565C204.614 76.5856 205.787 77.0195 205.835 77.059C205.874 77.088 205.918 77.1005 205.961 77.0963Z" fill="#060633"/>
<path d="M203.393 79.604C203.272 80.2164 203.534 80.7832 203.978 80.8724C204.422 80.9596 204.881 80.534 205.001 79.9216C205.122 79.3092 204.86 78.7424 204.416 78.6532C203.97 78.566 203.513 78.9916 203.393 79.604Z" fill="#060633"/>
<path d="M174.351 73.9405C174.351 73.9405 178 83.5297 184.056 84.6403C184.056 84.6403 179.617 77.2165 190.323 73.6333C190.323 73.6312 180.88 71.4597 174.351 73.9405Z" fill="#56335B"/>
<path d="M182.596 79.6702C183.843 80.592 185.521 80.4363 186.345 79.3215C187.169 78.2067 186.827 76.5562 185.579 75.6345C184.331 74.7127 182.654 74.8684 181.83 75.9832C181.006 77.096 181.348 78.7464 182.596 79.6702Z" fill="#F7B686"/>
<path d="M190.325 73.6311C190.325 73.6311 188.945 81.3663 190.427 82.9503C191.909 84.5343 202.339 85.9045 207.361 84.36C207.091 89.3715 203.253 93.5422 198.258 94.0238C196.605 94.1837 194.915 94.0674 193.259 93.6564C189.879 92.8176 186.651 91.1693 185.463 87.8954C185.102 86.8989 186.769 81.0446 186.769 81.0446C186.769 81.0446 187.483 77.5901 185.582 75.6324C185.58 75.6345 188.071 73.6934 190.325 73.6311Z" fill="#56335B"/>
<path d="M204.582 86.9906C204.582 86.9906 200.492 87.794 196.137 87.0633C196.137 87.0633 196.494 91.1696 200.988 90.6714C203.602 90.3828 204.582 86.9906 204.582 86.9906Z" fill="white"/>
<path d="M207.86 56.9943C205.824 56.9133 205.765 55.1736 205.765 55.157L206.118 55.1487L205.942 55.1528L206.118 55.1487C206.12 55.2068 206.176 56.5749 207.875 56.6413L207.86 56.9943Z" fill="#2F1A31"/>
<path d="M203.477 67.9781L203.439 67.8058C203.52 67.7892 211.515 66.0162 212.123 62.0075C212.296 60.874 212.159 60.1038 211.702 59.6533C210.973 58.9308 209.537 59.1612 208.268 59.3647C208.073 59.3958 207.882 59.427 207.699 59.4519L207.675 59.2775C207.857 59.2505 208.046 59.2214 208.239 59.1903C209.549 58.9806 211.031 58.7419 211.824 59.5287C212.323 60.0228 212.476 60.8428 212.296 62.0344C212.036 63.7492 210.425 65.3208 207.635 66.5809C205.542 67.5276 203.498 67.9739 203.477 67.9781Z" fill="white"/>
<path d="M189.73 58.7567C188.678 58.7567 187.53 58.6487 186.286 58.3892L186.322 58.2169C190.278 59.037 193.22 58.3124 194.991 57.5588C196.911 56.743 197.908 55.7195 197.918 55.7091L198.045 55.8316C198.014 55.8669 195.165 58.7567 189.73 58.7567Z" fill="white"/>
<path d="M120.046 186.385C119.819 186.385 119.595 186.361 119.371 186.307C117.206 185.792 116.033 182.894 116.757 179.844C117.482 176.796 119.834 174.737 121.999 175.252C124.164 175.767 125.337 178.665 124.613 181.712C123.963 184.446 122.003 186.385 120.046 186.385ZM117.795 180.091C117.216 182.524 118.051 184.895 119.618 185.269C121.183 185.64 122.998 183.9 123.575 181.467C124.154 179.034 123.319 176.663 121.752 176.29C120.187 175.918 118.374 177.658 117.795 180.091Z" fill="#E08B65"/>
<path d="M336.953 186.389C337.096 186.377 337.624 185.934 338.94 186.134C343.939 184.352 342.901 181.002 330.868 178.49C326.596 177.597 319.029 175.033 313.467 175.403C309.618 175.66 306.73 176.364 306.73 176.364C304.621 176.113 291.289 196.092 291.625 196.387C303.976 205.322 324.769 212.916 328.196 211.662C331.645 210.4 332.425 211.76 335.114 210.4C337.972 208.953 339.708 207.355 341.726 206.009C343.744 204.664 345.413 199.584 344.908 197.222C344.402 194.859 336.395 188.54 336.953 186.389Z" fill="#F7B686"/>
<path d="M296.314 196.439V192.399L355.406 192.034L355.321 196.439H296.314Z" fill="#1F7280"/>
<path d="M298.63 192.287C304.007 187.813 316.272 183.879 337.377 186.565C351.12 188.315 358.299 193.632 354.334 198.259C349.511 203.885 335.482 205.883 314.811 204.02C300.586 202.739 291.908 197.88 298.63 192.287Z" fill="#1F7280"/>
<path d="M298.63 188.396C304.007 183.923 316.272 179.989 337.377 182.675C351.12 184.425 358.299 189.742 354.334 194.369C349.511 199.995 335.482 201.992 314.811 200.132C300.586 198.849 291.908 193.989 298.63 188.396Z" fill="#00A8C8"/>
<path d="M328.335 199.871C324.744 199.871 320.795 199.678 316.51 199.291C307.598 198.488 301.465 196.074 300.504 192.989C299.927 191.135 301.27 189.526 302.499 188.504C305.385 186.102 314.407 180.811 335.801 183.537C344.125 184.597 350.065 187.255 351.306 190.475C351.798 191.751 351.522 193.053 350.509 194.234C348.4 196.696 344.35 198.376 338.477 199.227C335.516 199.657 332.124 199.871 328.335 199.871ZM303.087 189.208C301.611 190.437 301.036 191.616 301.38 192.717C302.217 195.399 308.19 197.622 316.595 198.38C334.051 199.952 345.849 198.268 349.818 193.638C350.609 192.715 350.823 191.762 350.455 190.805C349.353 187.944 343.557 185.449 335.689 184.446C327.524 183.406 320.341 183.454 314.341 184.591C308.239 185.745 304.853 187.738 303.087 189.208Z" fill="#06DCFF"/>
<path d="M296.314 191.988V187.948L355.406 187.583L355.321 191.988H296.314Z" fill="#1F7280"/>
<path d="M298.63 187.836C304.007 183.362 316.272 179.428 337.377 182.115C351.12 183.865 358.299 189.181 354.334 193.809C349.511 199.435 335.482 201.432 314.811 199.572C300.586 198.291 291.908 193.429 298.63 187.836Z" fill="#1F7280"/>
<path d="M298.63 183.946C304.007 179.472 316.272 175.538 337.377 178.224C351.12 179.974 358.299 185.291 354.334 189.918C349.511 195.544 335.482 197.542 314.811 195.681C300.586 194.401 291.908 189.539 298.63 183.946Z" fill="#00A8C8"/>
<path d="M328.337 195.42C324.746 195.42 320.797 195.227 316.514 194.841C307.602 194.037 301.469 191.623 300.508 188.538C299.931 186.684 301.274 185.075 302.503 184.054C305.389 181.652 314.411 176.36 335.805 179.086C344.129 180.147 350.069 182.804 351.31 186.024C351.802 187.301 351.526 188.602 350.513 189.784C348.404 192.246 344.354 193.925 338.481 194.776C335.516 195.206 332.126 195.42 328.337 195.42ZM324.679 179.25C320.93 179.25 317.473 179.547 314.341 180.14C308.241 181.295 304.855 183.29 303.089 184.76C301.613 185.987 301.038 187.168 301.382 188.268C302.219 190.952 308.192 193.174 316.597 193.931C334.052 195.503 345.85 193.819 349.82 189.19C350.611 188.266 350.825 187.313 350.457 186.356C349.355 183.495 343.559 181 335.69 179.997C331.788 179.499 328.109 179.25 324.679 179.25Z" fill="#06DCFF"/>
<path d="M296.314 185.824V181.785L355.406 181.419L355.321 185.824H296.314Z" fill="#1F7280"/>
<path d="M298.63 181.672C304.007 177.199 316.272 173.264 337.377 175.951C351.12 177.701 358.299 183.018 354.334 187.645C349.511 193.271 335.482 195.268 314.811 193.408C300.586 192.125 291.908 187.265 298.63 181.672Z" fill="#1F7280"/>
<path d="M298.63 177.782C304.007 173.308 316.272 169.374 337.377 172.06C351.12 173.81 358.299 179.127 354.334 183.755C349.511 189.378 335.482 191.378 314.811 189.515C300.586 188.235 291.908 183.375 298.63 177.782Z" fill="#00A8C8"/>
<path d="M328.335 189.256C324.744 189.256 320.795 189.063 316.51 188.677C307.598 187.874 301.465 185.459 300.504 182.374C299.927 180.52 301.27 178.911 302.499 177.89C305.385 175.488 314.407 170.196 335.801 172.922C344.125 173.983 350.065 176.64 351.306 179.86C351.798 181.137 351.522 182.439 350.509 183.62C348.4 186.082 344.35 187.762 338.477 188.613C335.516 189.042 332.124 189.256 328.335 189.256ZM324.677 173.086C320.928 173.086 317.474 173.383 314.339 173.977C308.239 175.131 304.853 177.126 303.087 178.596C301.611 179.823 301.036 181.004 301.38 182.104C302.217 184.787 308.19 187.01 316.595 187.768C334.051 189.339 345.849 187.656 349.818 183.026C350.609 182.102 350.823 181.149 350.455 180.192C349.353 177.332 343.557 174.836 335.689 173.834C331.786 173.333 328.107 173.086 324.677 173.086Z" fill="#06DCFF"/>
<path d="M297.014 178.264V174.226L356.105 173.859L356.02 178.264H297.014Z" fill="#1F7280"/>
<path d="M299.329 174.112C304.706 169.638 316.971 165.704 338.076 168.39C351.819 170.14 359 175.457 355.033 180.084C350.21 185.71 336.18 187.707 315.51 185.847C301.287 184.566 292.607 179.704 299.329 174.112Z" fill="#1F7280"/>
<path d="M299.329 170.221C304.706 165.747 316.971 161.811 338.076 164.5C351.819 166.25 359 171.567 355.033 176.194C350.21 181.82 336.18 183.817 315.51 181.957C301.287 180.676 292.607 175.814 299.329 170.221Z" fill="#00A8C8"/>
<path d="M329.036 181.695C325.445 181.695 321.496 181.502 317.211 181.116C308.299 180.313 302.167 177.898 301.205 174.813C300.628 172.959 301.971 171.351 303.2 170.329C306.086 167.927 315.108 162.635 336.502 165.361C344.827 166.422 350.766 169.079 352.008 172.299C352.5 173.576 352.223 174.878 351.21 176.059C349.101 178.521 345.051 180.201 339.178 181.052C336.215 181.482 332.825 181.695 329.036 181.695ZM303.788 171.035C302.312 172.264 301.737 173.443 302.081 174.543C302.918 177.226 308.891 179.449 317.297 180.207C334.752 181.778 346.55 180.095 350.519 175.465C351.31 174.541 351.524 173.588 351.156 172.631C350.054 169.771 344.258 167.275 336.39 166.273C328.225 165.233 321.042 165.28 315.042 166.418C308.939 167.57 305.553 169.565 303.788 171.035Z" fill="#06DCFF"/>
<path d="M321.258 178.346L321.664 177.757C321.812 177.543 321.434 177.329 320.795 177.256C319.29 177.088 317.886 176.835 316.856 176.555C316.356 176.42 316.246 176.183 316.589 176.002L316.825 175.878C317.24 175.66 318.146 175.61 318.76 175.77C319.948 176.079 321.478 176.343 323.199 176.469C326.132 176.683 327.909 176.139 328.453 175.351C328.978 174.591 328.285 174.124 325.515 173.484C321.683 172.623 317.955 171.682 318.785 170.478C319.508 169.43 322.221 168.514 327.12 168.821C327.706 168.859 328.221 168.678 328.351 168.489L328.796 167.844C328.953 167.613 329.657 167.468 330.363 167.52C331.071 167.572 331.515 167.8 331.357 168.03L330.986 168.568C330.84 168.778 331.2 168.992 331.822 169.064C333.078 169.208 334.052 169.388 334.82 169.575C335.37 169.708 335.503 169.959 335.13 170.148L334.895 170.266C334.484 170.474 333.626 170.52 333.016 170.374C332.161 170.169 330.932 169.945 329.213 169.82C326.032 169.588 324.397 170.136 324.015 170.69C323.518 171.408 325.698 171.641 328.947 172.401C332.8 173.291 334.924 174.306 334.43 175.558C333.903 176.893 330.913 177.634 325.561 177.514C324.967 177.501 324.459 177.657 324.328 177.846L323.855 178.533C323.697 178.763 322.993 178.909 322.287 178.857L322.246 178.855C321.544 178.805 321.1 178.577 321.258 178.346Z" fill="#06DCFF"/>
<path d="M297.656 171.263V167.225L356.748 166.86L356.663 171.263H297.656Z" fill="#1F7280"/>
<path d="M299.973 167.111C305.35 162.637 317.615 158.703 338.72 161.39C352.463 163.14 359.642 168.456 355.676 173.084C350.854 178.71 336.824 180.707 316.153 178.847C301.928 177.566 293.251 172.706 299.973 167.111Z" fill="#1F7280"/>
<path d="M299.973 163.221C305.35 158.747 317.615 154.813 338.72 157.499C352.463 159.249 359.642 164.566 355.676 169.194C350.854 174.82 336.824 176.817 316.153 174.957C301.928 173.676 293.251 168.816 299.973 163.221Z" fill="#00A8C8"/>
<path d="M329.677 174.697C326.085 174.697 322.137 174.504 317.852 174.118C308.94 173.314 302.807 170.9 301.846 167.815C301.269 165.961 302.612 164.352 303.841 163.331C306.726 160.929 315.749 155.637 337.142 158.363C345.467 159.424 351.409 162.081 352.648 165.301C353.14 166.577 352.864 167.879 351.851 169.06C349.742 171.523 345.691 173.202 339.818 174.053C336.858 174.481 333.468 174.697 329.677 174.697ZM326.019 158.527C322.27 158.527 318.815 158.824 315.68 159.417C309.579 160.572 306.195 162.567 304.428 164.036C302.952 165.263 302.377 166.445 302.722 167.545C303.558 170.227 309.529 172.451 317.937 173.208C335.392 174.78 347.19 173.096 351.159 168.467C351.95 167.543 352.164 166.59 351.797 165.633C350.694 162.772 344.898 160.277 337.03 159.274C333.127 158.774 329.448 158.527 326.019 158.527Z" fill="#06DCFF"/>
<path d="M321.901 171.348L322.308 170.759C322.456 170.545 322.078 170.331 321.438 170.261C319.933 170.092 318.53 169.839 317.5 169.559C317 169.424 316.89 169.187 317.235 169.007L317.471 168.882C317.886 168.664 318.792 168.614 319.406 168.774C320.594 169.083 322.124 169.347 323.845 169.474C326.778 169.688 328.555 169.144 329.099 168.355C329.624 167.595 328.933 167.128 326.161 166.491C322.329 165.629 318.601 164.689 319.431 163.484C320.153 162.436 322.867 161.521 327.766 161.828C328.352 161.865 328.866 161.685 328.997 161.496L329.441 160.85C329.599 160.62 330.303 160.474 331.009 160.526C331.717 160.578 332.161 160.806 332.001 161.037L331.63 161.575C331.484 161.784 331.843 162 332.466 162.071C333.722 162.214 334.696 162.395 335.464 162.581C336.014 162.714 336.147 162.965 335.773 163.154L335.539 163.273C335.128 163.48 334.27 163.526 333.66 163.381C332.805 163.175 331.576 162.951 329.857 162.826C326.676 162.594 325.04 163.142 324.658 163.696C324.162 164.415 326.342 164.647 329.591 165.407C333.444 166.297 335.568 167.313 335.074 168.564C334.546 169.899 331.557 170.64 326.205 170.52C325.611 170.508 325.103 170.663 324.972 170.852L324.498 171.539C324.341 171.77 323.637 171.915 322.931 171.863L322.89 171.861C322.188 171.807 321.742 171.579 321.901 171.348Z" fill="#06DCFF"/>
<path d="M311.354 162.471V158.434L370.445 158.068L370.36 162.471H311.354Z" fill="#1F7280"/>
<path d="M313.671 158.319C319.048 153.846 331.313 149.911 352.418 152.598C366.161 154.348 373.34 159.665 369.375 164.292C364.552 169.918 350.523 171.915 329.852 170.055C315.627 168.774 306.949 163.914 313.671 158.319Z" fill="#1F7280"/>
<path d="M313.671 154.431C319.048 149.957 331.313 146.023 352.418 148.709C366.161 150.459 373.34 155.776 369.375 160.403C364.552 166.027 350.523 168.026 329.852 166.164C315.627 164.883 306.949 160.023 313.671 154.431Z" fill="#00A8C8"/>
<path d="M343.374 165.905C339.783 165.905 335.834 165.712 331.549 165.326C322.637 164.522 316.504 162.108 315.543 159.023C314.966 157.169 316.309 155.56 317.538 154.539C320.424 152.137 329.446 146.845 350.84 149.571C359.165 150.632 365.106 153.289 366.345 156.509C366.837 157.786 366.561 159.087 365.548 160.268C363.439 162.731 359.389 164.41 353.516 165.261C350.555 165.689 347.165 165.905 343.374 165.905ZM339.716 149.735C335.967 149.735 332.513 150.032 329.378 150.625C323.278 151.78 319.893 153.775 318.126 155.244C316.65 156.471 316.075 157.653 316.419 158.753C317.256 161.437 323.227 163.659 331.634 164.416C349.09 165.988 360.888 164.304 364.857 159.675C365.648 158.751 365.862 157.798 365.494 156.841C364.392 153.98 358.596 151.485 350.728 150.482C346.825 149.982 343.148 149.735 339.716 149.735Z" fill="#06DCFF"/>
<path d="M302.169 156.673V152.634L361.261 152.268L361.176 156.673H302.169Z" fill="#1F7280"/>
<path d="M304.485 152.521C309.862 148.047 322.127 144.113 343.231 146.8C356.975 148.55 364.153 153.866 360.188 158.494C355.366 164.12 341.336 166.117 320.665 164.257C306.44 162.974 297.762 158.114 304.485 152.521Z" fill="#1F7280"/>
<path d="M304.486 148.631C309.862 144.157 322.128 140.221 343.232 142.909C356.976 144.659 364.154 149.976 360.189 154.603C355.367 160.229 341.337 162.227 320.666 160.366C306.441 159.086 297.763 154.223 304.486 148.631Z" fill="#00A8C8"/>
<path d="M334.194 160.105C330.602 160.105 326.654 159.912 322.369 159.526C313.457 158.722 307.324 156.308 306.363 153.223C305.786 151.369 307.129 149.76 308.358 148.739C311.244 146.337 320.266 141.045 341.659 143.771C349.984 144.832 355.926 147.489 357.165 150.709C357.657 151.986 357.381 153.287 356.368 154.469C354.259 156.931 350.208 158.61 344.333 159.461C341.373 159.891 337.983 160.105 334.194 160.105ZM308.943 149.443C307.467 150.672 306.892 151.851 307.237 152.951C308.073 155.633 314.044 157.857 322.452 158.614C339.907 160.186 351.705 158.502 355.674 153.873C356.465 152.949 356.679 151.996 356.312 151.039C355.209 148.178 349.413 145.683 341.545 144.68C333.38 143.64 326.197 143.69 320.197 144.826C314.096 145.98 310.71 147.973 308.943 149.443Z" fill="#06DCFF"/>
<path d="M326.411 156.756L326.818 156.166C326.966 155.953 326.588 155.739 325.948 155.668C324.443 155.5 323.04 155.247 322.01 154.966C321.51 154.832 321.4 154.595 321.745 154.414L321.981 154.29C322.396 154.072 323.302 154.022 323.916 154.182C325.104 154.491 326.634 154.755 328.355 154.881C331.288 155.095 333.065 154.551 333.609 153.762C334.134 153.003 333.441 152.535 330.671 151.896C326.839 151.035 323.111 150.094 323.941 148.89C324.663 147.842 327.377 146.926 332.278 147.233C332.864 147.271 333.379 147.09 333.509 146.901L333.956 146.256C334.113 146.025 334.817 145.88 335.523 145.932C336.231 145.984 336.675 146.212 336.515 146.442L336.144 146.98C335.998 147.19 336.358 147.404 336.98 147.476C338.236 147.619 339.21 147.8 339.978 147.987C340.528 148.122 340.661 148.371 340.287 148.56L340.053 148.678C339.642 148.886 338.784 148.934 338.174 148.786C337.319 148.581 336.09 148.356 334.371 148.23C331.19 147.997 329.554 148.545 329.172 149.1C328.676 149.818 330.856 150.05 334.105 150.81C337.958 151.701 340.082 152.716 339.588 153.968C339.061 155.303 336.071 156.044 330.719 155.924C330.125 155.911 329.617 156.067 329.486 156.256L329.013 156.943C328.855 157.173 328.151 157.319 327.445 157.267L327.404 157.265C326.698 157.215 326.252 156.986 326.411 156.756Z" fill="#06DCFF"/>
<path d="M332.002 214.399C329.926 211.933 326.508 203.249 329.803 201.694C333.1 200.139 338.529 210.125 338.335 211.966C338.14 213.808 333.314 215.956 332.002 214.399Z" fill="#F7B686"/>
<path d="M325.897 215.871C324.132 213.776 321.228 206.396 324.028 205.074C326.829 203.751 331.444 212.238 331.28 213.803C331.116 215.371 327.014 217.196 325.897 215.871Z" fill="#F7B686"/>
<path d="M338.897 212.68C336.695 209.878 333.07 200.004 336.566 198.235C340.062 196.467 345.821 207.82 345.615 209.915C345.41 212.01 340.29 214.453 338.897 212.68Z" fill="#F7B686"/>
<path d="M344.661 206.931C342.637 204.355 339.305 195.281 342.519 193.655C345.732 192.03 351.024 202.464 350.835 204.388C350.646 206.315 345.94 208.561 344.661 206.931Z" fill="#F7B686"/>
<path d="M331.999 214.633C331.932 214.633 331.864 214.604 331.818 214.548C330.674 213.191 329.317 210.274 328.656 207.762C327.785 204.438 328.154 202.206 329.701 201.478C331.677 200.546 334.058 203.309 335.304 205.04C335.381 205.146 335.356 205.293 335.25 205.37C335.144 205.447 334.997 205.422 334.92 205.316C332.948 202.574 331.121 201.332 329.902 201.905C328.125 202.744 328.646 205.86 329.113 207.641C329.846 210.436 331.241 213.128 332.179 214.243C332.265 214.343 332.25 214.492 332.15 214.577C332.107 214.617 332.053 214.633 331.999 214.633Z" fill="#D89364"/>
<path d="M325.895 216.107C325.829 216.107 325.76 216.078 325.714 216.022C324.303 214.347 322.123 209.3 322.729 206.522C322.906 205.709 323.31 205.148 323.927 204.857C324.963 204.367 326.296 204.998 327.774 206.684C327.861 206.782 327.851 206.931 327.753 207.018C327.655 207.106 327.504 207.095 327.419 206.998C326.495 205.945 325.175 204.793 324.128 205.287C323.651 205.511 323.335 205.962 323.19 206.624C322.623 209.223 324.751 214.145 326.076 215.717C326.161 215.817 326.146 215.966 326.047 216.051C326.003 216.089 325.949 216.107 325.895 216.107Z" fill="#D89364"/>
<path d="M338.896 212.916C338.826 212.916 338.757 212.885 338.71 212.825C337.773 211.633 336.669 209.337 335.895 206.975C335.361 205.343 334.537 202.283 335.019 200.107C335.243 199.092 335.728 198.393 336.457 198.023C337.707 197.39 339.316 198.189 341.107 200.336C341.191 200.435 341.178 200.585 341.076 200.668C340.975 200.751 340.827 200.739 340.742 200.639C339.604 199.275 337.973 197.784 336.669 198.445C336.073 198.746 335.672 199.339 335.479 200.209C334.705 203.695 337.389 210.38 339.079 212.53C339.16 212.634 339.141 212.781 339.04 212.862C339 212.9 338.948 212.916 338.896 212.916Z" fill="#D89364"/>
<path d="M344.662 207.168C344.591 207.168 344.523 207.137 344.475 207.079C344.077 206.57 343.632 205.827 343.19 204.926C342.16 202.827 341.371 200.382 341.077 198.384C340.695 195.789 341.156 194.081 342.412 193.446C342.908 193.194 343.468 193.184 344.077 193.414C346.495 194.332 349.273 199.007 350.471 202.032C350.776 202.8 351.127 203.838 351.071 204.413C351.058 204.544 350.944 204.637 350.811 204.625C350.68 204.612 350.587 204.496 350.599 204.365C350.637 203.996 350.429 203.209 350.031 202.204C348.897 199.344 346.167 194.712 343.908 193.855C343.425 193.67 343.005 193.674 342.625 193.867C340.259 195.065 341.818 201.05 343.616 204.716C344.043 205.588 344.469 206.302 344.847 206.784C344.928 206.888 344.909 207.035 344.807 207.116C344.766 207.153 344.714 207.168 344.662 207.168Z" fill="#D89364"/>
<path d="M406.204 46.3992C406.204 46.3992 405.673 52.4445 413.448 53.9019C421.222 55.3593 419.667 59.7313 418.112 62.0648C416.557 64.3962 426.956 59.8289 436.574 68.4776C446.195 77.1263 431.91 85.5798 424.137 84.5107C416.362 83.4415 386.881 76.9311 385.442 74.6953C384.003 72.4594 382.019 66.3331 385.947 65.5006C392.978 64.0079 384.387 58.548 388.957 56.0796C393.526 53.6092 406.204 46.3992 406.204 46.3992Z" fill="#2F1A31"/>
<path d="M359.329 76.5033C353.633 72.2496 349.215 65.5793 346.184 56.6441C343.894 49.8971 343.255 44.215 343.23 43.9763L356.437 42.2241L349.833 43.1002L356.435 42.2117C356.989 47.0903 360.153 60.9 368.044 66.1606C371.627 68.548 378.356 71.4627 383.648 69.9431L385.443 82.8559C376.436 85.4406 367.266 81.8636 360.494 77.3296C360.101 77.0659 359.713 76.7898 359.329 76.5033Z" fill="#EAA97D"/>
<path d="M343.743 39.133C342.992 39.2451 342.284 38.724 342.17 37.9705L340.598 27.5032C340.486 26.7517 341.007 26.0437 341.761 25.9296C342.512 25.8175 343.22 26.3406 343.334 27.0921L344.906 37.5594C345.018 38.3109 344.495 39.0188 343.743 39.133Z" fill="#EAA97D"/>
<path d="M347.225 38.5997C346.471 38.7139 345.761 38.1886 345.649 37.435L343.891 25.7346C343.776 24.981 344.302 24.271 345.055 24.1589C345.809 24.0447 346.519 24.57 346.631 25.3236L348.389 37.024C348.501 37.7755 347.978 38.4855 347.225 38.5997Z" fill="#EAA97D"/>
<path d="M350.736 38.0725C349.982 38.1867 349.272 37.6615 349.16 36.9079L347.194 23.8227C347.08 23.0691 347.605 22.3591 348.359 22.247C349.112 22.1329 349.822 22.6581 349.934 23.4117L351.9 36.4968C352.013 37.2483 351.489 37.9583 350.736 38.0725Z" fill="#EAA97D"/>
<path d="M352.701 44.7402L352.273 44.4932C351.474 44.0323 351.198 43.0026 351.659 42.2054L356.143 34.4266C356.604 33.6273 357.634 33.3512 358.431 33.8121L358.858 34.0591C359.658 34.52 359.934 35.5497 359.473 36.3469L354.989 44.1257C354.53 44.925 353.5 45.2011 352.701 44.7402Z" fill="#EAA97D"/>
<path d="M354.244 37.545C353.491 37.6592 352.781 37.1339 352.668 36.3804L351.093 25.8902C350.979 25.1366 351.504 24.4267 352.257 24.3145C353.011 24.2004 353.721 24.7256 353.833 25.4792L355.409 35.9693C355.523 36.7229 354.998 37.4308 354.244 37.545Z" fill="#EAA97D"/>
<path d="M343.198 43.9808C343.198 43.9808 341.217 35.7016 342.123 33.9764C343.028 32.2513 352.93 30.8105 354.168 32.6083C355.405 34.4062 356.431 42.2141 356.431 42.2141L343.198 43.9808Z" fill="#EAA97D"/>
<path d="M349.638 43.906C349.549 43.906 349.468 43.8437 349.447 43.7524C349.443 43.7295 348.986 41.558 350.79 40.4764C352.445 39.4841 354.072 37.4434 354.087 37.4226C354.153 37.3375 354.276 37.3229 354.363 37.3914C354.448 37.4579 354.463 37.5824 354.394 37.6676C354.326 37.7527 352.706 39.7851 350.992 40.8148C349.433 41.749 349.812 43.5925 349.829 43.6693C349.852 43.7752 349.786 43.879 349.68 43.9018C349.667 43.9039 349.653 43.906 349.638 43.906Z" fill="#E08B65"/>
<path d="M474.713 172.875C474.713 172.875 484.904 171.237 487.977 172.32C491.051 173.404 498.282 178.399 497.778 174.095C497.487 171.627 490.238 166.516 488.39 164.851C486.542 163.186 485.525 160.603 483.048 160.817C481.873 160.919 480.489 163.134 478.537 164.174C475.216 165.945 471.265 166.887 471.265 166.887C471.265 166.887 468.217 170.456 469.617 171.785C471.634 173.701 474.713 172.875 474.713 172.875Z" fill="#2F1A31"/>
<path d="M404.658 243.764C404.658 243.764 404.677 248.329 401.627 249.704C398.577 251.078 389.669 252.5 393.097 255.336C395.063 256.963 404.066 255.614 406.618 255.539C409.169 255.464 411.596 256.507 413.442 254.746C415.472 252.807 413.116 243.519 413.116 243.519C413.116 243.519 410.948 244.729 408.966 244.736C406.111 244.744 404.658 243.764 404.658 243.764Z" fill="#2F1A31"/>
<path d="M382.351 142.729C383.121 151.247 384.437 162.272 386.675 175.727C390.962 201.499 396.025 227.465 398.508 239.915C399.397 244.368 403.142 247.626 407.58 247.802L409.966 247.898C414.765 248.091 418.66 243.968 418.309 239.066L412.283 154.838L411.475 139.754C411.477 139.756 381.076 128.647 382.351 142.729Z" fill="#436E8E"/>
<path d="M436.246 134.117C435.983 137.665 423.848 143.226 408.096 141.956C392.343 140.683 379.891 138.665 380.155 135.118C380.418 131.57 393.3 127.835 409.053 129.107C424.808 130.378 436.51 130.567 436.246 134.117Z" fill="#2F1A31"/>
<path d="M393.706 137.273L415.6 184.735C419.005 192.115 426.889 196.34 434.919 195.086C439.416 194.384 442.43 190.085 441.554 185.619L432.001 136.81C431.735 135.608 427.504 135.056 426.304 134.956C416.339 134.128 393.09 132.824 393.706 137.273Z" fill="#436E8E"/>
<path d="M417.289 76.7377C417.289 76.7377 410.104 65.5459 394.781 69.7083C387.54 71.6743 378.574 71.4128 377.949 85.1082C377.388 97.4066 376.305 111.744 380.151 135.115C380.151 135.115 404.914 125.454 436.243 134.115C436.142 132.771 434.607 98.0792 427.231 79.3639C425.114 73.9829 419.693 80.2981 417.289 76.7377Z" fill="#CED891"/>
<path d="M434.822 75.9287L421.529 88.5425C421.529 88.5425 381.163 93.2759 377.742 86.2693C372.095 74.7038 377.679 67.3942 377.679 67.3942C377.679 67.3942 390.175 68.7872 400.524 68.4301C402.884 68.3491 407.296 68.4778 409.615 68.5733C425.789 69.2335 434.822 75.9287 434.822 75.9287Z" fill="#CED891"/>
<path d="M434.822 75.9283C435.987 77.2279 435.717 81.5709 431.193 85.3825C426.67 89.1941 422.962 90.4646 421.527 88.5422C420.448 87.0952 421.764 81.3301 426.09 77.7905C430.548 74.145 433.992 75.0024 434.822 75.9283Z" fill="#2F1A31"/>
<path d="M425.719 134.906C425.719 134.906 404.336 131.364 383.428 135.977C382.469 136.189 381.813 137.082 381.906 138.06L382.647 145.863L404.527 140.418L425.719 134.906Z" fill="#436E8E"/>
<path d="M406.66 68.4739C404.557 71.8536 398.694 74.7082 395.071 73.5539C391.986 72.574 394.123 68.4594 394.123 68.4594C395.516 68.2102 396.168 67.384 396.068 65.9723L395.941 64.2388L395.879 63.3793L395.684 60.6349L395.505 58.1706L394.777 48.0625L398.976 57.8198L399.691 59.4764L402.153 65.1959C402.94 67.0186 404.654 68.2601 406.631 68.4718C406.639 68.4718 406.651 68.4739 406.66 68.4739Z" fill="#F7B686"/>
<path d="M399.69 59.4761C399.69 59.4761 398.47 62.6856 395.879 63.3811L395.684 60.6366C397.278 60.0553 399.69 59.4761 399.69 59.4761Z" fill="#2F1A31"/>
<path d="M406.205 46.399C406.205 46.399 405.812 48.0578 406.767 51.4583C408.162 56.4345 402.476 58.5105 401.021 57.0905C400.84 56.9141 401.079 48.4522 401.079 48.4522L402.898 47.3727L406.205 46.399Z" fill="#2F1A31"/>
<path d="M394.316 61.3984C399.563 61.3984 403.816 56.1516 403.816 49.6793C403.816 43.207 399.563 37.9602 394.316 37.9602C389.07 37.9602 384.816 43.207 384.816 49.6793C384.816 56.1516 389.07 61.3984 394.316 61.3984Z" fill="#F7B686"/>
<path d="M390.555 40.6837C390.819 41.0429 389.324 47.0737 400.493 48.5124C411.662 49.9532 404.953 36.4009 396.711 36.0937C384.811 35.6515 383.08 43.6524 384.222 46.5319C385.365 49.4113 390.555 40.6837 390.555 40.6837Z" fill="#2F1A31"/>
<path d="M399.261 46.5925C399.261 46.5925 403.826 51.4047 402.242 56.3249C402.242 56.3249 404.889 53.433 404.949 52.3514C405.007 51.2719 404.303 47.3731 404.303 47.3731L399.261 46.5925Z" fill="#2F1A31"/>
<path d="M402.546 51.4481C401.471 52.4757 399.965 52.5816 399.185 51.6827C398.404 50.7859 398.645 49.2247 399.72 48.1971C400.796 47.1694 402.301 47.0636 403.082 47.9625C403.862 48.8593 403.621 50.4205 402.546 51.4481Z" fill="#F7B686"/>
<path d="M393.401 49.7938C393.339 49.7771 393.282 49.7315 393.258 49.665C393.214 49.555 393.266 49.4284 393.378 49.3848C393.442 49.3578 394.898 48.6104 396.174 50.0076C396.255 50.0948 396.253 50.2318 396.166 50.3128C396.079 50.3958 395.961 50.3709 395.861 50.3045C394.869 49.6381 393.592 49.7626 393.538 49.7834C393.492 49.8041 393.444 49.8041 393.401 49.7938Z" fill="#060633"/>
<path d="M395.673 52.0916C395.689 52.6064 395.399 53.0341 395.025 53.0465C394.651 53.059 394.334 52.65 394.319 52.1352C394.302 51.6203 394.593 51.1927 394.967 51.1802C395.34 51.1678 395.656 51.5746 395.673 52.0916Z" fill="#060633"/>
<path d="M385.686 50.9186C385.622 50.9269 385.553 50.9062 385.504 50.8543C385.42 50.7691 385.423 50.6321 385.508 50.5491C385.558 50.4993 386.618 49.2537 388.331 50.0591C388.439 50.109 388.489 50.2356 388.441 50.3456C388.393 50.4536 388.273 50.4785 388.155 50.4557C386.984 50.2169 385.85 50.819 385.809 50.8605C385.773 50.8937 385.73 50.9124 385.686 50.9186Z" fill="#060633"/>
<path d="M388.839 52.1086C389.05 52.5799 388.944 53.0843 388.604 53.238C388.263 53.3916 387.815 53.1342 387.603 52.665C387.392 52.1937 387.497 51.6892 387.838 51.5356C388.178 51.382 388.627 51.6373 388.839 52.1086Z" fill="#060633"/>
<path d="M418.489 61.2078L418.219 60.6701C418.565 60.4355 419.439 57.8218 418.781 55.6669C418.198 53.7549 416.639 52.7813 414.152 52.775C406.772 52.7564 405.578 46.7069 405.565 46.6466L406.157 46.5366C406.201 46.7671 407.282 52.1543 414.152 52.1709C417.82 52.1792 419.06 54.1722 419.452 55.8413C419.994 58.1436 419.128 60.8881 418.489 61.2078Z" fill="#2F1A31"/>
<path d="M432.453 195.299C441.434 195.073 462.742 186.348 474.571 181.201C479.17 179.2 481.285 173.86 479.311 169.252L479.064 168.672C477.422 164.84 473.421 162.579 469.292 163.148L428.575 168.751C428.573 168.751 415.729 195.721 432.453 195.299Z" fill="#436E8E"/>
<path d="M413.502 180.852C413.436 180.674 406.84 162.876 404.756 157.29C402.703 151.784 396.311 147.362 396.246 147.318L396.564 146.853C396.832 147.038 403.17 151.421 405.283 157.092C407.367 162.681 413.963 180.479 414.029 180.657L413.502 180.852Z" fill="#020202"/>
<path d="M389.428 56.7276C389.428 56.7276 390.312 58.7185 392.181 58.7247C394.481 58.733 394.933 56.3311 394.933 56.3311C394.933 56.3311 392.122 57.2736 389.428 56.7276Z" fill="white"/>
<path d="M448.069 96.9668C455.133 96.1779 462.319 92.657 469.452 86.4829C474.839 81.8202 478.264 77.2405 478.408 77.0495L467.901 68.8596L473.155 72.9556L467.909 68.8492C464.963 72.7771 455.25 83.0907 445.783 83.6367C441.718 83.8713 437.977 82.2562 434.371 78.7082C433.834 78.1809 433.082 77.9339 432.337 78.0398C430.892 78.2453 428.382 79.1857 425.015 82.661C422.66 85.0899 424.334 87.4586 424.334 87.4586C430.798 94.2451 438.513 97.5751 446.649 97.0893C447.12 97.0602 447.593 97.0208 448.069 96.9668Z" fill="#EAA97D"/>
<path d="M480.415 72.6109C481.007 73.0884 481.883 72.995 482.36 72.4033L489.012 64.1678C489.489 63.5761 489.396 62.7 488.804 62.2225C488.212 61.745 487.336 61.8385 486.859 62.4301L480.207 70.6657C479.73 71.2573 479.823 72.1314 480.415 72.6109Z" fill="#EAA97D"/>
<path d="M477.678 70.3876C478.271 70.8672 479.148 70.7737 479.627 70.18L487.061 60.9749C487.541 60.3812 487.447 59.5051 486.854 59.0256C486.26 58.546 485.384 58.6394 484.904 59.2332L477.47 68.4382C476.993 69.032 477.086 69.9101 477.678 70.3876Z" fill="#EAA97D"/>
<path d="M474.918 68.1582C475.512 68.6377 476.388 68.5443 476.868 67.9506L485.182 57.6556C485.662 57.0619 485.568 56.1858 484.975 55.7062C484.381 55.2267 483.505 55.3201 483.025 55.9138L474.711 66.2088C474.231 66.8025 474.325 67.6807 474.918 68.1582Z" fill="#EAA97D"/>
<path d="M469.85 72.9181L470.344 72.9223C471.266 72.9285 472.025 72.1811 472.032 71.2594L472.096 62.2806C472.102 61.3589 471.355 60.599 470.433 60.5928L469.939 60.5887C469.017 60.5824 468.257 61.3298 468.251 62.2515L468.187 71.2303C468.178 72.1521 468.928 72.9098 469.85 72.9181Z" fill="#EAA97D"/>
<path d="M472.159 65.9306C472.752 66.4101 473.628 66.3167 474.108 65.723L480.772 57.4708C481.251 56.8771 481.158 56.001 480.564 55.5214C479.971 55.0419 479.094 55.1353 478.615 55.729L471.951 63.9812C471.471 64.5729 471.565 65.451 472.159 65.9306Z" fill="#EAA97D"/>
<path d="M478.432 77.0682C478.432 77.0682 484.328 70.9274 484.42 68.9821C484.511 67.0369 476.697 60.784 474.72 61.7099C472.744 62.6337 467.911 68.8513 467.911 68.8513L478.432 77.0682Z" fill="#EAA97D"/>
<path d="M473.012 73.7733C472.964 73.7733 472.917 73.7567 472.879 73.7214C472.8 73.6487 472.794 73.5242 472.869 73.4453C472.923 73.3872 474.183 71.99 473.309 70.3935C472.35 68.6393 471.98 66.0671 471.964 65.9571C471.949 65.8491 472.024 65.7516 472.13 65.735C472.236 65.7204 472.335 65.7952 472.352 65.901C472.356 65.926 472.728 68.5127 473.652 70.2026C474.663 72.0481 473.17 73.6923 473.153 73.7089C473.118 73.7525 473.066 73.7733 473.012 73.7733Z" fill="#E08B65"/>
</svg>
