<svg width="49" height="48" viewBox="0 0 49 48" fill="none" xmlns="http://www.w3.org/2000/svg">
  <path d="M39.7 12.45C39.7 14.1897 38.2897 15.6 36.55 15.6C34.8103 15.6 33.4 14.1897 33.4 12.45C33.4 10.7103 34.8103 9.3 36.55 9.3C38.2897 9.3 39.7 10.7103 39.7 12.45Z" fill="white"/>
  <path fill-rule="evenodd" clip-rule="evenodd" d="M25 34.5C30.799 34.5 35.5 29.799 35.5 24C35.5 18.201 30.799 13.5 25 13.5C19.201 13.5 14.5 18.201 14.5 24C14.5 29.799 19.201 34.5 25 34.5ZM25 30.3C28.4794 30.3 31.3 27.4794 31.3 24C31.3 20.5206 28.4794 17.7 25 17.7C21.5206 17.7 18.7 20.5206 18.7 24C18.7 27.4794 21.5206 30.3 25 30.3Z" fill="white"/>
  <path fill-rule="evenodd" clip-rule="evenodd" d="M4 23.16C4 16.1033 4 12.575 5.37332 9.87972C6.58132 7.50888 8.50888 5.58132 10.8797 4.37332C13.575 3 17.1033 3 24.16 3H25.84C32.8967 3 36.425 3 39.1203 4.37332C41.4911 5.58132 43.4187 7.50888 44.6267 9.87972C46 12.575 46 16.1033 46 23.16V24.84C46 31.8967 46 35.425 44.6267 38.1203C43.4187 40.4911 41.4911 42.4187 39.1203 43.6267C36.425 45 32.8967 45 25.84 45H24.16C17.1033 45 13.575 45 10.8797 43.6267C8.50888 42.4187 6.58132 40.4911 5.37332 38.1203C4 35.425 4 31.8967 4 24.84V23.16ZM24.16 7.2H25.84C29.4376 7.2 31.8833 7.20327 33.7736 7.35772C35.615 7.50816 36.5566 7.78085 37.2135 8.11554C38.7941 8.92088 40.0791 10.2059 40.8845 11.7865C41.2192 12.4434 41.4918 13.385 41.6423 15.2264C41.7967 17.1167 41.8 19.5624 41.8 23.16V24.84C41.8 28.4376 41.7967 30.8833 41.6423 32.7736C41.4918 34.615 41.2192 35.5566 40.8845 36.2135C40.0791 37.7941 38.7941 39.0791 37.2135 39.8845C36.5566 40.2192 35.615 40.4918 33.7736 40.6423C31.8833 40.7967 29.4376 40.8 25.84 40.8H24.16C20.5624 40.8 18.1167 40.7967 16.2264 40.6423C14.385 40.4918 13.4434 40.2192 12.7865 39.8845C11.2059 39.0791 9.92088 37.7941 9.11554 36.2135C8.78085 35.5566 8.50816 34.615 8.35772 32.7736C8.20327 30.8833 8.2 28.4376 8.2 24.84V23.16C8.2 19.5624 8.20327 17.1167 8.35772 15.2264C8.50816 13.385 8.78085 12.4434 9.11554 11.7865C9.92088 10.2059 11.2059 8.92088 12.7865 8.11554C13.4434 7.78085 14.385 7.50816 16.2264 7.35772C18.1167 7.20327 20.5624 7.2 24.16 7.2Z" fill="white"/>
  </svg>
  