<svg width="49" height="48" viewBox="0 0 49 48" fill="none" xmlns="http://www.w3.org/2000/svg">
  <path fill-rule="evenodd" clip-rule="evenodd" d="M24.5 1.5C12.0736 1.5 2 11.5736 2 24C2 36.4264 12.0736 46.5 24.5 46.5C36.9264 46.5 47 36.4264 47 24C47 11.5736 36.9264 1.5 24.5 1.5ZM19.4278 14.5382C19.4278 15.94 18.2128 17.0764 16.7139 17.0764C15.2151 17.0764 14 15.94 14 14.5382C14 13.1364 15.2151 12 16.7139 12C18.2128 12 19.4278 13.1364 19.4278 14.5382ZM14.3711 18.9422H19.0103V33H14.3711V18.9422ZM21.8402 18.9422H26.4794V20.7457C27.2581 19.7551 28.7531 18.6601 31.1649 18.6601C35.2262 18.6601 36.4607 20.8431 36.5 25.5806V33H31.8608C31.8608 32.0831 31.8545 31.1613 31.8481 30.2398V30.2397V30.2397C31.8391 28.9328 31.8301 27.6264 31.8392 26.3356C31.8511 24.6518 31.8665 22.4783 29.3093 22.4783C27.0465 22.4783 26.4794 24.1464 26.4794 25.8073V33H21.8402V18.9422Z" fill="white"/>
  </svg>
  