<svg width="138" height="40" viewBox="0 0 138 40" fill="none" xmlns="http://www.w3.org/2000/svg">
<path d="M73.406 23.5666V10.2466H68.7074V23.5666C68.7074 25.1666 68.3881 26.3466 67.7497 27.1066C67.1112 27.8466 65.954 28.2166 64.2781 28.2166C63.3204 28.2166 62.5522 28.0866 61.9736 27.8266C61.415 27.5466 60.9761 27.1966 60.6568 26.7766C60.3376 26.3366 60.1281 25.8366 60.0283 25.2766C59.9286 24.7166 59.8787 24.1466 59.8787 23.5666V10.2466H55.1801V23.5666C55.1801 26.4866 55.9682 28.6466 57.5443 30.0466C59.1405 31.4466 61.3851 32.1466 64.2781 32.1466C67.1312 32.1466 69.3658 31.4466 70.9819 30.0466C72.598 28.6266 73.406 26.4666 73.406 23.5666Z" fill="#06DCFF"/>
<path d="M84.8148 28.8766C84.1364 28.8766 83.5578 28.7366 83.079 28.4566C82.6001 28.1766 82.2111 27.8166 81.9118 27.3766C81.6325 26.9166 81.423 26.3866 81.2833 25.7866C81.1636 25.1866 81.1038 24.5766 81.1038 23.9566C81.1038 23.3166 81.1636 22.6966 81.2833 22.0966C81.403 21.4966 81.6026 20.9666 81.8819 20.5066C82.1812 20.0466 82.5602 19.6766 83.0191 19.3966C83.498 19.0966 84.0866 18.9466 84.7849 18.9466C85.4632 18.9466 86.0319 19.0966 86.4907 19.3966C86.9696 19.6766 87.3587 20.0566 87.6579 20.5366C87.9572 20.9966 88.1667 21.5266 88.2864 22.1266C88.4261 22.7266 88.4959 23.3366 88.4959 23.9566C88.4959 24.5766 88.4361 25.1866 88.3163 25.7866C88.1966 26.3866 87.9871 26.9166 87.6879 27.3766C87.4085 27.8166 87.0294 28.1766 86.5506 28.4566C86.0917 28.7366 85.5131 28.8766 84.8148 28.8766ZM77.0037 16.1566V37.0966H81.2534V29.7466H81.3133C81.832 30.5066 82.4904 31.0866 83.2885 31.4866C84.1065 31.8666 84.9944 32.0566 85.9521 32.0566C87.0893 32.0566 88.0769 31.8366 88.9149 31.3966C89.7728 30.9566 90.4811 30.3666 91.0398 29.6266C91.6184 28.8866 92.0473 28.0366 92.3267 27.0766C92.606 26.1166 92.7456 25.1166 92.7456 24.0766C92.7456 22.9766 92.606 21.9266 92.3267 20.9266C92.0473 19.9066 91.6184 19.0166 91.0398 18.2566C90.4612 17.4966 89.7329 16.8866 88.855 16.4266C87.9772 15.9666 86.9297 15.7366 85.7126 15.7366C84.7549 15.7366 83.8771 15.9266 83.079 16.3066C82.2809 16.6866 81.6225 17.2966 81.1038 18.1366H81.0439V16.1566H77.0037Z" fill="#06DCFF"/>
<path d="M95.419 16.1566V31.6666H99.6688V22.6666C99.6688 21.9066 99.7785 21.2966 99.998 20.8366C100.217 20.3566 100.477 19.9966 100.776 19.7566C101.095 19.4966 101.415 19.3266 101.734 19.2466C102.073 19.1466 102.342 19.0966 102.542 19.0966C103.22 19.0966 103.729 19.2166 104.068 19.4566C104.427 19.6766 104.677 19.9766 104.816 20.3566C104.976 20.7366 105.066 21.1566 105.086 21.6166C105.106 22.0566 105.116 22.5066 105.116 22.9666V31.6666H109.365V23.0266C109.365 22.5466 109.395 22.0766 109.455 21.6166C109.535 21.1366 109.675 20.7166 109.874 20.3566C110.094 19.9766 110.383 19.6766 110.742 19.4566C111.121 19.2166 111.61 19.0966 112.208 19.0966C112.807 19.0966 113.276 19.1966 113.615 19.3966C113.974 19.5966 114.244 19.8666 114.423 20.2066C114.603 20.5466 114.712 20.9466 114.752 21.4066C114.792 21.8666 114.812 22.3566 114.812 22.8766V31.6666H119.062V21.2866C119.062 20.2866 118.922 19.4366 118.643 18.7366C118.364 18.0166 117.975 17.4366 117.476 16.9966C116.977 16.5566 116.378 16.2366 115.68 16.0366C114.982 15.8366 114.224 15.7366 113.406 15.7366C112.328 15.7366 111.39 15.9966 110.592 16.5166C109.814 17.0366 109.196 17.6366 108.737 18.3166C108.318 17.3566 107.699 16.6866 106.881 16.3066C106.083 15.9266 105.195 15.7366 104.218 15.7366C103.2 15.7366 102.292 15.9566 101.494 16.3966C100.716 16.8366 100.048 17.4566 99.4892 18.2566H99.4293V16.1566H95.419Z" fill="#06DCFF"/>
<path d="M132.836 22.2466H125.923C125.943 21.9466 126.003 21.6066 126.102 21.2266C126.222 20.8466 126.412 20.4866 126.671 20.1466C126.95 19.8066 127.309 19.5266 127.748 19.3066C128.207 19.0666 128.776 18.9466 129.454 18.9466C130.492 18.9466 131.26 19.2266 131.759 19.7866C132.277 20.3466 132.637 21.1666 132.836 22.2466ZM125.923 24.9466H137.086C137.166 23.7466 137.066 22.5966 136.787 21.4966C136.507 20.3966 136.048 19.4166 135.41 18.5566C134.791 17.6966 133.993 17.0166 133.016 16.5166C132.038 15.9966 130.891 15.7366 129.574 15.7366C128.397 15.7366 127.319 15.9466 126.342 16.3666C125.384 16.7866 124.556 17.3666 123.858 18.1066C123.16 18.8266 122.621 19.6866 122.242 20.6866C121.863 21.6866 121.673 22.7666 121.673 23.9266C121.673 25.1266 121.853 26.2266 122.212 27.2266C122.591 28.2266 123.12 29.0866 123.798 29.8066C124.476 30.5266 125.304 31.0866 126.282 31.4866C127.26 31.8666 128.357 32.0566 129.574 32.0566C131.33 32.0566 132.826 31.6566 134.063 30.8566C135.3 30.0566 136.218 28.7266 136.817 26.8666H133.076C132.936 27.3466 132.557 27.8066 131.938 28.2466C131.32 28.6666 130.582 28.8766 129.724 28.8766C128.527 28.8766 127.609 28.5666 126.97 27.9466C126.332 27.3266 125.983 26.3266 125.923 24.9466Z" fill="#06DCFF"/>
<g clip-path="url(#clip0_5510_27876)">
<path d="M35.1955 40H4.70571C2.10711 40 0 37.8854 0 35.2805V4.71707C0 2.1122 2.10711 0 4.70571 0H35.1955C37.7941 0 39.9036 2.1122 39.9036 4.71707V35.2805C39.9036 37.8854 37.7941 40 35.1955 40Z" fill="#06DCFF"/>
<path d="M19.4603 6.47534H25.7938V3.9729H18.6403C15.9785 3.9729 14.1122 5.88997 14.1122 8.60705C14.1122 10.0241 14.5161 11.7875 16.1439 12.7778C14.886 13.5631 14.1122 14.9802 14.1122 16.7192C14.1122 17.8875 14.4577 19.3046 15.8008 20.2217H14.1074V22.6997H21.689V20.1973H19.4846C17.5357 20.1973 16.4772 18.8509 16.4772 17.2436C16.4772 15.5753 17.5478 14.5875 19.4603 14.5875H25.7938V12.0851H19.4846C17.5357 12.0851 16.4772 10.7388 16.4772 9.13144C16.4772 7.46314 17.5478 6.47534 19.4603 6.47534Z" fill="white"/>
<path d="M23.2974 20.207C23.2974 20.207 23.2974 30.6314 23.2974 30.6363C23.2974 31.6412 22.8789 32.5534 22.0102 33.0851C21.0321 33.6875 19.8034 33.7924 18.6914 33.6046C18.3191 33.5412 17.959 33.407 17.6525 33.1875C16.8544 32.6119 16.6038 31.5948 16.6038 30.6583V24.3046H14.1074V30.6339C14.1074 33.0192 14.7959 33.9827 14.7959 33.9827C15.5697 35.229 16.9566 35.9949 18.6573 36.0217C18.6573 36.0217 19.8131 36.0192 19.835 36.0192C19.835 36.0192 19.8861 36.0192 19.8861 36.0168C21.0394 36.0046 22.419 35.6509 23.3193 34.3266V36.0266H25.7938V20.207H23.2974Z" fill="white"/>
</g>
<defs>
<clipPath id="clip0_5510_27876">
<rect width="39.9036" height="40" fill="white"/>
</clipPath>
</defs>
</svg>
