<svg width="20" height="21" viewBox="0 0 20 21" fill="none" xmlns="http://www.w3.org/2000/svg">
<path d="M19.38 3.75992C19.3458 3.63223 19.2867 3.51257 19.206 3.40786C19.1254 3.30316 19.0247 3.21549 18.91 3.14992L13.71 0.149918C13.5964 0.0833856 13.4709 0.0399166 13.3405 0.0220034C13.2101 0.00409026 13.0775 0.012085 12.9502 0.0455294C12.823 0.0789738 12.7035 0.13721 12.5988 0.2169C12.4941 0.296589 12.4061 0.396165 12.34 0.509918L9.99997 4.56992L7.65997 0.509918C7.59381 0.396165 7.50584 0.296589 7.40112 0.2169C7.2964 0.13721 7.17698 0.0789738 7.0497 0.0455294C6.92243 0.012085 6.7898 0.00409026 6.65943 0.0220034C6.52906 0.0399166 6.40351 0.0833856 6.28997 0.149918L1.08997 3.14992C0.975204 3.21549 0.874573 3.30316 0.7939 3.40786C0.713227 3.51257 0.654111 3.63223 0.619972 3.75992C0.553788 4.01337 0.589695 4.28266 0.719972 4.50992L4.71997 11.3399C4.27372 12.1575 4.02701 13.0689 3.99997 13.9999C3.99759 14.9082 4.20145 15.8052 4.59619 16.6232C4.99093 17.4412 5.56623 18.159 6.27873 18.7223C6.99122 19.2856 7.82232 19.6798 8.70934 19.8752C9.59637 20.0706 10.5162 20.062 11.3994 19.8502C12.2826 19.6383 13.1063 19.2287 13.8081 18.6522C14.51 18.0757 15.0719 17.3474 15.4513 16.5222C15.8308 15.6969 16.0179 14.7963 15.9986 13.8882C15.9793 12.9801 15.7541 12.0883 15.34 11.2799L19.24 4.51992C19.3126 4.40886 19.3623 4.28447 19.3864 4.15399C19.4104 4.02351 19.4082 3.88955 19.38 3.75992ZM2.99997 4.37992L6.45997 2.37992L9.67997 7.99992C8.30739 8.08472 7.00676 8.64314 5.99997 9.57992L2.99997 4.37992ZM9.99997 17.9999C8.93911 17.9999 7.92169 17.5785 7.17154 16.8283C6.4214 16.0782 5.99997 15.0608 5.99997 13.9999C5.99997 12.9391 6.4214 11.9216 7.17154 11.1715C7.92169 10.4213 8.93911 9.99992 9.99997 9.99992C11.0608 9.99992 12.0783 10.4213 12.8284 11.1715C13.5785 11.9216 14 12.9391 14 13.9999C14 15.0608 13.5785 16.0782 12.8284 16.8283C12.0783 17.5785 11.0608 17.9999 9.99997 17.9999ZM14 9.54992C13.457 9.05403 12.8262 8.664 12.14 8.39992L11.16 6.56992L13.58 2.37992L17.04 4.37992L14 9.54992Z" fill="current"/>
</svg>
