<svg width="24" height="24" viewBox="0 0 24 24" fill="none" xmlns="http://www.w3.org/2000/svg">
<path d="M16.0001 7C16.3957 7 16.7824 6.8827 17.1113 6.66294C17.4402 6.44318 17.6965 6.13082 17.8479 5.76537C17.9992 5.39992 18.0389 4.99778 17.9617 4.60982C17.8845 4.22186 17.694 3.86549 17.4143 3.58579C17.1346 3.30608 16.7783 3.1156 16.3903 3.03843C16.0023 2.96126 15.6002 3.00087 15.2347 3.15224C14.8693 3.30362 14.5569 3.55996 14.3372 3.88886C14.1174 4.21776 14.0001 4.60444 14.0001 5C14.0001 5.53043 14.2108 6.03914 14.5859 6.41421C14.961 6.78929 15.4697 7 16.0001 7ZM12.7001 18.4C12.2993 18.9248 11.7748 19.3422 11.1734 19.615C10.572 19.8878 9.91242 20.0074 9.25353 19.9632C8.59465 19.919 7.95695 19.7124 7.39736 19.3618C6.83777 19.0111 6.37369 18.5274 6.04654 17.9538C5.71939 17.3802 5.53935 16.7345 5.52249 16.0743C5.50562 15.4142 5.65246 14.7601 5.9499 14.1705C6.24733 13.5809 6.68611 13.0742 7.22707 12.6954C7.76803 12.3167 8.39435 12.0778 9.05012 12C9.31533 11.9708 9.5581 11.8375 9.725 11.6293C9.89191 11.4212 9.96929 11.1552 9.94011 10.89C9.91094 10.6248 9.77761 10.382 9.56944 10.2151C9.36128 10.0482 9.09533 9.97083 8.83011 10C7.23882 10.0888 5.74799 10.8062 4.68559 11.9942C3.6232 13.1823 3.07627 14.7437 3.16512 16.335C3.25396 17.9263 3.97131 19.4171 5.15936 20.4795C6.3474 21.5419 7.90882 22.0888 9.50011 22C10.4316 22 11.3503 21.7831 12.1834 21.3666C13.0165 20.95 13.7412 20.3452 14.3001 19.6C14.4592 19.3878 14.5276 19.1211 14.4901 18.8586C14.4526 18.596 14.3123 18.3591 14.1001 18.2C13.8879 18.0409 13.6212 17.9725 13.3587 18.0101C13.0961 18.0476 12.8592 18.1878 12.7001 18.4ZM19.5001 20H18.5001V15C18.5001 14.7348 18.3948 14.4804 18.2072 14.2929C18.0197 14.1054 17.7653 14 17.5001 14H12.9301L14.6201 9.34V9.03C14.625 8.9701 14.625 8.9099 14.6201 8.85C14.6258 8.7868 14.6258 8.72321 14.6201 8.66C14.594 8.60134 14.564 8.54454 14.5301 8.49C14.5001 8.43545 14.4631 8.38503 14.4201 8.34C14.3772 8.28913 14.3266 8.24527 14.2701 8.21C14.2701 8.21 14.2701 8.15 14.1901 8.13L9.71011 5.55H9.59012C9.52881 5.52408 9.46519 5.50399 9.40011 5.49H9.00011C8.93064 5.50436 8.86338 5.5279 8.80012 5.56H8.69011L6.00011 7.13C5.80893 7.23831 5.65874 7.40657 5.57276 7.60877C5.48678 7.81098 5.46979 8.03588 5.52442 8.24871C5.57905 8.46154 5.70226 8.65045 5.875 8.78625C6.04774 8.92204 6.2604 8.99717 6.48011 9C6.66205 9.00479 6.84184 8.95985 7.00011 8.87L9.23011 7.57L12.4701 9.45L10.5801 14.66C10.5753 14.7132 10.5753 14.7668 10.5801 14.82C10.5707 14.8796 10.5707 14.9404 10.5801 15C10.5985 15.1283 10.6253 15.2552 10.6601 15.38L10.7701 15.53C10.7974 15.5892 10.8346 15.6434 10.8801 15.69C10.9229 15.7257 10.9699 15.7559 11.0201 15.78C11.0796 15.8258 11.1432 15.8659 11.2101 15.9C11.3191 15.9396 11.4342 15.9599 11.5501 15.96H16.5501V20.96C16.5501 21.2252 16.6555 21.4796 16.843 21.6671C17.0305 21.8546 17.2849 21.96 17.5501 21.96H19.5501C19.8153 21.96 20.0697 21.8546 20.2572 21.6671C20.4448 21.4796 20.5501 21.2252 20.5501 20.96C20.5501 20.6948 20.4448 20.4404 20.2572 20.2529C20.0697 20.0654 19.8153 19.96 19.5501 19.96L19.5001 20Z" fill="current"/>
</svg>
