<svg width="24" height="24" viewBox="0 0 24 24" fill="none" xmlns="http://www.w3.org/2000/svg">
<path d="M14.9753 3.01891L15.9351 1.28732C15.9474 1.26511 15.9552 1.24068 15.9581 1.21545C15.961 1.19021 15.9589 1.16465 15.9519 1.14024C15.9449 1.11582 15.9331 1.09302 15.9173 1.07314C15.9015 1.05326 15.8819 1.03669 15.8597 1.02438C15.8148 0.999506 15.7619 0.993475 15.7126 1.00761C15.6633 1.02175 15.6216 1.0549 15.5968 1.09976L14.6263 2.85054C13.7983 2.48755 12.904 2.30014 11.9999 2.30014C11.0958 2.30014 10.2016 2.48755 9.37356 2.85054L8.40308 1.09976C8.37821 1.0549 8.33653 1.02175 8.28722 1.00761C8.23791 0.993475 8.185 0.999506 8.14013 1.02438C8.09527 1.04925 8.06212 1.09093 8.04798 1.14024C8.03385 1.18955 8.03988 1.24246 8.06475 1.28732L9.0246 3.01892C8.11093 3.46929 7.33894 4.16259 6.79331 5.02277C6.24768 5.88296 5.94949 6.87679 5.93144 7.89527H18.0684C18.0504 6.87679 17.7522 5.88295 17.2066 5.02277C16.6609 4.16258 15.8889 3.46928 14.9753 3.01891ZM9.19903 5.67451C9.09879 5.67451 9.00081 5.64479 8.91747 5.5891C8.83412 5.53341 8.76916 5.45426 8.73081 5.36166C8.69245 5.26905 8.68241 5.16715 8.70197 5.06884C8.72152 4.97053 8.76979 4.88023 8.84067 4.80935C8.91154 4.73847 9.00185 4.69021 9.10016 4.67065C9.19847 4.6511 9.30037 4.66113 9.39297 4.69949C9.48558 4.73785 9.56473 4.80281 9.62042 4.88615C9.6761 4.96949 9.70583 5.06748 9.70583 5.16771C9.70568 5.30208 9.65223 5.4309 9.55722 5.52591C9.46221 5.62092 9.33339 5.67436 9.19903 5.67451ZM14.8008 5.67451C14.7006 5.67451 14.6026 5.64479 14.5192 5.5891C14.4359 5.53341 14.3709 5.45426 14.3326 5.36166C14.2942 5.26905 14.2842 5.16715 14.3037 5.06884C14.3233 4.97053 14.3716 4.88023 14.4424 4.80935C14.5133 4.73847 14.6036 4.69021 14.7019 4.67065C14.8002 4.6511 14.9021 4.66113 14.9948 4.69949C15.0874 4.73785 15.1665 4.80281 15.2222 4.88615C15.2779 4.96949 15.3076 5.06748 15.3076 5.16771C15.3075 5.30208 15.254 5.4309 15.159 5.52591C15.064 5.62092 14.9352 5.67436 14.8008 5.67451ZM5.93135 17.1715C5.93135 17.5606 6.08592 17.9338 6.36106 18.2089C6.6362 18.4841 7.00937 18.6386 7.39848 18.6386H8.37208V21.6396C8.37159 21.8186 8.40642 21.9959 8.47458 22.1614C8.54273 22.3268 8.64286 22.4772 8.76924 22.604C8.89562 22.7307 9.04576 22.8312 9.21106 22.8998C9.37635 22.9684 9.55357 23.0037 9.73253 23.0037C9.9115 23.0037 10.0887 22.9684 10.254 22.8998C10.4193 22.8312 10.5694 22.7307 10.6958 22.604C10.8222 22.4772 10.9223 22.3268 10.9905 22.1614C11.0586 21.9959 11.0935 21.8186 11.093 21.6396V18.6386H12.9068V21.6396C12.9064 21.8186 12.9412 21.9959 13.0093 22.1614C13.0775 22.3268 13.1776 22.4772 13.304 22.604C13.4304 22.7307 13.5805 22.8312 13.7458 22.8998C13.9111 22.9684 14.0883 23.0037 14.2673 23.0037C14.4463 23.0037 14.6235 22.9684 14.7888 22.8998C14.9541 22.8312 15.1042 22.7307 15.2306 22.604C15.357 22.4772 15.4571 22.3268 15.5253 22.1614C15.5934 21.9959 15.6282 21.8186 15.6278 21.6396V18.6386H16.6014C16.9905 18.6386 17.3637 18.4841 17.6388 18.2089C17.914 17.9338 18.0685 17.5606 18.0685 17.1715V8.37537H5.93135V17.1715ZM4.06407 8.14196C3.70338 8.14237 3.35758 8.28584 3.10253 8.54089C2.84749 8.79593 2.70403 9.14173 2.70362 9.50242V15.1709C2.70313 15.3499 2.73796 15.5272 2.80612 15.6926C2.87427 15.8581 2.9744 16.0085 3.10078 16.1353C3.22716 16.262 3.3773 16.3625 3.5426 16.4311C3.70789 16.4997 3.8851 16.535 4.06407 16.535C4.24304 16.535 4.42025 16.4997 4.58555 16.4311C4.75085 16.3625 4.90099 16.262 5.02737 16.1353C5.15375 16.0085 5.25388 15.8581 5.32203 15.6926C5.39018 15.5272 5.42501 15.3499 5.42453 15.1709V9.50242C5.42412 9.14173 5.28066 8.79593 5.02561 8.54088C4.77056 8.28584 4.42476 8.14237 4.06407 8.14196ZM19.9358 8.14196C19.5751 8.14237 19.2293 8.28584 18.9742 8.54088C18.7192 8.79593 18.5757 9.14173 18.5753 9.50242V15.1709C18.5748 15.3499 18.6097 15.5272 18.6778 15.6926C18.746 15.8581 18.8461 16.0085 18.9725 16.1353C19.0988 16.262 19.249 16.3625 19.4143 16.4311C19.5796 16.4997 19.7568 16.535 19.9358 16.535C20.1147 16.535 20.2919 16.4997 20.4572 16.4311C20.6225 16.3625 20.7727 16.262 20.8991 16.1353C21.0254 16.0085 21.1256 15.8581 21.1937 15.6926C21.2619 15.5272 21.2967 15.3499 21.2962 15.1709V9.50242C21.2958 9.14173 21.1523 8.79593 20.8973 8.54089C20.6423 8.28584 20.2965 8.14237 19.9358 8.14196Z" fill="current"/>
</svg>
