<svg width="24" height="24" viewBox="0 0 24 24" fill="none" xmlns="http://www.w3.org/2000/svg">
<path d="M20.5045 15.7436C19.8927 15.482 19.3715 15.0458 19.0061 14.4897C18.6406 13.9336 18.4472 13.2821 18.4498 12.6166C18.4577 12.0227 18.6168 11.4405 18.9121 10.925C19.2073 10.4095 19.629 9.97773 20.1373 9.67036C20.2523 9.59928 20.3517 9.50562 20.4295 9.39504C20.5073 9.28446 20.5619 9.15925 20.5899 9.02699C20.6179 8.89472 20.6188 8.75814 20.5926 8.62552C20.5663 8.49289 20.5134 8.36697 20.4371 8.25536C19.9801 7.59082 19.3844 7.03337 18.691 6.62148C17.9977 6.20958 17.2232 5.95306 16.421 5.86963C17.1676 4.68476 17.5064 3.28832 17.3858 1.89305C17.3623 1.63969 17.2415 1.4053 17.0489 1.23906C16.8563 1.07282 16.6067 0.987662 16.3526 1.00145C14.6356 1.15448 13.0439 1.96434 11.9093 3.26219C11.1901 4.09557 10.6825 5.09018 10.4298 6.1616C9.90761 5.98488 9.36091 5.89129 8.80968 5.88426C7.78916 5.91318 6.79343 6.20529 5.91903 6.73227C5.04463 7.25925 4.32123 8.00322 3.81896 8.89205C1.93126 12.1694 3.08604 17.0805 5.13095 20.0366C5.95126 21.2211 7.18223 22.9995 9.03916 22.9995C9.07578 22.9995 9.11288 22.9995 9.14999 22.9975C9.77217 22.9622 10.3813 22.8045 10.9425 22.5336C11.3907 22.3064 11.8853 22.1854 12.3878 22.1801C12.8604 22.1858 13.3251 22.3015 13.7452 22.518C14.3591 22.8084 15.0281 22.9639 15.7071 22.974C17.6202 22.9379 18.7501 21.2875 19.5753 20.0814C20.2264 19.1235 20.7359 18.0765 21.088 16.973C21.163 16.7323 21.1447 16.4721 21.0365 16.2443C20.9284 16.0165 20.7385 15.8377 20.5045 15.7436ZM13.4234 4.56787C13.9487 3.98036 14.6068 3.527 15.3429 3.24561C15.1818 4.03784 14.8255 4.77733 14.3063 5.39697C13.9538 5.81984 13.525 6.17267 13.0421 6.43705L13.0392 6.43805C13.0109 6.44977 12.9825 6.46051 12.9542 6.47223C12.7677 6.54547 12.5372 6.63629 12.3595 6.69488C12.5311 5.9082 12.8969 5.17699 13.4234 4.56787ZM17.9249 18.9526C17.1212 20.1265 16.4889 20.9595 15.6705 20.9741C15.2749 20.9729 14.8859 20.8725 14.5392 20.6821C13.8688 20.3555 13.1335 20.1839 12.3878 20.1801C11.6162 20.184 10.855 20.3591 10.1593 20.6928C9.82102 20.8655 9.45198 20.9697 9.07335 20.9994H9.04356C8.23056 20.9994 7.35606 19.7368 6.7755 18.8979C5.32285 16.7983 3.98301 12.6147 5.55235 9.89008C5.88144 9.30048 6.35734 8.80597 6.93389 8.45453C7.51043 8.10309 8.16803 7.90665 8.84287 7.88428L8.87656 7.88328C9.44585 7.93166 10.0018 8.08217 10.5177 8.32762C10.649 8.37937 10.7784 8.43113 10.9068 8.47898C10.9396 8.49266 10.9732 8.50535 11.0074 8.51609C11.3633 8.65922 11.7413 8.73951 12.1246 8.7534C12.6674 8.71026 13.1975 8.56759 13.6886 8.3325C14.3809 7.99652 15.1418 7.82634 15.9113 7.83543C16.7343 7.86763 17.5244 8.16728 18.1618 8.68895C17.617 9.19081 17.1833 9.80108 16.8885 10.4805C16.5937 11.16 16.4443 11.8936 16.4498 12.6343V12.6353C16.4442 13.5319 16.6661 14.4153 17.0948 15.2028C17.5235 15.9903 18.1449 16.6562 18.901 17.1382C18.6377 17.7744 18.3107 18.3823 17.9249 18.9526Z" fill="current"/>
</svg>
