<svg width="24" height="24" viewBox="0 0 24 24" fill="none" xmlns="http://www.w3.org/2000/svg">
<path d="M21.9199 11.6199C21.8723 11.4972 21.8009 11.385 21.7099 11.2899L17.7099 7.28994C17.6167 7.1967 17.506 7.12274 17.3841 7.07228C17.2623 7.02182 17.1318 6.99585 16.9999 6.99585C16.7336 6.99585 16.4782 7.10164 16.2899 7.28994C16.1016 7.47825 15.9958 7.73364 15.9958 7.99994C15.9958 8.26624 16.1016 8.52164 16.2899 8.70994L18.5899 10.9999H5.4099L7.7099 8.70994C7.80313 8.6167 7.8771 8.50601 7.92756 8.38419C7.97802 8.26237 8.00399 8.1318 8.00399 7.99994C8.00399 7.86808 7.97802 7.73751 7.92756 7.61569C7.8771 7.49387 7.80313 7.38318 7.7099 7.28994C7.61666 7.1967 7.50597 7.12274 7.38415 7.07228C7.26232 7.02182 7.13176 6.99585 6.9999 6.99585C6.86804 6.99585 6.73747 7.02182 6.61565 7.07228C6.49383 7.12274 6.38313 7.1967 6.2899 7.28994L2.2899 11.2899C2.19886 11.385 2.12749 11.4972 2.0799 11.6199C1.97988 11.8634 1.97988 12.1365 2.0799 12.3799C2.12749 12.5027 2.19886 12.6148 2.2899 12.7099L6.2899 16.7099C6.38286 16.8037 6.49346 16.8781 6.61532 16.9288C6.73718 16.9796 6.86788 17.0057 6.9999 17.0057C7.13191 17.0057 7.26261 16.9796 7.38447 16.9288C7.50633 16.8781 7.61693 16.8037 7.7099 16.7099C7.80363 16.617 7.87802 16.5064 7.92879 16.3845C7.97956 16.2627 8.00569 16.132 8.00569 15.9999C8.00569 15.8679 7.97956 15.7372 7.92879 15.6154C7.87802 15.4935 7.80363 15.3829 7.7099 15.2899L5.4099 12.9999H18.5899L16.2899 15.2899C16.1962 15.3829 16.1218 15.4935 16.071 15.6154C16.0202 15.7372 15.9941 15.8679 15.9941 15.9999C15.9941 16.132 16.0202 16.2627 16.071 16.3845C16.1218 16.5064 16.1962 16.617 16.2899 16.7099C16.3829 16.8037 16.4935 16.8781 16.6153 16.9288C16.7372 16.9796 16.8679 17.0057 16.9999 17.0057C17.1319 17.0057 17.2626 16.9796 17.3845 16.9288C17.5063 16.8781 17.6169 16.8037 17.7099 16.7099L21.7099 12.7099C21.8009 12.6148 21.8723 12.5027 21.9199 12.3799C22.0199 12.1365 22.0199 11.8634 21.9199 11.6199Z" fill="current"/>
</svg>
