<svg width="24" height="24" viewBox="0 0 24 24" fill="none" xmlns="http://www.w3.org/2000/svg">
<path d="M21.7099 16.2899C21.6169 16.1962 21.5063 16.1218 21.3845 16.071C21.2626 16.0203 21.1319 15.9941 20.9999 15.9941C20.8679 15.9941 20.7372 16.0203 20.6153 16.071C20.4935 16.1218 20.3829 16.1962 20.2899 16.2899L17.9999 18.5899V8.99994C17.9999 8.20429 17.6838 7.44123 17.1212 6.87862C16.5586 6.31601 15.7955 5.99994 14.9999 5.99994H5.4099L7.7099 3.70994C7.80313 3.6167 7.8771 3.50601 7.92756 3.38419C7.97802 3.26237 8.00399 3.1318 8.00399 2.99994C8.00399 2.86808 7.97802 2.73751 7.92756 2.61569C7.8771 2.49387 7.80313 2.38318 7.7099 2.28994C7.61666 2.1967 7.50597 2.12274 7.38415 2.07228C7.26232 2.02182 7.13176 1.99585 6.9999 1.99585C6.86804 1.99585 6.73747 2.02182 6.61565 2.07228C6.49383 2.12274 6.38313 2.1967 6.2899 2.28994L2.2899 6.28994C2.19886 6.38505 2.12749 6.49719 2.0799 6.61994C1.97988 6.8634 1.97988 7.13648 2.0799 7.37994C2.12749 7.50269 2.19886 7.61484 2.2899 7.70994L6.2899 11.7099C6.38286 11.8037 6.49346 11.8781 6.61532 11.9288C6.73718 11.9796 6.86788 12.0057 6.9999 12.0057C7.13191 12.0057 7.26261 11.9796 7.38447 11.9288C7.50633 11.8781 7.61693 11.8037 7.7099 11.7099C7.80363 11.617 7.87802 11.5064 7.92879 11.3845C7.97956 11.2627 8.00569 11.132 8.00569 10.9999C8.00569 10.8679 7.97956 10.7372 7.92879 10.6154C7.87802 10.4935 7.80363 10.3829 7.7099 10.2899L5.4099 7.99994H14.9999C15.2651 7.99994 15.5195 8.1053 15.707 8.29283C15.8945 8.48037 15.9999 8.73472 15.9999 8.99994V18.5899L13.7099 16.2899C13.6167 16.1967 13.506 16.1227 13.3841 16.0723C13.2623 16.0218 13.1318 15.9958 12.9999 15.9958C12.868 15.9958 12.7375 16.0218 12.6156 16.0723C12.4938 16.1227 12.3831 16.1967 12.2899 16.2899C12.1967 16.3832 12.1227 16.4939 12.0722 16.6157C12.0218 16.7375 11.9958 16.8681 11.9958 16.9999C11.9958 17.1318 12.0218 17.2624 12.0722 17.3842C12.1227 17.506 12.1967 17.6167 12.2899 17.7099L16.2899 21.7099C16.385 21.801 16.4971 21.8723 16.6199 21.9199C16.7396 21.9728 16.869 22.0002 16.9999 22.0002C17.1308 22.0002 17.2602 21.9728 17.3799 21.9199C17.5026 21.8723 17.6148 21.801 17.7099 21.7099L21.7099 17.7099C21.8036 17.617 21.878 17.5064 21.9288 17.3845C21.9796 17.2627 22.0057 17.132 22.0057 16.9999C22.0057 16.8679 21.9796 16.7372 21.9288 16.6154C21.878 16.4935 21.8036 16.3829 21.7099 16.2899Z" fill="current"/>
</svg>
