<svg width="24" height="24" viewBox="0 0 24 24" fill="none" xmlns="http://www.w3.org/2000/svg">
<path d="M17.8699 8.6001C17.7954 8.42882 17.6744 8.28183 17.5207 8.17578C17.3669 8.06974 17.1865 8.00888 16.9999 8.0001H12.4199L13.6899 3.2601C13.7304 3.11177 13.7361 2.95612 13.7066 2.80523C13.6771 2.65434 13.6132 2.51229 13.5199 2.3901C13.4257 2.26774 13.3045 2.16886 13.1657 2.10119C13.0269 2.03353 12.8743 1.99893 12.7199 2.0001H5.71992C5.49416 1.99236 5.27243 2.0613 5.09085 2.19567C4.90926 2.33004 4.77852 2.52194 4.71992 2.7401L2.03992 12.7401C1.99915 12.8912 1.99439 13.0497 2.02603 13.2029C2.05767 13.3561 2.12482 13.4998 2.22208 13.6224C2.31935 13.7449 2.44401 13.8429 2.58606 13.9085C2.7281 13.9741 2.88355 14.0055 3.03992 14.0001H6.88992L5.07992 20.7401C5.02062 20.9574 5.03644 21.1884 5.12483 21.3957C5.21321 21.6029 5.36898 21.7742 5.56688 21.8818C5.76479 21.9895 5.99325 22.0271 6.21523 21.9887C6.43721 21.9503 6.63971 21.838 6.78992 21.6701L17.6899 9.6701C17.8197 9.52798 17.9057 9.35143 17.9377 9.16163C17.9696 8.97184 17.9461 8.77686 17.8699 8.6001ZM8.07992 17.2801L9.15992 13.2801C9.20504 13.1296 9.21407 12.9706 9.18627 12.816C9.15847 12.6614 9.09463 12.5155 8.99992 12.3901C8.90472 12.2664 8.78187 12.1667 8.64122 12.0989C8.50057 12.0312 8.34601 11.9974 8.18992 12.0001H4.34992L6.48992 4.0001H11.4199L10.1499 8.7401C10.1091 8.89115 10.1044 9.04967 10.136 9.2029C10.1677 9.35613 10.2348 9.4998 10.3321 9.62235C10.4293 9.74491 10.554 9.84293 10.6961 9.90854C10.8381 9.97414 10.9936 10.0055 11.1499 10.0001H14.7199L8.07992 17.2801ZM18.9999 13.0001H17.9999C17.2043 13.0001 16.4412 13.3162 15.8786 13.8788C15.316 14.4414 14.9999 15.2044 14.9999 16.0001V21.0001C14.9999 21.2653 15.1053 21.5197 15.2928 21.7072C15.4804 21.8947 15.7347 22.0001 15.9999 22.0001C16.2651 22.0001 16.5195 21.8947 16.707 21.7072C16.8946 21.5197 16.9999 21.2653 16.9999 21.0001V19.0001H19.9999V21.0001C19.9999 21.2653 20.1053 21.5197 20.2928 21.7072C20.4804 21.8947 20.7347 22.0001 20.9999 22.0001C21.2651 22.0001 21.5195 21.8947 21.707 21.7072C21.8946 21.5197 21.9999 21.2653 21.9999 21.0001V16.0001C21.9999 15.2044 21.6839 14.4414 21.1212 13.8788C20.5586 13.3162 19.7956 13.0001 18.9999 13.0001ZM19.9999 17.0001H16.9999V16.0001C16.9999 15.7349 17.1053 15.4805 17.2928 15.293C17.4804 15.1055 17.7347 15.0001 17.9999 15.0001H18.9999C19.2651 15.0001 19.5195 15.1055 19.707 15.293C19.8946 15.4805 19.9999 15.7349 19.9999 16.0001V17.0001Z" fill="current"/>
</svg>
