<svg width="24" height="24" viewBox="0 0 24 24" fill="none" xmlns="http://www.w3.org/2000/svg">
<path d="M22.1084 15.0318C21.9811 14.999 21.8486 14.9918 21.7185 15.0104C21.5884 15.029 21.4632 15.0732 21.3503 15.1403C21.2373 15.2075 21.1387 15.2963 21.0601 15.4017C20.9816 15.5071 20.9247 15.627 20.8926 15.7544C20.7095 16.4608 20.2751 17.0761 19.6709 17.4852C19.0666 17.8942 18.3339 18.0688 17.6101 17.9764C16.8863 17.8839 16.221 17.5306 15.739 16.9828C15.257 16.435 14.9913 15.7302 14.9917 15.0005V14.0005H21.9917C22.123 14.0005 22.2531 13.9747 22.3744 13.9245C22.4958 13.8742 22.606 13.8006 22.6989 13.7077C22.7917 13.6148 22.8654 13.5046 22.9156 13.3832C22.9659 13.2619 22.9917 13.1318 22.9917 13.0005C22.9917 12.3439 22.8624 11.6937 22.6111 11.0871C22.3598 10.4805 21.9915 9.92927 21.5272 9.46498C21.0629 9.00068 20.5117 8.63239 19.9051 8.38111C19.2985 8.12984 18.6483 8.00051 17.9917 8.00051C17.3351 8.00051 16.6849 8.12984 16.0783 8.38111C15.4717 8.63239 14.9205 9.00068 14.4562 9.46498C13.9919 9.92927 13.6236 10.4805 13.3723 11.0871C13.121 11.6937 12.9917 12.3439 12.9917 13.0005V15.0005C12.9913 16.2177 13.435 17.3932 14.2397 18.3064C15.0443 19.2197 16.1545 19.808 17.3621 19.9609C18.5696 20.1139 19.7914 19.8209 20.7983 19.1371C21.8052 18.4532 22.528 17.4254 22.8311 16.2466C22.8634 16.1194 22.8704 15.987 22.8516 15.8571C22.8328 15.7272 22.7886 15.6022 22.7215 15.4894C22.6544 15.3766 22.5657 15.2781 22.4605 15.1996C22.3553 15.121 22.2357 15.064 22.1084 15.0318ZM17.9917 10.0005C18.7851 10.0008 19.5463 10.3142 20.1099 10.8726C20.4228 11.1926 20.6614 11.5777 20.8085 12.0005H15.176C15.3814 11.4173 15.7624 10.9119 16.2665 10.5538C16.7707 10.1957 17.3733 10.0024 17.9917 10.0005ZM15.9917 7.00051H19.9917C20.2569 7.00051 20.5113 6.89515 20.6988 6.70762C20.8863 6.52008 20.9917 6.26573 20.9917 6.00051C20.9917 5.73529 20.8863 5.48094 20.6988 5.2934C20.5113 5.10587 20.2569 5.00051 19.9917 5.00051H15.9917C15.7265 5.00051 15.4721 5.10587 15.2846 5.2934C15.0971 5.48094 14.9917 5.73529 14.9917 6.00051C14.9917 6.26573 15.0971 6.52008 15.2846 6.70762C15.4721 6.89515 15.7265 7.00051 15.9917 7.00051ZM9.9097 11.7177C10.4434 11.15 10.799 10.4384 10.9327 9.6708C11.0663 8.9032 10.9721 8.11326 10.6617 7.39863C10.3512 6.684 9.83816 6.07601 9.18592 5.6498C8.53368 5.2236 7.77084 4.99787 6.9917 5.00051H1.9917C1.86037 5.00048 1.73032 5.02632 1.60897 5.07656C1.48763 5.1268 1.37738 5.20046 1.28451 5.29333C1.19165 5.38619 1.11799 5.49644 1.06775 5.61779C1.01751 5.73913 0.991664 5.86918 0.991699 6.00051V19.0005C0.991665 19.1318 1.01751 19.2619 1.06775 19.3832C1.11799 19.5046 1.19165 19.6148 1.28452 19.7077C1.37738 19.8006 1.48763 19.8742 1.60898 19.9245C1.73032 19.9747 1.86037 20.0005 1.9917 20.0005H7.4917C8.46484 20.0023 9.41222 19.688 10.1913 19.1049C10.9704 18.5218 11.5391 17.7015 11.8118 16.7673C12.0845 15.8332 12.0465 14.8357 11.7035 13.9251C11.3604 13.0144 10.7309 12.2397 9.9097 11.7177ZM2.9917 7.00051H6.9917C7.52213 7.00051 8.03084 7.21122 8.40591 7.5863C8.78099 7.96137 8.9917 8.47008 8.9917 9.00051C8.9917 9.53094 8.78099 10.0397 8.40591 10.4147C8.03084 10.7898 7.52213 11.0005 6.9917 11.0005H2.9917V7.00051ZM7.4917 18.0005H2.9917V13.0005H7.4917C8.15474 13.0005 8.79063 13.2639 9.25947 13.7327C9.72831 14.2016 9.9917 14.8375 9.9917 15.5005C9.9917 16.1636 9.72831 16.7994 9.25947 17.2683C8.79063 17.7371 8.15474 18.0005 7.4917 18.0005Z" fill="current"/>
</svg>
