<svg width="24" height="24" viewBox="0 0 24 24" fill="none" xmlns="http://www.w3.org/2000/svg">
<path d="M19.8701 8.6001C19.7956 8.42882 19.6746 8.28183 19.5209 8.17578C19.3671 8.06974 19.1867 8.00888 19.0001 8.0001H14.4201L15.6901 3.2601C15.7306 3.11177 15.7363 2.95612 15.7068 2.80523C15.6773 2.65434 15.6134 2.51229 15.5201 2.3901C15.427 2.26908 15.3073 2.17101 15.1704 2.10341C15.0334 2.03581 14.8828 2.00047 14.7301 2.0001H7.73012C7.50436 1.99236 7.28263 2.0613 7.10104 2.19567C6.91946 2.33004 6.78872 2.52194 6.73012 2.7401L4.05012 12.7401C4.00967 12.8884 4.00397 13.0441 4.03345 13.195C4.06294 13.3459 4.12681 13.4879 4.22012 13.6101C4.31431 13.7325 4.43555 13.8313 4.57434 13.899C4.71314 13.9667 4.86572 14.0013 5.02012 14.0001H8.89012L7.08012 20.7401C7.02082 20.9574 7.03664 21.1884 7.12502 21.3957C7.21341 21.6029 7.36917 21.7742 7.56708 21.8818C7.76499 21.9895 7.99344 22.0271 8.21543 21.9887C8.43741 21.9503 8.63991 21.838 8.79012 21.6701L19.6901 9.6701C19.8199 9.52798 19.9059 9.35143 19.9379 9.16163C19.9698 8.97184 19.9463 8.77686 19.8701 8.6001ZM10.0801 17.2801L11.1501 13.2801C11.1906 13.1318 11.1963 12.9761 11.1668 12.8252C11.1373 12.6743 11.0734 12.5323 10.9801 12.4101C10.887 12.2891 10.7673 12.191 10.6304 12.1234C10.4934 12.0558 10.3428 12.0205 10.1901 12.0201H6.35012L8.49012 4.0001H13.4201L12.1501 8.7401C12.1093 8.89115 12.1046 9.04967 12.1362 9.2029C12.1679 9.35613 12.235 9.4998 12.3323 9.62235C12.4295 9.74491 12.5542 9.84293 12.6963 9.90854C12.8383 9.97414 12.9938 10.0055 13.1501 10.0001H16.7201L10.0801 17.2801Z" fill="current"/>
</svg>
