<svg width="24" height="24" viewBox="0 0 24 24" fill="none" xmlns="http://www.w3.org/2000/svg">
<path d="M22.47 18.8199L21.47 14.9599L18.32 3.36991C18.2519 3.11425 18.0853 2.89598 17.8567 2.76291C17.628 2.62983 17.3559 2.5928 17.1 2.65991L13.23 3.65991C13.1376 3.55755 13.0251 3.4754 12.8995 3.41861C12.7739 3.36182 12.6379 3.33162 12.5 3.32991H2.5C2.23478 3.32991 1.98043 3.43527 1.79289 3.6228C1.60536 3.81034 1.5 4.06469 1.5 4.32991V20.3299C1.5 20.5951 1.60536 20.8495 1.79289 21.037C1.98043 21.2246 2.23478 21.3299 2.5 21.3299H12.5C12.7652 21.3299 13.0196 21.2246 13.2071 21.037C13.3946 20.8495 13.5 20.5951 13.5 20.3299V12.3299L15.7 20.5499C15.7586 20.7681 15.8893 20.96 16.0709 21.0943C16.2525 21.2287 16.4742 21.2976 16.7 21.2899C16.7864 21.2997 16.8736 21.2997 16.96 21.2899L21.79 19.9999C21.9177 19.9658 22.0374 19.9067 22.1421 19.826C22.2468 19.7453 22.3344 19.6447 22.4 19.5299C22.5055 19.3087 22.5302 19.0575 22.47 18.8199ZM6.47 19.3699H3.47V17.3699H6.47V19.3699ZM6.47 15.3699H3.47V9.36991H6.47V15.3699ZM6.47 7.36991H3.47V5.36991H6.47V7.36991ZM11.47 19.3699H8.47V17.3699H11.47V19.3699ZM11.47 15.3699H8.47V9.36991H11.47V15.3699ZM11.47 7.36991H8.47V5.36991H11.47V7.36991ZM13.72 5.62991L16.62 4.84991L17.14 6.77991L14.24 7.55991L13.72 5.62991ZM16.31 15.2899L14.76 9.48991L17.66 8.70991L19.21 14.5099L16.31 15.2899ZM17.31 19.1499L16.79 17.2199L19.69 16.4399L20.21 18.3699L17.31 19.1499Z" fill="current"/>
</svg>
