<svg width="24" height="24" viewBox="0 0 24 24" fill="none" xmlns="http://www.w3.org/2000/svg">
<path d="M8.6699 4.2301C8.83178 4.27266 9.00175 4.2739 9.16424 4.23371C9.32672 4.19353 9.47652 4.1132 9.5999 4.0001H14.6999L13.4299 8.7401C13.3895 8.88842 13.3837 9.04408 13.4132 9.19496C13.4427 9.34585 13.5066 9.48791 13.5999 9.6101C13.6931 9.73111 13.8127 9.82918 13.9496 9.89679C14.0866 9.96439 14.2372 9.99973 14.3899 10.0001H17.9999L16.8699 11.2401C16.6926 11.4366 16.6005 11.6953 16.6136 11.9596C16.6267 12.2238 16.7441 12.4722 16.9399 12.6501C17.1233 12.8168 17.3621 12.9095 17.6099 12.9101C17.7494 12.9098 17.8874 12.8802 18.0148 12.8234C18.1423 12.7666 18.2564 12.6837 18.3499 12.5801L20.9999 9.6701C21.1312 9.52478 21.2169 9.3441 21.2465 9.15048C21.276 8.95687 21.248 8.75885 21.166 8.58099C21.084 8.40314 20.9516 8.25328 20.7852 8.15001C20.6188 8.04674 20.4257 7.99462 20.2299 8.0001H15.6899L16.9999 3.2601C17.039 3.11102 17.043 2.95493 17.0118 2.80401C16.9806 2.65309 16.9149 2.51144 16.8199 2.3901C16.7237 2.265 16.5992 2.16444 16.4567 2.09666C16.3142 2.02888 16.1577 1.99579 15.9999 2.0001H8.9999C8.77414 1.99236 8.55241 2.0613 8.37082 2.19567C8.18924 2.33004 8.0585 2.52194 7.9999 2.7401V3.0001C7.92826 3.25202 7.95831 3.52199 8.08359 3.75199C8.20888 3.98199 8.4194 4.15366 8.6699 4.2301ZM21.6699 20.2901L3.6699 2.2901C3.47529 2.14822 3.23601 2.08135 2.99604 2.10177C2.75607 2.12218 2.53153 2.22852 2.36368 2.40123C2.19583 2.57395 2.09595 2.80143 2.0824 3.04189C2.06884 3.28235 2.14252 3.51962 2.2899 3.7101L6.6099 8.0001L5.3499 12.7401C5.31084 12.8892 5.30676 13.0453 5.33798 13.1962C5.36921 13.3471 5.43489 13.4888 5.5299 13.6101C5.62306 13.7311 5.7427 13.8292 5.87964 13.8968C6.01658 13.9644 6.16718 13.9997 6.3199 14.0001H10.1599L8.3499 20.7401C8.29128 20.9575 8.30777 21.1884 8.3967 21.3953C8.48563 21.6022 8.64179 21.773 8.8399 21.8801C8.98732 21.9597 9.15238 22.0009 9.3199 22.0001C9.45944 21.9998 9.59738 21.9702 9.72482 21.9134C9.85227 21.8566 9.96641 21.7737 10.0599 21.6701L14.9099 16.3301L20.2899 21.7101C20.3829 21.8038 20.4935 21.8782 20.6153 21.929C20.7372 21.9798 20.8679 22.0059 20.9999 22.0059C21.1319 22.0059 21.2626 21.9798 21.3845 21.929C21.5063 21.8782 21.6169 21.8038 21.7099 21.7101C21.8036 21.6171 21.878 21.5065 21.9288 21.3847C21.9796 21.2628 22.0057 21.1321 22.0057 21.0001C22.0057 20.8681 21.9796 20.7374 21.9288 20.6155C21.878 20.4937 21.8036 20.3831 21.7099 20.2901H21.6699ZM7.6199 12.0001L8.2499 9.6601L10.5899 12.0001H7.6199ZM11.3499 17.2801L12.3499 13.7201L13.5499 14.9101L11.3499 17.2801Z" fill="current"/>
</svg>
