<svg width="24" height="24" viewBox="0 0 24 24" fill="none" xmlns="http://www.w3.org/2000/svg">
<path d="M20.47 9.00011C20.6677 9.00011 20.8611 8.94146 21.0255 8.83158C21.19 8.7217 21.3182 8.56552 21.3938 8.3828C21.4695 8.20007 21.4893 7.999 21.4507 7.80502C21.4122 7.61104 21.3169 7.43286 21.1771 7.29301C21.0372 7.15315 20.859 7.05791 20.6651 7.01933C20.4711 6.98074 20.27 7.00055 20.0873 7.07623C19.9046 7.15192 19.7484 7.28009 19.6385 7.44454C19.5286 7.60899 19.47 7.80233 19.47 8.00011C19.47 8.26533 19.5753 8.51968 19.7629 8.70722C19.9504 8.89475 20.2047 9.00011 20.47 9.00011ZM17.47 9.00011C17.6677 9.00011 17.8611 8.94146 18.0255 8.83158C18.19 8.7217 18.3182 8.56552 18.3938 8.3828C18.4695 8.20007 18.4893 7.999 18.4507 7.80502C18.4122 7.61104 18.3169 7.43286 18.1771 7.29301C18.0372 7.15315 17.859 7.05791 17.6651 7.01933C17.4711 6.98074 17.27 7.00055 17.0873 7.07623C16.9046 7.15192 16.7484 7.28009 16.6385 7.44454C16.5286 7.60899 16.47 7.80233 16.47 8.00011C16.47 8.26533 16.5753 8.51968 16.7629 8.70722C16.9504 8.89475 17.2047 9.00011 17.47 9.00011ZM14.47 9.00011C14.6677 9.00011 14.8611 8.94146 15.0255 8.83158C15.19 8.7217 15.3182 8.56552 15.3938 8.3828C15.4695 8.20007 15.4893 7.999 15.4507 7.80502C15.4122 7.61104 15.3169 7.43286 15.1771 7.29301C15.0372 7.15315 14.859 7.05791 14.6651 7.01933C14.4711 6.98074 14.27 7.00055 14.0873 7.07623C13.9046 7.15192 13.7484 7.28009 13.6385 7.44454C13.5286 7.60899 13.47 7.80233 13.47 8.00011C13.47 8.13143 13.4958 8.26147 13.5461 8.3828C13.5963 8.50412 13.67 8.61436 13.7629 8.70722C13.8557 8.80008 13.966 8.87374 14.0873 8.92399C14.2086 8.97425 14.3386 9.00011 14.47 9.00011ZM18.91 13.0001C18.69 13.0001 18.46 12.9301 18.24 12.8801C17.7944 12.7819 17.3566 12.6516 16.93 12.4901C16.4661 12.3213 15.9561 12.3301 15.4983 12.5147C15.0404 12.6993 14.667 13.0467 14.45 13.4901L14.23 13.9401C13.2545 13.3959 12.3564 12.7233 11.56 11.9401C10.7806 11.144 10.1083 10.2498 9.55996 9.28011L9.99996 9.00011C10.4433 8.78303 10.7907 8.40964 10.9754 7.9518C11.16 7.49396 11.1687 6.98402 11 6.52011C10.8412 6.09253 10.7109 5.65491 10.61 5.21011C10.56 4.98011 10.52 4.76011 10.49 4.53011C10.3685 3.82573 9.99959 3.18785 9.44958 2.73135C8.89958 2.27485 8.20466 2.02972 7.48996 2.04011H4.48996C4.06721 2.03956 3.64911 2.12836 3.26308 2.3007C2.87705 2.47303 2.5318 2.72501 2.24996 3.04011C1.96365 3.36261 1.75024 3.74304 1.62426 4.15548C1.49828 4.56792 1.46271 5.00268 1.51996 5.43011C2.04668 9.61716 3.95234 13.5097 6.93636 16.4937C9.92038 19.4777 13.8129 21.3834 18 21.9101C18.1298 21.92 18.2602 21.92 18.39 21.9101C19.1856 21.9101 19.9487 21.594 20.5113 21.0314C21.0739 20.4688 21.39 19.7058 21.39 18.9101V15.9101C21.3796 15.2123 21.1263 14.54 20.6736 14.0089C20.2209 13.4777 19.5973 13.121 18.91 13.0001ZM19.4 19.0001C19.4016 19.1451 19.3717 19.2886 19.3124 19.4209C19.253 19.5532 19.1656 19.6709 19.0562 19.766C18.9468 19.8612 18.8181 19.9314 18.6788 19.9718C18.5396 20.0122 18.3933 20.0219 18.25 20.0001C14.5161 19.5129 11.0471 17.8082 8.37996 15.1501C5.71496 12.465 4.01321 8.97355 3.53996 5.22011C3.51824 5.07345 3.5294 4.92379 3.57264 4.78196C3.61588 4.64014 3.69011 4.50971 3.78996 4.40011C3.88256 4.2947 3.99629 4.20995 4.12379 4.15137C4.25128 4.09279 4.38967 4.0617 4.52996 4.06011H7.52996C7.76251 4.05494 7.98959 4.13099 8.17211 4.27518C8.35463 4.41937 8.48117 4.62268 8.52996 4.85011C8.56996 5.12345 8.61996 5.39345 8.67996 5.66011C8.79548 6.18726 8.94922 6.70529 9.13996 7.21011L7.73996 7.86011C7.62026 7.91503 7.51259 7.99306 7.42312 8.08971C7.33366 8.18636 7.26416 8.29973 7.21864 8.42331C7.17311 8.54689 7.15244 8.67824 7.15781 8.80983C7.16319 8.94142 7.1945 9.07066 7.24996 9.19011C8.68916 12.2729 11.1672 14.7509 14.25 16.1901C14.4934 16.2901 14.7665 16.2901 15.01 16.1901C15.2581 16.0978 15.4595 15.9107 15.57 15.6701L16.2 14.2701C16.7169 14.455 17.2446 14.6086 17.78 14.7301C18.04 14.7901 18.32 14.8401 18.59 14.8801C18.8155 14.9309 19.0166 15.0583 19.1588 15.2406C19.301 15.423 19.3756 15.649 19.37 15.8801L19.4 19.0001Z" fill="current"/>
</svg>
