<svg width="24" height="24" viewBox="0 0 24 24" fill="none" xmlns="http://www.w3.org/2000/svg">
<path d="M20 15.9999C19.3793 16.0031 18.7748 16.1987 18.27 16.5599L15.82 15.1099C15.9356 14.7511 15.9963 14.3768 16 13.9999C15.9971 13.1153 15.7011 12.2567 15.1583 11.5582C14.6155 10.8598 13.8565 10.361 13 10.1399V7.81988C13.6672 7.58399 14.2296 7.11981 14.5876 6.5094C14.9457 5.89899 15.0765 5.18164 14.9568 4.48415C14.8371 3.78665 14.4747 3.15392 13.9337 2.69778C13.3926 2.24163 12.7077 1.99146 12 1.99146C11.2923 1.99146 10.6074 2.24163 10.0663 2.69778C9.52527 3.15392 9.16288 3.78665 9.04321 4.48415C8.92353 5.18164 9.05429 5.89899 9.41237 6.5094C9.77045 7.11981 10.3328 7.58399 11 7.81988V10.1399C10.1435 10.361 9.38451 10.8598 8.84169 11.5582C8.29887 12.2567 8.00287 13.1153 8 13.9999C8.00372 14.3768 8.0644 14.7511 8.18 15.1099L5.73 16.5599C5.22516 16.1987 4.62072 16.0031 4 15.9999C3.40666 15.9999 2.82664 16.1758 2.33329 16.5055C1.83994 16.8351 1.45543 17.3037 1.22836 17.8518C1.0013 18.4 0.94189 19.0032 1.05765 19.5852C1.1734 20.1671 1.45912 20.7016 1.87868 21.1212C2.29824 21.5408 2.83279 21.8265 3.41473 21.9422C3.99667 22.058 4.59987 21.9986 5.14805 21.7715C5.69623 21.5445 6.16477 21.1599 6.49441 20.6666C6.82405 20.1732 7 19.5932 7 18.9999C6.9963 18.729 6.95594 18.4599 6.88 18.1999L9.18 16.8299C9.92945 17.5749 10.9433 17.9931 12 17.9931C13.0567 17.9931 14.0706 17.5749 14.82 16.8299L17.12 18.1999C16.9524 18.8055 16.9793 19.4484 17.1967 20.038C17.4141 20.6275 17.8112 21.1339 18.3318 21.4857C18.8525 21.8374 19.4705 22.0169 20.0986 21.9986C20.7267 21.9803 21.3332 21.7653 21.8325 21.3839C22.3318 21.0024 22.6988 20.4738 22.8816 19.8727C23.0644 19.2715 23.0538 18.6281 22.8514 18.0332C22.6489 17.4384 22.2648 16.9221 21.7532 16.5573C21.2416 16.1925 20.6284 15.9975 20 15.9999ZM4 19.9999C3.80222 19.9999 3.60888 19.9412 3.44443 19.8314C3.27998 19.7215 3.15181 19.5653 3.07612 19.3826C3.00043 19.1998 2.98063 18.9988 3.01922 18.8048C3.0578 18.6108 3.15304 18.4326 3.29289 18.2928C3.43275 18.1529 3.61093 18.0577 3.80491 18.0191C3.99889 17.9805 4.19996 18.0003 4.38268 18.076C4.56541 18.1517 4.72159 18.2799 4.83147 18.4443C4.94135 18.6088 5 18.8021 5 18.9999C5 19.2651 4.89464 19.5195 4.70711 19.707C4.51957 19.8945 4.26522 19.9999 4 19.9999ZM12 3.99988C12.1978 3.99988 12.3911 4.05853 12.5556 4.16841C12.72 4.27829 12.8482 4.43447 12.9239 4.6172C12.9996 4.79993 13.0194 5.00099 12.9808 5.19497C12.9422 5.38895 12.847 5.56714 12.7071 5.70699C12.5673 5.84684 12.3891 5.94208 12.1951 5.98067C12.0011 6.01925 11.8 5.99945 11.6173 5.92376C11.4346 5.84807 11.2784 5.7199 11.1685 5.55545C11.0587 5.391 11 5.19766 11 4.99988C11 4.73467 11.1054 4.48031 11.2929 4.29278C11.4804 4.10524 11.7348 3.99988 12 3.99988ZM12 15.9999C11.6044 15.9999 11.2178 15.8826 10.8889 15.6628C10.56 15.4431 10.3036 15.1307 10.1522 14.7652C10.0009 14.3998 9.96126 13.9977 10.0384 13.6097C10.1156 13.2217 10.3061 12.8654 10.5858 12.5857C10.8655 12.306 11.2219 12.1155 11.6098 12.0383C11.9978 11.9611 12.3999 12.0007 12.7654 12.1521C13.1308 12.3035 13.4432 12.5598 13.6629 12.8887C13.8827 13.2176 14 13.6043 14 13.9999C14 14.5303 13.7893 15.039 13.4142 15.4141C13.0391 15.7892 12.5304 15.9999 12 15.9999ZM20 19.9999C19.8022 19.9999 19.6089 19.9412 19.4444 19.8314C19.28 19.7215 19.1518 19.5653 19.0761 19.3826C19.0004 19.1998 18.9806 18.9988 19.0192 18.8048C19.0578 18.6108 19.153 18.4326 19.2929 18.2928C19.4327 18.1529 19.6109 18.0577 19.8049 18.0191C19.9989 17.9805 20.2 18.0003 20.3827 18.076C20.5654 18.1517 20.7216 18.2799 20.8315 18.4443C20.9414 18.6088 21 18.8021 21 18.9999C21 19.2651 20.8946 19.5195 20.7071 19.707C20.5196 19.8945 20.2652 19.9999 20 19.9999Z" fill="current"/>
</svg>
