<svg width="24" height="24" viewBox="0 0 24 24" fill="none" xmlns="http://www.w3.org/2000/svg">
<path d="M19.2899 3.7099C19.3829 3.80362 19.4935 3.87802 19.6153 3.92879C19.7372 3.97956 19.8679 4.00569 19.9999 4.00569C20.1319 4.00569 20.2626 3.97956 20.3845 3.92879C20.5063 3.87802 20.6169 3.80362 20.7099 3.7099C20.7982 3.61269 20.8693 3.50108 20.9199 3.3799C20.9711 3.25967 20.9983 3.13057 20.9999 2.9999C21.0007 2.86829 20.9754 2.73783 20.9257 2.61599C20.8759 2.49415 20.8026 2.38334 20.7099 2.2899L20.5599 2.1699C20.5041 2.13205 20.4436 2.10178 20.3799 2.0799C20.1978 2.00332 19.9971 1.98239 19.8031 2.01977C19.6091 2.05714 19.4305 2.15114 19.2899 2.2899C19.1972 2.38334 19.1239 2.49415 19.0741 2.61599C19.0244 2.73783 18.9991 2.86829 18.9999 2.9999C19.0015 3.13057 19.0287 3.25967 19.0799 3.3799C19.1305 3.50108 19.2016 3.61269 19.2899 3.7099ZM19.9999 4.9999C19.7347 4.9999 19.4803 5.10525 19.2928 5.29279C19.1053 5.48033 18.9999 5.73468 18.9999 5.9999V9.9999C18.9999 10.2651 19.1053 10.5195 19.2928 10.707C19.4803 10.8945 19.7347 10.9999 19.9999 10.9999C20.2651 10.9999 20.5195 10.8945 20.707 10.707C20.8945 10.5195 20.9999 10.2651 20.9999 9.9999V5.9999C20.9999 5.73468 20.8945 5.48033 20.707 5.29279C20.5195 5.10525 20.2651 4.9999 19.9999 4.9999ZM20.0599 12.9999C19.7975 12.9688 19.5334 13.0429 19.3254 13.2059C19.1174 13.3689 18.9824 13.6076 18.9499 13.8699C18.7378 15.5632 17.9144 17.1208 16.6345 18.2496C15.3546 19.3785 13.7065 20.0009 11.9999 19.9999H6.4099L7.0499 19.3699C7.23615 19.1825 7.34069 18.9291 7.34069 18.6649C7.34069 18.4007 7.23615 18.1473 7.0499 17.9599C6.06739 16.9815 5.3976 15.7333 5.12548 14.3736C4.85336 13.014 4.99118 11.6042 5.52144 10.3229C6.05171 9.04174 6.95053 7.94688 8.10392 7.17723C9.25731 6.40758 10.6133 5.99781 11.9999 5.9999C13.226 5.99804 14.4306 6.32247 15.4899 6.9399C15.7155 7.04185 15.9709 7.0565 16.2066 6.98102C16.4424 6.90553 16.6418 6.74528 16.7662 6.53126C16.8907 6.31724 16.9313 6.06468 16.8802 5.82244C16.8292 5.5802 16.6901 5.3655 16.4899 5.2199C15.129 4.41958 13.5787 3.99833 11.9999 3.9999C10.3074 4.00546 8.6507 4.48818 7.22008 5.39263C5.78947 6.29709 4.64289 7.58663 3.91196 9.11321C3.18104 10.6398 2.8954 12.3415 3.08784 14.0231C3.28028 15.7047 3.94299 17.2979 4.9999 18.6199L3.2899 20.2899C3.15114 20.4305 3.05714 20.6091 3.01977 20.8031C2.98239 20.9971 3.00332 21.1978 3.0799 21.3799C3.15492 21.5625 3.28231 21.7188 3.44603 21.8292C3.60975 21.9395 3.80247 21.9989 3.9999 21.9999H11.9999C14.1929 21.9999 16.3104 21.1992 17.9547 19.7482C19.599 18.2972 20.657 16.2958 20.9299 14.1199C20.9467 13.9892 20.9375 13.8564 20.9028 13.7293C20.8681 13.6021 20.8086 13.4831 20.7278 13.379C20.6469 13.2749 20.5463 13.1878 20.4317 13.1228C20.3171 13.0577 20.1907 13.016 20.0599 12.9999Z" fill="current"/>
</svg>
