<svg width="24" height="24" viewBox="0 0 24 24" fill="none" xmlns="http://www.w3.org/2000/svg">
<path d="M15 1.99993C13.363 2.00125 11.7782 2.57625 10.5213 3.62494C9.26431 4.67363 8.41463 6.12968 8.11997 7.73993C7.2584 8.20475 6.52365 8.87332 5.97981 9.68733C5.43598 10.5013 5.09958 11.436 4.99997 12.4099C4.25572 12.7373 3.60253 13.2412 3.09701 13.8781C2.5915 14.5149 2.24892 15.2654 2.09896 16.0645C1.949 16.8637 1.99619 17.6873 2.23643 18.4641C2.47667 19.2409 2.90272 19.9473 3.47765 20.5222C4.05258 21.0972 4.75905 21.5232 5.53582 21.7635C6.31259 22.0037 7.13624 22.0509 7.93536 21.9009C8.73449 21.751 9.48499 21.4084 10.1218 20.9029C10.7586 20.3974 11.2626 19.7442 11.59 18.9999C12.561 18.9034 13.4938 18.5716 14.3076 18.0331C15.1213 17.4947 15.7915 16.7659 16.26 15.9099C18.0109 15.6291 19.5899 14.6941 20.6782 13.294C21.7664 11.8938 22.2827 10.1329 22.1227 8.3668C21.9627 6.60073 21.1384 4.96119 19.8163 3.77939C18.4942 2.59759 16.7729 1.96161 15 1.99993ZM9.99997 17.4299C9.99997 17.5299 9.99997 17.6299 9.92997 17.7399C9.8008 18.2546 9.53742 18.7259 9.1667 19.1055C8.79597 19.4852 8.33117 19.7598 7.8197 19.9012C7.30823 20.0426 6.7684 20.0458 6.25528 19.9105C5.74216 19.7752 5.27411 19.5063 4.89888 19.131C4.52365 18.7558 4.25466 18.2877 4.11935 17.7746C3.98405 17.2615 3.98727 16.7217 4.12869 16.2102C4.27011 15.6987 4.54467 15.2339 4.92436 14.8632C5.30404 14.4925 5.77527 14.2291 6.28997 14.0999L6.56997 13.9999C7.03955 13.9122 7.52344 13.9402 7.97976 14.0815C8.43608 14.2228 8.8511 14.4732 9.18889 14.811C9.52667 15.1488 9.77707 15.5638 9.91839 16.0201C10.0597 16.4765 10.0877 16.9603 9.99997 17.4299ZM15 13.7599C14.9868 13.8241 14.9701 13.8876 14.95 13.9499C14.907 14.134 14.8502 14.3145 14.78 14.4899C14.5497 15.0737 14.1854 15.5952 13.7163 16.0121C13.2473 16.429 12.6867 16.7297 12.08 16.8899C12.08 16.7099 12.08 16.5399 12.02 16.3599C11.96 16.1799 12.02 16.0899 12.02 15.9599C12.02 15.8299 11.9 15.5799 11.84 15.3899C11.78 15.1999 11.77 15.1499 11.72 15.0299C11.6338 14.8394 11.5335 14.6556 11.42 14.4799C11.42 14.3899 11.33 14.2899 11.27 14.1999C11.0921 13.9392 10.8913 13.6949 10.67 13.4699L10.47 13.2999C10.3023 13.1458 10.1253 13.0022 9.93997 12.8699C9.83102 12.799 9.71743 12.7356 9.59997 12.6799C9.43992 12.5782 9.27283 12.488 9.09997 12.4099C8.97081 12.3547 8.83694 12.3112 8.69997 12.2799C8.53161 12.2116 8.35762 12.1581 8.17997 12.1199C8.03997 12.1199 7.88997 12.1199 7.73997 12.0599L7.12997 11.9999C7.28916 11.3942 7.58835 10.8343 8.00347 10.3653C8.41859 9.89638 8.93803 9.53145 9.51997 9.29993C9.69148 9.2283 9.86879 9.17143 10.05 9.12993L10.25 9.07993C10.4966 9.02806 10.7479 9.00125 11 8.99993C12.0608 8.99993 13.0783 9.42135 13.8284 10.1715C14.5785 10.9216 15 11.9391 15 12.9999C14.9986 13.2553 14.9718 13.5099 14.92 13.7599H15ZM17 13.5999C17 13.3999 17 13.1999 17 12.9999C17 11.4086 16.3678 9.8825 15.2426 8.75729C14.1174 7.63207 12.5913 6.99993 11 6.99993C10.8 6.99993 10.6 6.99993 10.4 6.99993C10.7296 6.25848 11.2347 5.60839 11.8717 5.10578C12.5087 4.60317 13.2585 4.26314 14.0563 4.11505C14.8541 3.96696 15.6759 4.01525 16.4509 4.25576C17.2258 4.49627 17.9306 4.92178 18.5044 5.49554C19.0781 6.06929 19.5036 6.77407 19.7441 7.54903C19.9846 8.32398 20.0329 9.14582 19.8848 9.94361C19.7368 10.7414 19.3967 11.4912 18.8941 12.1282C18.3915 12.7652 17.7414 13.2703 17 13.5999Z" fill="current"/>
</svg>
