<svg width="24" height="24" viewBox="0 0 24 24" fill="none" xmlns="http://www.w3.org/2000/svg">
<path d="M20.9999 7H20.1999C20.0965 6.55129 19.9209 6.12237 19.6799 5.73L20.2399 5.17C20.4037 4.9787 20.4893 4.73262 20.4796 4.48095C20.4699 4.22927 20.3655 3.99053 20.1874 3.81244C20.0094 3.63434 19.7706 3.53001 19.5189 3.52029C19.2673 3.51057 19.0212 3.59617 18.8299 3.76L18.2699 4.32C17.8775 4.07901 17.4486 3.90339 16.9999 3.8V3C16.9999 2.73478 16.8945 2.48043 16.707 2.29289C16.5195 2.10536 16.2651 2 15.9999 2C15.7347 2 15.4803 2.10536 15.2928 2.29289C15.1052 2.48043 14.9999 2.73478 14.9999 3V3.8C14.5538 3.90181 14.1279 4.07758 13.7399 4.32L13.1699 3.76C12.9786 3.59617 12.7325 3.51057 12.4808 3.52029C12.2292 3.53001 11.9904 3.63434 11.8123 3.81244C11.6342 3.99053 11.5299 4.22927 11.5202 4.48095C11.5105 4.73262 11.5961 4.9787 11.7599 5.17L12.3199 5.74C12.2299 5.89 12.1599 6.06 12.0799 6.22C11.5657 6.07486 11.0341 6.00084 10.4999 6C9.05874 5.99918 7.66545 6.5171 6.57475 7.45906C5.48406 8.40102 4.76885 9.70409 4.55988 11.13C3.86352 11.3239 3.24427 11.7287 2.78722 12.2887C2.33016 12.8487 2.05771 13.5365 2.0073 14.2576C1.95689 14.9787 2.13099 15.6978 2.50568 16.3159C2.88037 16.9341 3.43727 17.4211 4.09988 17.71C4.22732 17.7605 4.36282 17.7876 4.49988 17.79C4.73108 17.7919 4.95579 17.7136 5.13576 17.5685C5.31574 17.4233 5.43987 17.2203 5.48702 16.994C5.53418 16.7676 5.50145 16.532 5.3944 16.327C5.28735 16.1221 5.1126 15.9606 4.89988 15.87C4.63158 15.7557 4.40302 15.5647 4.2429 15.321C4.08278 15.0772 3.99823 14.7916 3.99988 14.5C3.99988 14.1022 4.15792 13.7206 4.43922 13.4393C4.72053 13.158 5.10206 13 5.49988 13C5.7651 13 6.01945 12.8946 6.20699 12.7071C6.39453 12.5196 6.49988 12.2652 6.49988 12C6.50417 11.0557 6.84241 10.1434 7.45472 9.42447C8.06704 8.70558 8.91394 8.22651 9.84554 8.07204C10.7771 7.91757 11.7333 8.09767 12.5449 8.58047C13.3565 9.06326 13.9711 9.81761 14.2799 10.71C14.337 10.8818 14.4398 11.0349 14.5772 11.1529C14.7145 11.2709 14.8814 11.3494 15.0599 11.38C15.5243 11.4488 15.957 11.6569 16.3007 11.9768C16.6444 12.2967 16.8829 12.7133 16.9848 13.1717C17.0866 13.63 17.047 14.1085 16.8712 14.5439C16.6953 14.9792 16.3915 15.351 15.9999 15.61C15.8896 15.6822 15.7946 15.7755 15.7203 15.8844C15.646 15.9934 15.5939 16.1159 15.567 16.2449C15.5401 16.374 15.5388 16.5071 15.5633 16.6367C15.5879 16.7662 15.6377 16.8897 15.7099 17C15.7821 17.1103 15.8754 17.2053 15.9843 17.2796C16.0932 17.3539 16.2157 17.4059 16.3448 17.4329C16.4739 17.4598 16.607 17.4611 16.7366 17.4365C16.8661 17.412 16.9896 17.3622 17.0999 17.29C17.6896 16.8891 18.1714 16.3491 18.5028 15.7177C18.8342 15.0864 19.0049 14.383 18.9999 13.67C18.999 13.139 18.8972 12.613 18.6999 12.12L18.8299 12.24C19.0161 12.4247 19.2675 12.5289 19.5299 12.53C19.6615 12.5308 19.792 12.5055 19.9138 12.4558C20.0356 12.406 20.1464 12.3327 20.2399 12.24C20.4261 12.0526 20.5307 11.7992 20.5307 11.535C20.5307 11.2708 20.4261 11.0174 20.2399 10.83L19.6799 10.27C19.9209 9.87763 20.0965 9.44871 20.1999 9H20.9999C21.2651 9 21.5195 8.89464 21.707 8.70711C21.8945 8.51957 21.9999 8.26522 21.9999 8C21.9999 7.73478 21.8945 7.48043 21.707 7.29289C21.5195 7.10536 21.2651 7 20.9999 7ZM17.6599 9.65C17.4862 9.82422 17.283 9.96641 17.0599 10.07C16.7336 9.84377 16.3766 9.6653 15.9999 9.54C15.5404 8.53676 14.8183 7.67641 13.9099 7.05C14.0214 6.7917 14.177 6.55482 14.3699 6.35C14.819 5.93464 15.4082 5.70393 16.0199 5.70393C16.6316 5.70393 17.2208 5.93464 17.6699 6.35C18.0987 6.7922 18.3386 7.384 18.3386 8C18.3386 8.616 18.0987 9.2078 17.6699 9.65H17.6599ZM8.49988 14C8.23467 14 7.98031 14.1054 7.79278 14.2929C7.60524 14.4804 7.49988 14.7348 7.49988 15V21C7.49988 21.2652 7.60524 21.5196 7.79278 21.7071C7.98031 21.8946 8.23467 22 8.49988 22C8.7651 22 9.01945 21.8946 9.20699 21.7071C9.39453 21.5196 9.49988 21.2652 9.49988 21V15C9.49988 14.7348 9.39453 14.4804 9.20699 14.2929C9.01945 14.1054 8.7651 14 8.49988 14ZM12.4999 13C12.2347 13 11.9803 13.1054 11.7928 13.2929C11.6052 13.4804 11.4999 13.7348 11.4999 14V20C11.4999 20.2652 11.6052 20.5196 11.7928 20.7071C11.9803 20.8946 12.2347 21 12.4999 21C12.7651 21 13.0195 20.8946 13.207 20.7071C13.3945 20.5196 13.4999 20.2652 13.4999 20V14C13.4999 13.7348 13.3945 13.4804 13.207 13.2929C13.0195 13.1054 12.7651 13 12.4999 13Z" fill="current"/>
</svg>
