<svg width="24" height="24" viewBox="0 0 24 24" fill="none" xmlns="http://www.w3.org/2000/svg">
<path d="M12.5599 12.6699C12.3946 12.5581 12.1995 12.4984 11.9999 12.4984C11.8003 12.4984 11.6053 12.5581 11.4399 12.6699C11.3299 12.7499 8.74994 14.5299 8.74994 17.2499C8.74994 18.1118 9.09235 18.9385 9.70184 19.548C10.3113 20.1575 11.138 20.4999 11.9999 20.4999C12.8619 20.4999 13.6885 20.1575 14.298 19.548C14.9075 18.9385 15.2499 18.1118 15.2499 17.2499C15.2499 14.4999 12.6699 12.7399 12.5599 12.6699ZM11.9999 18.4999C11.6684 18.4999 11.3505 18.3682 11.1161 18.1338C10.8816 17.8994 10.7499 17.5814 10.7499 17.2499C10.8322 16.3018 11.2806 15.423 11.9999 14.7999C12.7236 15.4196 13.1729 16.3003 13.2499 17.2499C13.2499 17.5814 13.1182 17.8994 12.8838 18.1338C12.6494 18.3682 12.3315 18.4999 11.9999 18.4999ZM18.4199 7.71989C17.8089 6.3159 16.7544 5.15097 15.418 4.40362C14.0816 3.65627 12.537 3.36773 11.0209 3.5822C9.50482 3.79668 8.10087 4.50235 7.0242 5.59107C5.94753 6.67979 5.25753 8.09151 5.05994 9.60989C4.13911 9.83585 3.32848 10.3816 2.77263 11.1497C2.21679 11.9178 1.95188 12.8584 2.02515 13.8038C2.09842 14.7491 2.50511 15.6376 3.17268 16.3109C3.84025 16.9843 4.72529 17.3985 5.66994 17.4799H5.74994C6.00186 17.4807 6.24481 17.3864 6.4302 17.2158C6.6156 17.0453 6.72979 16.811 6.74994 16.5599C6.76088 16.4285 6.74572 16.2962 6.70533 16.1707C6.66495 16.0452 6.60014 15.9289 6.51463 15.8285C6.42912 15.7281 6.32461 15.6456 6.2071 15.5858C6.08959 15.526 5.96141 15.49 5.82994 15.4799C5.33294 15.4375 4.86971 15.2109 4.53115 14.8446C4.19258 14.4783 4.00312 13.9987 3.99994 13.4999C3.99994 12.9695 4.21065 12.4608 4.58573 12.0857C4.9608 11.7106 5.46951 11.4999 5.99994 11.4999C6.26516 11.4999 6.51951 11.3945 6.70705 11.207C6.89458 11.0195 6.99994 10.7651 6.99994 10.4999C7.0025 9.31717 7.42423 8.17365 8.19021 7.27248C8.95619 6.37131 10.0168 5.77085 11.1837 5.57777C12.3505 5.38469 13.5481 5.6115 14.5635 6.2179C15.5789 6.82431 16.3465 7.77103 16.7299 8.88989C16.7871 9.06173 16.8899 9.21483 17.0272 9.33283C17.1646 9.45083 17.3314 9.52931 17.5099 9.5599C18.163 9.67933 18.758 10.012 19.2017 10.5058C19.6454 10.9996 19.9128 11.6267 19.962 12.2888C20.0111 12.9508 19.8393 13.6105 19.4734 14.1644C19.1075 14.7184 18.5682 15.1353 17.9399 15.3499C17.6971 15.4393 17.4985 15.6193 17.3856 15.8522C17.2728 16.085 17.2546 16.3525 17.3348 16.5985C17.4151 16.8445 17.5876 17.0498 17.816 17.1712C18.0445 17.2927 18.3111 17.3209 18.5599 17.2499C19.5669 16.9138 20.4408 16.2659 21.055 15.4C21.6693 14.5341 21.9919 13.4952 21.9763 12.4337C21.9607 11.3722 21.6077 10.3432 20.9683 9.49573C20.3289 8.64826 19.4364 8.02629 18.4199 7.71989Z" fill="current"/>
</svg>
