<svg width="24" height="24" viewBox="0 0 24 24" fill="none" xmlns="http://www.w3.org/2000/svg">
<path d="M7.49988 15C7.23467 15 6.98031 15.1054 6.79278 15.2929C6.60524 15.4804 6.49988 15.7348 6.49988 16V17C6.49988 17.2652 6.60524 17.5196 6.79278 17.7071C6.98031 17.8946 7.23467 18 7.49988 18C7.7651 18 8.01945 17.8946 8.20699 17.7071C8.39453 17.5196 8.49988 17.2652 8.49988 17V16C8.49988 15.7348 8.39453 15.4804 8.20699 15.2929C8.01945 15.1054 7.7651 15 7.49988 15ZM21.9999 7H20.8999C20.7666 6.37352 20.5191 5.77691 20.1699 5.24L20.9999 4.47C21.0931 4.37676 21.1671 4.26607 21.2175 4.14425C21.268 4.02243 21.294 3.89186 21.294 3.76C21.294 3.62814 21.268 3.49757 21.2175 3.37575C21.1671 3.25393 21.0931 3.14324 20.9999 3.05C20.9066 2.95676 20.796 2.8828 20.6741 2.83234C20.5523 2.78188 20.4217 2.75591 20.2899 2.75591C20.158 2.75591 20.0275 2.78188 19.9056 2.83234C19.7838 2.8828 19.6731 2.95676 19.5799 3.05L18.8099 3.83C18.2604 3.47014 17.6453 3.22208 16.9999 3.1V2C16.9999 1.73478 16.8945 1.48043 16.707 1.29289C16.5195 1.10536 16.2651 1 15.9999 1C15.7347 1 15.4803 1.10536 15.2928 1.29289C15.1052 1.48043 14.9999 1.73478 14.9999 2V3.1C14.3734 3.23329 13.7768 3.48075 13.2399 3.83L12.4699 3.05C12.3766 2.95676 12.266 2.8828 12.1441 2.83234C12.0223 2.78188 11.8917 2.75591 11.7599 2.75591C11.628 2.75591 11.4975 2.78188 11.3756 2.83234C11.2538 2.8828 11.1431 2.95676 11.0499 3.05C10.8616 3.2383 10.7558 3.4937 10.7558 3.76C10.7558 4.0263 10.8616 4.2817 11.0499 4.47L11.8299 5.24C11.4334 5.84404 11.1708 6.526 11.0599 7.24C10.5534 7.0888 10.0284 7.00804 9.49988 7C8.05874 6.99918 6.66545 7.5171 5.57475 8.45906C4.48406 9.40102 3.76885 10.7041 3.55988 12.13C2.86352 12.3239 2.24427 12.7287 1.78722 13.2887C1.33016 13.8487 1.05771 14.5365 1.0073 15.2576C0.956892 15.9787 1.13099 16.6978 1.50568 17.3159C1.88037 17.9341 2.43727 18.4211 3.09988 18.71C3.22732 18.7605 3.36282 18.7876 3.49988 18.79C3.73108 18.7919 3.95579 18.7136 4.13576 18.5685C4.31574 18.4233 4.43987 18.2203 4.48702 17.994C4.53418 17.7676 4.50145 17.532 4.3944 17.327C4.28735 17.1221 4.1126 16.9606 3.89988 16.87C3.63158 16.7557 3.40302 16.5647 3.2429 16.321C3.08278 16.0772 2.99823 15.7916 2.99988 15.5C2.99988 15.1022 3.15792 14.7206 3.43922 14.4393C3.72053 14.158 4.10206 14 4.49988 14C4.7651 14 5.01945 13.8946 5.20699 13.7071C5.39453 13.5196 5.49988 13.2652 5.49988 13C5.50417 12.0557 5.84241 11.1434 6.45472 10.4245C7.06704 9.70558 7.91394 9.22651 8.84554 9.07204C9.77713 8.91757 10.7333 9.09768 11.5449 9.58047C12.3565 10.0633 12.9711 10.8176 13.2799 11.71C13.337 11.8818 13.4398 12.0349 13.5772 12.1529C13.7145 12.2709 13.8814 12.3494 14.0599 12.38C14.5243 12.4488 14.957 12.6569 15.3007 12.9768C15.6444 13.2967 15.8829 13.7133 15.9848 14.1717C16.0866 14.63 16.047 15.1085 15.8712 15.5439C15.6953 15.9792 15.3915 16.351 14.9999 16.61C14.8896 16.6822 14.7946 16.7755 14.7203 16.8844C14.646 16.9934 14.5939 17.1159 14.567 17.2449C14.5401 17.374 14.5388 17.5071 14.5633 17.6367C14.5879 17.7662 14.6377 17.8897 14.7099 18C14.8558 18.2228 15.0841 18.3785 15.3448 18.4329C15.4739 18.4598 15.607 18.4611 15.7366 18.4365C15.8661 18.412 15.9896 18.3622 16.0999 18.29C16.6896 17.8891 17.1714 17.3491 17.5028 16.7177C17.8342 16.0864 18.0049 15.383 17.9999 14.67C17.9967 14.0042 17.8429 13.3478 17.5499 12.75C17.9767 12.6101 18.3835 12.4151 18.7599 12.17L19.5299 12.95C19.62 13.0548 19.7309 13.1397 19.8555 13.1995C19.9801 13.2592 20.1158 13.2925 20.2539 13.2972C20.3921 13.3019 20.5297 13.2779 20.658 13.2268C20.7864 13.1756 20.9028 13.0984 20.9999 13C21.0936 12.907 21.168 12.7964 21.2188 12.6746C21.2695 12.5527 21.2957 12.422 21.2957 12.29C21.2957 12.158 21.2695 12.0273 21.2188 11.9054C21.168 11.7836 21.0936 11.673 20.9999 11.58L20.2199 10.81C20.5622 10.2567 20.7931 9.64183 20.8999 9H21.9999C22.2651 9 22.5195 8.89464 22.707 8.70711C22.8945 8.51957 22.9999 8.26522 22.9999 8C22.9999 7.73478 22.8945 7.48043 22.707 7.29289C22.5195 7.10536 22.2651 7 21.9999 7ZM18.1299 10.12C17.8504 10.3998 17.5183 10.6217 17.1528 10.7727C16.7872 10.9237 16.3954 11.001 15.9999 11H15.9399C15.6286 10.8026 15.2923 10.6479 14.9399 10.54C14.4967 9.58293 13.8063 8.76136 12.9399 8.16C12.9399 8.1 12.9399 8.06 12.9399 8C12.9379 7.20605 13.2508 6.4437 13.8099 5.88C14.385 5.33857 15.145 5.03707 15.9349 5.03707C16.7247 5.03707 17.4848 5.33857 18.0599 5.88C18.3396 6.15871 18.5615 6.48989 18.7129 6.85454C18.8643 7.2192 18.9422 7.61016 18.9422 8.005C18.9422 8.39984 18.8643 8.7908 18.7129 9.15546C18.5615 9.52011 18.3396 9.85129 18.0599 10.13L18.1299 10.12ZM7.49988 20C7.23467 20 6.98031 20.1054 6.79278 20.2929C6.60524 20.4804 6.49988 20.7348 6.49988 21V22C6.49988 22.2652 6.60524 22.5196 6.79278 22.7071C6.98031 22.8946 7.23467 23 7.49988 23C7.7651 23 8.01945 22.8946 8.20699 22.7071C8.39453 22.5196 8.49988 22.2652 8.49988 22V21C8.49988 20.7348 8.39453 20.4804 8.20699 20.2929C8.01945 20.1054 7.7651 20 7.49988 20ZM11.4999 19C11.2347 19 10.9803 19.1054 10.7928 19.2929C10.6052 19.4804 10.4999 19.7348 10.4999 20V21C10.4999 21.2652 10.6052 21.5196 10.7928 21.7071C10.9803 21.8946 11.2347 22 11.4999 22C11.7651 22 12.0195 21.8946 12.207 21.7071C12.3945 21.5196 12.4999 21.2652 12.4999 21V20C12.4999 19.7348 12.3945 19.4804 12.207 19.2929C12.0195 19.1054 11.7651 19 11.4999 19ZM11.4999 14C11.2347 14 10.9803 14.1054 10.7928 14.2929C10.6052 14.4804 10.4999 14.7348 10.4999 15V16C10.4999 16.2652 10.6052 16.5196 10.7928 16.7071C10.9803 16.8946 11.2347 17 11.4999 17C11.7651 17 12.0195 16.8946 12.207 16.7071C12.3945 16.5196 12.4999 16.2652 12.4999 16V15C12.4999 14.7348 12.3945 14.4804 12.207 14.2929C12.0195 14.1054 11.7651 14 11.4999 14Z" fill="current"/>
</svg>
