<svg width="24" height="24" viewBox="0 0 24 24" fill="none" xmlns="http://www.w3.org/2000/svg">
<path d="M21.0001 9H20.2001C20.0967 8.55129 19.9211 8.12237 19.6801 7.73L20.2401 7.17C20.4039 6.9787 20.4895 6.73262 20.4798 6.48095C20.4701 6.22927 20.3658 5.99053 20.1877 5.81244C20.0096 5.63434 19.7708 5.53001 19.5192 5.52029C19.2675 5.51057 19.0214 5.59617 18.8301 5.76L18.2701 6.32C17.8777 6.07901 17.4488 5.90339 17.0001 5.8V5C17.0001 4.73478 16.8948 4.48043 16.7072 4.29289C16.5197 4.10536 16.2653 4 16.0001 4C15.7349 4 15.4805 4.10536 15.293 4.29289C15.1055 4.48043 15.0001 4.73478 15.0001 5V5.8C14.554 5.90181 14.1282 6.07758 13.7401 6.32L13.1701 5.76C12.9788 5.59617 12.7327 5.51057 12.4811 5.52029C12.2294 5.53001 11.9906 5.63434 11.8125 5.81244C11.6345 5.99053 11.5301 6.22927 11.5204 6.48095C11.5107 6.73262 11.5963 6.9787 11.7601 7.17L12.3201 7.74C12.2301 7.89 12.1601 8.06 12.0801 8.22C11.566 8.07487 11.0344 8.00084 10.5001 8C9.05896 7.99918 7.66567 8.5171 6.57498 9.45906C5.48429 10.401 4.76907 11.7041 4.56011 13.13C3.7463 13.3582 3.04256 13.8732 2.57887 14.5799C2.11518 15.2865 1.92287 16.1371 2.03745 16.9745C2.15202 17.8119 2.56576 18.5795 3.20223 19.1356C3.8387 19.6918 4.65491 19.9988 5.50011 20H14.6701C15.8185 20 16.9198 19.5438 17.7319 18.7318C18.5439 17.9197 19.0001 16.8184 19.0001 15.67C18.9992 15.139 18.8974 14.613 18.7001 14.12L18.8301 14.24C19.0164 14.4247 19.2678 14.5289 19.5301 14.53C19.6617 14.5308 19.7922 14.5055 19.914 14.4558C20.0359 14.406 20.1467 14.3327 20.2401 14.24C20.4264 14.0526 20.5309 13.7992 20.5309 13.535C20.5309 13.2708 20.4264 13.0174 20.2401 12.83L19.6801 12.27C19.9211 11.8776 20.0967 11.4487 20.2001 11H21.0001C21.2653 11 21.5197 10.8946 21.7072 10.7071C21.8948 10.5196 22.0001 10.2652 22.0001 10C22.0001 9.73478 21.8948 9.48043 21.7072 9.29289C21.5197 9.10536 21.2653 9 21.0001 9ZM14.6701 18H5.50011C5.10228 18 4.72075 17.842 4.43945 17.5607C4.15814 17.2794 4.00011 16.8978 4.00011 16.5C4.00011 16.1022 4.15814 15.7206 4.43945 15.4393C4.72075 15.158 5.10228 15 5.50011 15C5.76533 15 6.01968 14.8946 6.20722 14.7071C6.39475 14.5196 6.50011 14.2652 6.50011 14C6.5044 13.0557 6.84263 12.1434 7.45495 11.4245C8.06726 10.7056 8.91417 10.2265 9.84576 10.072C10.7774 9.91757 11.7336 10.0977 12.5451 10.5805C13.3567 11.0633 13.9713 11.8176 14.2801 12.71C14.3373 12.8818 14.44 13.0349 14.5774 13.1529C14.7148 13.2709 14.8816 13.3494 15.0601 13.38C15.6277 13.4861 16.1357 13.7992 16.4855 14.2586C16.8354 14.718 17.0022 15.2909 16.9536 15.8663C16.9051 16.4417 16.6446 16.9785 16.2227 17.3728C15.8007 17.767 15.2475 17.9905 14.6701 18ZM17.6701 11.65C17.4938 11.8159 17.291 11.9511 17.0701 12.05C16.7375 11.8335 16.3777 11.662 16.0001 11.54C15.5407 10.5368 14.8185 9.67641 13.9101 9.05C14.0194 8.79349 14.1753 8.55951 14.3701 8.36C14.8175 7.94532 15.4051 7.71493 16.0151 7.71493C16.6251 7.71493 17.2127 7.94532 17.6601 8.36C18.089 8.8022 18.3288 9.394 18.3288 10.01C18.3288 10.626 18.089 11.2178 17.6601 11.66L17.6701 11.65Z" fill="current"/>
</svg>
