<svg width="24" height="24" viewBox="0 0 24 24" fill="none" xmlns="http://www.w3.org/2000/svg">
<path d="M4.99989 18C4.80211 18 4.60877 18.0586 4.44432 18.1685C4.27987 18.2784 4.1517 18.4346 4.07601 18.6173C4.00032 18.8 3.98052 19.0011 4.0191 19.1951C4.05769 19.3891 4.15293 19.5672 4.29278 19.7071C4.43264 19.8469 4.61082 19.9422 4.8048 19.9808C4.99878 20.0194 5.19985 19.9995 5.38257 19.9239C5.5653 19.8482 5.72148 19.72 5.83136 19.5556C5.94124 19.3911 5.99989 19.1978 5.99989 19C5.99989 18.7348 5.89453 18.4804 5.707 18.2929C5.51946 18.1053 5.26511 18 4.99989 18ZM18.9999 14H11.9999C11.7347 14 11.4803 14.1053 11.2928 14.2929C11.1052 14.4804 10.9999 14.7348 10.9999 15C10.9999 15.2652 11.1052 15.5196 11.2928 15.7071C11.4803 15.8946 11.7347 16 11.9999 16H18.9999C19.2651 16 19.5195 16.1053 19.707 16.2929C19.8945 16.4804 19.9999 16.7348 19.9999 17C19.9999 17.2652 19.8945 17.5196 19.707 17.7071C19.5195 17.8946 19.2651 18 18.9999 18C18.7347 18 18.4803 18.1053 18.2928 18.2929C18.1052 18.4804 17.9999 18.7348 17.9999 19C17.9999 19.2652 18.1052 19.5196 18.2928 19.7071C18.4803 19.8946 18.7347 20 18.9999 20C19.7955 20 20.5586 19.6839 21.1212 19.1213C21.6838 18.5587 21.9999 17.7956 21.9999 17C21.9999 16.2043 21.6838 15.4413 21.1212 14.8787C20.5586 14.3161 19.7955 14 18.9999 14ZM13.9999 11C13.9999 11.2652 14.1052 11.5196 14.2928 11.7071C14.4803 11.8946 14.7347 12 14.9999 12H18.9999C19.7955 12 20.5586 11.6839 21.1212 11.1213C21.6838 10.5587 21.9999 9.79563 21.9999 8.99998C21.9999 8.73477 21.8945 8.48041 21.707 8.29288C21.5195 8.10534 21.2651 7.99998 20.9999 7.99998C20.7347 7.99998 20.4803 8.10534 20.2928 8.29288C20.1052 8.48041 19.9999 8.73477 19.9999 8.99998C19.9999 9.2652 19.8945 9.51955 19.707 9.70709C19.5195 9.89462 19.2651 9.99998 18.9999 9.99998H14.9999C14.7347 9.99998 14.4803 10.1053 14.2928 10.2929C14.1052 10.4804 13.9999 10.7348 13.9999 11ZM9.99989 15C9.99989 14.7348 9.89453 14.4804 9.707 14.2929C9.51946 14.1053 9.26511 14 8.99989 14H5.99989C5.46946 14 4.96075 13.7893 4.58568 13.4142C4.2106 13.0391 3.99989 12.5304 3.99989 12C3.99989 11.4695 4.2106 10.9608 4.58568 10.5858C4.96075 10.2107 5.46946 9.99998 5.99989 9.99998C6.26511 9.99998 6.51946 9.89462 6.707 9.70709C6.89453 9.51955 6.99989 9.2652 6.99989 8.99998C7.00244 7.81726 7.42418 6.67374 8.19016 5.77257C8.95614 4.8714 10.0168 4.27093 11.1836 4.07786C12.3505 3.88478 13.548 4.11159 14.5635 4.71799C15.5789 5.32439 16.3465 6.27112 16.7299 7.38998C16.8148 7.64194 16.9962 7.84986 17.2344 7.96801C17.4726 8.08616 17.7479 8.10485 17.9999 8.01998C18.2518 7.93511 18.4598 7.75363 18.5779 7.51546C18.6961 7.27729 18.7148 7.00194 18.6299 6.74998C18.1207 5.25261 17.1194 3.9718 15.7892 3.11625C14.459 2.26071 12.8783 1.88085 11.3046 2.03856C9.73085 2.19628 8.25694 2.88228 7.12297 3.98479C5.989 5.0873 5.26181 6.54134 5.05989 8.10998C4.10648 8.3383 3.27011 8.90882 2.70963 9.71317C2.14914 10.5175 1.90357 11.4997 2.01955 12.4732C2.13553 13.4467 2.60498 14.3437 3.33876 14.9938C4.07253 15.644 5.01952 16.002 5.99989 16H8.99989C9.26511 16 9.51946 15.8946 9.707 15.7071C9.89453 15.5196 9.99989 15.2652 9.99989 15ZM9.99989 11C9.99989 11.1978 10.0585 11.3911 10.1684 11.5556C10.2783 11.72 10.4345 11.8482 10.6172 11.9239C10.7999 11.9995 11.001 12.0194 11.195 11.9808C11.389 11.9422 11.5671 11.8469 11.707 11.7071C11.8468 11.5672 11.9421 11.3891 11.9807 11.1951C12.0193 11.0011 11.9995 10.8 11.9238 10.6173C11.8481 10.4346 11.7199 10.2784 11.5555 10.1685C11.391 10.0586 11.1977 9.99998 10.9999 9.99998C10.7347 9.99998 10.4803 10.1053 10.2928 10.2929C10.1052 10.4804 9.99989 10.7348 9.99989 11ZM13.9999 18H8.99989C8.73467 18 8.48032 18.1053 8.29278 18.2929C8.10525 18.4804 7.99989 18.7348 7.99989 19C7.99989 19.2652 8.10525 19.5196 8.29278 19.7071C8.48032 19.8946 8.73467 20 8.99989 20H13.9999C14.2651 20 14.5195 20.1053 14.707 20.2929C14.8945 20.4804 14.9999 20.7348 14.9999 21C14.9999 21.2652 15.1052 21.5196 15.2928 21.7071C15.4803 21.8946 15.7347 22 15.9999 22C16.2651 22 16.5195 21.8946 16.707 21.7071C16.8945 21.5196 16.9999 21.2652 16.9999 21C16.9999 20.2043 16.6838 19.4413 16.1212 18.8787C15.5586 18.3161 14.7955 18 13.9999 18Z" fill="current"/>
</svg>
