<svg width="24" height="24" viewBox="0 0 24 24" fill="none" xmlns="http://www.w3.org/2000/svg">
<path d="M12.7099 18.79C12.6127 18.7017 12.5011 18.6307 12.3799 18.58C12.1978 18.5035 11.9971 18.4825 11.8031 18.5199C11.6091 18.5573 11.4305 18.6513 11.2899 18.79C11.1072 18.9817 11.0036 19.2353 10.9999 19.5C10.9991 19.6316 11.0244 19.7621 11.0741 19.8839C11.1239 20.0058 11.1972 20.1166 11.2899 20.21C11.3871 20.2984 11.4987 20.3694 11.6199 20.42C11.8016 20.4928 12.0007 20.5106 12.1925 20.4712C12.3842 20.4319 12.5602 20.3372 12.6986 20.1988C12.837 20.0603 12.9318 19.8843 12.9711 19.6926C13.0104 19.5008 12.9926 19.3018 12.9199 19.12C12.8723 18.9973 12.8009 18.8851 12.7099 18.79ZM11.9999 12.5C11.7347 12.5 11.4803 12.6054 11.2928 12.7929C11.1052 12.9805 10.9999 13.2348 10.9999 13.5V16.5C10.9999 16.7653 11.1052 17.0196 11.2928 17.2071C11.4803 17.3947 11.7347 17.5 11.9999 17.5C12.2651 17.5 12.5195 17.3947 12.707 17.2071C12.8945 17.0196 12.9999 16.7653 12.9999 16.5V13.5C12.9999 13.2348 12.8945 12.9805 12.707 12.7929C12.5195 12.6054 12.2651 12.5 11.9999 12.5ZM18.4199 7.71003C17.8082 6.30584 16.7528 5.14103 15.4156 4.39419C14.0784 3.64735 12.5332 3.3597 11.0168 3.57536C9.50039 3.79101 8.09659 4.49806 7.02061 5.58809C5.94462 6.67813 5.25585 8.09098 5.05989 9.61003C4.10648 9.83836 3.27011 10.4089 2.70963 11.2132C2.14914 12.0176 1.90357 12.9998 2.01955 13.9732C2.13553 14.9467 2.60498 15.8437 3.33876 16.4939C4.07253 17.1441 5.01952 17.5021 5.99989 17.5H7.99989C8.26511 17.5 8.51946 17.3947 8.707 17.2071C8.89453 17.0196 8.99989 16.7653 8.99989 16.5C8.99989 16.2348 8.89453 15.9805 8.707 15.7929C8.51946 15.6054 8.26511 15.5 7.99989 15.5H5.99989C5.46946 15.5 4.96075 15.2893 4.58568 14.9142C4.2106 14.5392 3.99989 14.0305 3.99989 13.5C3.99989 12.9696 4.2106 12.4609 4.58568 12.0858C4.96075 11.7107 5.46946 11.5 5.99989 11.5C6.26511 11.5 6.51946 11.3947 6.707 11.2071C6.89453 11.0196 6.99989 10.7652 6.99989 10.5C7.00244 9.31731 7.42418 8.17379 8.19016 7.27262C8.95614 6.37145 10.0168 5.77098 11.1836 5.57791C12.3505 5.38483 13.548 5.61164 14.5635 6.21804C15.5789 6.82444 16.3465 7.77117 16.7299 8.89003C16.7886 9.06001 16.892 9.21102 17.0292 9.32717C17.1665 9.44332 17.3325 9.52031 17.5099 9.55003C18.2429 9.68529 18.8993 10.0886 19.3512 10.6813C19.8031 11.274 20.0182 12.0138 19.9546 12.7564C19.8909 13.4991 19.5531 14.1914 19.0069 14.6986C18.4607 15.2058 17.7452 15.4915 16.9999 15.5H15.9999C15.7347 15.5 15.4803 15.6054 15.2928 15.7929C15.1052 15.9805 14.9999 16.2348 14.9999 16.5C14.9999 16.7653 15.1052 17.0196 15.2928 17.2071C15.4803 17.3947 15.7347 17.5 15.9999 17.5H16.9999C18.1992 17.4967 19.3575 17.0624 20.2633 16.2763C21.1691 15.4902 21.7622 14.4047 21.9343 13.2178C22.1065 12.0308 21.8463 10.8216 21.2011 9.81049C20.556 8.79943 19.5689 8.05396 18.4199 7.71003Z" fill="current"/>
</svg>
