<svg width="24" height="24" viewBox="0 0 24 24" fill="none" xmlns="http://www.w3.org/2000/svg">
<path d="M21.7001 9.07009C21.5797 8.95176 21.4312 8.86586 21.2686 8.8204C21.106 8.77493 20.9345 8.77139 20.7701 8.81009C20.5536 8.86012 20.3323 8.88693 20.1101 8.89009C19.3145 8.89009 18.5514 8.57402 17.9888 8.01141C17.4262 7.4488 17.1101 6.68574 17.1101 5.89009C17.1133 5.66788 17.1401 5.44663 17.1901 5.23009C17.2288 5.06573 17.2253 4.89425 17.1798 4.73163C17.1343 4.56901 17.0484 4.42055 16.9301 4.30009C16.8137 4.17471 16.6671 4.08129 16.5042 4.02876C16.3414 3.97624 16.1678 3.96636 16.0001 4.00009C15.0048 4.21983 14.1021 4.74265 13.4162 5.49659C12.7303 6.25053 12.295 7.19852 12.1701 8.21009C11.6255 8.06499 11.0637 7.99435 10.5001 8.00009C9.05896 7.99927 7.66567 8.51719 6.57498 9.45915C5.48429 10.4011 4.76907 11.7042 4.56011 13.1301C3.7463 13.3583 3.04256 13.8733 2.57887 14.5799C2.11518 15.2866 1.92287 16.1372 2.03745 16.9746C2.15202 17.812 2.56576 18.5796 3.20223 19.1357C3.8387 19.6919 4.65491 19.9989 5.50011 20.0001H14.6701C15.8185 20.0001 16.9198 19.5439 17.7319 18.7319C18.5439 17.9198 19.0001 16.8185 19.0001 15.6701C19.004 14.9732 18.8357 14.2862 18.5101 13.6701C19.3689 13.4303 20.1468 12.9625 20.7612 12.3164C21.3756 11.6702 21.8037 10.8698 22.0001 10.0001C22.0338 9.83236 22.024 9.65878 21.9714 9.49595C21.9189 9.33313 21.8255 9.1865 21.7001 9.07009ZM14.7001 18.0001H5.50011C5.10228 18.0001 4.72075 17.8421 4.43945 17.5608C4.15814 17.2794 4.00011 16.8979 4.00011 16.5001C4.00011 16.1023 4.15814 15.7207 4.43945 15.4394C4.72075 15.1581 5.10228 15.0001 5.50011 15.0001C5.76533 15.0001 6.01968 14.8947 6.20722 14.7072C6.39475 14.5197 6.50011 14.2653 6.50011 14.0001C6.50258 13.2812 6.69874 12.5763 7.06796 11.9594C7.43718 11.3426 7.96582 10.8367 8.59826 10.4949C9.23069 10.1531 9.94356 9.98802 10.6619 10.0171C11.3802 10.0462 12.0774 10.2683 12.6801 10.6601C13.4101 11.1349 13.9622 11.8382 14.2501 12.6601C14.3073 12.8319 14.41 12.985 14.5474 13.103C14.6848 13.221 14.8516 13.2995 15.0301 13.3301C15.3367 13.3537 15.6357 13.4375 15.91 13.5767C16.1842 13.7159 16.4284 13.9077 16.6285 14.1413C16.8286 14.3748 16.9807 14.6455 17.0763 14.9378C17.1718 15.2302 17.2087 15.5385 17.1851 15.8451C17.1615 16.1517 17.0777 16.4507 16.9385 16.725C16.7993 16.9992 16.6075 17.2434 16.3739 17.4435C16.1404 17.6436 15.8697 17.7957 15.5774 17.8912C15.285 17.9867 14.9767 18.0237 14.6701 18.0001H14.7001ZM17.1401 11.8901C17.0003 11.9014 16.8599 11.9014 16.7201 11.8901C16.4894 11.7665 16.2485 11.6628 16.0001 11.5801C15.5882 10.6832 14.9634 9.90055 14.1801 9.30009C14.1801 9.18009 14.1801 9.05009 14.1801 8.93009C14.1801 8.49677 14.2739 8.06859 14.4552 7.675C14.6364 7.2814 14.9008 6.93175 15.2301 6.65009C15.3849 7.71695 15.8804 8.70519 16.6427 9.46747C17.405 10.2298 18.3933 10.7253 19.4601 10.8801C19.167 11.2112 18.8044 11.4735 18.3981 11.6481C17.9919 11.8227 17.552 11.9053 17.1101 11.8901H17.1401Z" fill="current"/>
</svg>
