<svg width="24" height="24" viewBox="0 0 24 24" fill="none" xmlns="http://www.w3.org/2000/svg">
<path d="M14.4999 15.9201H13.7299L14.1199 15.2501C14.2525 15.0193 14.288 14.7453 14.2186 14.4884C14.1492 14.2315 13.9806 14.0127 13.7499 13.8801C13.5191 13.7474 13.2452 13.7119 12.9883 13.7813C12.7313 13.8507 12.5125 14.0193 12.3799 14.2501L11.9999 14.9201L11.6199 14.2501C11.4873 14.0193 11.2684 13.8507 11.0115 13.7813C10.7546 13.7119 10.4806 13.7474 10.2499 13.8801C10.0191 14.0127 9.85054 14.2315 9.78115 14.4884C9.71176 14.7453 9.74728 15.0193 9.87988 15.2501L10.2699 15.9201H9.49988C9.23467 15.9201 8.98031 16.0254 8.79278 16.2129C8.60524 16.4005 8.49988 16.6548 8.49988 16.9201C8.49988 17.1853 8.60524 17.4396 8.79278 17.6272C8.98031 17.8147 9.23467 17.9201 9.49988 17.9201H10.2699L9.87988 18.5801C9.74728 18.8108 9.71176 19.0848 9.78115 19.3417C9.85054 19.5986 10.0191 19.8174 10.2499 19.9501C10.4806 20.0827 10.7546 20.1182 11.0115 20.0488C11.2684 19.9794 11.4873 19.8108 11.6199 19.5801L11.9999 18.9201L12.3799 19.5801C12.5125 19.8108 12.7313 19.9794 12.9883 20.0488C13.2452 20.1182 13.5191 20.0827 13.7499 19.9501C13.9806 19.8174 14.1492 19.5986 14.2186 19.3417C14.288 19.0848 14.2525 18.8108 14.1199 18.5801L13.7299 17.9201H14.4999C14.7651 17.9201 15.0195 17.8147 15.207 17.6272C15.3945 17.4396 15.4999 17.1853 15.4999 16.9201C15.4999 16.6548 15.3945 16.4005 15.207 16.2129C15.0195 16.0254 14.7651 15.9201 14.4999 15.9201ZM18.4199 8.13005C17.8102 6.72643 16.7574 5.56126 15.4226 4.81288C14.0878 4.06451 12.5445 3.77416 11.029 3.98629C9.51349 4.19842 8.10923 4.90133 7.03119 5.98743C5.95315 7.07354 5.26072 8.48299 5.05988 10.0001C4.18228 10.2122 3.40226 10.715 2.84668 11.4267C2.29111 12.1385 1.99266 13.0172 1.99988 13.9201C2.00347 14.8639 2.34068 15.776 2.95191 16.4952C3.56313 17.2144 4.40898 17.6943 5.33988 17.8501H5.49988C5.7651 17.8713 6.02788 17.7863 6.23042 17.6137C6.43296 17.4412 6.55867 17.1953 6.57988 16.9301C6.6011 16.6648 6.51609 16.4021 6.34356 16.1995C6.17103 15.997 5.9251 15.8713 5.65988 15.8501C5.1903 15.7691 4.76505 15.5231 4.46071 15.1565C4.15638 14.7898 3.99296 14.3265 3.99988 13.8501C3.99988 13.3196 4.2106 12.8109 4.58567 12.4358C4.96074 12.0608 5.46945 11.8501 5.99988 11.8501C6.2651 11.8501 6.51945 11.7447 6.70699 11.5572C6.89453 11.3696 6.99988 11.1153 6.99988 10.8501C7.00244 9.66733 7.42417 8.5238 8.19015 7.62263C8.95614 6.72146 10.0168 6.121 11.1836 5.92792C12.3505 5.73485 13.548 5.96166 14.5635 6.56806C15.5789 7.17446 16.3465 8.12119 16.7299 9.24005C16.7885 9.41003 16.892 9.56104 17.0292 9.67719C17.1665 9.79334 17.3325 9.87033 17.5099 9.90005C18.1466 10.0157 18.7289 10.3341 19.1698 10.8078C19.6107 11.2815 19.8866 11.8851 19.9563 12.5285C20.026 13.1719 19.8859 13.8205 19.5567 14.3777C19.2275 14.9349 18.727 15.3707 18.1299 15.6201C17.9972 15.6602 17.8744 15.7275 17.7691 15.8177C17.6638 15.9078 17.5784 16.0189 17.5184 16.1438C17.4583 16.2688 17.4249 16.4048 17.4202 16.5433C17.4155 16.6819 17.4397 16.8199 17.4911 16.9486C17.5426 17.0772 17.6203 17.1938 17.7192 17.2909C17.8181 17.388 17.9362 17.4635 18.0658 17.5125C18.1955 17.5615 18.3339 17.5831 18.4723 17.5758C18.6107 17.5685 18.7461 17.5325 18.8699 17.47C19.8246 17.0778 20.6345 16.3998 21.1885 15.529C21.7424 14.6582 22.0134 13.6372 21.9641 12.6063C21.9148 11.5754 21.5477 10.585 20.9131 9.77102C20.2785 8.95704 19.4076 8.35938 18.4199 8.06005V8.13005Z" fill="current"/>
</svg>
