<svg width="24" height="24" viewBox="0 0 24 24" fill="none" xmlns="http://www.w3.org/2000/svg">
<path d="M12.4999 16.9199H11.7299L12.1199 16.2499C12.2525 16.0192 12.288 15.7452 12.2187 15.4883C12.1493 15.2314 11.9807 15.0125 11.7499 14.8799C11.5192 14.7473 11.2452 14.7118 10.9883 14.7812C10.7314 14.8506 10.5125 15.0192 10.3799 15.2499L9.99991 15.9199L9.61991 15.2499C9.48731 15.0192 9.26847 14.8506 9.01154 14.7812C8.75462 14.7118 8.48065 14.7473 8.24991 14.8799C8.01918 15.0125 7.85057 15.2314 7.78118 15.4883C7.71179 15.7452 7.74731 16.0192 7.87991 16.2499L8.26991 16.9199H7.49991C7.2347 16.9199 6.98034 17.0253 6.79281 17.2128C6.60527 17.4004 6.49991 17.6547 6.49991 17.9199C6.49991 18.1851 6.60527 18.4395 6.79281 18.627C6.98034 18.8146 7.2347 18.9199 7.49991 18.9199H8.26991L7.87991 19.5799C7.74731 19.8107 7.71179 20.0846 7.78118 20.3416C7.85057 20.5985 8.01918 20.8173 8.24991 20.9499C8.48065 21.0825 8.75462 21.118 9.01154 21.0487C9.26847 20.9793 9.48731 20.8107 9.61991 20.5799L9.99991 19.9199L10.3799 20.5799C10.4456 20.6942 10.5331 20.7944 10.6375 20.8748C10.7419 20.9552 10.8611 21.0143 10.9883 21.0487C11.1155 21.083 11.2482 21.092 11.3789 21.075C11.5096 21.0581 11.6357 21.0156 11.7499 20.9499C11.8642 20.8843 11.9644 20.7967 12.0448 20.6924C12.1252 20.588 12.1843 20.4688 12.2187 20.3416C12.253 20.2143 12.262 20.0816 12.245 19.9509C12.2281 19.8202 12.1856 19.6942 12.1199 19.5799L11.7299 18.9199H12.4999C12.7651 18.9199 13.0195 18.8146 13.207 18.627C13.3946 18.4395 13.4999 18.1851 13.4999 17.9199C13.4999 17.6547 13.3946 17.4004 13.207 17.2128C13.0195 17.0253 12.7651 16.9199 12.4999 16.9199ZM20.9999 7.91992H20.1999C20.0965 7.47121 19.9209 7.04229 19.6799 6.64992L20.2399 6.08992C20.4037 5.89862 20.4893 5.65254 20.4796 5.40087C20.4699 5.14919 20.3656 4.91045 20.1875 4.73236C20.0094 4.55426 19.7706 4.44993 19.519 4.44021C19.2673 4.43049 19.0212 4.5161 18.8299 4.67992L18.2699 5.23992C17.8775 4.99893 17.4486 4.82331 16.9999 4.71992V3.91992C16.9999 3.65471 16.8946 3.40035 16.707 3.21282C16.5195 3.02528 16.2651 2.91992 15.9999 2.91992C15.7347 2.91992 15.4803 3.02528 15.2928 3.21282C15.1053 3.40035 14.9999 3.65471 14.9999 3.91992V4.71992C14.5538 4.82174 14.128 4.9975 13.7399 5.23992L13.1699 4.67992C12.9786 4.5161 12.7325 4.43049 12.4809 4.44021C12.2292 4.44993 11.9904 4.55426 11.8124 4.73236C11.6343 4.91045 11.5299 5.14919 11.5202 5.40087C11.5105 5.65254 11.5961 5.89862 11.7599 6.08992L12.3199 6.64992C12.2299 6.80992 12.1599 6.97992 12.0799 7.13992C11.5658 6.99479 11.0342 6.92077 10.4999 6.91992C9.06617 6.9173 7.67889 7.42818 6.58927 8.36004C5.49966 9.2919 4.77975 10.5831 4.55991 11.9999C3.81724 12.2104 3.16436 12.6592 2.70178 13.2772C2.2392 13.8951 1.99259 14.648 1.99991 15.4199C2.00028 15.9629 2.12805 16.4981 2.37294 16.9827C2.61783 17.4673 2.97301 17.8876 3.40991 18.2099C3.51482 18.2974 3.63653 18.3624 3.76753 18.401C3.89853 18.4396 4.03604 18.4509 4.1716 18.4343C4.30715 18.4177 4.43787 18.3735 4.55569 18.3045C4.67352 18.2355 4.77596 18.143 4.85669 18.0329C4.93742 17.9227 4.99473 17.7972 5.02509 17.6641C5.05546 17.5309 5.05823 17.393 5.03323 17.2587C5.00824 17.1244 4.95601 16.9967 4.87976 16.8834C4.80352 16.7701 4.70487 16.6736 4.58991 16.5999C4.40585 16.4634 4.25653 16.2854 4.15403 16.0804C4.05153 15.8754 3.99874 15.6491 3.99991 15.4199C3.99991 15.0221 4.15795 14.6406 4.43925 14.3593C4.72056 14.078 5.10209 13.9199 5.49991 13.9199C5.76513 13.9199 6.01948 13.8146 6.20702 13.627C6.39456 13.4395 6.49991 13.1851 6.49991 12.9199C6.5042 11.9756 6.84244 11.0633 7.45475 10.3444C8.06707 9.6255 8.91397 9.14643 9.84557 8.99196C10.7772 8.83749 11.7334 9.0176 12.5449 9.50039C13.3565 9.98319 13.9711 10.7375 14.2799 11.6299C14.3386 11.7999 14.442 11.9509 14.5793 12.0671C14.7165 12.1832 14.8826 12.2602 15.0599 12.2899C15.5571 12.3719 16.0143 12.6129 16.3629 12.9766C16.7116 13.3404 16.9329 13.8074 16.9937 14.3076C17.0546 14.8078 16.9516 15.3142 16.7003 15.7509C16.449 16.1877 16.0629 16.5312 15.5999 16.7299C15.4788 16.7821 15.3692 16.8577 15.2775 16.9524C15.1857 17.0471 15.1136 17.1591 15.0653 17.2817C15.017 17.4044 14.9934 17.5355 14.9959 17.6673C14.9984 17.7991 15.027 17.9292 15.0799 18.0499C15.158 18.2288 15.2867 18.3809 15.4502 18.4875C15.6136 18.5942 15.8047 18.6506 15.9999 18.6499C16.1383 18.6501 16.2749 18.6193 16.3999 18.5599C17.1774 18.2211 17.8383 17.6614 18.3005 16.9503C18.7627 16.2392 19.0059 15.408 18.9999 14.5599C18.9979 14.0258 18.8962 13.4967 18.6999 12.9999L18.8299 13.1299C19.0162 13.3147 19.2676 13.4188 19.5299 13.4199C19.6615 13.4207 19.792 13.3955 19.9138 13.3457C20.0357 13.2959 20.1465 13.2226 20.2399 13.1299C20.3336 13.037 20.408 12.9264 20.4588 12.8045C20.5096 12.6826 20.5357 12.5519 20.5357 12.4199C20.5357 12.2879 20.5096 12.1572 20.4588 12.0353C20.408 11.9135 20.3336 11.8029 20.2399 11.7099L19.6799 11.1499C19.9207 10.761 20.0963 10.3354 20.1999 9.88992H20.9999C21.2651 9.88992 21.5195 9.78456 21.707 9.59703C21.8946 9.40949 21.9999 9.15514 21.9999 8.88992C21.9999 8.62471 21.8946 8.37035 21.707 8.18281C21.5195 7.99528 21.2651 7.88992 20.9999 7.88992V7.91992ZM17.6599 10.5599C17.4883 10.7341 17.2846 10.8734 17.0599 10.9699C16.7326 10.7505 16.3757 10.5787 15.9999 10.4599C15.5328 9.46064 14.7993 8.60946 13.8799 7.99992C13.9866 7.73905 14.1428 7.50133 14.3399 7.29992C14.7879 6.88238 15.3775 6.6502 15.9899 6.6502C16.6023 6.6502 17.1919 6.88238 17.6399 7.29992C18.0729 7.73795 18.3157 8.32902 18.3157 8.94492C18.3157 9.56082 18.0729 10.1519 17.6399 10.5899L17.6599 10.5599Z" fill="current"/>
</svg>
