<svg width="24" height="24" viewBox="0 0 24 24" fill="none" xmlns="http://www.w3.org/2000/svg">
<path d="M21.6999 7.99994C21.5785 7.87996 21.4283 7.79308 21.2638 7.74757C21.0992 7.70206 20.9258 7.69943 20.7599 7.73994C20.5468 7.79024 20.3289 7.81707 20.1099 7.81994C19.3143 7.81994 18.5512 7.50387 17.9886 6.94126C17.426 6.37865 17.1099 5.61559 17.1099 4.81994C17.1125 4.59768 17.1393 4.37636 17.1899 4.15994C17.2304 3.99409 17.2278 3.82063 17.1823 3.65609C17.1368 3.49155 17.0499 3.3414 16.9299 3.21994C16.8115 3.09809 16.6639 3.00844 16.5012 2.95945C16.3385 2.91046 16.1659 2.90374 15.9999 2.93994C15.0077 3.16957 14.1093 3.69672 13.4248 4.45087C12.7404 5.20501 12.3026 6.15018 12.1699 7.15994C11.6277 6.9998 11.0652 6.91896 10.4999 6.91994C9.06617 6.91732 7.67889 7.42819 6.58927 8.36005C5.49966 9.29191 4.77975 10.5831 4.55991 11.9999C3.81724 12.2104 3.16436 12.6592 2.70178 13.2772C2.2392 13.8952 1.99259 14.648 1.99991 15.4199C2.00028 15.9629 2.12805 16.4981 2.37294 16.9827C2.61783 17.4673 2.97301 17.8876 3.40991 18.2099C3.51482 18.2974 3.63653 18.3624 3.76753 18.401C3.89853 18.4396 4.03604 18.4509 4.1716 18.4343C4.30715 18.4177 4.43787 18.3736 4.55569 18.3045C4.67352 18.2355 4.77596 18.143 4.85669 18.0329C4.93742 17.9227 4.99473 17.7972 5.02509 17.6641C5.05546 17.5309 5.05823 17.393 5.03323 17.2587C5.00824 17.1244 4.95601 16.9967 4.87976 16.8834C4.80352 16.7701 4.70487 16.6737 4.58991 16.5999C4.40585 16.4634 4.25653 16.2854 4.15403 16.0804C4.05153 15.8754 3.99874 15.6491 3.99991 15.4199C3.99991 15.0221 4.15795 14.6406 4.43925 14.3593C4.72056 14.078 5.10209 13.9199 5.49991 13.9199C5.76513 13.9199 6.01948 13.8146 6.20702 13.627C6.39456 13.4395 6.49991 13.1852 6.49991 12.9199C6.50175 12.2018 6.6969 11.4973 7.06489 10.8806C7.43288 10.2638 7.96013 9.75756 8.59128 9.41487C9.22243 9.07219 9.9342 8.90575 10.6519 8.93304C11.3695 8.96032 12.0666 9.18032 12.6699 9.56994C13.402 10.0425 13.9547 10.7466 14.2399 11.5699C14.2986 11.7399 14.402 11.8909 14.5393 12.0071C14.6765 12.1232 14.8426 12.2002 15.0199 12.2299C15.5171 12.3119 15.9743 12.5529 16.3229 12.9166C16.6716 13.2804 16.8929 13.7474 16.9537 14.2476C17.0146 14.7478 16.9116 15.2542 16.6603 15.6909C16.409 16.1277 16.0229 16.4712 15.5599 16.6699C15.4388 16.7221 15.3292 16.7977 15.2375 16.8925C15.1457 16.9872 15.0736 17.0991 15.0253 17.2218C14.977 17.3444 14.9534 17.4755 14.9559 17.6073C14.9584 17.7391 14.987 17.8692 15.0399 17.9899C15.118 18.1688 15.2467 18.3209 15.4102 18.4276C15.5736 18.5342 15.7647 18.5906 15.9599 18.5899C16.098 18.5879 16.2342 18.5572 16.3599 18.4999C17.1374 18.1611 17.7983 17.6014 18.2605 16.8903C18.7227 16.1792 18.9659 15.348 18.9599 14.4999C18.9638 13.8031 18.7955 13.1161 18.4699 12.4999C19.3249 12.2738 20.1035 11.8223 20.7244 11.1926C21.3453 10.5629 21.7858 9.77801 21.9999 8.91994C22.0318 8.75373 22.0211 8.58214 21.9686 8.42123C21.9161 8.26033 21.8237 8.11537 21.6999 7.99994ZM17.1099 10.8199C16.9701 10.8308 16.8297 10.8308 16.6899 10.8199C16.4592 10.6963 16.2183 10.5926 15.9699 10.5099C15.5633 9.60979 14.9376 8.82591 14.1499 8.22994C14.1499 8.10994 14.1499 7.97994 14.1499 7.85994C14.1499 7.42661 14.2437 6.99843 14.425 6.60484C14.6062 6.21125 14.8706 5.8616 15.1999 5.57994C15.3567 6.64498 15.8531 7.63096 16.6152 8.39128C17.3773 9.15159 18.3645 9.64564 19.4299 9.79994C19.1401 10.1271 18.7823 10.387 18.3816 10.5615C17.9809 10.736 17.5468 10.8207 17.1099 10.8099V10.8199ZM12.4999 16.9199H11.7299L12.1199 16.2499C12.2525 16.0192 12.288 15.7452 12.2187 15.4883C12.1493 15.2314 11.9807 15.0125 11.7499 14.8799C11.5192 14.7473 11.2452 14.7118 10.9883 14.7812C10.7314 14.8506 10.5125 15.0192 10.3799 15.2499L9.99991 15.9199L9.61991 15.2499C9.48731 15.0192 9.26847 14.8506 9.01154 14.7812C8.75462 14.7118 8.48065 14.7473 8.24991 14.8799C8.01918 15.0125 7.85057 15.2314 7.78118 15.4883C7.71179 15.7452 7.74731 16.0192 7.87991 16.2499L8.26991 16.9199H7.49991C7.2347 16.9199 6.98034 17.0253 6.79281 17.2128C6.60527 17.4004 6.49991 17.6547 6.49991 17.9199C6.49991 18.1852 6.60527 18.4395 6.79281 18.627C6.98034 18.8146 7.2347 18.9199 7.49991 18.9199H8.26991L7.87991 19.5799C7.74731 19.8107 7.71179 20.0846 7.78118 20.3416C7.85057 20.5985 8.01918 20.8173 8.24991 20.9499C8.48065 21.0825 8.75462 21.1181 9.01154 21.0487C9.26847 20.9793 9.48731 20.8107 9.61991 20.5799L9.99991 19.9199L10.3799 20.5799C10.4456 20.6942 10.5331 20.7944 10.6375 20.8748C10.7419 20.9552 10.8611 21.0143 10.9883 21.0487C11.1155 21.083 11.2482 21.092 11.3789 21.0751C11.5096 21.0581 11.6357 21.0156 11.7499 20.9499C11.8642 20.8843 11.9644 20.7968 12.0448 20.6924C12.1252 20.588 12.1843 20.4688 12.2187 20.3416C12.253 20.2143 12.262 20.0816 12.245 19.9509C12.2281 19.8203 12.1856 19.6942 12.1199 19.5799L11.7299 18.9199H12.4999C12.7651 18.9199 13.0195 18.8146 13.207 18.627C13.3946 18.4395 13.4999 18.1852 13.4999 17.9199C13.4999 17.6547 13.3946 17.4004 13.207 17.2128C13.0195 17.0253 12.7651 16.9199 12.4999 16.9199Z" fill="current"/>
</svg>
