<svg width="24" height="24" viewBox="0 0 24 24" fill="none" xmlns="http://www.w3.org/2000/svg">
<path d="M9.20988 20.29C9.06926 20.1512 8.89069 20.0572 8.6967 20.0199C8.50271 19.9825 8.30199 20.0034 8.11988 20.08C7.99624 20.1258 7.88375 20.1974 7.78988 20.29C7.70155 20.3872 7.63053 20.4988 7.57988 20.62C7.52698 20.7397 7.49965 20.8691 7.49965 21C7.49965 21.1309 7.52698 21.2603 7.57988 21.38C7.6248 21.5041 7.69645 21.6168 7.78977 21.7101C7.88309 21.8034 7.99579 21.8751 8.11988 21.92C8.23958 21.9729 8.36901 22.0002 8.49988 22.0002C8.63075 22.0002 8.76018 21.9729 8.87988 21.92C9.00107 21.8694 9.11268 21.7983 9.20988 21.71C9.30257 21.6166 9.37589 21.5057 9.42565 21.3839C9.47542 21.2621 9.50064 21.1316 9.49988 21C9.50326 20.8688 9.47586 20.7387 9.41988 20.62C9.36924 20.4988 9.29821 20.3872 9.20988 20.29ZM13.2099 18.29C13.116 18.1974 13.0035 18.1258 12.8799 18.08C12.6978 18.0034 12.4971 17.9825 12.3031 18.0199C12.1091 18.0572 11.9305 18.1512 11.7899 18.29C11.7016 18.3872 11.6305 18.4988 11.5799 18.62C11.5071 18.8017 11.4893 19.0008 11.5287 19.1926C11.568 19.3843 11.6628 19.5603 11.8012 19.6987C11.9396 19.8371 12.1156 19.9319 12.3073 19.9712C12.4991 20.0105 12.6982 19.9927 12.8799 19.92C13.0011 19.8694 13.1127 19.7983 13.2099 19.71C13.3486 19.5694 13.4426 19.3908 13.48 19.1968C13.5174 19.0028 13.4965 18.8021 13.4199 18.62C13.3692 18.4988 13.2982 18.3872 13.2099 18.29ZM9.20988 16.29C9.06926 16.1512 8.89069 16.0572 8.6967 16.0199C8.50271 15.9825 8.30199 16.0034 8.11988 16.08C7.99713 16.1276 7.88499 16.199 7.78988 16.29C7.70155 16.3872 7.63053 16.4988 7.57988 16.62C7.5033 16.8021 7.48238 17.0028 7.51976 17.1968C7.55713 17.3908 7.65113 17.5694 7.78988 17.71C7.88708 17.7983 7.9987 17.8694 8.11988 17.92C8.23958 17.9729 8.36901 18.0002 8.49988 18.0002C8.63075 18.0002 8.76018 17.9729 8.87988 17.92C9.00107 17.8694 9.11268 17.7983 9.20988 17.71C9.30257 17.6166 9.37589 17.5057 9.42565 17.3839C9.47542 17.2621 9.50064 17.1316 9.49988 17C9.50326 16.8688 9.47586 16.7387 9.41988 16.62C9.36924 16.4988 9.29821 16.3872 9.20988 16.29ZM12.1199 14.08C11.9971 14.1276 11.885 14.199 11.7899 14.29C11.6072 14.4816 11.5036 14.7352 11.4999 15C11.4991 15.1316 11.5243 15.2621 11.5741 15.3839C11.6239 15.5057 11.6972 15.6166 11.7899 15.71C11.8871 15.7983 11.9987 15.8694 12.1199 15.92C12.2386 15.976 12.3687 16.0034 12.4999 16C12.7651 16 13.0195 15.8946 13.207 15.7071C13.3945 15.5196 13.4999 15.2652 13.4999 15C13.4962 14.7352 13.3926 14.4816 13.2099 14.29C13.0693 14.1512 12.8907 14.0572 12.6967 14.0199C12.5027 13.9825 12.302 14.0034 12.1199 14.08ZM20.9999 7H20.1999C20.0965 6.55129 19.9209 6.12237 19.6799 5.73L20.2399 5.17C20.4037 4.9787 20.4893 4.73262 20.4796 4.48095C20.4699 4.22927 20.3655 3.99053 20.1874 3.81244C20.0094 3.63434 19.7706 3.53001 19.5189 3.52029C19.2673 3.51057 19.0212 3.59617 18.8299 3.76L18.2699 4.32C17.8775 4.07901 17.4486 3.90339 16.9999 3.8V3C16.9999 2.73478 16.8945 2.48043 16.707 2.29289C16.5195 2.10536 16.2651 2 15.9999 2C15.7347 2 15.4803 2.10536 15.2928 2.29289C15.1052 2.48043 14.9999 2.73478 14.9999 3V3.8C14.5538 3.90181 14.1279 4.07758 13.7399 4.32L13.1699 3.76C12.9786 3.59617 12.7325 3.51057 12.4808 3.52029C12.2292 3.53001 11.9904 3.63434 11.8123 3.81244C11.6342 3.99053 11.5299 4.22927 11.5202 4.48095C11.5105 4.73262 11.5961 4.9787 11.7599 5.17L12.3199 5.74C12.2299 5.89 12.1599 6.06 12.0799 6.22C11.5657 6.07486 11.0341 6.00084 10.4999 6C9.05874 5.99918 7.66545 6.5171 6.57475 7.45906C5.48406 8.40102 4.76885 9.70409 4.55988 11.13C3.86352 11.3239 3.24427 11.7287 2.78722 12.2887C2.33016 12.8487 2.05771 13.5365 2.0073 14.2576C1.95689 14.9787 2.13099 15.6978 2.50568 16.3159C2.88037 16.9341 3.43727 17.4211 4.09988 17.71C4.22732 17.7605 4.36282 17.7876 4.49988 17.79C4.73108 17.7919 4.95579 17.7136 5.13576 17.5685C5.31574 17.4233 5.43987 17.2203 5.48702 16.994C5.53418 16.7676 5.50145 16.532 5.3944 16.327C5.28735 16.1221 5.1126 15.9606 4.89988 15.87C4.63158 15.7557 4.40302 15.5647 4.2429 15.321C4.08278 15.0772 3.99823 14.7916 3.99988 14.5C3.99988 14.1022 4.15792 13.7206 4.43922 13.4393C4.72053 13.158 5.10206 13 5.49988 13C5.7651 13 6.01945 12.8946 6.20699 12.7071C6.39453 12.5196 6.49988 12.2652 6.49988 12C6.50417 11.0557 6.84241 10.1434 7.45472 9.42447C8.06704 8.70558 8.91394 8.22651 9.84554 8.07204C10.7771 7.91757 11.7333 8.09767 12.5449 8.58047C13.3565 9.06326 13.9711 9.81761 14.2799 10.71C14.337 10.8818 14.4398 11.0349 14.5772 11.1529C14.7145 11.2709 14.8814 11.3494 15.0599 11.38C15.5243 11.4488 15.957 11.6569 16.3007 11.9768C16.6444 12.2967 16.8829 12.7133 16.9848 13.1717C17.0866 13.63 17.047 14.1085 16.8712 14.5439C16.6953 14.9792 16.3915 15.351 15.9999 15.61C15.8896 15.6822 15.7946 15.7755 15.7203 15.8844C15.646 15.9934 15.5939 16.1159 15.567 16.2449C15.5401 16.374 15.5388 16.5071 15.5633 16.6367C15.5879 16.7662 15.6377 16.8897 15.7099 17C15.7821 17.1103 15.8754 17.2053 15.9843 17.2796C16.0932 17.3539 16.2157 17.4059 16.3448 17.4329C16.4739 17.4598 16.607 17.4611 16.7366 17.4365C16.8661 17.412 16.9896 17.3622 17.0999 17.29C17.6896 16.8891 18.1714 16.3491 18.5028 15.7177C18.8342 15.0864 19.0049 14.383 18.9999 13.67C18.999 13.139 18.8972 12.613 18.6999 12.12L18.8299 12.24C19.0161 12.4247 19.2675 12.5289 19.5299 12.53C19.6615 12.5308 19.792 12.5055 19.9138 12.4558C20.0356 12.406 20.1464 12.3327 20.2399 12.24C20.4261 12.0526 20.5307 11.7992 20.5307 11.535C20.5307 11.2708 20.4261 11.0174 20.2399 10.83L19.6799 10.27C19.9209 9.87763 20.0965 9.44871 20.1999 9H20.9999C21.2651 9 21.5195 8.89464 21.707 8.70711C21.8945 8.51957 21.9999 8.26522 21.9999 8C21.9999 7.73478 21.8945 7.48043 21.707 7.29289C21.5195 7.10536 21.2651 7 20.9999 7ZM17.6599 9.65C17.4862 9.82422 17.283 9.96641 17.0599 10.07C16.7336 9.84377 16.3766 9.6653 15.9999 9.54C15.5404 8.53676 14.8183 7.67641 13.9099 7.05C14.0214 6.7917 14.177 6.55482 14.3699 6.35C14.819 5.93464 15.4082 5.70393 16.0199 5.70393C16.6316 5.70393 17.2208 5.93464 17.6699 6.35C18.0987 6.7922 18.3386 7.384 18.3386 8C18.3386 8.616 18.0987 9.2078 17.6699 9.65H17.6599Z" fill="current"/>
</svg>
