<svg width="24" height="24" viewBox="0 0 24 24" fill="none" xmlns="http://www.w3.org/2000/svg">
<path d="M8.49988 14.0001C8.23467 14.0001 7.98031 14.1054 7.79278 14.293C7.60524 14.4805 7.49988 14.7349 7.49988 15.0001V21.0001C7.49988 21.2653 7.60524 21.5197 7.79278 21.7072C7.98031 21.8947 8.23467 22.0001 8.49988 22.0001C8.7651 22.0001 9.01945 21.8947 9.20699 21.7072C9.39453 21.5197 9.49988 21.2653 9.49988 21.0001V15.0001C9.49988 14.7349 9.39453 14.4805 9.20699 14.293C9.01945 14.1054 8.7651 14.0001 8.49988 14.0001ZM12.4999 13.0001C12.2347 13.0001 11.9803 13.1054 11.7928 13.293C11.6052 13.4805 11.4999 13.7349 11.4999 14.0001V20.0001C11.4999 20.2653 11.6052 20.5197 11.7928 20.7072C11.9803 20.8947 12.2347 21.0001 12.4999 21.0001C12.7651 21.0001 13.0195 20.8947 13.207 20.7072C13.3945 20.5197 13.4999 20.2653 13.4999 20.0001V14.0001C13.4999 13.7349 13.3945 13.4805 13.207 13.293C13.0195 13.1054 12.7651 13.0001 12.4999 13.0001ZM21.6999 7.07009C21.5784 6.95012 21.4283 6.86324 21.2637 6.81773C21.0992 6.77222 20.9257 6.76959 20.7599 6.81009C20.5468 6.8604 20.3288 6.88723 20.1099 6.89009C19.3142 6.89009 18.5512 6.57402 17.9886 6.01141C17.426 5.4488 17.1099 4.68574 17.1099 3.89009C17.113 3.66788 17.1399 3.44663 17.1899 3.23009C17.2286 3.06573 17.225 2.89425 17.1796 2.73163C17.1341 2.56901 17.0482 2.42055 16.9299 2.30009C16.8135 2.17471 16.6669 2.08129 16.504 2.02876C16.3412 1.97624 16.1676 1.96636 15.9999 2.00009C15.0046 2.21983 14.1019 2.74265 13.416 3.49659C12.7301 4.25053 12.2948 5.19852 12.1699 6.21009C11.6253 6.06499 11.0635 5.99435 10.4999 6.00009C9.05874 5.99927 7.66545 6.51719 6.57475 7.45915C5.48406 8.40111 4.76885 9.70418 4.55988 11.1301C3.86352 11.324 3.24427 11.7288 2.78722 12.2888C2.33016 12.8488 2.05771 13.5366 2.0073 14.2577C1.95689 14.9788 2.13099 15.6978 2.50568 16.316C2.88037 16.9342 3.43727 17.4212 4.09988 17.7101C4.22732 17.7606 4.36282 17.7877 4.49988 17.7901C4.73108 17.792 4.95579 17.7137 5.13576 17.5686C5.31574 17.4234 5.43987 17.2204 5.48702 16.9941C5.53418 16.7677 5.50145 16.532 5.3944 16.3271C5.28735 16.1222 5.1126 15.9607 4.89988 15.8701C4.63158 15.7558 4.40302 15.5648 4.2429 15.3211C4.08278 15.0773 3.99823 14.7917 3.99988 14.5001C3.99988 14.1023 4.15792 13.7207 4.43922 13.4394C4.72053 13.1581 5.10206 13.0001 5.49988 13.0001C5.7651 13.0001 6.01945 12.8947 6.20699 12.7072C6.39453 12.5197 6.49988 12.2653 6.49988 12.0001C6.49988 10.9392 6.92131 9.92181 7.67146 9.17167C8.4216 8.42152 9.43902 8.00009 10.4999 8.00009C11.2725 8.00085 12.0276 8.23052 12.6699 8.66009C13.3999 9.13494 13.952 9.83824 14.2399 10.6601C14.297 10.8319 14.3998 10.985 14.5372 11.103C14.6745 11.221 14.8414 11.2995 15.0199 11.3301C15.5012 11.3804 15.9548 11.58 16.317 11.9009C16.6793 12.2218 16.9321 12.648 17.0401 13.1197C17.1482 13.5915 17.106 14.0852 16.9194 14.5317C16.7329 14.9783 16.4114 15.3553 15.9999 15.6101C15.8896 15.6823 15.7946 15.7756 15.7203 15.8845C15.646 15.9935 15.5939 16.116 15.567 16.245C15.5401 16.3741 15.5388 16.5072 15.5633 16.6368C15.5879 16.7663 15.6377 16.8898 15.7099 17.0001C15.7821 17.1104 15.8754 17.2054 15.9843 17.2797C16.0932 17.354 16.2157 17.406 16.3448 17.433C16.4739 17.4599 16.607 17.4611 16.7366 17.4366C16.8661 17.4121 16.9896 17.3623 17.0999 17.2901C17.6909 16.8905 18.1737 16.3508 18.5052 15.7191C18.8368 15.0874 19.0067 14.3835 18.9999 13.6701C19.0038 12.9732 18.8355 12.2862 18.5099 11.6701C19.3687 11.4303 20.1465 10.9625 20.761 10.3164C21.3754 9.67022 21.8035 8.86984 21.9999 8.00009C22.0336 7.83236 22.0237 7.65878 21.9712 7.49595C21.9187 7.33313 21.8253 7.1865 21.6999 7.07009ZM17.1099 9.89009C16.9701 9.90092 16.8297 9.90092 16.6899 9.89009C16.4701 9.75426 16.2393 9.63718 15.9999 9.54009C15.5879 8.64323 14.9632 7.86055 14.1799 7.26009C14.1799 7.14009 14.1799 7.01009 14.1799 6.89009C14.1799 6.45677 14.2737 6.02858 14.455 5.63499C14.6362 5.2414 14.9006 4.89175 15.2299 4.61009C15.3847 5.67695 15.8802 6.66519 16.6425 7.42747C17.4048 8.18975 18.393 8.68525 19.4599 8.84009C19.1706 9.17851 18.8097 9.44831 18.4032 9.62992C17.9967 9.81154 17.555 9.90041 17.1099 9.89009Z" fill="current"/>
</svg>
