<svg width="24" height="24" viewBox="0 0 24 24" fill="none" xmlns="http://www.w3.org/2000/svg">
<path d="M9.20988 16.29C9.11478 16.199 9.00264 16.1276 8.87988 16.08C8.69777 16.0034 8.49706 15.9825 8.30307 16.0199C8.10908 16.0572 7.93051 16.1512 7.78988 16.29C7.70155 16.3872 7.63053 16.4988 7.57988 16.62C7.5239 16.7387 7.4965 16.8688 7.49988 17C7.5007 17.1638 7.54173 17.3248 7.61937 17.4691C7.69702 17.6133 7.80889 17.7362 7.94517 17.8271C8.08145 17.9179 8.23796 17.9739 8.40094 17.9901C8.56392 18.0063 8.72839 17.9822 8.87988 17.92C9.00107 17.8693 9.11268 17.7983 9.20988 17.71C9.34864 17.5694 9.44264 17.3908 9.48001 17.1968C9.51739 17.0028 9.49646 16.8021 9.41988 16.62C9.36924 16.4988 9.29821 16.3872 9.20988 16.29ZM9.20988 20.29C9.11268 20.2017 9.00107 20.1306 8.87988 20.08C8.69777 20.0034 8.49706 19.9825 8.30307 20.0199C8.10908 20.0572 7.93051 20.1512 7.78988 20.29C7.70155 20.3872 7.63053 20.4988 7.57988 20.62C7.5151 20.7721 7.48902 20.9378 7.50399 21.1024C7.51896 21.2671 7.5745 21.4254 7.66564 21.5633C7.75679 21.7012 7.88069 21.8144 8.02628 21.8926C8.17186 21.9709 8.33459 22.0119 8.49988 22.0119C8.66518 22.0119 8.8279 21.9709 8.97349 21.8926C9.11907 21.8144 9.24298 21.7012 9.33413 21.5633C9.42527 21.4254 9.48081 21.2671 9.49578 21.1024C9.51074 20.9378 9.48467 20.7721 9.41988 20.62C9.36924 20.4988 9.29821 20.3872 9.20988 20.29ZM13.0599 14.17L12.8799 14.08L12.6999 14C12.5049 13.9619 12.303 13.9828 12.1199 14.06C11.9962 14.1058 11.8838 14.1774 11.7899 14.27C11.6972 14.3634 11.6239 14.4742 11.5741 14.5961C11.5243 14.7179 11.4991 14.8484 11.4999 14.98C11.4991 15.1116 11.5243 15.2421 11.5741 15.3639C11.6239 15.4857 11.6972 15.5966 11.7899 15.69C11.8871 15.7783 11.9987 15.8493 12.1199 15.9C12.2396 15.9529 12.369 15.9802 12.4999 15.9802C12.6308 15.9802 12.7602 15.9529 12.8799 15.9C13.0011 15.8493 13.1127 15.7783 13.2099 15.69C13.3922 15.5062 13.4962 15.2589 13.4999 15C13.4962 14.7352 13.3926 14.4816 13.2099 14.29L13.0599 14.17ZM13.2099 18.29C13.0693 18.1512 12.8907 18.0572 12.6967 18.0199C12.5027 17.9825 12.302 18.0034 12.1199 18.08C11.9958 18.1249 11.8831 18.1966 11.7898 18.2899C11.6965 18.3832 11.6248 18.4959 11.5799 18.62C11.5033 18.8021 11.4824 19.0028 11.5198 19.1968C11.5571 19.3908 11.6511 19.5694 11.7899 19.71C11.8871 19.7983 11.9987 19.8694 12.1199 19.92C12.2396 19.9729 12.369 20.0002 12.4999 20.0002C12.6308 20.0002 12.7602 19.9729 12.8799 19.92C13.0011 19.8694 13.1127 19.7983 13.2099 19.71C13.3486 19.5694 13.4426 19.3908 13.48 19.1968C13.5174 19.0028 13.4965 18.8021 13.4199 18.62C13.3692 18.4988 13.2982 18.3872 13.2099 18.29ZM21.6999 7.06999C21.5784 6.95002 21.4283 6.86314 21.2637 6.81763C21.0992 6.77211 20.9257 6.76949 20.7599 6.80999C20.5468 6.8603 20.3288 6.88713 20.1099 6.88999C19.3142 6.88999 18.5512 6.57392 17.9886 6.01131C17.426 5.4487 17.1099 4.68564 17.1099 3.88999C17.1128 3.67106 17.1396 3.45309 17.1899 3.23999C17.236 3.07294 17.2378 2.89678 17.1953 2.72879C17.1528 2.5608 17.0674 2.40674 16.9474 2.28171C16.8274 2.15668 16.677 2.06498 16.5109 2.01559C16.3448 1.96621 16.1687 1.96083 15.9999 1.99999C15.0046 2.21973 14.1019 2.74255 13.416 3.49649C12.7301 4.25043 12.2948 5.19842 12.1699 6.20999C11.6253 6.06489 11.0635 5.99425 10.4999 5.99999C9.05874 5.99917 7.66545 6.51709 6.57475 7.45905C5.48406 8.40101 4.76885 9.70408 4.55988 11.13C3.86352 11.3239 3.24427 11.7287 2.78722 12.2887C2.33016 12.8487 2.05771 13.5365 2.0073 14.2576C1.95689 14.9787 2.13099 15.6977 2.50568 16.3159C2.88037 16.9341 3.43727 17.4211 4.09988 17.71C4.22732 17.7605 4.36282 17.7876 4.49988 17.79C4.73108 17.7919 4.95579 17.7136 5.13576 17.5685C5.31574 17.4233 5.43987 17.2203 5.48702 16.994C5.53418 16.7676 5.50145 16.5319 5.3944 16.327C5.28735 16.1221 5.1126 15.9606 4.89988 15.87C4.63158 15.7557 4.40302 15.5647 4.2429 15.321C4.08278 15.0772 3.99823 14.7916 3.99988 14.5C3.99988 14.1022 4.15792 13.7206 4.43922 13.4393C4.72053 13.158 5.10206 13 5.49988 13C5.7651 13 6.01945 12.8946 6.20699 12.7071C6.39453 12.5196 6.49988 12.2652 6.49988 12C6.49988 10.9391 6.92131 9.92171 7.67146 9.17156C8.4216 8.42142 9.43902 7.99999 10.4999 7.99999C11.278 8.00557 12.0382 8.23466 12.6899 8.65999C13.4205 9.13654 13.9754 9.83887 14.2699 10.66C14.327 10.8318 14.4298 10.9849 14.5672 11.1029C14.7045 11.2209 14.8714 11.2994 15.0499 11.33C15.5289 11.3854 15.9788 11.5887 16.3369 11.9117C16.695 12.2346 16.9436 12.6611 17.0481 13.1319C17.1526 13.6027 17.1078 14.0943 16.9199 14.5384C16.7321 14.9825 16.4105 15.3571 15.9999 15.61C15.8896 15.6822 15.7946 15.7755 15.7203 15.8844C15.646 15.9934 15.5939 16.1159 15.567 16.2449C15.5401 16.374 15.5388 16.5071 15.5633 16.6367C15.5879 16.7662 15.6377 16.8897 15.7099 17C15.7821 17.1103 15.8754 17.2053 15.9843 17.2796C16.0932 17.3539 16.2157 17.4059 16.3448 17.4329C16.4739 17.4598 16.607 17.461 16.7366 17.4365C16.8661 17.412 16.9896 17.3622 17.0999 17.29C17.6896 16.8891 18.1714 16.3491 18.5028 15.7177C18.8342 15.0863 19.0049 14.383 18.9999 13.67C19.0038 12.9731 18.8355 12.2861 18.5099 11.67C19.3687 11.4302 20.1465 10.9624 20.761 10.3163C21.3754 9.67012 21.8035 8.86974 21.9999 7.99999C22.0336 7.83226 22.0237 7.65868 21.9712 7.49585C21.9187 7.33302 21.8253 7.1864 21.6999 7.06999ZM17.1099 9.88999C16.9701 9.90082 16.8297 9.90082 16.6899 9.88999C16.4701 9.75416 16.2393 9.63707 15.9999 9.53999C15.5879 8.64313 14.9632 7.86045 14.1799 7.25999C14.1799 7.13999 14.1799 7.00999 14.1799 6.88999C14.1799 6.45667 14.2737 6.02848 14.455 5.63489C14.6362 5.2413 14.9006 4.89165 15.2299 4.60999C15.3847 5.67685 15.8802 6.66509 16.6425 7.42737C17.4048 8.18965 18.393 8.68515 19.4599 8.83999C19.1706 9.17841 18.8097 9.44821 18.4032 9.62982C17.9967 9.81144 17.555 9.90031 17.1099 9.88999Z" fill="current"/>
</svg>
