<svg width="24" height="24" viewBox="0 0 24 24" fill="none" xmlns="http://www.w3.org/2000/svg">
<path d="M18.4199 9.21003C17.8082 7.80584 16.7528 6.64103 15.4156 5.89419C14.0784 5.14735 12.5332 4.8597 11.0168 5.07536C9.50039 5.29101 8.09659 5.99806 7.02061 7.08809C5.94462 8.17813 5.25585 9.59098 5.05989 11.11C4.10648 11.3384 3.27011 11.9089 2.70963 12.7132C2.14914 13.5176 1.90357 14.4998 2.01955 15.4732C2.13553 16.4467 2.60498 17.3437 3.33876 17.9939C4.07253 18.6441 5.01952 19.0021 5.99989 19H16.9999C18.1992 18.9967 19.3575 18.5624 20.2633 17.7763C21.1691 16.9902 21.7622 15.9047 21.9343 14.7178C22.1065 13.5308 21.8463 12.3216 21.2011 11.3105C20.556 10.2994 19.5689 9.55396 18.4199 9.21003ZM16.9999 17H5.99989C5.46946 17 4.96075 16.7893 4.58568 16.4142C4.2106 16.0392 3.99989 15.5305 3.99989 15C3.99989 14.4696 4.2106 13.9609 4.58568 13.5858C4.96075 13.2107 5.46946 13 5.99989 13C6.26511 13 6.51946 12.8947 6.707 12.7071C6.89453 12.5196 6.99989 12.2652 6.99989 12C7.00244 10.8173 7.42418 9.67379 8.19016 8.77262C8.95614 7.87145 10.0168 7.27098 11.1836 7.07791C12.3505 6.88483 13.548 7.11164 14.5635 7.71804C15.5789 8.32444 16.3465 9.27117 16.7299 10.39C16.7886 10.56 16.892 10.711 17.0292 10.8272C17.1665 10.9433 17.3325 11.0203 17.5099 11.05C18.2429 11.1853 18.8993 11.5886 19.3512 12.1813C19.8031 12.774 20.0182 13.5138 19.9546 14.2564C19.8909 14.9991 19.5531 15.6914 19.0069 16.1986C18.4607 16.7058 17.7452 16.9915 16.9999 17Z" fill="current"/>
</svg>
