<svg width="24" height="24" viewBox="0 0 24 24" fill="none" xmlns="http://www.w3.org/2000/svg">
<path d="M11.0499 14.33C10.8856 14.2204 10.6924 14.1618 10.4949 14.1618C10.2973 14.1618 10.1042 14.2204 9.93988 14.33C9.83988 14.41 7.49988 16 7.49988 18.5C7.49988 19.2956 7.81595 20.0587 8.37856 20.6213C8.94117 21.1839 9.70423 21.5 10.4999 21.5C11.2955 21.5 12.0586 21.1839 12.6212 20.6213C13.1838 20.0587 13.4999 19.2956 13.4999 18.5C13.4999 16 11.1599 14.4 11.0499 14.33ZM10.4999 19.5C10.2347 19.5 9.98031 19.3946 9.79278 19.2071C9.60524 19.0196 9.49988 18.7652 9.49988 18.5C9.56303 17.7294 9.92127 17.0129 10.4999 16.5C11.0785 17.0129 11.4367 17.7294 11.4999 18.5C11.4999 18.7652 11.3945 19.0196 11.207 19.2071C11.0195 19.3946 10.7651 19.5 10.4999 19.5ZM20.9999 7.5H20.1999C20.0965 7.05129 19.9209 6.62237 19.6799 6.23L20.2399 5.67C20.4037 5.4787 20.4893 5.23262 20.4796 4.98095C20.4699 4.72927 20.3655 4.49053 20.1874 4.31244C20.0094 4.13434 19.7706 4.03001 19.5189 4.02029C19.2673 4.01057 19.0212 4.09617 18.8299 4.26L18.2699 4.82C17.8775 4.57901 17.4486 4.40339 16.9999 4.3V3.5C16.9999 3.23478 16.8945 2.98043 16.707 2.79289C16.5195 2.60536 16.2651 2.5 15.9999 2.5C15.7347 2.5 15.4803 2.60536 15.2928 2.79289C15.1052 2.98043 14.9999 3.23478 14.9999 3.5V4.3C14.5538 4.40181 14.1279 4.57758 13.7399 4.82L13.1699 4.26C12.9786 4.09617 12.7325 4.01057 12.4808 4.02029C12.2292 4.03001 11.9904 4.13434 11.8123 4.31244C11.6342 4.49053 11.5299 4.72927 11.5202 4.98095C11.5105 5.23262 11.5961 5.4787 11.7599 5.67L12.3199 6.24C12.2299 6.39 12.1599 6.56 12.0799 6.72C11.5657 6.57486 11.0341 6.50084 10.4999 6.5C9.05874 6.49918 7.66545 7.0171 6.57475 7.95906C5.48406 8.90102 4.76885 10.2041 4.55988 11.63C3.86352 11.8239 3.24427 12.2287 2.78722 12.7887C2.33016 13.3487 2.05771 14.0365 2.0073 14.7576C1.95689 15.4787 2.13099 16.1978 2.50568 16.8159C2.88037 17.4341 3.43727 17.9211 4.09988 18.21C4.22732 18.2605 4.36282 18.2876 4.49988 18.29C4.73108 18.2919 4.95579 18.2136 5.13576 18.0685C5.31574 17.9233 5.43987 17.7203 5.48702 17.494C5.53418 17.2676 5.50145 17.032 5.3944 16.827C5.28735 16.6221 5.1126 16.4606 4.89988 16.37C4.63158 16.2557 4.40302 16.0647 4.2429 15.821C4.08278 15.5772 3.99823 15.2916 3.99988 15C3.99988 14.6022 4.15792 14.2206 4.43922 13.9393C4.72053 13.658 5.10206 13.5 5.49988 13.5C5.7651 13.5 6.01945 13.3946 6.20699 13.2071C6.39453 13.0196 6.49988 12.7652 6.49988 12.5C6.50417 11.5557 6.84241 10.6434 7.45472 9.92447C8.06704 9.20558 8.91394 8.72651 9.84554 8.57204C10.7771 8.41757 11.7333 8.59767 12.5449 9.08047C13.3565 9.56326 13.9711 10.3176 14.2799 11.21C14.337 11.3818 14.4398 11.5349 14.5772 11.6529C14.7145 11.7709 14.8814 11.8494 15.0599 11.88C15.5243 11.9488 15.957 12.1569 16.3007 12.4768C16.6444 12.7967 16.8829 13.2133 16.9848 13.6717C17.0866 14.13 17.047 14.6085 16.8712 15.0439C16.6953 15.4792 16.3915 15.851 15.9999 16.11C15.7771 16.2559 15.6214 16.4843 15.567 16.7449C15.5126 17.0056 15.564 17.2772 15.7099 17.5C15.8558 17.7228 16.0841 17.8785 16.3448 17.9329C16.6055 17.9873 16.8771 17.9359 17.0999 17.79C17.9295 17.2487 18.5467 16.4377 18.8474 15.4938C19.148 14.55 19.1136 13.5314 18.7499 12.61L18.8799 12.74C19.0661 12.9247 19.3175 13.0289 19.5799 13.03C19.7115 13.0308 19.842 13.0055 19.9638 12.9558C20.0856 12.906 20.1964 12.8327 20.2899 12.74C20.4761 12.5526 20.5807 12.2992 20.5807 12.035C20.5807 11.7708 20.4761 11.5174 20.2899 11.33L19.7299 10.77C19.9534 10.3745 20.1121 9.94573 20.1999 9.5H20.9999C21.2651 9.5 21.5195 9.39464 21.707 9.20711C21.8945 9.01957 21.9999 8.76522 21.9999 8.5C21.9999 8.23478 21.8945 7.98043 21.707 7.79289C21.5195 7.60536 21.2651 7.5 20.9999 7.5ZM17.6599 10.15C17.4814 10.3157 17.2792 10.4539 17.0599 10.56C16.7354 10.3233 16.3783 10.1346 15.9999 10C15.5404 8.99676 14.8183 8.13641 13.9099 7.51C14.0191 7.25349 14.1751 7.01951 14.3699 6.82C14.8173 6.40532 15.4048 6.17493 16.0149 6.17493C16.6249 6.17493 17.2125 6.40532 17.6599 6.82C18.0887 7.2622 18.3286 7.854 18.3286 8.47C18.3286 9.086 18.0887 9.6778 17.6599 10.12V10.15Z" fill="current"/>
</svg>
