<svg width="24" height="24" viewBox="0 0 24 24" fill="" xmlns="http://www.w3.org/2000/svg">
<path d="M14.2899 14.1899L10.9999 17.4799L9.70994 16.1899C9.61698 16.0962 9.50638 16.0218 9.38452 15.971C9.26266 15.9202 9.13195 15.8941 8.99994 15.8941C8.86793 15.8941 8.73722 15.9202 8.61537 15.971C8.49351 16.0218 8.38291 16.0962 8.28994 16.1899C8.10369 16.3773 7.99915 16.6307 7.99915 16.8949C7.99915 17.1591 8.10369 17.4125 8.28994 17.5999L10.2899 19.5999C10.3829 19.6936 10.4935 19.768 10.6154 19.8188C10.7372 19.8696 10.8679 19.8957 10.9999 19.8957C11.132 19.8957 11.2627 19.8696 11.3845 19.8188C11.5064 19.768 11.617 19.6936 11.7099 19.5999L15.7099 15.5999C15.8962 15.4125 16.0007 15.1591 16.0007 14.8949C16.0007 14.6307 15.8962 14.3773 15.7099 14.1899C15.617 14.0962 15.5064 14.0218 15.3845 13.971C15.2627 13.9202 15.132 13.8941 14.9999 13.8941C14.8679 13.8941 14.7372 13.9202 14.6154 13.971C14.4935 14.0218 14.3829 14.0962 14.2899 14.1899ZM18.4199 8.3199C17.8083 6.91571 16.7529 5.75089 15.4157 5.00405C14.0785 4.25721 12.5332 3.96957 11.0168 4.18522C9.50044 4.40087 8.09664 5.10792 7.02066 6.19796C5.94468 7.28799 5.2559 8.70085 5.05994 10.2199C4.22593 10.4268 3.48073 10.8968 2.93468 11.5603C2.38863 12.2238 2.07075 13.0455 2.02812 13.9037C1.98549 14.762 2.22037 15.6111 2.69798 16.3255C3.17559 17.0398 3.87055 17.5813 4.67994 17.8699C4.80767 17.9369 4.94839 17.9755 5.09245 17.983C5.2365 17.9906 5.38048 17.9668 5.51449 17.9135C5.64851 17.8601 5.7694 17.7784 5.86886 17.6739C5.96833 17.5694 6.04401 17.4447 6.09072 17.3082C6.13743 17.1717 6.15406 17.0268 6.13946 16.8833C6.12487 16.7397 6.07941 16.6011 6.00619 16.4768C5.93297 16.3525 5.83373 16.2455 5.71527 16.1632C5.59682 16.0809 5.46196 16.0252 5.31994 15.9999C4.93017 15.859 4.5938 15.6005 4.35734 15.2601C4.12087 14.9198 3.99598 14.5143 3.99994 14.0999C3.99994 13.5695 4.21066 13.0608 4.58573 12.6857C4.9608 12.3106 5.46951 12.0999 5.99994 12.0999C6.26516 12.0999 6.51951 11.9945 6.70705 11.807C6.89458 11.6195 6.99994 11.3651 6.99994 11.0999C7.00484 9.91803 7.42823 8.7761 8.19501 7.87671C8.96179 6.97733 10.0224 6.37864 11.1886 6.18686C12.3548 5.99509 13.5513 6.22263 14.5657 6.82912C15.5801 7.43561 16.3468 8.38183 16.7299 9.4999C16.7886 9.66987 16.892 9.82089 17.0293 9.93704C17.1666 10.0532 17.3326 10.1302 17.5099 10.1599C18.176 10.2858 18.7798 10.6335 19.223 11.1464C19.6661 11.6594 19.9225 12.3073 19.9503 12.9845C19.9782 13.6618 19.7758 14.3286 19.3762 14.8761C18.9767 15.4237 18.4034 15.8198 17.7499 15.9999C17.4847 16.033 17.2435 16.1702 17.0794 16.3812C16.9154 16.5922 16.8418 16.8597 16.8749 17.1249C16.9081 17.3901 17.0452 17.6313 17.2562 17.7954C17.4672 17.9595 17.7347 18.033 17.9999 17.9999H18.2499C19.3023 17.7218 20.2352 17.1079 20.9069 16.2514C21.5787 15.3948 21.9525 14.3425 21.9718 13.2542C21.991 12.1658 21.6546 11.1009 21.0135 10.2212C20.3725 9.34149 19.4618 8.69499 18.4199 8.3799V8.3199Z" fill="current"/>
</svg>
