<svg width="24" height="24" viewBox="0 0 24 24" fill="none" xmlns="http://www.w3.org/2000/svg">
<path d="M18.9999 14.0001C18.8725 13.967 18.7398 13.9595 18.6095 13.9778C18.4792 13.9961 18.3538 14.0399 18.2404 14.1068C18.1271 14.1737 18.0281 14.2623 17.949 14.3676C17.87 14.4728 17.8125 14.5926 17.7799 14.7201C17.3975 16.2287 16.5233 17.5667 15.2955 18.5229C14.0676 19.4791 12.5561 19.9989 10.9999 20.0001H5.4099L6.0499 19.3701C6.23615 19.1827 6.34069 18.9293 6.34069 18.6651C6.34069 18.4009 6.23615 18.1475 6.0499 17.9601C5.06739 16.9817 4.3976 15.7335 4.12548 14.3738C3.85336 13.0142 3.99118 11.6044 4.52144 10.3232C5.05171 9.04196 5.95053 7.9471 7.10392 7.17744C8.25731 6.40779 9.61329 5.99802 10.9999 6.00011C11.2651 6.00011 11.5195 5.89475 11.707 5.70722C11.8945 5.51968 11.9999 5.26533 11.9999 5.00011C11.9999 4.73489 11.8945 4.48054 11.707 4.293C11.5195 4.10547 11.2651 4.00011 10.9999 4.00011C9.30736 4.00567 7.6507 4.48839 6.22008 5.39285C4.78947 6.29731 3.64289 7.58684 2.91196 9.11343C2.18104 10.64 1.8954 12.3418 2.08784 14.0233C2.28028 15.7049 2.94299 17.2981 3.9999 18.6201L2.2899 20.2901C2.15114 20.4307 2.05714 20.6093 2.01977 20.8033C1.98239 20.9973 2.00332 21.198 2.0799 21.3801C2.15492 21.5627 2.28231 21.7191 2.44603 21.8294C2.60975 21.9397 2.80247 21.9991 2.9999 22.0001H10.9999C12.9961 22.0014 14.9362 21.339 16.5147 20.117C18.0933 18.8951 19.2208 17.183 19.7199 15.2501C19.7575 15.1207 19.7686 14.9851 19.7525 14.8513C19.7364 14.7176 19.6935 14.5885 19.6262 14.4717C19.559 14.355 19.4688 14.253 19.3612 14.172C19.2536 14.0909 19.1307 14.0325 18.9999 14.0001ZM21.7099 5.26011L18.7099 2.26011C18.6148 2.16907 18.5026 2.09771 18.3799 2.05011C18.1364 1.95009 17.8634 1.95009 17.6199 2.05011C17.4971 2.09771 17.385 2.16907 17.2899 2.26011L14.2899 5.26011C14.1016 5.44842 13.9958 5.70381 13.9958 5.97011C13.9958 6.23641 14.1016 6.49181 14.2899 6.68011C14.4782 6.86841 14.7336 6.9742 14.9999 6.9742C15.2662 6.9742 15.5216 6.86841 15.7099 6.68011L16.9999 5.41011V11.0001C16.9999 11.2653 17.1053 11.5197 17.2928 11.7072C17.4803 11.8948 17.7347 12.0001 17.9999 12.0001C18.2651 12.0001 18.5195 11.8948 18.707 11.7072C18.8945 11.5197 18.9999 11.2653 18.9999 11.0001V5.41011L20.2899 6.71011C20.3829 6.80384 20.4935 6.87823 20.6153 6.929C20.7372 6.97977 20.8679 7.00591 20.9999 7.00591C21.1319 7.00591 21.2626 6.97977 21.3845 6.929C21.5063 6.87823 21.6169 6.80384 21.7099 6.71011C21.8036 6.61715 21.878 6.50655 21.9288 6.38469C21.9796 6.26283 22.0057 6.13212 22.0057 6.00011C22.0057 5.8681 21.9796 5.73739 21.9288 5.61553C21.878 5.49367 21.8036 5.38307 21.7099 5.29011V5.26011Z" fill="current"/>
</svg>
