<svg width="24" height="24" viewBox="0 0 24 24" fill="none" xmlns="http://www.w3.org/2000/svg">
<path d="M20.0001 9.66992V9.49992C20.0061 7.79887 19.4664 6.14072 18.4602 4.76914C17.454 3.39756 16.0345 2.38488 14.4101 1.87992H14.3501C13.5111 1.62416 12.637 1.50266 11.7601 1.51992C9.67189 1.63452 7.70616 2.54167 6.26406 4.05625C4.82196 5.57083 4.01221 7.57864 4.00007 9.66992C3.41408 9.87606 2.90653 10.259 2.54748 10.7659C2.18844 11.2729 1.99561 11.8787 1.99561 12.4999C1.99561 13.1211 2.18844 13.727 2.54748 14.2339C2.90653 14.7408 3.41408 15.1238 4.00007 15.3299C4.20603 17.3047 5.13898 19.1323 6.61754 20.4575C8.0961 21.7826 10.0146 22.5106 12.0001 22.4999H12.2301C14.15 22.407 15.975 21.6368 17.3809 20.326C18.7869 19.0152 19.683 17.2487 19.9101 15.3399C20.503 15.1454 21.0204 14.7709 21.3905 14.2685C21.7605 13.7661 21.9647 13.1609 21.9746 12.537C21.9845 11.9131 21.7997 11.3016 21.4457 10.7878C21.0918 10.2739 20.5865 9.88312 20.0001 9.66992ZM12.1801 20.4999C10.7325 20.5418 9.31856 20.0587 8.19927 19.1397C7.07998 18.2208 6.33083 16.928 6.09007 15.4999H17.8601C17.616 16.8518 16.922 18.0815 15.8909 18.9892C14.8597 19.8969 13.552 20.4293 12.1801 20.4999ZM19.0001 13.4999H5.00007C4.73485 13.4999 4.4805 13.3946 4.29296 13.207C4.10542 13.0195 4.00007 12.7651 4.00007 12.4999C4.00007 12.2347 4.10542 11.9804 4.29296 11.7928C4.4805 11.6053 4.73485 11.4999 5.00007 11.4999H7.00007C7.26528 11.4999 7.51964 11.3946 7.70717 11.207C7.89471 11.0195 8.00007 10.7651 8.00007 10.4999C8.00007 10.2347 7.89471 9.98035 7.70717 9.79282C7.51964 9.60528 7.26528 9.49992 7.00007 9.49992H6.00007C6.04483 8.46253 6.34133 7.45161 6.86398 6.55439C7.38664 5.65717 8.11975 4.90058 9.00007 4.34992V7.49992C9.00007 7.76514 9.10542 8.01949 9.29296 8.20703C9.48049 8.39457 9.73485 8.49992 10.0001 8.49992C10.2653 8.49992 10.5196 8.39457 10.7072 8.20703C10.8947 8.01949 11.0001 7.76514 11.0001 7.49992V3.58992C11.2715 3.54457 11.5453 3.51453 11.8201 3.49992H12.0001C12.3352 3.50464 12.6695 3.53473 13.0001 3.58992V7.49992C13.0001 7.76514 13.1054 8.01949 13.293 8.20703C13.4805 8.39457 13.7348 8.49992 14.0001 8.49992C14.2653 8.49992 14.5196 8.39457 14.7072 8.20703C14.8947 8.01949 15.0001 7.76514 15.0001 7.49992V4.31992C15.4243 4.56555 15.82 4.85732 16.1801 5.18992C16.7566 5.74982 17.2148 6.41984 17.5275 7.16022C17.8401 7.9006 18.0008 8.69624 18.0001 9.49992H17.0001C16.7348 9.49992 16.4805 9.60528 16.293 9.79282C16.1054 9.98035 16.0001 10.2347 16.0001 10.4999C16.0001 10.7651 16.1054 11.0195 16.293 11.207C16.4805 11.3946 16.7348 11.4999 17.0001 11.4999H19.0001C19.2653 11.4999 19.5196 11.6053 19.7072 11.7928C19.8947 11.9804 20.0001 12.2347 20.0001 12.4999C20.0001 12.7651 19.8947 13.0195 19.7072 13.207C19.5196 13.3946 19.2653 13.4999 19.0001 13.4999Z" fill="current"/>
</svg>
