<svg width="24" height="24" viewBox="0 0 24 24" fill="none" xmlns="http://www.w3.org/2000/svg">
<path d="M18.9999 13.9999C18.8725 13.9668 18.7398 13.9592 18.6095 13.9776C18.4792 13.9959 18.3538 14.0397 18.2404 14.1066C18.1271 14.1735 18.0281 14.2621 17.949 14.3674C17.87 14.4726 17.8125 14.5924 17.7799 14.7199C17.3975 16.2284 16.5233 17.5665 15.2955 18.5227C14.0676 19.4789 12.5561 19.9987 10.9999 19.9999H5.4099L6.0499 19.3699C6.23615 19.1825 6.34069 18.9291 6.34069 18.6649C6.34069 18.4007 6.23615 18.1473 6.0499 17.9599C5.17398 17.0875 4.54474 15.9987 4.22615 14.8042C3.90756 13.6097 3.91099 12.3521 4.2361 11.1594C4.56121 9.96666 5.19639 8.8813 6.07705 8.01369C6.95771 7.14608 8.05244 6.52717 9.2499 6.2199C9.37728 6.18707 9.49695 6.12948 9.60207 6.0504C9.70719 5.97132 9.79571 5.87231 9.86257 5.75902C9.92942 5.64573 9.97331 5.52039 9.99173 5.39014C10.0101 5.25989 10.0027 5.12729 9.9699 4.9999C9.90359 4.74264 9.73781 4.52226 9.50901 4.38723C9.39573 4.32038 9.27038 4.27649 9.14013 4.25807C9.00988 4.23965 8.87728 4.24707 8.7499 4.2799C7.2969 4.65875 5.96178 5.39512 4.86616 6.42194C3.77054 7.44875 2.94924 8.73338 2.47709 10.1588C2.00493 11.5842 1.89692 13.1051 2.1629 14.5829C2.42888 16.0608 3.06038 17.4486 3.9999 18.6199L2.2899 20.2899C2.15114 20.4305 2.05714 20.6091 2.01977 20.8031C1.98239 20.9971 2.00332 21.1978 2.0799 21.3799C2.15492 21.5625 2.28231 21.7189 2.44603 21.8292C2.60975 21.9395 2.80247 21.9989 2.9999 21.9999H10.9999C12.9961 22.0012 14.9362 21.3387 16.5147 20.1168C18.0933 18.8949 19.2208 17.1828 19.7199 15.2499C19.7575 15.1205 19.7686 14.9849 19.7525 14.8511C19.7364 14.7174 19.6935 14.5882 19.6262 14.4715C19.559 14.3548 19.4688 14.2528 19.3612 14.1718C19.2536 14.0907 19.1307 14.0323 18.9999 13.9999ZM20.5399 3.4599C19.723 2.64099 18.6475 2.13061 17.4966 2.01571C16.3457 1.90081 15.1905 2.18849 14.2278 2.82976C13.2652 3.47103 12.5547 4.42621 12.2173 5.53258C11.8799 6.63894 11.9366 7.82806 12.3776 8.89735C12.8186 9.96664 13.6167 10.85 14.6359 11.3968C15.6551 11.9437 16.8324 12.1203 17.9672 11.8965C19.102 11.6727 20.1242 11.0624 20.8595 10.1696C21.5948 9.27674 21.9978 8.15657 21.9999 6.9999C22.0011 6.34286 21.8727 5.69202 21.6222 5.0846C21.3717 4.47718 21.0039 3.9251 20.5399 3.4599ZM13.9999 6.9999C13.9999 6.20426 14.316 5.44119 14.8786 4.87858C15.4412 4.31598 16.2042 3.9999 16.9999 3.9999C17.4469 4.00255 17.8876 4.10505 18.2899 4.2999L14.2899 8.2999C14.097 7.89378 13.9979 7.44949 13.9999 6.9999ZM19.1199 9.1199C18.6746 9.54316 18.113 9.82359 17.5071 9.92516C16.9012 10.0267 16.2788 9.9448 15.7199 9.6899L19.7199 5.6899C19.9108 6.09989 20.0065 6.54772 19.9999 6.9999C19.9992 7.79529 19.6827 8.55784 19.1199 9.1199Z" fill="current"/>
</svg>
