<svg width="24" height="24" viewBox="0 0 24 24" fill="none" xmlns="http://www.w3.org/2000/svg">
<path d="M21.7099 4.72006L19.2799 2.29006C19.0925 2.10381 18.8391 1.99927 18.5749 1.99927C18.3107 1.99927 18.0573 2.10381 17.8699 2.29006L12.2899 7.87006C12.1972 7.9635 12.1239 8.07432 12.0741 8.19615C12.0244 8.31799 11.9991 8.44845 11.9999 8.58006V11.0001C11.9999 11.2653 12.1053 11.5196 12.2928 11.7072C12.4803 11.8947 12.7347 12.0001 12.9999 12.0001H15.4199C15.5515 12.0008 15.682 11.9756 15.8038 11.9258C15.9256 11.8761 16.0365 11.8027 16.1299 11.7101L21.7099 6.13006C21.8961 5.9427 22.0007 5.68925 22.0007 5.42506C22.0007 5.16087 21.8961 4.90742 21.7099 4.72006ZM14.9999 10.0001H13.9999V9.00006L18.5799 4.42006L19.5799 5.42006L14.9999 10.0001ZM18.9999 12.0001C18.7347 12.0001 18.4803 12.1054 18.2928 12.293C18.1053 12.4805 17.9999 12.7348 17.9999 13.0001C17.9999 14.8566 17.2624 16.6371 15.9496 17.9498C14.6369 19.2626 12.8564 20.0001 10.9999 20.0001H5.4099L6.0499 19.3701C6.14362 19.2771 6.21802 19.1665 6.26879 19.0446C6.31956 18.9228 6.34569 18.7921 6.34569 18.6601C6.34569 18.528 6.31956 18.3973 6.26879 18.2755C6.21802 18.1536 6.14362 18.043 6.0499 17.9501C5.07083 16.9711 4.40406 15.7238 4.13392 14.3658C3.86378 13.0079 4.00241 11.6004 4.53226 10.3212C5.06212 9.04206 5.9594 7.94878 7.11064 7.17961C8.26188 6.41045 9.61535 5.99996 10.9999 6.00006C11.2651 6.00006 11.5195 5.8947 11.707 5.70717C11.8945 5.51963 11.9999 5.26528 11.9999 5.00006C11.9999 4.73484 11.8945 4.48049 11.707 4.29295C11.5195 4.10542 11.2651 4.00006 10.9999 4.00006C9.30736 4.00562 7.6507 4.48834 6.22008 5.3928C4.78947 6.29726 3.64289 7.58679 2.91196 9.11338C2.18104 10.64 1.8954 12.3417 2.08784 14.0233C2.28028 15.7048 2.94299 17.2981 3.9999 18.6201L2.2899 20.2901C2.15114 20.4307 2.05714 20.6093 2.01977 20.8032C1.98239 20.9972 2.00332 21.1979 2.0799 21.3801C2.15492 21.5627 2.28231 21.719 2.44603 21.8293C2.60975 21.9397 2.80247 21.9991 2.9999 22.0001H10.9999C12.1818 22.0001 13.3521 21.7673 14.444 21.315C15.536 20.8627 16.5281 20.1997 17.3639 19.364C18.1996 18.5283 18.8625 17.5361 19.3148 16.4442C19.7671 15.3523 19.9999 14.182 19.9999 13.0001C19.9999 12.7348 19.8945 12.4805 19.707 12.293C19.5195 12.1054 19.2651 12.0001 18.9999 12.0001Z" fill="current"/>
</svg>
