<svg width="24" height="24" viewBox="0 0 24 24" fill="none" xmlns="http://www.w3.org/2000/svg">
<path d="M6.76994 9.14994L12.2099 3.70994C12.3032 3.6167 12.3771 3.50601 12.4276 3.38419C12.4781 3.26237 12.504 3.1318 12.504 2.99994C12.504 2.86808 12.4781 2.73751 12.4276 2.61569C12.3771 2.49387 12.3032 2.38318 12.2099 2.28994C12.1167 2.1967 12.006 2.12274 11.8842 2.07228C11.7624 2.02182 11.6318 1.99585 11.4999 1.99585C11.2336 1.99585 10.9782 2.10164 10.7899 2.28994L6.05994 6.99994L4.20994 5.16994C4.02164 4.98164 3.76624 4.87585 3.49994 4.87585C3.23364 4.87585 2.97824 4.98164 2.78994 5.16994C2.60164 5.35825 2.49585 5.61364 2.49585 5.87994C2.49585 6.14624 2.60164 6.40164 2.78994 6.58994L5.34994 9.14994C5.4429 9.24367 5.55351 9.31806 5.67536 9.36883C5.79722 9.4196 5.92793 9.44574 6.05994 9.44574C6.19195 9.44574 6.32266 9.4196 6.44452 9.36883C6.56638 9.31806 6.67698 9.24367 6.76994 9.14994ZM18.4999 5.99994H12.9999C12.7347 5.99994 12.4804 6.1053 12.2928 6.29283C12.1053 6.48037 11.9999 6.73472 11.9999 6.99994C11.9999 7.26516 12.1053 7.51951 12.2928 7.70705C12.4804 7.89458 12.7347 7.99994 12.9999 7.99994H18.4999C18.7652 7.99994 19.0195 8.1053 19.207 8.29283C19.3946 8.48037 19.4999 8.73472 19.4999 8.99994V18.7199L17.9299 17.2699C17.7455 17.0973 17.5026 17.0008 17.2499 16.9999H8.49994C8.23472 16.9999 7.98037 16.8946 7.79283 16.707C7.6053 16.5195 7.49994 16.2652 7.49994 15.9999V12.4999C7.49994 12.2347 7.39458 11.9804 7.20705 11.7928C7.01951 11.6053 6.76516 11.4999 6.49994 11.4999C6.23472 11.4999 5.98037 11.6053 5.79283 11.7928C5.6053 11.9804 5.49994 12.2347 5.49994 12.4999V15.9999C5.49994 16.7956 5.81601 17.5587 6.37862 18.1213C6.94123 18.6839 7.70429 18.9999 8.49994 18.9999H16.8599L19.8599 21.7299C20.0444 21.9026 20.2873 21.9991 20.5399 21.9999C20.6771 21.9984 20.8128 21.9713 20.9399 21.9199C21.1188 21.8419 21.2709 21.7132 21.3776 21.5497C21.4842 21.3862 21.5406 21.1951 21.5399 20.9999V8.99994C21.54 8.60259 21.4611 8.20918 21.3078 7.84258C21.1546 7.47597 20.93 7.14346 20.6472 6.86435C20.3643 6.58525 20.0289 6.36511 19.6603 6.21672C19.2917 6.06833 18.8973 5.99464 18.4999 5.99994Z" fill="current"/>
</svg>
