<svg width="89" height="81" viewBox="0 0 89 81" fill="none" xmlns="http://www.w3.org/2000/svg">
<path d="M76 57C73.5172 57.0128 71.0994 57.7954 69.08 59.24L59.28 53.44C59.7424 52.0048 59.9851 50.5078 60 49C59.9885 45.4618 58.8045 42.0272 56.6332 39.2335C54.462 36.4397 51.4259 34.4446 48 33.56V24.28C50.6689 23.3364 52.9182 21.4797 54.3505 19.0381C55.7828 16.5965 56.3059 13.7271 55.8272 10.9371C55.3485 8.1471 53.8989 5.61616 51.7346 3.7916C49.5704 1.96703 46.8308 0.966309 44 0.966309C41.1693 0.966309 38.4296 1.96703 36.2654 3.7916C34.1011 5.61616 32.6515 8.1471 32.1728 10.9371C31.6941 13.7271 32.2172 16.5965 33.6495 19.0381C35.0818 21.4797 37.3312 23.3364 40 24.28V33.56C36.5741 34.4446 33.538 36.4397 31.3668 39.2335C29.1955 42.0272 28.0115 45.4618 28 49C28.0149 50.5078 28.2576 52.0048 28.72 53.44L18.92 59.24C16.9006 57.7954 14.4829 57.0128 12 57C9.62663 57 7.30655 57.7038 5.33316 59.0224C3.35977 60.341 1.8217 62.2151 0.913451 64.4078C0.00519943 66.6005 -0.232441 69.0133 0.230582 71.3411C0.693605 73.6689 1.83649 75.8071 3.51472 77.4853C5.19295 79.1635 7.33115 80.3064 9.65892 80.7694C11.9867 81.2325 14.3995 80.9948 16.5922 80.0866C18.7849 79.1783 20.6591 77.6402 21.9776 75.6669C23.2962 73.6935 24 71.3734 24 69C23.9852 67.9166 23.8237 66.8401 23.52 65.8L32.72 60.32C35.7178 63.3 39.773 64.9727 44 64.9727C48.227 64.9727 52.2822 63.3 55.28 60.32L64.48 65.8C63.8098 68.2224 63.9171 70.7942 64.7868 73.1523C65.6565 75.5105 67.2448 77.536 69.3274 78.9431C71.41 80.3502 73.8819 81.0679 76.3943 80.9949C78.9066 80.9218 81.3326 80.0617 83.33 78.536C85.3273 77.0102 86.7952 74.8958 87.5264 72.4911C88.2577 70.0864 88.2154 67.5128 87.4055 65.1334C86.5957 62.754 85.0592 60.689 83.0128 59.2297C80.9664 57.7704 78.5134 56.9905 76 57ZM12 73C11.2089 73 10.4355 72.7654 9.77773 72.3259C9.11993 71.8864 8.60724 71.2617 8.30449 70.5307C8.00174 69.7998 7.92252 68.9956 8.07686 68.2197C8.2312 67.4437 8.61217 66.731 9.17158 66.1716C9.73099 65.6122 10.4437 65.2312 11.2196 65.0769C11.9956 64.9225 12.7998 65.0017 13.5307 65.3045C14.2616 65.6072 14.8864 66.1199 15.3259 66.7777C15.7654 67.4355 16 68.2089 16 69C16 70.0609 15.5786 71.0783 14.8284 71.8284C14.0783 72.5786 13.0609 73 12 73ZM44 9.00002C44.7911 9.00002 45.5645 9.23461 46.2223 9.67414C46.8801 10.1137 47.3928 10.7384 47.6955 11.4693C47.9983 12.2002 48.0775 13.0045 47.9231 13.7804C47.7688 14.5563 47.3878 15.269 46.8284 15.8284C46.269 16.3879 45.5563 16.7688 44.7804 16.9232C44.0044 17.0775 43.2002 16.9983 42.4693 16.6955C41.7384 16.3928 41.1137 15.8801 40.6741 15.2223C40.2346 14.5645 40 13.7911 40 13C40 11.9392 40.4214 10.9217 41.1716 10.1716C41.9217 9.42144 42.9391 9.00002 44 9.00002ZM44 57C42.4178 57 40.871 56.5308 39.5554 55.6518C38.2398 54.7727 37.2145 53.5233 36.609 52.0615C36.0035 50.5997 35.845 48.9911 36.1537 47.4393C36.4624 45.8874 37.2243 44.462 38.3432 43.3432C39.462 42.2243 40.8874 41.4624 42.4393 41.1537C43.9911 40.8451 45.5997 41.0035 47.0615 41.609C48.5233 42.2145 49.7727 43.2399 50.6518 44.5555C51.5308 45.8711 52 47.4178 52 49C52 51.1217 51.1571 53.1566 49.6569 54.6569C48.1566 56.1572 46.1217 57 44 57ZM76 73C75.2089 73 74.4355 72.7654 73.7777 72.3259C73.1199 71.8864 72.6072 71.2617 72.3045 70.5307C72.0017 69.7998 71.9225 68.9956 72.0769 68.2197C72.2312 67.4437 72.6122 66.731 73.1716 66.1716C73.731 65.6122 74.4437 65.2312 75.2196 65.0769C75.9956 64.9225 76.7998 65.0017 77.5307 65.3045C78.2616 65.6072 78.8864 66.1199 79.3259 66.7777C79.7654 67.4355 80 68.2089 80 69C80 70.0609 79.5786 71.0783 78.8284 71.8284C78.0783 72.5786 77.0609 73 76 73Z" fill="#06DCFF"/>
</svg>
