<svg width="24" height="24" viewBox="0 0 24 24" fill="none" xmlns="http://www.w3.org/2000/svg">
<path d="M19 6.00011H14C13.7348 6.00011 13.4804 6.10546 13.2929 6.293C13.1054 6.48054 13 6.73489 13 7.00011C13 7.26532 13.1054 7.51968 13.2929 7.70721C13.4804 7.89475 13.7348 8.00011 14 8.00011H19C19.2652 8.00011 19.5196 8.10546 19.7071 8.293C19.8946 8.48054 20 8.73489 20 9.00011V18.7201L18.43 17.2701C18.2456 17.0974 18.0026 17.001 17.75 17.0001H9C8.73478 17.0001 8.48043 16.8948 8.29289 16.7072C8.10536 16.5197 8 16.2653 8 16.0001V14.0001C8 13.7349 7.89464 13.4805 7.70711 13.293C7.51957 13.1055 7.26522 13.0001 7 13.0001C6.73478 13.0001 6.48043 13.1055 6.29289 13.293C6.10536 13.4805 6 13.7349 6 14.0001V16.0001C6 16.7958 6.31607 17.5588 6.87868 18.1214C7.44129 18.684 8.20435 19.0001 9 19.0001H17.36L20.36 21.7301C20.5342 21.8937 20.7613 21.9895 21 22.0001C21.1372 21.9986 21.2728 21.9715 21.4 21.9201C21.5789 21.842 21.731 21.7133 21.8376 21.5499C21.9442 21.3864 22.0007 21.1953 22 21.0001V9.00011C22 8.20446 21.6839 7.4414 21.1213 6.87879C20.5587 6.31618 19.7956 6.00011 19 6.00011ZM8.57 10.0001L10.29 11.7301C10.383 11.8238 10.4936 11.8982 10.6154 11.949C10.7373 11.9998 10.868 12.0259 11 12.0259C11.132 12.0259 11.2627 11.9998 11.3846 11.949C11.5064 11.8982 11.617 11.8238 11.71 11.7301C11.8037 11.6371 11.8781 11.5265 11.9289 11.4047C11.9797 11.2828 12.0058 11.1521 12.0058 11.0201C12.0058 10.8881 11.9797 10.7574 11.9289 10.6355C11.8781 10.5137 11.8037 10.4031 11.71 10.3101L10 8.57011C10.4191 7.89032 10.6439 7.10868 10.65 6.31011C10.65 5.16305 10.1943 4.06297 9.38324 3.25187C8.57214 2.44078 7.47206 1.98511 6.325 1.98511C5.17794 1.98511 4.07786 2.44078 3.26676 3.25187C2.45567 4.06297 2 5.16305 2 6.31011C2 7.45411 2.45377 8.55141 3.26176 9.36128C4.06976 10.1711 5.166 10.6275 6.31 10.6301C7.10682 10.6311 7.88859 10.4131 8.57 10.0001ZM4 6.31011C3.9998 6.00693 4.05981 5.70672 4.17654 5.42691C4.29327 5.14711 4.4644 4.89326 4.68 4.68011C4.8961 4.45877 5.15429 4.28288 5.43937 4.1628C5.72445 4.04271 6.03066 3.98085 6.34 3.98085C6.64934 3.98085 6.95555 4.04271 7.24063 4.1628C7.52571 4.28288 7.7839 4.45877 8 4.68011C8.22258 4.8955 8.39957 5.15345 8.52044 5.43863C8.64132 5.7238 8.70361 6.03037 8.70361 6.34011C8.70361 6.64984 8.64132 6.95641 8.52044 7.24159C8.39957 7.52676 8.22258 7.78472 8 8.00011C7.67506 8.34208 7.25358 8.57687 6.79178 8.67317C6.32998 8.76947 5.8498 8.7227 5.41526 8.53911C4.98072 8.35551 4.61247 8.04382 4.35961 7.64557C4.10676 7.24733 3.98131 6.78147 4 6.31011Z" fill="current"/>
</svg>
