<svg width="24" height="24" viewBox="0 0 24 24" fill="none" xmlns="http://www.w3.org/2000/svg">
<path d="M6.56993 12.0001C6.77834 11.9987 6.98112 11.9323 7.14993 11.8101L8.76993 10.6501C9.35239 10.2342 9.82879 9.68714 10.1606 9.05304C10.4924 8.41895 10.6703 7.71566 10.6799 7.00006V3.63006C10.679 3.48236 10.6453 3.3367 10.5813 3.20357C10.5173 3.07043 10.4246 2.95312 10.3099 2.86006C10.1938 2.76609 10.058 2.69934 9.91263 2.66473C9.76727 2.63012 9.61599 2.62852 9.46993 2.66006C9.06935 2.74315 8.65601 2.74343 8.25532 2.66089C7.85463 2.57834 7.47505 2.41471 7.13993 2.18006C6.97254 2.06394 6.77366 2.00171 6.56993 2.00171C6.3662 2.00171 6.16733 2.06394 5.99993 2.18006C5.66481 2.41471 5.28523 2.57834 4.88454 2.66089C4.48385 2.74343 4.07051 2.74315 3.66993 2.66006C3.52296 2.63003 3.37111 2.63345 3.22563 2.67007C3.08016 2.70668 2.94478 2.77556 2.82954 2.8716C2.7143 2.96763 2.62214 3.08837 2.55989 3.22485C2.49764 3.36134 2.46689 3.51008 2.46993 3.66006V7.00006C2.46972 7.72342 2.64197 8.4364 2.9724 9.07988C3.30283 9.72335 3.78192 10.2788 4.36993 10.7001L5.99993 11.8101C6.16403 11.934 6.36426 12.0008 6.56993 12.0001ZM4.45993 7.00006V4.72006C5.19441 4.68913 5.91381 4.50161 6.56993 4.17006C7.22561 4.50278 7.94527 4.69036 8.67993 4.72006V7.00006C8.66648 7.39308 8.56302 7.77776 8.37751 8.1245C8.19201 8.47123 7.92941 8.77078 7.60993 9.00006L6.60993 9.74006L5.52993 9.00006C5.21045 8.77078 4.94785 8.47123 4.76235 8.1245C4.57685 7.77776 4.47338 7.39308 4.45993 7.00006ZM18.5399 6.00006H13.5399C13.2747 6.00006 13.0204 6.10542 12.8328 6.29296C12.6453 6.48049 12.5399 6.73485 12.5399 7.00006C12.5399 7.26528 12.6453 7.51963 12.8328 7.70717C13.0204 7.89471 13.2747 8.00006 13.5399 8.00006H18.5399C18.8051 8.00006 19.0595 8.10542 19.247 8.29296C19.4346 8.48049 19.5399 8.73485 19.5399 9.00006V18.7201L17.9999 17.2701C17.9104 17.1819 17.8041 17.1126 17.6873 17.0662C17.5705 17.0198 17.4456 16.9973 17.3199 17.0001H8.53993C8.27471 17.0001 8.02036 16.8947 7.83282 16.7072C7.64529 16.5196 7.53993 16.2653 7.53993 16.0001V15.0001C7.53993 14.7348 7.43457 14.4805 7.24704 14.293C7.0595 14.1054 6.80515 14.0001 6.53993 14.0001C6.27471 14.0001 6.02036 14.1054 5.83282 14.293C5.64529 14.4805 5.53993 14.7348 5.53993 15.0001V16.0001C5.53993 16.7957 5.856 17.5588 6.41861 18.1214C6.98122 18.684 7.74428 19.0001 8.53993 19.0001H16.8999L19.8999 21.7301C20.0818 21.9004 20.3208 21.9967 20.5699 22.0001C20.7103 21.9987 20.8493 21.9715 20.9799 21.9201C21.1569 21.8405 21.307 21.7112 21.4117 21.5478C21.5165 21.3844 21.5715 21.1941 21.5699 21.0001V9.00006C21.57 8.60356 21.4914 8.21099 21.3387 7.84504C21.1861 7.4791 20.9624 7.14704 20.6807 6.86807C20.3989 6.5891 20.0646 6.36875 19.6972 6.21976C19.3298 6.07077 18.9364 5.9961 18.5399 6.00006Z" fill="current"/>
</svg>
