<svg width="18" height="20" viewBox="0 0 18 20" fill="none" xmlns="http://www.w3.org/2000/svg">
  <path d="M16.08 10.42L9.89998 16.61C9.08979 17.33 8.03512 17.7133 6.9517 17.6814C5.86828 17.6495 4.83798 17.2049 4.07155 16.4385C3.30512 15.672 2.86049 14.6417 2.82859 13.5583C2.7967 12.4749 3.17996 11.4202 3.89998 10.61L11.9 2.61003C12.3776 2.15633 13.0112 1.90336 13.67 1.90336C14.3287 1.90336 14.9624 2.15633 15.44 2.61003C15.9053 3.08162 16.1662 3.7175 16.1662 4.38003C16.1662 5.04256 15.9053 5.67844 15.44 6.15003L8.53998 13.04C8.47169 13.1136 8.38959 13.1729 8.29835 13.2147C8.20712 13.2566 8.10855 13.28 8.00826 13.2837C7.90797 13.2874 7.80794 13.2713 7.71386 13.2364C7.61979 13.2015 7.53352 13.1483 7.45998 13.08C7.38644 13.0117 7.32707 12.9296 7.28526 12.8384C7.24345 12.7472 7.22002 12.6486 7.2163 12.5483C7.21259 12.448 7.22866 12.348 7.26361 12.2539C7.29855 12.1598 7.35169 12.0736 7.41998 12L12.55 6.88003C12.7383 6.69173 12.8441 6.43633 12.8441 6.17003C12.8441 5.90373 12.7383 5.64833 12.55 5.46003C12.3617 5.27173 12.1063 5.16594 11.84 5.16594C11.5737 5.16594 11.3183 5.27173 11.13 5.46003L5.99998 10.6C5.74328 10.8547 5.53954 11.1577 5.40051 11.4916C5.26147 11.8254 5.18989 12.1834 5.18989 12.545C5.18989 12.9066 5.26147 13.2647 5.40051 13.5985C5.53954 13.9323 5.74328 14.2353 5.99998 14.49C6.52435 14.9895 7.22078 15.2681 7.94498 15.2681C8.66917 15.2681 9.3656 14.9895 9.88998 14.49L16.78 7.59003C17.5749 6.73698 18.0076 5.6087 17.987 4.44289C17.9665 3.27709 17.4942 2.16478 16.6697 1.3403C15.8452 0.51582 14.7329 0.0435482 13.5671 0.0229789C12.4013 0.00240961 11.273 0.435149 10.42 1.23003L2.41998 9.23003C1.34118 10.4249 0.765005 11.9899 0.81151 13.599C0.858015 15.2081 1.52361 16.7373 2.66962 17.8678C3.81562 18.9983 5.35365 19.6431 6.96326 19.6677C8.57287 19.6924 10.1299 19.095 11.31 18L17.5 11.82C17.5932 11.7268 17.6672 11.6161 17.7176 11.4943C17.7681 11.3725 17.7941 11.2419 17.7941 11.11C17.7941 10.9782 17.7681 10.8476 17.7176 10.7258C17.6672 10.604 17.5932 10.4933 17.5 10.4C17.4067 10.3068 17.296 10.2328 17.1742 10.1824C17.0524 10.1319 16.9218 10.1059 16.79 10.1059C16.6581 10.1059 16.5275 10.1319 16.4057 10.1824C16.2839 10.2328 16.1732 10.3068 16.08 10.4V10.42Z" fill="#858F9E"/>
  </svg>
  