<svg width="24" height="24" viewBox="0 0 24 24" fill="none" xmlns="http://www.w3.org/2000/svg">
<path d="M5.00002 10.9999C5.26523 10.9999 5.51959 10.8945 5.70712 10.707C5.89466 10.5195 6.00002 10.2651 6.00002 9.9999V5.9999C6.00002 5.73468 5.89466 5.48033 5.70712 5.29279C5.51959 5.10525 5.26523 4.9999 5.00002 4.9999C4.7348 4.9999 4.48045 5.10525 4.29291 5.29279C4.10537 5.48033 4.00002 5.73468 4.00002 5.9999V9.9999C4.00002 10.2651 4.10537 10.5195 4.29291 10.707C4.48045 10.8945 4.7348 10.9999 5.00002 10.9999ZM4.29002 3.7099C4.43064 3.84865 4.60921 3.94265 4.8032 3.98002C4.99719 4.0174 5.19791 3.99647 5.38002 3.9199C5.5012 3.86925 5.61282 3.79823 5.71002 3.7099C5.79835 3.61269 5.86937 3.50108 5.92002 3.3799C5.976 3.26122 6.0034 3.13107 6.00002 2.9999C6.00078 2.86829 5.97555 2.73783 5.92579 2.61599C5.87602 2.49415 5.8027 2.38334 5.71002 2.2899C5.56939 2.15114 5.39082 2.05714 5.19683 2.01977C5.00284 1.98239 4.80213 2.00332 4.62002 2.0799C4.49727 2.12749 4.38512 2.19885 4.29002 2.2899C4.19734 2.38334 4.12401 2.49415 4.07425 2.61599C4.02448 2.73783 3.99926 2.86829 4.00002 2.9999C4.0016 3.13057 4.02878 3.25967 4.08002 3.3799C4.13066 3.50108 4.20169 3.61269 4.29002 3.7099ZM17 5.9999H9.00002C8.7348 5.9999 8.48045 6.10525 8.29291 6.29279C8.10537 6.48033 8.00002 6.73468 8.00002 6.9999C8.00002 7.26511 8.10537 7.51947 8.29291 7.707C8.48045 7.89454 8.7348 7.9999 9.00002 7.9999H17C17.2652 7.9999 17.5196 8.10525 17.7071 8.29279C17.8947 8.48033 18 8.73468 18 8.9999V18.7199L16.43 17.2699C16.2456 17.0972 16.0027 17.0008 15.75 16.9999H7.00002C6.7348 16.9999 6.48045 16.8945 6.29291 16.707C6.10537 16.5195 6.00002 16.2651 6.00002 15.9999V13.9999C6.00002 13.7347 5.89466 13.4803 5.70712 13.2928C5.51959 13.1053 5.26523 12.9999 5.00002 12.9999C4.7348 12.9999 4.48045 13.1053 4.29291 13.2928C4.10537 13.4803 4.00002 13.7347 4.00002 13.9999V15.9999C4.00002 16.7955 4.31609 17.5586 4.8787 18.1212C5.44131 18.6838 6.20437 18.9999 7.00002 18.9999H15.36L18.36 21.7299C18.5342 21.8935 18.7613 21.9893 19 21.9999C19.1372 21.9984 19.2728 21.9713 19.4 21.9199C19.5789 21.8418 19.731 21.7131 19.8376 21.5496C19.9442 21.3862 20.0007 21.1951 20 20.9999V8.9999C20 8.20425 19.6839 7.44118 19.1213 6.87858C18.5587 6.31597 17.7957 5.9999 17 5.9999Z" fill="current"/>
</svg>
