<svg width="24" height="24" viewBox="0 0 24 24" fill="none" xmlns="http://www.w3.org/2000/svg">
<path d="M20.5201 3.86994C20.1077 3.00818 19.4569 2.28263 18.645 1.77916C17.833 1.2757 16.8938 1.0154 15.9385 1.02908C14.9832 1.04275 14.0519 1.32983 13.2546 1.85634C12.4574 2.38284 11.8277 3.12672 11.4401 3.99994H7.00012C6.20447 3.99994 5.4414 4.31601 4.8788 4.87862C4.31619 5.44123 4.00012 6.20429 4.00012 6.99994V10.9999C4.00012 11.2652 4.10547 11.5195 4.29301 11.707C4.48055 11.8946 4.7349 11.9999 5.00012 11.9999C5.26533 11.9999 5.51969 11.8946 5.70722 11.707C5.89476 11.5195 6.00012 11.2652 6.00012 10.9999V6.99994C6.00012 6.73472 6.10547 6.48037 6.29301 6.29283C6.48055 6.10529 6.7349 5.99994 7.00012 5.99994H9.78012C9.28233 6.54757 9.00453 7.25988 9.00012 7.99994C9.00012 8.79559 9.31619 9.55865 9.87879 10.1213C10.4414 10.6839 11.2045 10.9999 12.0001 10.9999H19.3301C20.2009 11.0062 21.0453 10.7018 21.7118 10.1415C22.3783 9.58109 22.8232 8.80144 22.9665 7.94255C23.1099 7.08366 22.9423 6.2018 22.4939 5.45536C22.0455 4.70891 21.3457 4.14678 20.5201 3.86994ZM19.3301 8.99994H12.0001C11.7349 8.99994 11.4805 8.89458 11.293 8.70704C11.1055 8.51951 11.0001 8.26515 11.0001 7.99994C11.0001 7.73472 11.1055 7.48037 11.293 7.29283C11.4805 7.10529 11.7349 6.99994 12.0001 6.99994C12.2653 6.99994 12.5197 6.89458 12.7072 6.70704C12.8948 6.51951 13.0001 6.26515 13.0001 5.99994C12.992 5.28629 13.2387 4.59315 13.6957 4.04497C14.1527 3.4968 14.7901 3.12951 15.4936 3.00905C16.197 2.8886 16.9204 3.02288 17.5338 3.38777C18.1471 3.75266 18.6103 4.32427 18.8401 4.99994C18.8973 5.17178 19 5.32487 19.1374 5.44287C19.2748 5.56087 19.4416 5.63935 19.6201 5.66994C20.0112 5.73473 20.3658 5.93813 20.6192 6.24295C20.8727 6.54777 21.0078 6.93362 21.0001 7.32994C21.0001 7.54924 20.9569 7.7664 20.873 7.96902C20.7891 8.17163 20.6661 8.35573 20.511 8.51081C20.3559 8.66588 20.1718 8.78889 19.9692 8.87282C19.7666 8.95674 19.5494 8.99994 19.3301 8.99994ZM19.0001 12.9999C18.7349 12.9999 18.4805 13.1053 18.293 13.2928C18.1055 13.4804 18.0001 13.7347 18.0001 13.9999V16.9999C18.0001 17.2652 17.8948 17.5195 17.7072 17.707C17.5197 17.8946 17.2653 17.9999 17.0001 17.9999H14.7401C14.5468 17.505 14.2482 17.0582 13.8648 16.6903C13.4814 16.3225 13.0226 16.0426 12.5201 15.8699C12.067 14.9083 11.3191 14.116 10.385 13.6083C9.45102 13.1006 8.37948 12.9038 7.32599 13.0465C6.27251 13.1892 5.29193 13.6639 4.52662 14.4018C3.76131 15.1397 3.25112 16.1024 3.07012 17.1499C2.3929 17.3725 1.81708 17.829 1.44582 18.4375C1.07456 19.0461 0.932128 19.7669 1.04405 20.471C1.15597 21.175 1.51492 21.8161 2.0566 22.2795C2.59827 22.743 3.28726 22.9983 4.00012 22.9999H11.3301C12.1863 22.9999 13.0154 22.6998 13.6732 22.1516C14.3309 21.6035 14.7757 20.8421 14.9301 19.9999H17.0001C17.7958 19.9999 18.5588 19.6839 19.1214 19.1213C19.684 18.5586 20.0001 17.7956 20.0001 16.9999V13.9999C20.0001 13.7347 19.8948 13.4804 19.7072 13.2928C19.5197 13.1053 19.2653 12.9999 19.0001 12.9999ZM11.3301 20.9999H4.00012C3.7349 20.9999 3.48055 20.8946 3.29301 20.707C3.10547 20.5195 3.00012 20.2652 3.00012 19.9999C3.00012 19.7347 3.10547 19.4804 3.29301 19.2928C3.48055 19.1053 3.7349 18.9999 4.00012 18.9999C4.26533 18.9999 4.51969 18.8946 4.70722 18.707C4.89476 18.5195 5.00012 18.2652 5.00012 17.9999C4.99205 17.2863 5.23866 16.5931 5.69567 16.045C6.15268 15.4968 6.79014 15.1295 7.49359 15.0091C8.19705 14.8886 8.9204 15.0229 9.53375 15.3878C10.1471 15.7527 10.6103 16.3243 10.8401 16.9999C10.8973 17.1718 11 17.3249 11.1374 17.4429C11.2748 17.5609 11.4416 17.6394 11.6201 17.6699C12.0112 17.7347 12.3658 17.9381 12.6192 18.2429C12.8726 18.5478 13.0078 18.9336 13.0001 19.3299C13.0001 19.5492 12.9569 19.7664 12.873 19.969C12.7891 20.1716 12.6661 20.3557 12.511 20.5108C12.3559 20.6659 12.1718 20.7889 11.9692 20.8728C11.7666 20.9567 11.5494 20.9999 11.3301 20.9999Z" fill="current"/>
</svg>
