<svg width="24" height="24" viewBox="0 0 24 24" fill="none" xmlns="http://www.w3.org/2000/svg">
<path d="M14 11.5102H16.42C16.5516 11.511 16.6821 11.4857 16.8039 11.436C16.9257 11.3862 17.0366 11.3129 17.13 11.2202L21.71 6.64019C21.8037 6.54723 21.8781 6.43663 21.9289 6.31477C21.9797 6.19291 22.0058 6.0622 22.0058 5.93019C22.0058 5.79818 21.9797 5.66748 21.9289 5.54562C21.8781 5.42376 21.8037 5.31316 21.71 5.22019L19.29 2.80019C19.197 2.70646 19.0864 2.63207 18.9646 2.5813C18.8427 2.53053 18.712 2.50439 18.58 2.50439C18.448 2.50439 18.3173 2.53053 18.1954 2.5813C18.0736 2.63207 17.963 2.70646 17.87 2.80019L13.29 7.38019C13.1073 7.57183 13.0037 7.82543 13 8.09019V10.5102C13 10.7754 13.1054 11.0298 13.2929 11.2173C13.4804 11.4048 13.7348 11.5102 14 11.5102ZM15 8.51019L18.58 4.93019L19.58 5.93019L16 9.51019H15V8.51019ZM21 10.5102C20.7348 10.5102 20.4804 10.6156 20.2929 10.8031C20.1054 10.9906 20 11.245 20 11.5102V18.5102C20 18.7754 19.8946 19.0298 19.7071 19.2173C19.5196 19.4048 19.2652 19.5102 19 19.5102H5C4.73478 19.5102 4.48043 19.4048 4.29289 19.2173C4.10536 19.0298 4 18.7754 4 18.5102V8.90019L9.88 14.7902C10.1591 15.0729 10.4915 15.2974 10.858 15.4506C11.2245 15.6038 11.6178 15.6826 12.015 15.6826C12.4122 15.6826 12.8055 15.6038 13.172 15.4506C13.5385 15.2974 13.8709 15.0729 14.15 14.7902C14.3332 14.6033 14.4359 14.3519 14.4359 14.0902C14.4359 13.8284 14.3332 13.5771 14.15 13.3902C14.0569 13.2949 13.9456 13.2193 13.8229 13.1676C13.7001 13.1159 13.5682 13.0893 13.435 13.0893C13.3018 13.0893 13.1699 13.1159 13.0471 13.1676C12.9244 13.2193 12.8131 13.2949 12.72 13.3902C12.5331 13.5734 12.2818 13.6761 12.02 13.6761C11.7582 13.6761 11.5069 13.5734 11.32 13.3902L5.41 7.49019H10C10.2652 7.49019 10.5196 7.38484 10.7071 7.1973C10.8946 7.00976 11 6.75541 11 6.49019C11 6.22498 10.8946 5.97062 10.7071 5.78309C10.5196 5.59555 10.2652 5.49019 10 5.49019H5C4.20435 5.49019 3.44129 5.80626 2.87868 6.36887C2.31607 6.93148 2 7.69454 2 8.49019V18.4902C2 19.2858 2.31607 20.0489 2.87868 20.6115C3.44129 21.1741 4.20435 21.4902 5 21.4902H19C19.7956 21.4902 20.5587 21.1741 21.1213 20.6115C21.6839 20.0489 22 19.2858 22 18.4902V11.4902C22 11.225 21.8946 10.9706 21.7071 10.7831C21.5196 10.5955 21.2652 10.4902 21 10.4902V10.5102Z" fill="current"/>
</svg>
