<svg width="24" height="24" viewBox="0 0 24 24" fill="none" xmlns="http://www.w3.org/2000/svg">
<path d="M4.79004 10.4999H2.79004C2.52482 10.4999 2.27047 10.6053 2.08293 10.7928C1.8954 10.9803 1.79004 11.2347 1.79004 11.4999C1.79004 11.7651 1.8954 12.0195 2.08293 12.207C2.27047 12.3945 2.52482 12.4999 2.79004 12.4999H4.79004C5.05526 12.4999 5.30961 12.3945 5.49715 12.207C5.68468 12.0195 5.79004 11.7651 5.79004 11.4999C5.79004 11.2347 5.68468 10.9803 5.49715 10.7928C5.30961 10.6053 5.05526 10.4999 4.79004 10.4999ZM21.57 7.6599V7.5999C21.2835 7.24969 20.9215 6.96882 20.5111 6.77833C20.1007 6.58784 19.6525 6.49265 19.2 6.4999H11.27C10.5352 6.4933 9.82358 6.75661 9.27004 7.2399C8.75304 7.69543 8.41313 8.3186 8.31004 8.9999L7.43004 13.9999C7.35437 14.4317 7.37424 14.8748 7.48827 15.2981C7.6023 15.7214 7.80771 16.1145 8.09004 16.4499C8.3709 16.7841 8.72132 17.053 9.11685 17.2378C9.51237 17.4227 9.94347 17.5189 10.38 17.5199H18.32C19.0333 17.5307 19.727 17.287 20.2768 16.8325C20.8266 16.378 21.1965 15.7424 21.32 15.0399L22.2 10.0399C22.2693 9.6212 22.249 9.19256 22.1404 8.78229C22.0318 8.37203 21.8374 7.98947 21.57 7.6599ZM18.83 8.4999L15.43 11.2599C15.229 11.4219 14.9731 11.4999 14.7159 11.4775C14.4587 11.4552 14.2201 11.3342 14.05 11.1399L11.72 8.4999H18.83ZM19.31 14.6699C19.2696 14.9047 19.1466 15.1173 18.9632 15.2695C18.7799 15.4217 18.5483 15.5034 18.31 15.4999H10.38C10.2348 15.4987 10.0916 15.4658 9.96036 15.4037C9.82911 15.3415 9.71298 15.2515 9.62004 15.1399C9.52686 15.0289 9.45893 14.899 9.42094 14.7591C9.38296 14.6192 9.37582 14.4728 9.40004 14.3299L10.2 9.7999L12.55 12.4599C13.0615 13.0413 13.778 13.4023 14.5496 13.4676C15.3212 13.5328 16.0882 13.2971 16.69 12.8099L20.13 9.9999L19.31 14.6699ZM5.79004 6.4999H2.79004C2.52482 6.4999 2.27047 6.60525 2.08293 6.79279C1.8954 6.98033 1.79004 7.23468 1.79004 7.4999C1.79004 7.76511 1.8954 8.01947 2.08293 8.207C2.27047 8.39454 2.52482 8.4999 2.79004 8.4999H5.79004C6.05526 8.4999 6.30961 8.39454 6.49715 8.207C6.68468 8.01947 6.79004 7.76511 6.79004 7.4999C6.79004 7.23468 6.68468 6.98033 6.49715 6.79279C6.30961 6.60525 6.05526 6.4999 5.79004 6.4999Z" fill="current"/>
</svg>
