<svg width="24" height="24" viewBox="0 0 24 24" fill="none" xmlns="http://www.w3.org/2000/svg">
<path d="M22 9.67015C21.9368 9.48723 21.822 9.32657 21.6693 9.20765C21.5167 9.08872 21.3328 9.01664 21.14 9.00014L15.45 8.17015L12.9 3.00015C12.8181 2.83107 12.6902 2.68849 12.5311 2.58872C12.3719 2.48895 12.1878 2.43604 12 2.43604C11.8121 2.43604 11.6281 2.48895 11.4689 2.58872C11.3097 2.68849 11.1819 2.83107 11.1 3.00015L8.54998 8.16014L2.85998 9.00014C2.6749 9.02645 2.5009 9.10411 2.35773 9.2243C2.21455 9.3445 2.10794 9.50242 2.04998 9.68015C1.99692 9.85382 1.99216 10.0387 2.03621 10.2148C2.08025 10.391 2.17144 10.5519 2.29998 10.6801L6.42998 14.6801L5.42998 20.3601C5.3896 20.5486 5.40453 20.7446 5.47296 20.9248C5.54139 21.1049 5.66041 21.2614 5.81571 21.3755C5.971 21.4896 6.15595 21.5564 6.34831 21.5679C6.54066 21.5794 6.73224 21.535 6.89998 21.4401L12 18.7701L17.1 21.4401C17.2403 21.5193 17.3988 21.5607 17.56 21.5601C17.7718 21.5609 17.9784 21.4944 18.15 21.3701C18.3051 21.259 18.4252 21.1058 18.4961 20.9286C18.567 20.7514 18.5857 20.5576 18.55 20.3701L17.55 14.6901L21.68 10.6901C21.8244 10.5678 21.9311 10.407 21.9877 10.2265C22.0444 10.0459 22.0486 9.85302 22 9.67015ZM15.85 13.6701C15.7342 13.7826 15.6474 13.9213 15.5969 14.0745C15.5464 14.2278 15.5337 14.3909 15.56 14.5501L16.28 18.7501L12.52 16.7501C12.3738 16.6779 12.213 16.6403 12.05 16.6403C11.8869 16.6403 11.7261 16.6779 11.58 16.7501L7.81998 18.7501L8.53998 14.5501C8.56622 14.3909 8.55354 14.2278 8.50305 14.0745C8.45255 13.9213 8.36572 13.7826 8.24998 13.6701L5.24998 10.6701L9.45998 10.0601C9.62198 10.0376 9.77598 9.97569 9.90848 9.8798C10.041 9.78391 10.1479 9.65698 10.22 9.51015L12 5.70015L13.88 9.52015C13.952 9.66698 14.059 9.79391 14.1915 9.8898C14.324 9.98569 14.478 10.0476 14.64 10.0701L18.85 10.6801L15.85 13.6701Z" fill="current"/>
</svg>
