<svg width="24" height="24" viewBox="0 0 24 24" fill="none" xmlns="http://www.w3.org/2000/svg">
<path d="M21 10.9999H3C2.73478 10.9999 2.48043 11.1052 2.29289 11.2928C2.10536 11.4803 2 11.7347 2 11.9999C2 12.2651 2.10536 12.5194 2.29289 12.707C2.48043 12.8945 2.73478 12.9999 3 12.9999H21C21.2652 12.9999 21.5196 12.8945 21.7071 12.707C21.8946 12.5194 22 12.2651 22 11.9999C22 11.7347 21.8946 11.4803 21.7071 11.2928C21.5196 11.1052 21.2652 10.9999 21 10.9999ZM10.93 8.99987H12.43C12.6952 8.99987 12.9496 8.89452 13.1371 8.70698C13.3246 8.51944 13.43 8.26509 13.43 7.99987C13.43 7.73466 13.3246 7.4803 13.1371 7.29277C12.9496 7.10523 12.6952 6.99987 12.43 6.99987H10.93C10.6648 6.99987 10.4104 7.10523 10.2229 7.29277C10.0354 7.4803 9.93 7.73466 9.93 7.99987C9.93 8.26509 10.0354 8.51944 10.2229 8.70698C10.4104 8.89452 10.6648 8.99987 10.93 8.99987ZM15.43 7.99987C15.43 8.26509 15.5354 8.51944 15.7229 8.70698C15.9104 8.89452 16.1648 8.99987 16.43 8.99987H17C17.1974 8.99889 17.3901 8.93949 17.5539 8.82915C17.7176 8.71882 17.845 8.56249 17.92 8.37987C17.9966 8.19776 18.0175 7.99705 17.9801 7.80306C17.9428 7.60907 17.8488 7.4305 17.71 7.28987L17.05 6.63987C16.8626 6.45362 16.6092 6.34908 16.345 6.34908C16.0808 6.34908 15.8274 6.45362 15.64 6.63987C15.4921 6.78764 15.3942 6.97805 15.3601 7.18433C15.326 7.39061 15.3575 7.60239 15.45 7.78987C15.4384 7.85931 15.4317 7.92949 15.43 7.99987ZM11.65 4.76987L12 4.40987L12.81 5.21987C12.9974 5.40613 13.2508 5.51067 13.515 5.51067C13.7792 5.51067 14.0326 5.40613 14.22 5.21987C14.4063 5.03251 14.5108 4.77906 14.5108 4.51487C14.5108 4.25069 14.4063 3.99724 14.22 3.80987L13.16 2.74987C13.0853 2.67159 12.9973 2.60725 12.9 2.55987C12.8305 2.41587 12.7274 2.29064 12.5995 2.19468C12.4716 2.09873 12.3225 2.03485 12.1648 2.0084C12.0071 1.98195 11.8454 1.99371 11.6932 2.04269C11.541 2.09166 11.4027 2.17643 11.29 2.28987L10.23 3.34987C10.0417 3.53818 9.93591 3.79357 9.93591 4.05987C9.93591 4.32618 10.0417 4.58157 10.23 4.76987C10.4183 4.95818 10.6737 5.06397 10.94 5.06397C11.2063 5.06397 11.4617 4.95818 11.65 4.76987ZM17 14.9999H7C6.80257 15.0009 6.60986 15.0603 6.44614 15.1706C6.28242 15.2809 6.15502 15.4373 6.08 15.6199C6.00342 15.802 5.9825 16.0027 6.01987 16.1967C6.05725 16.3907 6.15124 16.5692 6.29 16.7099L11.29 21.7099C11.383 21.8036 11.4936 21.878 11.6154 21.9288C11.7373 21.9795 11.868 22.0057 12 22.0057C12.132 22.0057 12.2627 21.9795 12.3846 21.9288C12.5064 21.878 12.617 21.8036 12.71 21.7099L17.71 16.7099C17.8488 16.5692 17.9428 16.3907 17.9801 16.1967C18.0175 16.0027 17.9966 15.802 17.92 15.6199C17.845 15.4373 17.7176 15.2809 17.5539 15.1706C17.3901 15.0603 17.1974 15.0009 17 14.9999ZM12 19.5899L9.41 16.9999H14.59L12 19.5899ZM7.05 8.99987C7.18161 9.00064 7.31207 8.97541 7.43391 8.92565C7.55574 8.87588 7.66656 8.80256 7.76 8.70987L8.82 7.59987C9.0083 7.41157 9.11409 7.15618 9.11409 6.88987C9.11409 6.62357 9.0083 6.36818 8.82 6.17987C8.6317 5.99157 8.3763 5.88578 8.11 5.88578C7.8437 5.88578 7.5883 5.99157 7.4 6.17987L6.34 7.23987C6.24627 7.33284 6.17188 7.44344 6.12111 7.5653C6.07034 7.68716 6.0442 7.81786 6.0442 7.94987C6.0442 8.08189 6.07034 8.21259 6.12111 8.33445C6.17188 8.45631 6.24627 8.56691 6.34 8.65987C6.42919 8.76163 6.5381 8.84424 6.66014 8.90268C6.78218 8.96112 6.91481 8.99419 7.05 8.99987Z" fill="current"/>
</svg>
