<svg width="24" height="24" viewBox="0 0 24 24" fill="none" xmlns="http://www.w3.org/2000/svg">
<path d="M20.1099 17.49L14.9999 8.73V4H15.9999C16.2651 4 16.5195 3.89464 16.707 3.70711C16.8945 3.51957 16.9999 3.26522 16.9999 3C16.9999 2.73478 16.8945 2.48043 16.707 2.29289C16.5195 2.10536 16.2651 2 15.9999 2H7.9999C7.73468 2 7.48033 2.10536 7.29279 2.29289C7.10526 2.48043 6.9999 2.73478 6.9999 3C6.9999 3.26522 7.10526 3.51957 7.29279 3.70711C7.48033 3.89464 7.73468 4 7.9999 4H8.9999V8.73L3.8899 17.49C3.62444 17.9457 3.48382 18.4634 3.48219 18.9908C3.48057 19.5182 3.618 20.0367 3.88065 20.494C4.14329 20.9514 4.52186 21.3314 4.9782 21.5958C5.43453 21.8602 5.9525 21.9996 6.4799 22H17.4799C18.0073 21.9996 18.5253 21.8602 18.9816 21.5958C19.4379 21.3314 19.8165 20.9514 20.0792 20.494C20.3418 20.0367 20.4792 19.5182 20.4776 18.9908C20.476 18.4634 20.3354 17.9457 20.0699 17.49H20.1099ZM10.8599 9.49C10.9481 9.3415 10.9963 9.17268 10.9999 9V4H12.9999V9C13.0017 9.17609 13.05 9.34857 13.1399 9.5L13.9999 11H9.9999L10.8599 9.49ZM18.3799 19.49C18.2926 19.6411 18.1674 19.7668 18.0165 19.8545C17.8656 19.9422 17.6944 19.9889 17.5199 19.99H6.5199C6.34539 19.9889 6.17419 19.9422 6.02332 19.8545C5.87245 19.7668 5.74716 19.6411 5.6599 19.49C5.57213 19.338 5.52593 19.1655 5.52593 18.99C5.52593 18.8145 5.57213 18.642 5.6599 18.49L8.8299 13H15.1799L18.3799 18.5C18.4677 18.652 18.5139 18.8245 18.5139 19C18.5139 19.1755 18.4677 19.348 18.3799 19.5V19.49ZM9.9999 15C9.80212 15 9.60878 15.0586 9.44433 15.1685C9.27988 15.2784 9.15171 15.4346 9.07602 15.6173C9.00033 15.8 8.98053 16.0011 9.01912 16.1951C9.0577 16.3891 9.15294 16.5673 9.29279 16.7071C9.43265 16.847 9.61083 16.9422 9.80481 16.9808C9.99879 17.0194 10.1999 16.9996 10.3826 16.9239C10.5653 16.8482 10.7215 16.72 10.8314 16.5556C10.9413 16.3911 10.9999 16.1978 10.9999 16C10.9999 15.7348 10.8945 15.4804 10.707 15.2929C10.5195 15.1054 10.2651 15 9.9999 15ZM13.9999 16C13.8021 16 13.6088 16.0586 13.4443 16.1685C13.2799 16.2784 13.1517 16.4346 13.076 16.6173C13.0003 16.8 12.9805 17.0011 13.0191 17.1951C13.0577 17.3891 13.1529 17.5673 13.2928 17.7071C13.4326 17.847 13.6108 17.9422 13.8048 17.9808C13.9988 18.0194 14.1999 17.9996 14.3826 17.9239C14.5653 17.8482 14.7215 17.72 14.8314 17.5556C14.9413 17.3911 14.9999 17.1978 14.9999 17C14.9999 16.7348 14.8945 16.4804 14.707 16.2929C14.5195 16.1054 14.2651 16 13.9999 16Z" fill="current"/>
</svg>
