<svg width="24" height="24" viewBox="0 0 24 24" fill="none" xmlns="http://www.w3.org/2000/svg">
<path d="M13.2099 5.69997C13.2896 5.7096 13.3702 5.7096 13.4499 5.69997L15.3899 5.20997C15.6471 5.14614 15.8684 4.98286 16.0053 4.75599C16.1421 4.52913 16.1834 4.25722 16.1199 3.99997C16.0561 3.74281 15.8928 3.5215 15.666 3.38463C15.4391 3.24776 15.1672 3.20652 14.9099 3.26997L12.9999 3.72997C12.7347 3.76179 12.493 3.89767 12.328 4.10771C12.1629 4.31775 12.0881 4.58475 12.1199 4.84997C12.1518 5.11518 12.2876 5.35689 12.4977 5.52193C12.7077 5.68696 12.9747 5.76179 13.2399 5.72997L13.2099 5.69997ZM9.50994 8.99997H7.50994C7.24472 8.99997 6.99037 9.10532 6.80283 9.29286C6.61529 9.4804 6.50994 9.73475 6.50994 9.99997C6.50994 10.2652 6.61529 10.5195 6.80283 10.7071C6.99037 10.8946 7.24472 11 7.50994 11H9.50994C9.77515 11 10.0295 10.8946 10.217 10.7071C10.4046 10.5195 10.5099 10.2652 10.5099 9.99997C10.5099 9.73475 10.4046 9.4804 10.217 9.29286C10.0295 9.10532 9.77515 8.99997 9.50994 8.99997ZM13.5099 8.99997C13.2447 8.99997 12.9904 9.10532 12.8028 9.29286C12.6153 9.4804 12.5099 9.73475 12.5099 9.99997C12.5099 10.2652 12.6153 10.5195 12.8028 10.7071C12.9904 10.8946 13.2447 11 13.5099 11H15.5099C15.7752 11 16.0295 10.8946 16.217 10.7071C16.4046 10.5195 16.5099 10.2652 16.5099 9.99997C16.5099 9.73475 16.4046 9.4804 16.217 9.29286C16.0295 9.10532 15.7752 8.99997 15.5099 8.99997H13.5099ZM7.38994 7.14997H7.62994L9.56994 6.66997C9.83117 6.60631 10.0564 6.44149 10.1961 6.21176C10.3359 5.98203 10.3786 5.70621 10.3149 5.44497C10.2513 5.18373 10.0865 4.95848 9.85673 4.81876C9.627 4.67905 9.35117 4.63631 9.08994 4.69997L7.14994 5.17997C6.88472 5.21179 6.64301 5.34767 6.47798 5.55771C6.31294 5.76775 6.23811 6.03475 6.26994 6.29997C6.30176 6.56518 6.43764 6.80689 6.64768 6.97193C6.85772 7.13696 7.12472 7.21179 7.38994 7.17997V7.14997ZM3.99994 10.51C4.26515 10.51 4.51951 10.4046 4.70704 10.2171C4.89458 10.0295 4.99994 9.77518 4.99994 9.50997V7.50997C4.99994 7.24475 4.89458 6.9904 4.70704 6.80286C4.51951 6.61532 4.26515 6.50997 3.99994 6.50997C3.73472 6.50997 3.48037 6.61532 3.29283 6.80286C3.10529 6.9904 2.99994 7.24475 2.99994 7.50997V9.50997C2.99994 9.77518 3.10529 10.0295 3.29283 10.2171C3.48037 10.4046 3.73472 10.51 3.99994 10.51ZM20.6199 2.20997C20.5023 2.1113 20.3636 2.04103 20.2144 2.00462C20.0653 1.9682 19.9098 1.96661 19.7599 1.99997L18.7599 2.23997C18.5028 2.3038 18.2815 2.46707 18.1446 2.69394C18.0077 2.92081 17.9665 3.19272 18.0299 3.44997C18.0847 3.67184 18.2138 3.86827 18.3957 4.00655C18.5777 4.14483 18.8015 4.21662 19.0299 4.20997C19.0882 4.44433 19.2293 4.64971 19.4271 4.78816C19.625 4.92661 19.8663 4.98877 20.1064 4.96317C20.3466 4.93758 20.5693 4.82594 20.7336 4.64889C20.8978 4.47185 20.9924 4.24134 20.9999 3.99997V2.99997C21.0008 2.84807 20.967 2.69799 20.9011 2.56111C20.8353 2.42422 20.7391 2.30414 20.6199 2.20997ZM19.9999 6.99997C19.7347 6.99997 19.4804 7.10532 19.2928 7.29286C19.1053 7.4804 18.9999 7.73475 18.9999 7.99997V9.13997C18.8115 9.25177 18.665 9.42235 18.583 9.62549C18.5009 9.82864 18.4879 10.0531 18.5458 10.2644C18.6038 10.4757 18.7295 10.6621 18.9037 10.795C19.0778 10.9279 19.2908 10.9999 19.5099 11H19.9999C20.2652 11 20.5195 10.8946 20.707 10.7071C20.8946 10.5195 20.9999 10.2652 20.9999 9.99997V7.99997C20.9999 7.73475 20.8946 7.4804 20.707 7.29286C20.5195 7.10532 20.2652 6.99997 19.9999 6.99997ZM19.9999 13H3.99994C3.73472 13 3.48037 13.1053 3.29283 13.2929C3.10529 13.4804 2.99994 13.7347 2.99994 14V17C2.99328 17.2284 3.06507 17.4522 3.20335 17.6342C3.34163 17.8161 3.53806 17.9452 3.75994 18L19.7599 22C19.8396 22.0096 19.9202 22.0096 19.9999 22C20.2652 22 20.5195 21.8946 20.707 21.7071C20.8946 21.5195 20.9999 21.2652 20.9999 21V14C20.9999 13.7347 20.8946 13.4804 20.707 13.2929C20.5195 13.1053 20.2652 13 19.9999 13ZM18.9999 19.72L4.99994 16.22V15H18.9999V19.72Z" fill="current"/>
</svg>
