<svg width="24" height="24" viewBox="0 0 24 24" fill="none" xmlns="http://www.w3.org/2000/svg">
<path d="M21.8401 5.5601C21.7073 4.70852 21.3082 3.92087 20.7001 3.3101C20.0893 2.70199 19.3017 2.30292 18.4501 2.1701C16.688 1.90402 14.8909 1.98555 13.1601 2.4101C13.0918 2.4241 13.0249 2.44418 12.9601 2.4701C10.4275 3.10844 8.11541 4.42172 6.27011 6.2701C4.41421 8.1287 3.09446 10.4538 2.45011 13.0001C2.45011 13.0601 2.45011 13.1201 2.40011 13.1901C1.97553 14.9243 1.894 16.7247 2.16011 18.4901C2.30286 19.3239 2.70124 20.0927 3.30011 20.6901C3.91088 21.2982 4.69853 21.6973 5.55011 21.8301C6.23783 21.9419 6.93337 21.9988 7.63011 22.0001C8.72923 21.9938 9.82365 21.8561 10.8901 21.5901H11.0301C13.566 20.9481 15.8817 19.6339 17.7332 17.7859C19.5846 15.938 20.9033 13.6248 21.5501 11.0901C21.5501 11.0301 21.5501 10.9701 21.6001 10.9001C22.03 9.15313 22.1115 7.3386 21.8401 5.5601ZM16.3701 4.0001C16.9597 3.99699 17.5485 4.04383 18.1301 4.1401C18.2117 4.15744 18.292 4.18084 18.3701 4.2101L17.0001 5.5901L15.4601 4.0501C15.7601 4.0001 16.0701 4.0001 16.3701 4.0001ZM7.67011 7.6701C9.17564 6.17272 11.0321 5.07605 13.0701 4.4801L15.5901 7.0001L13.4401 9.1501L12.7101 8.4201C12.6172 8.32638 12.5066 8.25198 12.3847 8.20121C12.2628 8.15044 12.1321 8.12431 12.0001 8.12431C11.8681 8.12431 11.7374 8.15044 11.6155 8.20121C11.4937 8.25198 11.3831 8.32638 11.2901 8.4201C11.1039 8.60747 10.9993 8.86092 10.9993 9.1251C10.9993 9.38929 11.1039 9.64274 11.2901 9.8301L12.0201 10.5601L10.5601 12.0001L9.83011 11.2701C9.64275 11.0839 9.3893 10.9793 9.12511 10.9793C8.86093 10.9793 8.60748 11.0839 8.42011 11.2701C8.32639 11.3631 8.25199 11.4737 8.20122 11.5955C8.15045 11.7174 8.12432 11.8481 8.12432 11.9801C8.12432 12.1121 8.15045 12.2428 8.20122 12.3647C8.25199 12.4865 8.32639 12.5971 8.42011 12.6901L9.15011 13.4201L7.00011 15.5901L4.49011 13.0801C5.07969 11.0386 6.17323 9.17825 7.67011 7.6701ZM4.21011 18.3701C4.18085 18.292 4.15745 18.2117 4.14011 18.1301C3.9887 17.2487 3.94171 16.3525 4.00011 15.4601L5.59011 17.0001L4.21011 18.3701ZM5.87011 19.8601C5.78849 19.8428 5.70826 19.8194 5.63011 19.7901L7.00011 18.4101L8.54011 20.0001C7.6477 20.0585 6.75152 20.0115 5.87011 19.8601ZM16.3301 16.3301C14.822 17.827 12.9616 18.9205 10.9201 19.5101L8.41011 17.0001L10.5601 14.8501L11.2901 15.5801C11.3827 15.6733 11.4927 15.7474 11.614 15.7981C11.7352 15.8489 11.8652 15.8752 11.9966 15.8757C12.128 15.8761 12.2582 15.8507 12.3797 15.8008C12.5013 15.751 12.6119 15.6777 12.7051 15.5851C12.7984 15.4925 12.8724 15.3825 12.9232 15.2613C12.9739 15.1401 13.0002 15.01 13.0007 14.8786C13.0011 14.7472 12.9757 14.617 12.9259 14.4955C12.876 14.3739 12.8027 14.2633 12.7101 14.1701L12.0001 13.4401L13.4401 12.0001L14.1701 12.7301C14.2636 12.8228 14.3744 12.8961 14.4962 12.9459C14.618 12.9956 14.7485 13.0209 14.8801 13.0201C15.0779 13.0193 15.271 12.9598 15.435 12.8493C15.5989 12.7387 15.7265 12.582 15.8014 12.399C15.8763 12.2159 15.8953 12.0148 15.8559 11.821C15.8165 11.6272 15.7205 11.4494 15.5801 11.3101L14.8501 10.5801L17.0001 8.4101L19.5101 10.9201C18.9205 12.9616 17.827 14.822 16.3301 16.3301ZM20.0001 8.5401L18.4101 7.0001L19.7901 5.6301C19.8194 5.70825 19.8428 5.78848 19.8601 5.8701C20.0115 6.75151 20.0585 7.64769 20.0001 8.5401Z" fill="current"/>
</svg>
