<svg width="24" height="24" viewBox="0 0 24 24" fill="none" xmlns="http://www.w3.org/2000/svg">
<path d="M21.6999 7.56986C21.5794 7.45153 21.431 7.36563 21.2683 7.32016C21.1057 7.2747 20.9342 7.27115 20.7699 7.30986C20.5533 7.35937 20.3321 7.38618 20.1099 7.38986C19.3142 7.38986 18.5512 7.07379 17.9886 6.51118C17.426 5.94857 17.1099 5.18551 17.1099 4.38986C17.1128 4.17092 17.1396 3.95296 17.1899 3.73986C17.2296 3.57479 17.2267 3.40232 17.1813 3.23871C17.1359 3.07509 17.0497 2.92572 16.9306 2.80467C16.8116 2.68362 16.6637 2.59487 16.5008 2.54679C16.338 2.49871 16.1656 2.49288 15.9999 2.52986C15.0046 2.7496 14.1019 3.27242 13.416 4.02636C12.7301 4.78029 12.2948 5.72829 12.1699 6.73986C11.6266 6.58462 11.0648 6.50389 10.4999 6.49986C9.05874 6.49904 7.66545 7.01696 6.57475 7.95892C5.48406 8.90088 4.76885 10.2039 4.55988 11.6299C3.86352 11.8238 3.24427 12.2285 2.78722 12.7886C2.33016 13.3486 2.05771 14.0364 2.0073 14.7575C1.95689 15.4786 2.13099 16.1976 2.50568 16.8158C2.88037 17.4339 3.43727 17.9209 4.09988 18.2099C4.22732 18.2604 4.36282 18.2875 4.49988 18.2899C4.73108 18.2917 4.95579 18.2135 5.13576 18.0683C5.31574 17.9232 5.43987 17.7202 5.48702 17.4938C5.53418 17.2675 5.50145 17.0318 5.3944 16.8269C5.28735 16.622 5.1126 16.4605 4.89988 16.3699C4.63158 16.2556 4.40302 16.0646 4.2429 15.8208C4.08278 15.5771 3.99823 15.2915 3.99988 14.9999C3.99988 14.602 4.15792 14.2205 4.43922 13.9392C4.72053 13.6579 5.10206 13.4999 5.49988 13.4999C5.7651 13.4999 6.01945 13.3945 6.20699 13.207C6.39453 13.0194 6.49988 12.7651 6.49988 12.4999C6.49988 11.439 6.92131 10.4216 7.67146 9.67143C8.4216 8.92129 9.43902 8.49986 10.4999 8.49986C11.2759 8.49924 12.0346 8.72894 12.6799 9.15986C13.4068 9.63802 13.958 10.3402 14.2499 11.1599C14.307 11.3317 14.4098 11.4848 14.5472 11.6028C14.6845 11.7208 14.8514 11.7993 15.0299 11.8299C15.5104 11.8819 15.9628 12.0827 16.3236 12.4043C16.6845 12.7259 16.9359 13.1522 17.0428 13.6236C17.1496 14.095 17.1065 14.588 16.9196 15.0338C16.7326 15.4795 16.4111 15.8557 15.9999 16.1099C15.7771 16.2557 15.6214 16.4841 15.567 16.7448C15.5126 17.0055 15.564 17.2771 15.7099 17.4999C15.8558 17.7226 16.0841 17.8784 16.3448 17.9327C16.6055 17.9871 16.8771 17.9357 17.0999 17.7899C17.6909 17.3903 18.1737 16.8505 18.5052 16.2188C18.8368 15.5872 19.0067 14.8832 18.9999 14.1699C19.0038 13.473 18.8355 12.786 18.5099 12.1699C19.3687 11.93 20.1465 11.4622 20.761 10.8161C21.3754 10.17 21.8035 9.36961 21.9999 8.49986C22.0336 8.33213 22.0237 8.15855 21.9712 7.99572C21.9187 7.83289 21.8253 7.68626 21.6999 7.56986ZM17.1099 10.3899C16.9701 10.4011 16.8297 10.4011 16.6899 10.3899C16.4715 10.2402 16.2407 10.1098 15.9999 9.99986C15.59 9.1017 14.9649 8.31855 14.1799 7.71986C14.1799 7.59986 14.1799 7.46986 14.1799 7.34986C14.1799 6.91654 14.2737 6.48835 14.455 6.09476C14.6362 5.70117 14.9006 5.35152 15.2299 5.06986C15.3847 6.13671 15.8802 7.12495 16.6425 7.88724C17.4048 8.64952 18.393 9.14502 19.4599 9.29986C19.1745 9.64558 18.8153 9.92295 18.4086 10.1116C18.0019 10.3002 17.5581 10.3953 17.1099 10.3899ZM11.1099 14.3299C10.9445 14.2181 10.7495 14.1584 10.5499 14.1584C10.3503 14.1584 10.1553 14.2181 9.98988 14.3299C9.83988 14.4099 7.49988 15.9999 7.49988 18.4999C7.49988 19.2955 7.81595 20.0586 8.37856 20.6212C8.94117 21.1838 9.70423 21.4999 10.4999 21.4999C11.2955 21.4999 12.0586 21.1838 12.6212 20.6212C13.1838 20.0586 13.4999 19.2955 13.4999 18.4999C13.4999 15.9999 11.1499 14.3999 11.0599 14.3299H11.1099ZM10.4999 19.4999C10.2347 19.4999 9.98031 19.3945 9.79278 19.207C9.60524 19.0194 9.49988 18.7651 9.49988 18.4999C9.56303 17.7292 9.92127 17.0127 10.4999 16.4999C11.0785 17.0127 11.4367 17.7292 11.4999 18.4999C11.4999 18.7651 11.3945 19.0194 11.207 19.207C11.0195 19.3945 10.7651 19.4999 10.4999 19.4999Z" fill="current"/>
</svg>
