<svg width="24" height="24" viewBox="0 0 24 24" fill="none" xmlns="http://www.w3.org/2000/svg">
<path d="M8.99175 7.69045C8.46132 7.69045 7.95261 7.90116 7.57754 8.27624C7.20247 8.65131 6.99175 9.16002 6.99175 9.69045C6.99175 10.2209 7.20247 10.7296 7.57754 11.1047C7.95261 11.4797 8.46132 11.6904 8.99175 11.6904L9.00689 11.6889V12.1904C9.00663 12.3229 8.95386 12.4499 8.86015 12.5437C8.76644 12.6374 8.63942 12.6901 8.50689 12.6904C8.24167 12.6904 7.98732 12.7957 7.79978 12.9833C7.61225 13.1708 7.50689 13.4252 7.50689 13.6904C7.50689 13.9556 7.61225 14.21 7.79978 14.3975C7.98732 14.585 8.24167 14.6904 8.50689 14.6904C9.16974 14.6898 9.80527 14.4262 10.274 13.9575C10.7427 13.4888 11.0063 12.8532 11.0069 12.1904V9.69039C11.0009 9.6395 10.9907 9.58919 10.9766 9.53996C10.9402 9.03811 10.7154 8.56857 10.3473 8.22554C9.97914 7.88251 9.49492 7.69137 8.99175 7.69045ZM11.9913 1.00191C9.4822 1.00196 7.06899 1.9656 5.25002 3.69382C3.43105 5.42204 2.34527 7.78282 2.21693 10.2886C2.08858 12.7944 2.92747 15.2537 4.56034 17.1588C6.19321 19.0638 8.49534 20.2689 10.9913 20.5254V22.002C10.9911 22.1537 11.0255 22.3034 11.0919 22.4399C11.1583 22.5763 11.2548 22.6958 11.3743 22.7894C11.4937 22.8829 11.6329 22.9481 11.7812 22.9798C11.9296 23.0116 12.0833 23.0091 12.2305 22.9727C14.7507 22.349 17.0151 20.9582 18.7109 18.9923C20.4067 17.0264 21.4502 14.5824 21.6973 11.998C21.8775 10.6202 21.7606 9.21991 21.3546 7.89112C20.9485 6.56232 20.2627 5.33586 19.3432 4.29416C18.4237 3.25247 17.2919 2.4197 16.0238 1.85182C14.7557 1.28395 13.3807 0.994131 11.9913 1.00186V1.00191ZM19.7091 11.7822C19.5255 13.7381 18.7994 15.604 17.6125 17.1694C16.4256 18.7349 14.8251 19.9378 12.9913 20.6425V19.5761C12.9914 19.4448 12.9655 19.3147 12.9153 19.1934C12.8651 19.072 12.7914 18.9617 12.6986 18.8689C12.6057 18.776 12.4954 18.7023 12.3741 18.6521C12.2527 18.6019 12.1226 18.5761 11.9913 18.5761C10.4512 18.5759 8.94572 18.1191 7.66526 17.2633C6.38481 16.4075 5.38687 15.1913 4.79763 13.7683C4.20839 12.3454 4.05432 10.7797 4.3549 9.26923C4.65548 7.75874 5.3972 6.3713 6.48629 5.28235C7.57538 4.19341 8.96291 3.45185 10.4734 3.15147C11.984 2.85108 13.5496 3.00535 14.9725 3.59476C16.3953 4.18418 17.6115 5.18227 18.4671 6.46283C19.3227 7.7434 19.7794 9.24892 19.7794 10.789C19.7767 11.1212 19.7532 11.4529 19.7091 11.7822ZM14.9918 7.69045C14.4613 7.69045 13.9526 7.90116 13.5775 8.27624C13.2025 8.65131 12.9918 9.16002 12.9918 9.69045C12.9918 10.2209 13.2025 10.7296 13.5775 11.1047C13.9526 11.4797 14.4613 11.6904 14.9918 11.6904L15.0069 11.6889V12.1904C15.0066 12.3229 14.9539 12.4499 14.8602 12.5437C14.7664 12.6374 14.6394 12.6901 14.5069 12.6904C14.2417 12.6904 13.9873 12.7957 13.7998 12.9833C13.6122 13.1708 13.5069 13.4252 13.5069 13.6904C13.5069 13.9556 13.6122 14.21 13.7998 14.3975C13.9873 14.585 14.2417 14.6904 14.5069 14.6904C15.1697 14.6898 15.8053 14.4262 16.274 13.9575C16.7427 13.4888 17.0063 12.8532 17.0069 12.1904V9.69039C17.0009 9.6395 16.9907 9.58919 16.9766 9.53996C16.9402 9.03811 16.7154 8.56857 16.3473 8.22554C15.9791 7.88251 15.4949 7.69137 14.9918 7.69045Z" fill="current"/>
</svg>
