<svg width="24" height="24" viewBox="0 0 24 24" fill="none" xmlns="http://www.w3.org/2000/svg">
<path d="M20.9189 10.653C20.6045 10.4831 17.9082 8.91863 16.8965 8.32977L16.8935 8.32777L4.63866 1.25263C4.42988 1.12518 4.19578 1.04489 3.95273 1.01737C3.70967 0.989855 3.46354 1.01578 3.23155 1.09333C3.20537 1.10273 3.18077 1.11219 3.15532 1.12384C3.09623 1.1431 3.03847 1.16622 2.98241 1.19306C2.7481 1.33311 2.55587 1.53373 2.42595 1.77381C2.29603 2.01389 2.23322 2.28455 2.24413 2.55732V21.5427C2.2367 21.7968 2.29688 22.0483 2.41853 22.2715C2.54018 22.4948 2.71894 22.6817 2.93651 22.8132C2.9867 22.8377 3.0384 22.859 3.0913 22.8769C3.12023 22.8903 3.14781 22.9019 3.17766 22.9124C3.32088 22.9643 3.4717 22.9922 3.62401 22.9948C3.91651 22.9917 4.20306 22.9119 4.45507 22.7634C4.84374 22.5378 16.8935 15.5807 16.8935 15.5807L20.9141 13.2595C21.1626 13.1349 21.3724 12.9448 21.5208 12.7097C21.6692 12.4746 21.7505 12.2034 21.7559 11.9255C21.7436 11.6577 21.6594 11.3982 21.5122 11.1743C21.3649 10.9504 21.1599 10.7703 20.9189 10.653ZM4.24413 19.839V4.10187L12.1843 11.9609L4.24413 19.839ZM9.26213 17.6773L13.6056 13.3678L14.7552 14.5056C13.4905 15.2358 11.3539 16.4696 9.26213 17.6774V17.6773ZM13.6039 10.5523L9.20607 6.19934L14.7597 9.40564L13.6039 10.5523ZM16.5507 13.469L15.0253 11.9592L16.5531 10.4434C17.2733 10.8617 18.3959 11.5128 19.169 11.9577L16.5507 13.469Z" fill="current"/>
</svg>
