<svg width="24" height="24" viewBox="0 0 24 24" fill="none" xmlns="http://www.w3.org/2000/svg">
<path d="M8.00007 11H16.0001C16.1478 10.999 16.2934 10.9653 16.4266 10.9013C16.5597 10.8373 16.677 10.7447 16.7701 10.63C16.8678 10.5175 16.9392 10.3846 16.979 10.241C17.0188 10.0974 17.026 9.9467 17.0001 9.79996L16.0001 4.79996C15.9533 4.57068 15.8276 4.36506 15.6449 4.21889C15.4622 4.07271 15.234 3.99524 15.0001 3.99996H9.00007C8.76612 3.99524 8.53793 4.07271 8.35521 4.21889C8.17249 4.36506 8.04682 4.57068 8.00007 4.79996L7.00007 9.79996C6.97144 9.94523 6.97543 10.095 7.01175 10.2386C7.04807 10.3821 7.1158 10.5158 7.21007 10.63C7.30524 10.7473 7.42577 10.8416 7.56259 10.9056C7.69942 10.9697 7.84899 11.002 8.00007 11ZM9.82007 5.99996H14.1801L14.7801 8.99996H9.22007L9.82007 5.99996ZM22.0001 13.8C21.9533 13.5707 21.8276 13.3651 21.6449 13.2189C21.4622 13.0727 21.234 12.9952 21.0001 13H15.0001C14.7661 12.9952 14.5379 13.0727 14.3552 13.2189C14.1725 13.3651 14.0468 13.5707 14.0001 13.8L13.0001 18.8C12.9714 18.9452 12.9754 19.095 13.0117 19.2386C13.0481 19.3821 13.1158 19.5158 13.2101 19.63C13.3052 19.7473 13.4258 19.8416 13.5626 19.9056C13.6994 19.9697 13.849 20.002 14.0001 20H22.0001C22.1478 19.999 22.2934 19.9653 22.4266 19.9013C22.5597 19.8373 22.677 19.7447 22.7701 19.63C22.8678 19.5175 22.9392 19.3846 22.979 19.241C23.0188 19.0974 23.026 18.9467 23.0001 18.8L22.0001 13.8ZM15.2201 18L15.8201 15H20.1801L20.7801 18H15.2201ZM9.00007 13H3.00007C2.76612 12.9952 2.53793 13.0727 2.35521 13.2189C2.17249 13.3651 2.04682 13.5707 2.00007 13.8L1.00007 18.8C0.971443 18.9452 0.975433 19.095 1.01175 19.2386C1.04807 19.3821 1.1158 19.5158 1.21007 19.63C1.30524 19.7473 1.42577 19.8416 1.56259 19.9056C1.69942 19.9697 1.84899 20.002 2.00007 20H10.0001C10.1478 19.999 10.2934 19.9653 10.4266 19.9013C10.5597 19.8373 10.677 19.7447 10.7701 19.63C10.8678 19.5175 10.9392 19.3846 10.979 19.241C11.0188 19.0974 11.026 18.9467 11.0001 18.8L10.0001 13.8C9.95332 13.5707 9.82764 13.3651 9.64492 13.2189C9.46221 13.0727 9.23401 12.9952 9.00007 13ZM3.22007 18L3.82007 15H8.18007L8.78007 18H3.22007Z" fill="current"/>
</svg>
