<svg width="24" height="24" viewBox="0 0 24 24" fill="none" xmlns="http://www.w3.org/2000/svg">
<path d="M22.0001 14.44C22.0046 14.3968 22.0046 14.3532 22.0001 14.31C21.9961 14.2701 21.9961 14.2299 22.0001 14.19L21.9501 14.07L15.9501 3.77997C15.8543 3.61679 15.7142 3.48413 15.546 3.39739C15.3779 3.31065 15.1886 3.27341 15.0001 3.28997H9.00008C8.8249 3.28876 8.65248 3.33359 8.50008 3.41997L8.39008 3.49997C8.35793 3.52412 8.32782 3.55087 8.30008 3.57997C8.26149 3.61528 8.22785 3.65565 8.20008 3.69997C8.20008 3.69997 8.20008 3.69997 8.14008 3.77997L2.14008 14.11C2.05231 14.262 2.0061 14.4344 2.0061 14.61C2.0061 14.7855 2.05231 14.958 2.14008 15.11L5.14008 20.19C5.17101 20.2439 5.20791 20.2943 5.25008 20.34V20.4C5.3743 20.52 5.52503 20.6091 5.69008 20.66C5.76309 20.6697 5.83707 20.6697 5.91008 20.66H18.0001C18.1736 20.6599 18.3442 20.6147 18.495 20.5288C18.6457 20.4429 18.7716 20.3193 18.8601 20.17L21.8601 15.03L21.9101 14.91C21.9061 14.8701 21.9061 14.8299 21.9101 14.79C21.9154 14.7468 21.9154 14.7031 21.9101 14.66C21.9156 14.6168 21.9156 14.5731 21.9101 14.53C21.9432 14.5033 21.9734 14.4731 22.0001 14.44ZM6.00008 17.73L4.21008 14.63L9.00008 6.26997L9.87008 7.76997L10.8701 9.42997L7.00008 15.91L6.00008 17.73ZM12.0001 11.41L13.2601 13.57H10.7201L12.0001 11.41ZM17.4301 18.71H7.70008L9.54008 15.57H19.2601L17.4301 18.71ZM15.5701 13.57L10.7401 5.28997H14.4301L19.2601 13.57H15.5701Z" fill="current"/>
</svg>
