<svg width="24" height="24" viewBox="0 0 24 24" fill="none" xmlns="http://www.w3.org/2000/svg">
<path d="M20.0001 13.1701V13.0001C20.0011 11.9301 19.7874 10.8708 19.3717 9.88484C18.956 8.8989 18.3468 8.00637 17.5801 7.26006C16.685 6.38904 15.5947 5.74448 14.4001 5.38006H14.3501C13.5125 5.11619 12.6381 4.9879 11.7601 5.00006C9.66848 5.11486 7.69986 6.02482 6.25724 7.54366C4.81463 9.06249 4.00714 11.0753 4.00008 13.1701C3.33175 13.4052 2.76819 13.8692 2.40921 14.48C2.05024 15.0908 1.91902 15.809 2.03879 16.5072C2.15857 17.2055 2.52161 17.8389 3.06361 18.2951C3.60561 18.7514 4.2916 19.0011 5.00008 19.0001H19.0001C19.7086 19.0011 20.3946 18.7514 20.9366 18.2951C21.4786 17.8389 21.8416 17.2055 21.9614 16.5072C22.0811 15.809 21.9499 15.0908 21.5909 14.48C21.232 13.8692 20.6684 13.4052 20.0001 13.1701ZM19.0001 17.0001H5.00008C4.73486 17.0001 4.48051 16.8947 4.29297 16.7072C4.10544 16.5196 4.00008 16.2653 4.00008 16.0001C4.00008 15.7348 4.10544 15.4805 4.29297 15.2929C4.48051 15.1054 4.73486 15.0001 5.00008 15.0001H7.00008C7.2653 15.0001 7.51965 14.8947 7.70719 14.7072C7.89472 14.5196 8.00008 14.2653 8.00008 14.0001C8.00008 13.7348 7.89472 13.4805 7.70719 13.2929C7.51965 13.1054 7.2653 13.0001 7.00008 13.0001H6.00008C6.04569 11.9629 6.34255 10.9523 6.86512 10.0552C7.3877 9.15809 8.12035 8.40136 9.00008 7.85006V11.0001C9.00008 11.2653 9.10544 11.5196 9.29297 11.7072C9.48051 11.8947 9.73486 12.0001 10.0001 12.0001C10.2653 12.0001 10.5197 11.8947 10.7072 11.7072C10.8947 11.5196 11.0001 11.2653 11.0001 11.0001V7.09006C11.2715 7.04471 11.5453 7.01466 11.8201 7.00006H12.0001C12.3357 7.00313 12.6705 7.0366 13.0001 7.10006V11.0001C13.0001 11.2653 13.1054 11.5196 13.293 11.7072C13.4805 11.8947 13.7349 12.0001 14.0001 12.0001C14.2653 12.0001 14.5197 11.8947 14.7072 11.7072C14.8947 11.5196 15.0001 11.2653 15.0001 11.0001V7.82006C15.4243 8.06568 15.82 8.35745 16.1801 8.69006C16.7566 9.24995 17.2148 9.91998 17.5275 10.6604C17.8401 11.4007 18.0008 12.1964 18.0001 13.0001H17.0001C16.7349 13.0001 16.4805 13.1054 16.293 13.2929C16.1054 13.4805 16.0001 13.7348 16.0001 14.0001C16.0001 14.2653 16.1054 14.5196 16.293 14.7072C16.4805 14.8947 16.7349 15.0001 17.0001 15.0001H19.0001C19.2653 15.0001 19.5197 15.1054 19.7072 15.2929C19.8947 15.4805 20.0001 15.7348 20.0001 16.0001C20.0001 16.2653 19.8947 16.5196 19.7072 16.7072C19.5197 16.8947 19.2653 17.0001 19.0001 17.0001Z" fill="current"/>
</svg>
