<svg width="24" height="24" viewBox="0 0 24 24" fill="none" xmlns="http://www.w3.org/2000/svg">
<path d="M20.16 4.61006C19.0983 3.54806 17.6908 2.90238 16.1933 2.79044C14.6958 2.67849 13.2078 3.10772 12 4.00006C10.7277 3.0537 9.14402 2.62457 7.56795 2.7991C5.99188 2.97362 4.54047 3.73884 3.506 4.94064C2.47154 6.14245 1.93085 7.69158 1.99283 9.27607C2.05481 10.8606 2.71485 12.3627 3.84003 13.4801L11.29 20.9401C11.383 21.0338 11.4936 21.1082 11.6155 21.1589C11.7373 21.2097 11.868 21.2359 12 21.2359C12.132 21.2359 12.2627 21.2097 12.3846 21.1589C12.5065 21.1082 12.6171 21.0338 12.71 20.9401L20.16 13.4801C20.7427 12.8978 21.2049 12.2064 21.5202 11.4454C21.8356 10.6844 21.9979 9.86879 21.9979 9.04506C21.9979 8.22133 21.8356 7.40567 21.5202 6.64469C21.2049 5.88371 20.7427 5.19233 20.16 4.61006ZM18.75 12.0601L12 18.8101L5.25003 12.0601C4.47545 11.3036 4.01797 10.2805 3.97058 9.19886C3.92319 8.11719 4.28944 7.05806 4.99489 6.23672C5.70035 5.41539 6.69207 4.89349 7.7685 4.77708C8.84494 4.66068 9.9253 4.95852 10.79 5.61006L9.08003 9.61006C9.02061 9.74034 8.98985 9.88186 8.98985 10.0251C8.98985 10.1683 9.02061 10.3098 9.08003 10.4401C9.14354 10.5702 9.23456 10.685 9.34678 10.7765C9.45901 10.868 9.58977 10.934 9.73003 10.9701L12.5 11.6701L11.1 14.5601C11.042 14.6782 11.0079 14.8066 10.9996 14.938C10.9913 15.0694 11.0091 15.2011 11.0518 15.3256C11.0945 15.4501 11.1614 15.5649 11.2486 15.6635C11.3359 15.7621 11.4417 15.8425 11.56 15.9001C11.6972 15.9665 11.8477 16.0007 12 16.0001C12.1875 16.0004 12.3712 15.9481 12.5303 15.8491C12.6895 15.7501 12.8176 15.6084 12.9 15.4401L14.9 11.4401C14.964 11.3057 14.9972 11.1588 14.9972 11.0101C14.9972 10.8613 14.964 10.7144 14.9 10.5801C14.8339 10.446 14.74 10.3275 14.6244 10.2327C14.5089 10.1378 14.3744 10.0688 14.23 10.0301L11.4 9.32006L12.85 5.93006C13.6629 5.14502 14.7544 4.71505 15.8843 4.73474C17.0142 4.75443 18.09 5.22217 18.875 6.03506C19.6601 6.84795 20.09 7.9394 20.0703 9.0693C20.0507 10.1992 19.5829 11.275 18.77 12.0601H18.75Z" fill="current"/>
</svg>
