<svg width="24" height="24" viewBox="0 0 24 24" fill="none" xmlns="http://www.w3.org/2000/svg">
<path d="M15.5501 9.00005C15.6746 9.04746 15.8069 9.0712 15.9401 9.07005H19.9401C20.2053 9.07005 20.4597 8.96469 20.6472 8.77716C20.8347 8.58962 20.9401 8.33527 20.9401 8.07005C20.9401 7.80483 20.8347 7.55048 20.6472 7.36294C20.4597 7.17541 20.2053 7.07005 19.9401 7.07005H18.3501L21.6401 3.78005C21.7448 3.6904 21.8298 3.58009 21.8898 3.45602C21.9499 3.33196 21.9836 3.19682 21.9889 3.0591C21.9942 2.92139 21.971 2.78405 21.9207 2.65573C21.8705 2.5274 21.7942 2.41086 21.6968 2.3134C21.5993 2.21595 21.4827 2.13969 21.3544 2.08941C21.2261 2.03914 21.0888 2.01593 20.951 2.02125C20.8133 2.02657 20.6782 2.0603 20.5541 2.12033C20.4301 2.18035 20.3197 2.26537 20.2301 2.37005L16.9401 5.65005V4.06005C16.9401 3.79483 16.8347 3.54048 16.6472 3.35294C16.4597 3.16541 16.2053 3.06005 15.9401 3.06005C15.6749 3.06005 15.4205 3.16541 15.233 3.35294C15.0455 3.54048 14.9401 3.79483 14.9401 4.06005V8.06005C14.939 8.19328 14.9627 8.32554 15.0101 8.45005C15.0592 8.57289 15.1323 8.68476 15.225 8.77917C15.3177 8.87358 15.4282 8.94866 15.5501 9.00005ZM19.4401 13.0001C19.2201 13.0001 18.9901 12.9301 18.7701 12.8801C18.3246 12.7819 17.8868 12.6515 17.4601 12.4901C16.9962 12.3213 16.4862 12.33 16.0284 12.5147C15.5706 12.6993 15.1972 13.0467 14.9801 13.4901L14.7601 13.9401C13.7861 13.3982 12.8911 12.7253 12.1001 11.9401C11.3149 11.1491 10.6419 10.254 10.1001 9.28005L10.5201 9.00005C10.9635 8.78297 11.3109 8.40958 11.4955 7.95174C11.6801 7.4939 11.6889 6.98396 11.5201 6.52005C11.3613 6.09247 11.231 5.65485 11.1301 5.21005C11.0801 4.99005 11.0401 4.76005 11.0101 4.53005C10.8887 3.82567 10.5197 3.18779 9.96972 2.73129C9.41972 2.27479 8.7248 2.02966 8.0101 2.04005H5.0101C4.57913 2.036 4.15235 2.12486 3.75881 2.30058C3.36527 2.4763 3.01421 2.73475 2.72953 3.05833C2.44485 3.38192 2.23324 3.76305 2.10909 4.17577C1.98494 4.58849 1.95118 5.02311 2.0101 5.45005C2.54284 9.63943 4.45613 13.5319 7.44775 16.5127C10.4394 19.4934 14.3388 21.3926 18.5301 21.9101H18.9101C19.6475 21.9111 20.3595 21.6406 20.9101 21.1501C21.2265 20.8671 21.4792 20.5202 21.6516 20.1324C21.8239 19.7445 21.9121 19.3245 21.9101 18.9001V15.9001C21.8979 15.2054 21.6449 14.5366 21.1944 14.0077C20.744 13.4788 20.1239 13.1227 19.4401 13.0001ZM19.9401 19.0001C19.9399 19.142 19.9095 19.2824 19.8509 19.4117C19.7923 19.541 19.7068 19.6563 19.6001 19.7501C19.4884 19.8465 19.3577 19.9186 19.2165 19.9616C19.0753 20.0047 18.9267 20.0178 18.7801 20.0001C15.035 19.5199 11.5563 17.8065 8.89282 15.1303C6.2293 12.4541 4.53251 8.96739 4.0701 5.22005C4.05419 5.07357 4.06813 4.92538 4.1111 4.78444C4.15407 4.6435 4.22517 4.51274 4.3201 4.40005C4.41381 4.29338 4.52916 4.20789 4.65848 4.14927C4.7878 4.09064 4.92812 4.06023 5.0701 4.06005H8.0701C8.30265 4.05488 8.52972 4.13093 8.71224 4.27512C8.89476 4.41931 9.02131 4.62262 9.0701 4.85005C9.1101 5.12338 9.1601 5.39338 9.2201 5.66005C9.33562 6.1872 9.48936 6.70523 9.6801 7.21005L8.2801 7.86005C8.1604 7.91497 8.05272 7.993 7.96326 8.08965C7.87379 8.1863 7.8043 8.29967 7.75877 8.42325C7.71324 8.54683 7.69257 8.67818 7.69795 8.80977C7.70332 8.94136 7.73464 9.0706 7.7901 9.19005C9.2293 12.2728 11.7073 14.7509 14.7901 16.1901C15.0336 16.2901 15.3066 16.2901 15.5501 16.1901C15.6748 16.1454 15.7894 16.0765 15.8873 15.9872C15.9851 15.898 16.0643 15.7902 16.1201 15.6701L16.7401 14.2701C17.2571 14.4549 17.7847 14.6085 18.3201 14.7301C18.5868 14.7901 18.8568 14.8401 19.1301 14.8801C19.3575 14.9288 19.5608 15.0554 19.705 15.2379C19.8492 15.4204 19.9253 15.6475 19.9201 15.8801L19.9401 19.0001Z" fill="current"/>
</svg>
