<svg width="24" height="24" viewBox="0 0 24 24" fill="none" xmlns="http://www.w3.org/2000/svg">
<path d="M2.49991 8.85988L11.4999 14.0599C11.6519 14.1477 11.8244 14.1939 11.9999 14.1939C12.1754 14.1939 12.3479 14.1477 12.4999 14.0599L21.4999 8.85988C21.651 8.77263 21.7767 8.64734 21.8644 8.49647C21.9521 8.3456 21.9989 8.1744 21.9999 7.99988C22.0006 7.82367 21.9547 7.65041 21.8669 7.49763C21.7791 7.34485 21.6525 7.21799 21.4999 7.12988L12.4999 1.93988C12.3479 1.85211 12.1754 1.80591 11.9999 1.80591C11.8244 1.80591 11.6519 1.85211 11.4999 1.93988L2.49991 7.12988C2.3473 7.21799 2.22069 7.34485 2.13289 7.49763C2.04508 7.65041 1.99921 7.82367 1.99991 7.99988C2.00096 8.1744 2.04767 8.3456 2.13538 8.49647C2.2231 8.64734 2.34877 8.77263 2.49991 8.85988ZM11.9999 3.99988L18.9999 7.99988L11.9999 11.9999L4.99991 7.99988L11.9999 3.99988ZM20.4999 11.1699L11.9999 15.9999L3.49991 11.1299C3.38577 11.0638 3.25969 11.0209 3.12891 11.0037C2.99813 10.9865 2.86524 10.9954 2.7379 11.0298C2.61056 11.0642 2.49129 11.1234 2.38694 11.2041C2.28259 11.2848 2.19524 11.3853 2.12991 11.4999C1.99954 11.7295 1.96527 12.0014 2.03459 12.2561C2.1039 12.5109 2.27118 12.728 2.49991 12.8599L11.4999 18.0599C11.6519 18.1477 11.8244 18.1939 11.9999 18.1939C12.1754 18.1939 12.3479 18.1477 12.4999 18.0599L21.4999 12.8599C21.7286 12.728 21.8959 12.5109 21.9652 12.2561C22.0345 12.0014 22.0003 11.7295 21.8699 11.4999C21.8046 11.3853 21.7172 11.2848 21.6129 11.2041C21.5085 11.1234 21.3893 11.0642 21.2619 11.0298C21.1346 10.9954 21.0017 10.9865 20.8709 11.0037C20.7401 11.0209 20.614 11.0638 20.4999 11.1299V11.1699ZM20.4999 15.1699L11.9999 19.9999L3.49991 15.1299C3.38577 15.0638 3.25969 15.0209 3.12891 15.0037C2.99813 14.9865 2.86524 14.9954 2.7379 15.0298C2.61056 15.0642 2.49129 15.1234 2.38694 15.2041C2.28259 15.2848 2.19524 15.3853 2.12991 15.4999C1.99954 15.7295 1.96527 16.0014 2.03459 16.2561C2.1039 16.5109 2.27118 16.728 2.49991 16.8599L11.4999 22.0599C11.6519 22.1477 11.8244 22.1939 11.9999 22.1939C12.1754 22.1939 12.3479 22.1477 12.4999 22.0599L21.4999 16.8599C21.7286 16.728 21.8959 16.5109 21.9652 16.2561C22.0345 16.0014 22.0003 15.7295 21.8699 15.4999C21.8046 15.3853 21.7172 15.2848 21.6129 15.2041C21.5085 15.1234 21.3893 15.0642 21.2619 15.0298C21.1346 14.9954 21.0017 14.9865 20.8709 15.0037C20.7401 15.0209 20.614 15.0638 20.4999 15.1299V15.1699Z" fill="current"/>
</svg>
