<svg width="24" height="24" viewBox="0 0 24 24" fill="none" xmlns="http://www.w3.org/2000/svg">
<path d="M2.50007 10.5601L11.5001 15.7601C11.6521 15.8478 11.8245 15.894 12.0001 15.894C12.1756 15.894 12.3481 15.8478 12.5001 15.7601L21.5001 10.5601C21.6516 10.4722 21.7774 10.346 21.8648 10.1942C21.9523 10.0424 21.9983 9.87026 21.9983 9.69507C21.9983 9.51988 21.9523 9.34776 21.8648 9.19596C21.7774 9.04415 21.6516 8.91797 21.5001 8.83007L12.5001 3.63007C12.3481 3.5423 12.1756 3.49609 12.0001 3.49609C11.8245 3.49609 11.6521 3.5423 11.5001 3.63007L2.50007 8.83007C2.34853 8.91797 2.22275 9.04415 2.13531 9.19596C2.04787 9.34776 2.00184 9.51988 2.00184 9.69507C2.00184 9.87026 2.04787 10.0424 2.13531 10.1942C2.22275 10.346 2.34853 10.4722 2.50007 10.5601ZM12.0001 5.65007L19.0001 9.65007L12.0001 13.7001L5.00007 9.69007L12.0001 5.65007ZM20.5001 13.4401L12.0001 18.3501L3.50007 13.4401C3.38653 13.3735 3.26098 13.3301 3.13061 13.3122C3.00024 13.2942 2.86762 13.3022 2.74034 13.3357C2.61307 13.3691 2.49365 13.4274 2.38892 13.5071C2.2842 13.5867 2.19623 13.6863 2.13007 13.8001C2.06395 13.9142 2.02107 14.0403 2.00388 14.1711C1.9867 14.3018 1.99556 14.4347 2.02995 14.5621C2.06434 14.6894 2.12358 14.8087 2.20427 14.913C2.28495 15.0174 2.38548 15.1047 2.50007 15.1701L11.5001 20.3701C11.6521 20.4578 11.8245 20.504 12.0001 20.504C12.1756 20.504 12.3481 20.4578 12.5001 20.3701L21.5001 15.1701C21.6147 15.1047 21.7152 15.0174 21.7959 14.913C21.8766 14.8087 21.9358 14.6894 21.9702 14.5621C22.0046 14.4347 22.0134 14.3018 21.9963 14.1711C21.9791 14.0403 21.9362 13.9142 21.8701 13.8001C21.8039 13.6863 21.7159 13.5867 21.6112 13.5071C21.5065 13.4274 21.3871 13.3691 21.2598 13.3357C21.1325 13.3022 20.9999 13.2942 20.8695 13.3122C20.7392 13.3301 20.6136 13.3735 20.5001 13.4401Z" fill="current"/>
</svg>
