<svg width="24" height="24" viewBox="0 0 24 24" fill="none" xmlns="http://www.w3.org/2000/svg">
<path d="M18.0001 2.78005C17.9493 2.55447 17.8219 2.35347 17.6396 2.21125C17.4572 2.06904 17.2313 1.9944 17.0001 2.00005H7.00009C6.76893 1.9944 6.54295 2.06904 6.36063 2.21125C6.1783 2.35347 6.05089 2.55447 6.00009 2.78005L4.00009 11.7801C3.96698 11.9276 3.96777 12.0808 4.00241 12.228C4.03706 12.3753 4.10464 12.5127 4.20009 12.6301C4.29631 12.7487 4.41845 12.8438 4.55713 12.908C4.69581 12.9721 4.84734 13.0036 5.00009 13.0001H8.94009C8.98031 13.3319 9.00034 13.6658 9.00009 14.0001C9.00946 16.3571 8.08549 18.6221 6.43009 20.3001C6.29249 20.4404 6.19931 20.6183 6.1622 20.8113C6.1251 21.0044 6.14571 21.2041 6.22147 21.3855C6.29723 21.5668 6.42477 21.7219 6.58816 21.8312C6.75154 21.9405 6.94352 21.9992 7.14009 22.0001H16.8601C17.0567 21.9992 17.2486 21.9405 17.412 21.8312C17.5754 21.7219 17.703 21.5668 17.7787 21.3855C17.8545 21.2041 17.8751 21.0044 17.838 20.8113C17.8009 20.6183 17.7077 20.4404 17.5701 20.3001C15.9147 18.6221 14.9907 16.3571 15.0001 14.0001C14.9998 13.6658 15.0199 13.3319 15.0601 13.0001H16.0001V15.0001C16.0001 15.2653 16.1054 15.5196 16.293 15.7072C16.4805 15.8947 16.7349 16.0001 17.0001 16.0001C17.2653 16.0001 17.5197 15.8947 17.7072 15.7072C17.8947 15.5196 18.0001 15.2653 18.0001 15.0001V13.0001H19.0001C19.1495 13.0006 19.2971 12.9676 19.4321 12.9036C19.5671 12.8395 19.686 12.7461 19.7801 12.6301C19.8755 12.5127 19.9431 12.3753 19.9778 12.228C20.0124 12.0808 20.0132 11.9276 19.9801 11.7801L18.0001 2.78005ZM9.22009 20.0001C10.3872 18.2171 11.006 16.1311 11.0001 14.0001C11.0001 13.6701 11.0001 13.3301 10.9501 13.0001H13.0501C13.0501 13.3301 13.0001 13.6701 13.0001 14.0001C12.9942 16.1311 13.613 18.2171 14.7801 20.0001H9.22009ZM6.22009 11.0001L7.80009 4.00005H16.2001L17.7501 11.0001H6.22009Z" fill="current"/>
</svg>
