<svg width="24" height="24" viewBox="0 0 24 24" fill="none" xmlns="http://www.w3.org/2000/svg">
<path d="M17.0899 2.82007C16.1702 2.06365 15.0933 1.5221 13.9376 1.23491C12.7819 0.947727 11.5767 0.922157 10.4099 1.16007C8.85632 1.47389 7.43093 2.24214 6.31462 3.36735C5.19832 4.49256 4.44141 5.924 4.13994 7.48007C3.91979 8.64679 3.95979 9.84772 4.2571 10.9972C4.55441 12.1467 5.1017 13.2164 5.85994 14.1301C6.56363 14.9241 6.96698 15.9396 6.99994 17.0001V20.0001C6.99994 20.7957 7.31601 21.5588 7.87862 22.1214C8.44123 22.684 9.20429 23.0001 9.99994 23.0001H13.9999C14.7956 23.0001 15.5587 22.684 16.1213 22.1214C16.6839 21.5588 16.9999 20.7957 16.9999 20.0001V17.1901C17.0335 16.0192 17.4637 14.8945 18.2199 14.0001C19.5451 12.3608 20.1697 10.2649 19.9581 8.16769C19.7465 6.0705 18.7158 4.14156 17.0899 2.80007V2.82007ZM14.9999 20.0001C14.9999 20.2653 14.8946 20.5196 14.707 20.7072C14.5195 20.8947 14.2652 21.0001 13.9999 21.0001H9.99994C9.73473 21.0001 9.48037 20.8947 9.29284 20.7072C9.1053 20.5196 8.99994 20.2653 8.99994 20.0001V19.0001H14.9999V20.0001ZM16.6699 12.7601C15.6644 13.9527 15.0778 15.4421 14.9999 17.0001H12.9999V14.0001C12.9999 13.7349 12.8946 13.4805 12.707 13.293C12.5195 13.1054 12.2652 13.0001 11.9999 13.0001C11.7347 13.0001 11.4804 13.1054 11.2928 13.293C11.1053 13.4805 10.9999 13.7349 10.9999 14.0001V17.0001H8.99994C8.97356 15.4682 8.40689 13.9948 7.39994 12.8401C6.73558 12.0441 6.28883 11.0895 6.10325 10.0694C5.91767 9.04934 5.99959 7.99858 6.34103 7.0196C6.68247 6.04061 7.27176 5.16681 8.05146 4.48339C8.83116 3.79998 9.77465 3.33027 10.7899 3.12007C11.6625 2.94041 12.5641 2.95731 13.4293 3.16954C14.2945 3.38176 15.1016 3.78399 15.792 4.34702C16.4824 4.91005 17.0387 5.61975 17.4206 6.42459C17.8025 7.22943 18.0004 8.10921 17.9999 9.00007C18.0073 10.3699 17.537 11.6995 16.6699 12.7601Z" fill="current"/>
</svg>
