<svg width="24" height="24" viewBox="0 0 24 24" fill="none" xmlns="http://www.w3.org/2000/svg">
<path d="M12.1101 15.3901L8.23008 19.2701C7.76032 19.7235 7.13294 19.9768 6.48008 19.9768C5.82722 19.9768 5.19984 19.7235 4.73008 19.2701C4.49969 19.0406 4.31687 18.7679 4.19213 18.4676C4.06739 18.1673 4.00318 17.8453 4.00318 17.5201C4.00318 17.1949 4.06739 16.8729 4.19213 16.5726C4.31687 16.2723 4.49969 15.9996 4.73008 15.7701L8.61008 11.8901C8.79838 11.7018 8.90417 11.4464 8.90417 11.1801C8.90417 10.9138 8.79838 10.6584 8.61008 10.4701C8.42178 10.2818 8.16638 10.176 7.90008 10.176C7.63378 10.176 7.37838 10.2818 7.19008 10.4701L3.31008 14.3601C2.52844 15.2109 2.1057 16.3308 2.13016 17.4858C2.15461 18.6409 2.62436 19.7419 3.44131 20.5589C4.25826 21.3758 5.35924 21.8456 6.51433 21.87C7.66941 21.8945 8.78929 21.4717 9.64008 20.6901L13.5301 16.8101C13.7184 16.6218 13.8242 16.3664 13.8242 16.1001C13.8242 15.8338 13.7184 15.5784 13.5301 15.3901C13.3418 15.2018 13.0864 15.096 12.8201 15.096C12.5538 15.096 12.2984 15.2018 12.1101 15.3901ZM20.6901 3.31009C19.8489 2.4741 18.7111 2.00488 17.5251 2.00488C16.3391 2.00488 15.2013 2.4741 14.3601 3.31009L10.4701 7.19009C10.3768 7.28333 10.3029 7.39402 10.2524 7.51585C10.202 7.63767 10.176 7.76824 10.176 7.90009C10.176 8.03195 10.202 8.16252 10.2524 8.28434C10.3029 8.40617 10.3768 8.51686 10.4701 8.61009C10.5633 8.70333 10.674 8.77729 10.7958 8.82775C10.9177 8.87821 11.0482 8.90419 11.1801 8.90419C11.3119 8.90419 11.4425 8.87821 11.5643 8.82775C11.6862 8.77729 11.7968 8.70333 11.8901 8.61009L15.7701 4.73009C16.2398 4.27672 16.8672 4.02335 17.5201 4.02335C18.1729 4.02335 18.8003 4.27672 19.2701 4.73009C19.5005 4.95958 19.6833 5.2323 19.808 5.53261C19.9328 5.83292 19.997 6.15491 19.997 6.48009C19.997 6.80528 19.9328 7.12727 19.808 7.42758C19.6833 7.72789 19.5005 8.00061 19.2701 8.23009L15.3901 12.1101C15.2964 12.2031 15.222 12.3137 15.1712 12.4355C15.1204 12.5574 15.0943 12.6881 15.0943 12.8201C15.0943 12.9521 15.1204 13.0828 15.1712 13.2047C15.222 13.3265 15.2964 13.4371 15.3901 13.5301C15.483 13.6238 15.5936 13.6982 15.7155 13.749C15.8374 13.7998 15.9681 13.8259 16.1001 13.8259C16.2321 13.8259 16.3628 13.7998 16.4847 13.749C16.6065 13.6982 16.7171 13.6238 16.8101 13.5301L20.6901 9.64009C21.5261 8.79887 21.9953 7.66107 21.9953 6.47509C21.9953 5.28912 21.5261 4.15131 20.6901 3.31009ZM8.83008 15.1701C8.92352 15.2628 9.03434 15.3361 9.15617 15.3859C9.27801 15.4356 9.40847 15.4609 9.54008 15.4601C9.67169 15.4609 9.80215 15.4356 9.92399 15.3859C10.0458 15.3361 10.1566 15.2628 10.2501 15.1701L15.1701 10.2501C15.3584 10.0618 15.4642 9.8064 15.4642 9.54009C15.4642 9.27379 15.3584 9.0184 15.1701 8.83009C14.9818 8.64179 14.7264 8.536 14.4601 8.536C14.1938 8.536 13.9384 8.64179 13.7501 8.83009L8.83008 13.7501C8.73635 13.8431 8.66196 13.9537 8.61119 14.0755C8.56042 14.1974 8.53428 14.3281 8.53428 14.4601C8.53428 14.5921 8.56042 14.7228 8.61119 14.8447C8.66196 14.9665 8.73635 15.0771 8.83008 15.1701Z" fill="current"/>
</svg>
