<svg width="24" height="24" viewBox="0 0 24 24" fill="none" xmlns="http://www.w3.org/2000/svg">
<path d="M12.1101 15.3901L8.23008 19.2701C8.00059 19.5005 7.72787 19.6833 7.42756 19.808C7.12725 19.9328 6.80527 19.997 6.48008 19.997C6.15489 19.997 5.83291 19.9328 5.5326 19.808C5.23229 19.6833 4.95957 19.5005 4.73008 19.2701C4.49848 19.0413 4.3146 18.7688 4.1891 18.4684C4.0636 18.168 3.99898 17.8456 3.99898 17.5201C3.99898 17.1945 4.0636 16.8722 4.1891 16.5718C4.3146 16.2714 4.49848 15.9989 4.73008 15.7701L8.61008 11.8901C8.79838 11.7018 8.90417 11.4464 8.90417 11.1801C8.90417 10.9138 8.79838 10.6584 8.61008 10.4701C8.42178 10.2818 8.16638 10.176 7.90008 10.176C7.63378 10.176 7.37838 10.2818 7.19008 10.4701L3.31008 14.3601C2.52844 15.2109 2.1057 16.3307 2.13016 17.4858C2.15461 18.6409 2.62436 19.7419 3.44131 20.5588C4.25826 21.3758 5.35924 21.8456 6.51433 21.87C7.66941 21.8945 8.78929 21.4717 9.64008 20.6901L13.5301 16.8101C13.7184 16.6218 13.8242 16.3664 13.8242 16.1001C13.8242 15.8338 13.7184 15.5784 13.5301 15.3901C13.3418 15.2018 13.0864 15.096 12.8201 15.096C12.5538 15.096 12.2984 15.2018 12.1101 15.3901ZM8.83008 15.1701C8.92352 15.2628 9.03434 15.3361 9.15617 15.3859C9.27801 15.4356 9.40847 15.4608 9.54008 15.4601C9.67169 15.4608 9.80215 15.4356 9.92399 15.3859C10.0458 15.3361 10.1566 15.2628 10.2501 15.1701L15.1701 10.2501C15.3584 10.0618 15.4642 9.80638 15.4642 9.54008C15.4642 9.27378 15.3584 9.01838 15.1701 8.83008C14.9818 8.64178 14.7264 8.53599 14.4601 8.53599C14.1938 8.53599 13.9384 8.64178 13.7501 8.83008L8.83008 13.7501C8.73635 13.843 8.66196 13.9536 8.61119 14.0755C8.56042 14.1974 8.53428 14.3281 8.53428 14.4601C8.53428 14.5921 8.56042 14.7228 8.61119 14.8447C8.66196 14.9665 8.73635 15.0771 8.83008 15.1701ZM21.0001 18.0001H20.0001V17.0001C20.0001 16.7349 19.8947 16.4805 19.7072 16.293C19.5197 16.1054 19.2653 16.0001 19.0001 16.0001C18.7349 16.0001 18.4805 16.1054 18.293 16.293C18.1054 16.4805 18.0001 16.7349 18.0001 17.0001V18.0001H17.0001C16.7349 18.0001 16.4805 18.1054 16.293 18.293C16.1054 18.4805 16.0001 18.7349 16.0001 19.0001C16.0001 19.2653 16.1054 19.5197 16.293 19.7072C16.4805 19.8947 16.7349 20.0001 17.0001 20.0001H18.0001V21.0001C18.0001 21.2653 18.1054 21.5197 18.293 21.7072C18.4805 21.8947 18.7349 22.0001 19.0001 22.0001C19.2653 22.0001 19.5197 21.8947 19.7072 21.7072C19.8947 21.5197 20.0001 21.2653 20.0001 21.0001V20.0001H21.0001C21.2653 20.0001 21.5197 19.8947 21.7072 19.7072C21.8947 19.5197 22.0001 19.2653 22.0001 19.0001C22.0001 18.7349 21.8947 18.4805 21.7072 18.293C21.5197 18.1054 21.2653 18.0001 21.0001 18.0001ZM16.8101 13.5301L20.6901 9.64008C21.4717 8.78929 21.8945 7.66941 21.87 6.51433C21.8456 5.35924 21.3758 4.25826 20.5588 3.44131C19.7419 2.62436 18.6409 2.15461 17.4858 2.13016C16.3307 2.1057 15.2109 2.52844 14.3601 3.31008L10.4701 7.19008C10.3768 7.28332 10.3029 7.39401 10.2524 7.51583C10.202 7.63765 10.176 7.76822 10.176 7.90008C10.176 8.03194 10.202 8.16251 10.2524 8.28433C10.3029 8.40615 10.3768 8.51684 10.4701 8.61008C10.5633 8.70332 10.674 8.77728 10.7958 8.82774C10.9177 8.8782 11.0482 8.90417 11.1801 8.90417C11.3119 8.90417 11.4425 8.8782 11.5643 8.82774C11.6862 8.77728 11.7968 8.70332 11.8901 8.61008L15.7701 4.73008C15.9996 4.49969 16.2723 4.31687 16.5726 4.19213C16.8729 4.06739 17.1949 4.00318 17.5201 4.00318C17.8453 4.00318 18.1673 4.06739 18.4676 4.19213C18.7679 4.31687 19.0406 4.49969 19.2701 4.73008C19.5017 4.95889 19.6856 5.23139 19.8111 5.53179C19.9366 5.83219 20.0012 6.15452 20.0012 6.48008C20.0012 6.80564 19.9366 7.12797 19.8111 7.42837C19.6856 7.72877 19.5017 8.00127 19.2701 8.23008L15.3901 12.1101C15.2964 12.203 15.222 12.3136 15.1712 12.4355C15.1204 12.5574 15.0943 12.6881 15.0943 12.8201C15.0943 12.9521 15.1204 13.0828 15.1712 13.2047C15.222 13.3265 15.2964 13.4371 15.3901 13.5301C15.483 13.6238 15.5936 13.6982 15.7155 13.749C15.8374 13.7997 15.9681 13.8259 16.1001 13.8259C16.2321 13.8259 16.3628 13.7997 16.4847 13.749C16.6065 13.6982 16.7171 13.6238 16.8101 13.5301Z" fill="current"/>
</svg>
