<svg width="24" height="24" viewBox="0 0 24 24" fill="none" xmlns="http://www.w3.org/2000/svg">
<path d="M21.6799 17.6501L14.6799 3.65011C14.4301 3.15351 14.0472 2.73609 13.574 2.44442C13.1007 2.15274 12.5558 1.99829 11.9999 1.99829C11.444 1.99829 10.899 2.15274 10.4258 2.44442C9.95258 2.73609 9.5697 3.15351 9.31988 3.65011L2.31988 17.6501C2.04489 18.2026 1.94699 18.8265 2.03954 19.4367C2.13208 20.0469 2.41055 20.6136 2.837 21.0598C3.26345 21.5059 3.81711 21.8097 4.42249 21.9296C5.02788 22.0496 5.65554 21.9799 6.21988 21.7301L11.5899 19.3301C11.7197 19.2757 11.8591 19.2476 11.9999 19.2476C12.1407 19.2476 12.2801 19.2757 12.4099 19.3301L17.7799 21.7301C18.3442 21.9799 18.9719 22.0496 19.5773 21.9296C20.1827 21.8097 20.7363 21.5059 21.1628 21.0598C21.5892 20.6136 21.8677 20.0469 21.9602 19.4367C22.0528 18.8265 21.9549 18.2026 21.6799 17.6501ZM19.6799 19.6501C19.5372 19.7987 19.352 19.8996 19.1497 19.939C18.9474 19.9784 18.738 19.9543 18.5499 19.8701L13.1799 17.4801C12.7959 17.3092 12.3802 17.2208 11.9599 17.2208C11.5395 17.2208 11.1239 17.3092 10.7399 17.4801L5.40988 19.9001C5.22285 19.9814 5.01543 20.0035 4.81545 19.9636C4.61547 19.9236 4.43249 19.8235 4.29103 19.6766C4.14958 19.5297 4.05641 19.3431 4.02404 19.1417C3.99166 18.9404 4.02161 18.7339 4.10988 18.5501L11.1099 4.55011C11.1938 4.38631 11.3213 4.24884 11.4783 4.15285C11.6354 4.05686 11.8158 4.00607 11.9999 4.00607C12.1839 4.00607 12.3644 4.05686 12.5214 4.15285C12.6785 4.24884 12.806 4.38631 12.8899 4.55011L19.8899 18.5501C19.9804 18.7333 20.0126 18.9398 19.9822 19.1418C19.9518 19.3438 19.8603 19.5317 19.7199 19.6801L19.6799 19.6501Z" fill="current"/>
</svg>
