<svg width="24" height="24" viewBox="0 0 24 24" fill="none" xmlns="http://www.w3.org/2000/svg">
<path d="M14.0001 9.45008H13.0001V8.45008C13.0001 8.18486 12.8947 7.93051 12.7072 7.74297C12.5196 7.55543 12.2653 7.45008 12.0001 7.45008C11.7349 7.45008 11.4805 7.55543 11.293 7.74297C11.1054 7.93051 11.0001 8.18486 11.0001 8.45008V9.45008H10.0001C9.73486 9.45008 9.48051 9.55543 9.29297 9.74297C9.10543 9.93051 9.00008 10.1849 9.00008 10.4501C9.00008 10.7153 9.10543 10.9696 9.29297 11.1572C9.48051 11.3447 9.73486 11.4501 10.0001 11.4501H11.0001V12.4501C11.0001 12.7153 11.1054 12.9696 11.293 13.1572C11.4805 13.3447 11.7349 13.4501 12.0001 13.4501C12.2653 13.4501 12.5196 13.3447 12.7072 13.1572C12.8947 12.9696 13.0001 12.7153 13.0001 12.4501V11.4501H14.0001C14.2653 11.4501 14.5196 11.3447 14.7072 11.1572C14.8947 10.9696 15.0001 10.7153 15.0001 10.4501C15.0001 10.1849 14.8947 9.93051 14.7072 9.74297C14.5196 9.55543 14.2653 9.45008 14.0001 9.45008ZM20.4601 9.63008C20.3304 8.27191 19.8758 6.9649 19.1345 5.8195C18.3932 4.6741 17.3871 3.72397 16.2012 3.0494C15.0153 2.37483 13.6844 1.99563 12.3211 1.94387C10.9577 1.8921 9.60191 2.16927 8.36826 2.75197C7.13461 3.33467 6.05935 4.20577 5.23335 5.29166C4.40734 6.37755 3.85487 7.64631 3.62261 8.99074C3.39035 10.3352 3.48513 11.7157 3.89894 13.0158C4.31275 14.3159 5.03343 15.4973 6.00008 16.4601L11.3001 21.7701C11.393 21.8638 11.5036 21.9382 11.6255 21.989C11.7474 22.0397 11.8781 22.0659 12.0101 22.0659C12.1421 22.0659 12.2728 22.0397 12.3947 21.989C12.5165 21.9382 12.6271 21.8638 12.7201 21.7701L18.0001 16.4601C18.8913 15.5755 19.5744 14.5037 19.9999 13.3224C20.4254 12.141 20.5826 10.8797 20.4601 9.63008ZM16.6001 15.0501L12.0001 19.6501L7.40008 15.0501C6.72217 14.3721 6.20288 13.5524 5.87954 12.6498C5.55621 11.7473 5.43686 10.7843 5.53008 9.83008C5.6239 8.86118 5.93184 7.92524 6.43165 7.08992C6.93145 6.2546 7.61063 5.54078 8.42008 5.00008C9.48102 4.29531 10.7264 3.91937 12.0001 3.91937C13.2738 3.91937 14.5191 4.29531 15.5801 5.00008C16.3871 5.53869 17.0647 6.24936 17.5644 7.08102C18.0641 7.91267 18.3734 8.84468 18.4701 9.81008C18.5663 10.7675 18.4485 11.7344 18.1251 12.6406C17.8016 13.5469 17.2807 14.3699 16.6001 15.0501Z" fill="current"/>
</svg>
