<svg width="24" height="24" viewBox="0 0 24 24" fill="none" xmlns="http://www.w3.org/2000/svg">
<path d="M14.4099 6.53007C14.0963 6.59932 13.7715 6.60034 13.4575 6.53305C13.1434 6.46576 12.8476 6.33174 12.5899 6.14006C12.4186 6.01492 12.212 5.94747 11.9999 5.94747C11.7878 5.94747 11.5811 6.01492 11.4099 6.14006C11.1522 6.33174 10.8563 6.46576 10.5423 6.53305C10.2283 6.60034 9.90347 6.59932 9.58988 6.53007C9.44382 6.49852 9.29255 6.50012 9.14718 6.53473C9.00182 6.56934 8.86606 6.63609 8.74988 6.73006C8.63386 6.82418 8.5404 6.9431 8.47637 7.07808C8.41234 7.21306 8.37937 7.36067 8.37988 7.51007V10.4101C8.37288 11.0528 8.51562 11.6883 8.7968 12.2663C9.07799 12.8443 9.48989 13.3489 9.99988 13.7401L11.3699 14.7401C11.5411 14.8652 11.7478 14.9327 11.9599 14.9327C12.172 14.9327 12.3786 14.8652 12.5499 14.7401L13.9199 13.7401C14.4372 13.353 14.8568 12.8503 15.1451 12.2721C15.4333 11.6938 15.5822 11.0562 15.5799 10.4101V7.51007C15.5804 7.36067 15.5474 7.21306 15.4834 7.07808C15.4194 6.9431 15.3259 6.82418 15.2099 6.73006C15.0984 6.64177 14.9694 6.57825 14.8315 6.54376C14.6935 6.50928 14.5498 6.50461 14.4099 6.53007ZM13.6199 10.4101C13.6226 10.7447 13.5472 11.0753 13.3996 11.3757C13.2521 11.676 13.0364 11.9377 12.7699 12.1401L11.9999 12.7101L11.2299 12.1401C10.9633 11.9377 10.7477 11.676 10.6001 11.3757C10.4526 11.0753 10.3772 10.7447 10.3799 10.4101V8.57006C10.9446 8.53025 11.4955 8.37721 11.9999 8.12006C12.5042 8.37721 13.0552 8.53025 13.6199 8.57006V10.4101ZM20.4599 9.63006C20.3195 8.16898 19.8031 6.76915 18.9611 5.56688C18.119 4.36462 16.98 3.4009 15.6549 2.76956C14.3298 2.13822 12.8638 1.86079 11.3996 1.96427C9.93543 2.06775 8.52301 2.54863 7.29988 3.36006C6.24908 4.06271 5.36693 4.98936 4.71682 6.07346C4.06672 7.15755 3.66478 8.37217 3.53988 9.63006C3.41736 10.8797 3.57455 12.141 4.00005 13.3223C4.42555 14.5037 5.10868 15.5755 5.99988 16.4601L11.2999 21.7701C11.3928 21.8638 11.5034 21.9382 11.6253 21.989C11.7472 22.0397 11.8779 22.0659 12.0099 22.0659C12.1419 22.0659 12.2726 22.0397 12.3945 21.989C12.5163 21.9382 12.6269 21.8638 12.7199 21.7701L17.9999 16.4601C18.8911 15.5755 19.5742 14.5037 19.9997 13.3223C20.4252 12.141 20.5824 10.8797 20.4599 9.63006ZM16.5999 15.0501L11.9999 19.6501L7.39988 15.0501C6.72197 14.3721 6.20268 13.5524 5.87935 12.6498C5.55601 11.7473 5.43667 10.7843 5.52988 9.83006C5.6237 8.86117 5.93164 7.92522 6.43145 7.08991C6.93126 6.25459 7.61044 5.54077 8.41988 5.00006C9.48083 4.2953 10.7262 3.91936 11.9999 3.91936C13.2736 3.91936 14.5189 4.2953 15.5799 5.00006C16.3869 5.53868 17.0646 6.24935 17.5642 7.081C18.0639 7.91266 18.3732 8.84467 18.4699 9.81007C18.5661 10.7675 18.4483 11.7343 18.1249 12.6406C17.8014 13.5469 17.2805 14.3699 16.5999 15.0501Z" fill="current"/>
</svg>
