<svg width="24" height="24" viewBox="0 0 24 24" fill="none" xmlns="http://www.w3.org/2000/svg">
<path d="M11.9999 10.0001C11.7347 10.0001 11.4803 10.1054 11.2928 10.293C11.1052 10.4805 10.9999 10.7349 10.9999 11.0001V13.0001C10.9999 13.2653 11.1052 13.5197 11.2928 13.7072C11.4803 13.8947 11.7347 14.0001 11.9999 14.0001C12.2651 14.0001 12.5195 13.8947 12.707 13.7072C12.8945 13.5197 12.9999 13.2653 12.9999 13.0001V11.0001C12.9999 10.7349 12.8945 10.4805 12.707 10.293C12.5195 10.1054 12.2651 10.0001 11.9999 10.0001ZM20.4599 9.68008C20.3273 8.21469 19.8166 6.80881 18.9777 5.59999C18.1388 4.39117 17.0005 3.4208 15.6742 2.78383C14.3478 2.14685 12.8788 1.86509 11.4109 1.9661C9.94303 2.06711 8.52649 2.54743 7.29988 3.36008C6.24908 4.06273 5.36693 4.98938 4.71682 6.07347C4.06672 7.15757 3.66478 8.37219 3.53988 9.63008C3.41736 10.8797 3.57455 12.141 4.00005 13.3224C4.42555 14.5037 5.10868 15.5755 5.99988 16.4601L11.2999 21.7701C11.3928 21.8638 11.5034 21.9382 11.6253 21.989C11.7472 22.0397 11.8779 22.0659 12.0099 22.0659C12.1419 22.0659 12.2726 22.0397 12.3945 21.989C12.5163 21.9382 12.6269 21.8638 12.7199 21.7701L17.9999 16.4601C18.8911 15.5755 19.5742 14.5037 19.9997 13.3224C20.4252 12.141 20.5824 10.8797 20.4599 9.63008V9.68008ZM16.5999 15.0501L11.9999 19.6501L7.39988 15.0501C6.72197 14.3721 6.20268 13.5524 5.87935 12.6498C5.55601 11.7473 5.43667 10.7843 5.52988 9.83008C5.6237 8.86119 5.93164 7.92524 6.43145 7.08992C6.93126 6.25461 7.61044 5.54079 8.41988 5.00008C9.48083 4.29532 10.7262 3.91938 11.9999 3.91938C13.2736 3.91938 14.5189 4.29532 15.5799 5.00008C16.3869 5.5387 17.0646 6.24936 17.5642 7.08102C18.0639 7.91268 18.3732 8.84468 18.4699 9.81008C18.5661 10.7675 18.4483 11.7344 18.1249 12.6406C17.8014 13.5469 17.2805 14.3699 16.5999 15.0501ZM12.9199 7.57008C12.8999 7.50865 12.8695 7.45113 12.8299 7.40008L12.7099 7.25008C12.5905 7.13673 12.445 7.0546 12.2862 7.01098C12.1275 6.96737 11.9604 6.96363 11.7999 7.00008H11.6199L11.4399 7.09008L11.2899 7.22008L11.1699 7.37008C11.1303 7.42113 11.0999 7.47865 11.0799 7.54008C11.0494 7.59963 11.0292 7.66385 11.0199 7.73008C11.0033 7.81907 10.9966 7.90962 10.9999 8.00008C10.9964 8.13449 11.0238 8.2679 11.0799 8.39008C11.1308 8.5081 11.2019 8.61638 11.2899 8.71008C11.3851 8.80352 11.497 8.87816 11.6199 8.93008C11.8647 9.02308 12.1351 9.02308 12.3799 8.93008C12.5014 8.87573 12.613 8.80136 12.7099 8.71008C12.7979 8.61638 12.8689 8.5081 12.9199 8.39008C12.9724 8.26676 12.9996 8.13413 12.9999 8.00008C13.0048 7.93684 13.0048 7.87332 12.9999 7.81008C12.9906 7.72531 12.9633 7.64349 12.9199 7.57008Z" fill="current"/>
</svg>
