<svg width="24" height="24" viewBox="0 0 24 24" fill="none" xmlns="http://www.w3.org/2000/svg">
<path d="M12.4399 13.1101L12.2699 13.0001C12.0868 12.9248 11.8855 12.9054 11.6915 12.9446C11.4974 12.9838 11.3194 13.0796 11.1799 13.2201C11.0834 13.3088 11.0082 13.4182 10.9599 13.5401C10.9073 13.6634 10.8801 13.796 10.8799 13.9301C10.8815 14.0608 10.9086 14.1899 10.9599 14.3101C11.0673 14.5504 11.2596 14.7426 11.4999 14.8501C11.6201 14.9013 11.7492 14.9285 11.8799 14.9301C12.0137 14.9276 12.1459 14.9005 12.2699 14.8501C12.3899 14.7984 12.4986 14.7236 12.5899 14.6301C12.7761 14.4427 12.8807 14.1893 12.8807 13.9251C12.8807 13.6609 12.7761 13.4074 12.5899 13.2201L12.4399 13.1101ZM11.8799 6.00008C11.4027 5.99471 10.9324 6.11359 10.5151 6.34502C10.0979 6.57646 9.74798 6.91249 9.49988 7.32008C9.42753 7.4339 9.37894 7.56118 9.35706 7.69426C9.33517 7.82734 9.34042 7.96347 9.37251 8.09447C9.4046 8.22546 9.46285 8.34862 9.54377 8.45652C9.62468 8.56442 9.72659 8.65483 9.84335 8.72233C9.96012 8.78982 10.0893 8.833 10.2232 8.84926C10.3571 8.86552 10.4929 8.85454 10.6224 8.81696C10.7519 8.77938 10.8725 8.71599 10.9769 8.6306C11.0813 8.54521 11.1674 8.43959 11.2299 8.32008C11.3037 8.21751 11.4015 8.13467 11.5149 8.07886C11.6283 8.02305 11.7536 7.996 11.8799 8.00008C12.0788 8.00008 12.2696 8.0791 12.4102 8.21975C12.5509 8.3604 12.6299 8.55117 12.6299 8.75008C12.6299 8.94899 12.5509 9.13976 12.4102 9.28041C12.2696 9.42106 12.0788 9.50008 11.8799 9.50008C11.6147 9.50008 11.3603 9.60544 11.1728 9.79298C10.9852 9.98051 10.8799 10.2349 10.8799 10.5001C10.8799 10.7653 10.9852 11.0197 11.1728 11.2072C11.3603 11.3947 11.6147 11.5001 11.8799 11.5001C12.6092 11.5001 13.3087 11.2104 13.8244 10.6946C14.3401 10.1789 14.6299 9.47943 14.6299 8.75008C14.6299 8.02074 14.3401 7.32126 13.8244 6.80554C13.3087 6.28981 12.6092 6.00008 11.8799 6.00008ZM20.4599 9.68008C20.3273 8.21469 19.8166 6.80881 18.9777 5.59999C18.1388 4.39117 17.0005 3.4208 15.6742 2.78383C14.3478 2.14685 12.8788 1.86509 11.4109 1.9661C9.94303 2.06711 8.52649 2.54743 7.29988 3.36008C6.24908 4.06273 5.36693 4.98938 4.71682 6.07347C4.06672 7.15757 3.66478 8.37219 3.53988 9.63008C3.41736 10.8797 3.57455 12.141 4.00005 13.3224C4.42555 14.5037 5.10868 15.5755 5.99988 16.4601L11.2999 21.7701C11.3928 21.8638 11.5034 21.9382 11.6253 21.989C11.7472 22.0397 11.8779 22.0659 12.0099 22.0659C12.1419 22.0659 12.2726 22.0397 12.3945 21.989C12.5163 21.9382 12.6269 21.8638 12.7199 21.7701L17.9999 16.4601C18.8911 15.5755 19.5742 14.5037 19.9997 13.3224C20.4252 12.141 20.5824 10.8797 20.4599 9.63008V9.68008ZM16.5999 15.0501L11.9999 19.6501L7.39988 15.0501C6.72197 14.3721 6.20268 13.5524 5.87935 12.6498C5.55601 11.7473 5.43667 10.7843 5.52988 9.83008C5.6237 8.86119 5.93164 7.92524 6.43145 7.08992C6.93126 6.25461 7.61044 5.54079 8.41988 5.00008C9.48083 4.29532 10.7262 3.91938 11.9999 3.91938C13.2736 3.91938 14.5189 4.29532 15.5799 5.00008C16.3869 5.5387 17.0646 6.24936 17.5642 7.08102C18.0639 7.91268 18.3732 8.84468 18.4699 9.81008C18.5661 10.7675 18.4483 11.7344 18.1249 12.6406C17.8014 13.5469 17.2805 14.3699 16.5999 15.0501Z" fill="current"/>
</svg>
