<svg width="24" height="24" viewBox="0 0 24 24" fill="none" xmlns="http://www.w3.org/2000/svg">
<path d="M20.4601 9.63008C20.3304 8.27191 19.8758 6.9649 19.1345 5.8195C18.3932 4.6741 17.3871 3.72397 16.2012 3.0494C15.0153 2.37483 13.6844 1.99563 12.3211 1.94387C10.9577 1.8921 9.60191 2.16927 8.36826 2.75197C7.13461 3.33467 6.05935 4.20577 5.23335 5.29166C4.40734 6.37755 3.85487 7.64631 3.62261 8.99074C3.39035 10.3352 3.48513 11.7157 3.89894 13.0158C4.31275 14.3159 5.03343 15.4973 6.00008 16.4601L11.3001 21.7701C11.393 21.8638 11.5036 21.9382 11.6255 21.989C11.7474 22.0397 11.8781 22.0659 12.0101 22.0659C12.1421 22.0659 12.2728 22.0397 12.3947 21.989C12.5165 21.9382 12.6271 21.8638 12.7201 21.7701L18.0001 16.4601C18.8913 15.5755 19.5744 14.5037 19.9999 13.3224C20.4254 12.141 20.5826 10.8797 20.4601 9.63008ZM16.6001 15.0501L12.0001 19.6501L7.40008 15.0501C6.72217 14.3721 6.20288 13.5524 5.87954 12.6498C5.55621 11.7473 5.43686 10.7843 5.53008 9.83008C5.6239 8.86118 5.93184 7.92524 6.43165 7.08992C6.93145 6.2546 7.61063 5.54078 8.42008 5.00008C9.48102 4.29531 10.7264 3.91937 12.0001 3.91937C13.2738 3.91937 14.5191 4.29531 15.5801 5.00008C16.3871 5.53869 17.0647 6.24936 17.5644 7.08102C18.0641 7.91267 18.3734 8.84468 18.4701 9.81008C18.5663 10.7675 18.4485 11.7344 18.1251 12.6406C17.8016 13.5469 17.2807 14.3699 16.6001 15.0501ZM13.7901 6.25008C13.6971 6.15635 13.5865 6.08195 13.4647 6.03119C13.3428 5.98042 13.2121 5.95428 13.0801 5.95428C12.9481 5.95428 12.8174 5.98042 12.6955 6.03119C12.5736 6.08195 12.463 6.15635 12.3701 6.25008L8.79008 9.83008C8.60533 10.0163 8.50118 10.2677 8.50008 10.5301V13.0001C8.50008 13.2653 8.60543 13.5196 8.79297 13.7072C8.98051 13.8947 9.23486 14.0001 9.50008 14.0001H11.9201C12.0517 14.0008 12.1821 13.9756 12.304 13.9258C12.4258 13.8761 12.5366 13.8028 12.6301 13.7101L16.2101 10.1301C16.3963 9.94271 16.5009 9.68926 16.5009 9.42508C16.5009 9.16089 16.3963 8.90744 16.2101 8.72008L13.7901 6.25008ZM11.5101 12.0001H10.5101V11.0001L13.0901 8.42008L14.0901 9.42008L11.5101 12.0001Z" fill="current"/>
</svg>
