<svg width="24" height="24" viewBox="0 0 24 24" fill="none" xmlns="http://www.w3.org/2000/svg">
<path d="M11 13.0001H13C13.2652 13.0001 13.5196 12.8947 13.7071 12.7072C13.8946 12.5196 14 12.2653 14 12.0001C14 11.7349 13.8946 11.4805 13.7071 11.293C13.5196 11.1054 13.2652 11.0001 13 11.0001H11C10.7348 11.0001 10.4804 11.1054 10.2929 11.293C10.1054 11.4805 10 11.7349 10 12.0001C10 12.2653 10.1054 12.5196 10.2929 12.7072C10.4804 12.8947 10.7348 13.0001 11 13.0001ZM19 20.0001H18V9.00007H19C19.2652 9.00007 19.5196 8.89472 19.7071 8.70718C19.8946 8.51964 20 8.26529 20 8.00007C20 7.73486 19.8946 7.4805 19.7071 7.29297C19.5196 7.10543 19.2652 7.00007 19 7.00007H17.91C17.6664 5.60949 16.9402 4.34934 15.8593 3.44128C14.7783 2.53321 13.4118 2.0354 12 2.0354C10.5882 2.0354 9.22169 2.53321 8.14072 3.44128C7.05975 4.34934 6.33361 5.60949 6.09 7.00007H5C4.73478 7.00007 4.48043 7.10543 4.29289 7.29297C4.10536 7.4805 4 7.73486 4 8.00007C4 8.26529 4.10536 8.51964 4.29289 8.70718C4.48043 8.89472 4.73478 9.00007 5 9.00007H6V20.0001H5C4.73478 20.0001 4.48043 20.1054 4.29289 20.293C4.10536 20.4805 4 20.7349 4 21.0001C4 21.2653 4.10536 21.5196 4.29289 21.7072C4.48043 21.8947 4.73478 22.0001 5 22.0001H19C19.2652 22.0001 19.5196 21.8947 19.7071 21.7072C19.8946 21.5196 20 21.2653 20 21.0001C20 20.7349 19.8946 20.4805 19.7071 20.293C19.5196 20.1054 19.2652 20.0001 19 20.0001ZM12 4.00007C12.8846 4.00295 13.7432 4.29895 14.4416 4.84176C15.1401 5.38458 15.6389 6.1436 15.86 7.00007H8.14C8.36114 6.1436 8.85993 5.38458 9.55836 4.84176C10.2568 4.29895 11.1154 4.00295 12 4.00007ZM16 20.0001H8V18.0001H16V20.0001ZM16 16.0001H8V9.00007H16V16.0001Z" fill="current"/>
</svg>
