<svg width="24" height="24" viewBox="0 0 24 24" fill="none" xmlns="http://www.w3.org/2000/svg">
<path d="M5.99994 7.48993C6.26516 7.48993 6.51951 7.38457 6.70705 7.19704C6.89459 7.0095 6.99994 6.75515 6.99994 6.48993V5.89993L9.87994 8.77993C10.4424 9.34173 11.2049 9.65729 11.9999 9.65729C12.7949 9.65729 13.5574 9.34173 14.1199 8.77993L18.7099 4.18993C18.8962 4.00257 19.0007 3.74911 19.0007 3.48493C19.0007 3.22074 18.8962 2.96729 18.7099 2.77993C18.617 2.6862 18.5064 2.61181 18.3845 2.56104C18.2627 2.51027 18.132 2.48413 17.9999 2.48413C17.8679 2.48413 17.7372 2.51027 17.6154 2.56104C17.4935 2.61181 17.3829 2.6862 17.2899 2.77993L12.7099 7.35993C12.617 7.45366 12.5064 7.52805 12.3845 7.57882C12.2627 7.62959 12.132 7.65573 11.9999 7.65573C11.8679 7.65573 11.7372 7.62959 11.6154 7.57882C11.4935 7.52805 11.3829 7.45366 11.2899 7.35993L8.40994 4.48993H8.99994C9.26516 4.48993 9.51951 4.38457 9.70705 4.19704C9.89459 4.0095 9.99994 3.75515 9.99994 3.48993C9.99994 3.22471 9.89459 2.97036 9.70705 2.78282C9.51951 2.59529 9.26516 2.48993 8.99994 2.48993H5.99994C5.80365 2.49009 5.61175 2.54802 5.44815 2.65649C5.28455 2.76496 5.1565 2.91918 5.07994 3.09993C5.02956 3.22392 5.00244 3.35612 4.99994 3.48993V6.48993C4.99994 6.75515 5.1053 7.0095 5.29284 7.19704C5.48037 7.38457 5.73473 7.48993 5.99994 7.48993ZM21.9399 14.8499C19.0924 12.6524 15.5968 11.4605 11.9999 11.4605C8.40304 11.4605 4.90753 12.6524 2.05994 14.8499C1.75958 15.0921 1.51483 15.396 1.34229 15.7411C1.16974 16.0862 1.07345 16.4643 1.05994 16.8499C1.03383 17.2307 1.08997 17.6127 1.22456 17.9699C1.35915 18.327 1.56903 18.6511 1.83994 18.9199L3.59994 20.7199C4.04969 21.1695 4.64464 21.4445 5.27848 21.4958C5.91233 21.5471 6.54376 21.3713 7.05994 20.9999L7.52994 20.6799C7.84998 20.4734 8.18414 20.2896 8.52994 20.1299C8.95502 19.9422 9.29389 19.6014 9.47917 19.1752C9.66446 18.7491 9.68258 18.2688 9.52994 17.8299L9.43994 17.5899C11.1521 17.1501 12.9477 17.1501 14.6599 17.5899L14.5699 17.8299C14.4173 18.2688 14.4354 18.7491 14.6207 19.1752C14.806 19.6014 15.1449 19.9422 15.5699 20.1299C15.9157 20.2896 16.2499 20.4734 16.5699 20.6799L17.0399 20.9999C17.4863 21.3275 18.0263 21.5028 18.5799 21.4999C19.2992 21.5008 19.9896 21.2168 20.4999 20.7099L22.3099 18.8899C22.5634 18.6144 22.7559 18.2886 22.8748 17.9336C22.9937 17.5786 23.0364 17.2025 22.9999 16.8299C22.9764 16.443 22.8694 16.0658 22.6865 15.724C22.5035 15.3823 22.2489 15.0841 21.9399 14.8499ZM20.7999 17.4899L18.9999 19.2999C18.8905 19.4139 18.7449 19.4862 18.5879 19.5045C18.431 19.5227 18.2726 19.4858 18.1399 19.3999C17.9499 19.2599 17.7599 19.1299 17.5499 18.9999C17.1978 18.7773 16.8339 18.5736 16.4599 18.3899L16.8599 17.2999C16.95 17.0506 16.9374 16.7758 16.8249 16.5357C16.7124 16.2957 16.5092 16.1102 16.2599 16.0199C13.5148 15.0202 10.5051 15.0202 7.75994 16.0199C7.51071 16.1102 7.3075 16.2957 7.195 16.5357C7.08249 16.7758 7.06988 17.0506 7.15994 17.2999L7.55994 18.3999C7.18085 18.5763 6.81344 18.7767 6.45994 18.9999L5.87994 19.3999C5.74697 19.4953 5.58329 19.5379 5.42068 19.5195C5.25807 19.501 5.10812 19.4227 4.99994 19.2999L3.19994 17.4899C3.13508 17.4261 3.0839 17.3498 3.04951 17.2655C3.01513 17.1813 2.99826 17.0909 2.99994 16.9999C3.00825 16.8972 3.03735 16.7973 3.08549 16.7062C3.13362 16.615 3.19978 16.5347 3.27994 16.4699C5.77921 14.5449 8.84524 13.501 11.9999 13.501C15.1546 13.501 18.2207 14.5449 20.7199 16.4699C20.8001 16.5347 20.8663 16.615 20.9144 16.7062C20.9625 16.7973 20.9916 16.8972 20.9999 16.9999C21.0016 17.0909 20.9848 17.1813 20.9504 17.2655C20.916 17.3498 20.8648 17.4261 20.7999 17.4899Z" fill="current"/>
</svg>
