<svg width="48" height="80" viewBox="0 0 48 80" fill="none" xmlns="http://www.w3.org/2000/svg">
<path d="M32 36H16C13.8783 36 11.8434 35.1571 10.3431 33.6569C8.84286 32.1566 8 30.1217 8 28C8 25.8783 8.84286 23.8434 10.3431 22.3431C11.8434 20.8429 13.8783 20 16 20H36C37.0609 20 38.0783 20.4214 38.8284 21.1716C39.5786 21.9217 40 22.9391 40 24C40 25.0609 40.4214 26.0783 41.1716 26.8284C41.9217 27.5786 42.9391 28 44 28C45.0609 28 46.0783 27.5786 46.8284 26.8284C47.5786 26.0783 48 25.0609 48 24C48 20.8174 46.7357 17.7652 44.4853 15.5147C42.2348 13.2643 39.1826 12 36 12H28V4C28 2.93913 27.5786 1.92172 26.8284 1.17157C26.0783 0.421427 25.0609 0 24 0C22.9391 0 21.9217 0.421427 21.1716 1.17157C20.4214 1.92172 20 2.93913 20 4V12H16C11.7565 12 7.68687 13.6857 4.68629 16.6863C1.68571 19.6869 0 23.7565 0 28C0 32.2435 1.68571 36.3131 4.68629 39.3137C7.68687 42.3143 11.7565 44 16 44H32C34.1217 44 36.1566 44.8429 37.6569 46.3431C39.1571 47.8434 40 49.8783 40 52C40 54.1217 39.1571 56.1566 37.6569 57.6569C36.1566 59.1571 34.1217 60 32 60H12C10.9391 60 9.92172 59.5786 9.17157 58.8284C8.42143 58.0783 8 57.0609 8 56C8 54.9391 7.57857 53.9217 6.82843 53.1716C6.07828 52.4214 5.06087 52 4 52C2.93913 52 1.92172 52.4214 1.17157 53.1716C0.421428 53.9217 0 54.9391 0 56C0 59.1826 1.26428 62.2348 3.51472 64.4853C5.76516 66.7357 8.8174 68 12 68H20V76C20 77.0609 20.4214 78.0783 21.1716 78.8284C21.9217 79.5786 22.9391 80 24 80C25.0609 80 26.0783 79.5786 26.8284 78.8284C27.5786 78.0783 28 77.0609 28 76V68H32C36.2435 68 40.3131 66.3143 43.3137 63.3137C46.3143 60.3131 48 56.2435 48 52C48 47.7565 46.3143 43.6869 43.3137 40.6863C40.3131 37.6857 36.2435 36 32 36Z" fill="#06DCFF"/>
</svg>
