<svg width="24" height="24" viewBox="0 0 24 24" fill="none" xmlns="http://www.w3.org/2000/svg">
<path d="M12.0001 2C11.2802 2.00274 10.5627 2.0832 9.86006 2.24H9.74006C7.55659 2.75585 5.61003 3.99098 4.21334 5.74679C2.81665 7.50261 2.05098 9.6771 2.03944 11.9206C2.0279 14.1642 2.77116 16.3464 4.14971 18.1165C5.52826 19.8866 7.46202 21.1417 9.64006 21.68H9.78006C10.505 21.8733 11.2501 21.9807 12.0001 22C14.6522 22 17.1958 20.9464 19.0711 19.0711C20.9465 17.1957 22.0001 14.6522 22.0001 12C22.0001 9.34784 20.9465 6.8043 19.0711 4.92893C17.1958 3.05357 14.6522 2 12.0001 2ZM10.0001 19.74C8.28807 19.2925 6.77273 18.2901 5.69122 16.8896C4.6097 15.4891 4.02303 13.7695 4.02303 12C4.02303 10.2305 4.6097 8.51093 5.69122 7.11041C6.77273 5.70989 8.28807 4.70746 10.0001 4.26C11.7121 4.70746 13.2274 5.70989 14.3089 7.11041C15.3904 8.51093 15.9771 10.2305 15.9771 12C15.9771 13.7695 15.3904 15.4891 14.3089 16.8896C13.2274 18.2901 11.7121 19.2925 10.0001 19.74ZM14.5301 19.58C15.621 18.6412 16.4965 17.478 17.0967 16.1698C17.6968 14.8616 18.0075 13.4393 18.0075 12C18.0075 10.5607 17.6968 9.13839 17.0967 7.83019C16.4965 6.522 15.621 5.35878 14.5301 4.42C16.1162 4.95526 17.4944 5.97458 18.4706 7.3344C19.4469 8.69422 19.972 10.326 19.972 12C19.972 13.674 19.4469 15.3058 18.4706 16.6656C17.4944 18.0254 16.1162 19.0447 14.5301 19.58Z" fill="current"/>
</svg>
