<svg width="24" height="24" viewBox="0 0 24 24" fill="none" xmlns="http://www.w3.org/2000/svg">
<path d="M19.44 5.34006L19.38 5.27006C18.443 4.24535 17.3029 3.427 16.0323 2.86711C14.7617 2.30722 13.3885 2.01807 12 2.01807C10.6115 2.01807 9.23821 2.30722 7.96761 2.86711C6.69701 3.427 5.55693 4.24535 4.61998 5.27006L4.55998 5.34006C3.4757 6.54738 2.70152 8.00044 2.30427 9.57381C1.90702 11.1472 1.89863 12.7936 2.27983 14.3709C2.66103 15.9483 3.42036 17.4091 4.49228 18.6274C5.5642 19.8458 6.91651 20.7849 8.43247 21.3638C9.94844 21.9427 11.5825 22.144 13.1937 21.9503C14.8048 21.7566 16.3446 21.1738 17.6802 20.252C19.0157 19.3303 20.1069 18.0974 20.8595 16.6597C21.6121 15.222 22.0035 13.6228 22 12.0001C22.0012 9.53957 21.089 7.16623 19.44 5.34006ZM12 4.00006C13.3512 3.99651 14.6805 4.3409 15.86 5.00006H8.13998C9.31947 4.3409 10.6488 3.99651 12 4.00006ZM5.75998 7.00006H18.24C19.1613 8.15208 19.7462 9.53642 19.93 11.0001H4.06998C4.25375 9.53642 4.83863 8.15208 5.75998 7.00006ZM12 20.0001C10.0527 19.9983 8.17289 19.2863 6.71301 17.9977C5.25312 16.709 4.31339 14.9321 4.06998 13.0001H19.93C19.6866 14.9321 18.7468 16.709 17.2869 17.9977C15.8271 19.2863 13.9473 19.9983 12 20.0001ZM7.99998 8.00006C7.8022 8.00006 7.60886 8.05871 7.44441 8.16859C7.27996 8.27847 7.15178 8.43465 7.0761 8.61738C7.00041 8.8001 6.98061 9.00117 7.01919 9.19515C7.05778 9.38913 7.15302 9.56731 7.29287 9.70717C7.43272 9.84702 7.6109 9.94226 7.80489 9.98084C7.99887 10.0194 8.19993 9.99963 8.38266 9.92394C8.56539 9.84825 8.72156 9.72008 8.83145 9.55563C8.94133 9.39118 8.99998 9.19784 8.99998 9.00006C8.99998 8.73484 8.89462 8.48049 8.70708 8.29295C8.51955 8.10542 8.26519 8.00006 7.99998 8.00006ZM14 8.00006C13.8022 8.00006 13.6089 8.05871 13.4444 8.16859C13.28 8.27847 13.1518 8.43465 13.0761 8.61738C13.0004 8.8001 12.9806 9.00117 13.0192 9.19515C13.0578 9.38913 13.153 9.56731 13.2929 9.70717C13.4327 9.84702 13.6109 9.94226 13.8049 9.98084C13.9989 10.0194 14.1999 9.99963 14.3827 9.92394C14.5654 9.84825 14.7216 9.72008 14.8314 9.55563C14.9413 9.39118 15 9.19784 15 9.00006C15 8.73484 14.8946 8.48049 14.7071 8.29295C14.5195 8.10542 14.2652 8.00006 14 8.00006ZM11 17.9301C11.1494 18.0148 11.3182 18.0595 11.49 18.0601C11.6672 18.0598 11.8411 18.0124 11.994 17.9228C12.1468 17.8331 12.2731 17.7045 12.36 17.5501C12.6203 17.0785 13.0029 16.6857 13.4674 16.413C13.9319 16.1402 14.4613 15.9976 15 16.0001C15.2652 16.0001 15.5195 15.8947 15.7071 15.7072C15.8946 15.5196 16 15.2653 16 15.0001C16 14.7348 15.8946 14.4805 15.7071 14.293C15.5195 14.1054 15.2652 14.0001 15 14.0001C14.1086 14 13.2334 14.2383 12.4651 14.6901C11.6968 15.142 11.0632 15.791 10.63 16.5701C10.4996 16.7997 10.4653 17.0715 10.5347 17.3263C10.604 17.5811 10.7712 17.7981 11 17.9301Z" fill="current"/>
</svg>
