<svg width="24" height="24" viewBox="0 0 24 24" fill="none" xmlns="http://www.w3.org/2000/svg">
<path d="M17.2701 12.0001C17.2126 9.05701 17.7712 6.13445 18.9101 3.42007C18.9874 3.26197 19.0217 3.08625 19.0094 2.91067C18.9971 2.73508 18.9387 2.56585 18.8401 2.42007C18.7452 2.28664 18.6189 2.17856 18.4724 2.10533C18.326 2.0321 18.1638 1.99595 18.0001 2.00007H6.00008C5.83276 2.00035 5.66818 2.04261 5.52143 2.12297C5.37467 2.20334 5.25043 2.31925 5.16008 2.46007C5.06143 2.60585 5.00301 2.77508 4.99072 2.95067C4.97843 3.12625 5.0127 3.30197 5.09008 3.46007C6.2235 6.16207 6.78201 9.07044 6.73008 12.0001C6.78759 14.9431 6.22897 17.8657 5.09008 20.5801C5.0127 20.7382 4.97843 20.9139 4.99072 21.0895C5.00301 21.2651 5.06143 21.4343 5.16008 21.5801C5.255 21.7135 5.38124 21.8216 5.5277 21.8948C5.67417 21.968 5.83638 22.0042 6.00008 22.0001H18.0001C18.1674 21.9998 18.332 21.9575 18.4787 21.8772C18.6255 21.7968 18.7497 21.6809 18.8401 21.5401C18.9387 21.3943 18.9971 21.2251 19.0094 21.0495C19.0217 20.8739 18.9874 20.6982 18.9101 20.5401C17.7767 17.8381 17.2181 14.9297 17.2701 12.0001ZM16.5201 20.0001H7.52008C8.37273 17.42 8.79503 14.7173 8.77008 12.0001C8.78214 9.28067 8.34631 6.57785 7.48008 4.00007H16.4801C15.6274 6.58012 15.2051 9.28289 15.2301 12.0001C15.218 14.7195 15.6538 17.4223 16.5201 20.0001Z" fill="current"/>
</svg>
