<svg width="24" height="24" viewBox="0 0 24 24" fill="none" xmlns="http://www.w3.org/2000/svg">
<path d="M5.98786 9.79688H4.5C4.31316 9.79688 4.13396 9.87127 4.002 10.0036C3.87005 10.1359 3.79627 10.3154 3.79688 10.5023L3.80724 15.8434C3.80724 16.2317 4.12205 16.5465 4.51036 16.5465C4.89868 16.5465 5.21349 16.2317 5.21349 15.8434V14.2217C5.50097 14.2202 5.8081 14.219 5.98786 14.219C7.2233 14.219 8.22844 13.2271 8.22844 12.0079C8.22844 10.7888 7.2233 9.79688 5.98786 9.79688ZM5.98786 12.8127C5.8065 12.8127 5.49825 12.814 5.20964 12.8155C5.20814 12.5161 5.20683 12.1938 5.20683 12.0079C5.20683 11.8489 5.20604 11.516 5.20519 11.2031H5.98782C6.44007 11.2031 6.82214 11.5717 6.82214 12.0079C6.82214 12.4442 6.44011 12.8127 5.98786 12.8127Z" fill="current"/>
<path d="M11.9686 9.79688H10.5C10.3133 9.79688 10.1342 9.87112 10.0023 10.0033C9.87042 10.1354 9.7965 10.3146 9.79688 10.5013C9.79688 10.5014 9.80733 15.6691 9.80738 15.6878C9.80808 15.8744 9.8828 16.053 10.0152 16.1843C10.1469 16.3151 10.325 16.3884 10.5105 16.3884H10.5132C10.5576 16.3882 11.6051 16.3843 12.0239 16.377C13.6126 16.3492 14.7658 14.9679 14.7658 13.0927C14.7657 11.1214 13.6417 9.79688 11.9686 9.79688ZM11.9993 14.9709C11.8172 14.9741 11.5039 14.9767 11.2113 14.9786C11.2093 14.3678 11.2055 11.8378 11.2044 11.2031H11.9686C13.2592 11.2031 13.3595 12.6494 13.3595 13.0927C13.3595 14.0158 12.9389 14.9545 11.9993 14.9709Z" fill="current"/>
<path d="M19.3998 11.1489C19.7881 11.1489 20.103 10.8341 20.103 10.4458C20.103 10.0575 19.7881 9.74268 19.3998 9.74268H17.25C16.8617 9.74268 16.5469 10.0575 16.5469 10.4458V15.7501C16.5469 16.1384 16.8617 16.4532 17.25 16.4532C17.6383 16.4532 17.9531 16.1384 17.9531 15.7501V13.7509H19.2291C19.6174 13.7509 19.9322 13.436 19.9322 13.0477C19.9322 12.6594 19.6174 12.3446 19.2291 12.3446H17.9531V11.1489H19.3998Z" fill="current"/>
<path d="M21.4688 6.79688H20.9531V6.5963C20.9531 5.69245 20.6107 4.83347 19.9888 4.1775L17.0683 1.09683C16.4074 0.399797 15.4775 0 14.517 0H5.15625C3.99314 0 3.04688 0.946266 3.04688 2.10938V6.79688H2.53125C1.36814 6.79688 0.421875 7.74314 0.421875 8.90625V17.3438C0.421875 18.5069 1.36814 19.4531 2.53125 19.4531H3.04688V21.8906C3.04688 23.0537 3.99314 24 5.15625 24H18.8438C20.0069 24 20.9531 23.0537 20.9531 21.8906V19.4531H21.4688C22.6319 19.4531 23.5781 18.5069 23.5781 17.3438V8.90625C23.5781 7.74314 22.6319 6.79688 21.4688 6.79688ZM4.45312 2.10938C4.45312 1.72167 4.76855 1.40625 5.15625 1.40625H14.517C15.0933 1.40625 15.6512 1.64611 16.0477 2.06437L18.9683 5.14505C19.3414 5.53861 19.5469 6.054 19.5469 6.5963V6.79688H4.45312V2.10938ZM19.5469 21.8906C19.5469 22.2783 19.2315 22.5938 18.8438 22.5938H5.15625C4.76855 22.5938 4.45312 22.2783 4.45312 21.8906V19.4531H19.5469V21.8906ZM22.1719 17.3438C22.1719 17.7315 21.8565 18.0469 21.4688 18.0469H2.53125C2.14355 18.0469 1.82812 17.7315 1.82812 17.3438V8.90625C1.82812 8.51855 2.14355 8.20312 2.53125 8.20312H21.4688C21.8565 8.20312 22.1719 8.51855 22.1719 8.90625V17.3438Z" fill="current"/>
</svg>
