<svg width="24" height="24" viewBox="0 0 24 24" fill="none" xmlns="http://www.w3.org/2000/svg">
<path d="M4.90994 13.0999C5.00001 13.244 5.12532 13.3628 5.27404 13.4451C5.42277 13.5273 5.58999 13.5703 5.75994 13.5699C5.94491 13.5752 6.12772 13.5291 6.28803 13.4367C6.44834 13.3443 6.57987 13.2092 6.66797 13.0464C6.75607 12.8837 6.79729 12.6997 6.78705 12.515C6.7768 12.3302 6.71549 12.1519 6.60994 11.9999C5.30151 9.92179 4.45885 7.58486 4.13994 5.14992C4.11841 5.00557 4.12874 4.85826 4.1702 4.71833C4.21166 4.5784 4.28325 4.44924 4.37994 4.33992C4.47365 4.23325 4.589 4.14776 4.71832 4.08914C4.84764 4.03051 4.98795 4.0001 5.12994 3.99992H8.12994C8.36389 3.9952 8.59208 4.07267 8.7748 4.21885C8.95751 4.36502 9.08319 4.57065 9.12994 4.79992C9.12994 5.02992 9.20994 5.23992 9.25994 5.46992V5.59992C9.3763 6.1247 9.53344 6.6396 9.72994 7.13992L8.33994 7.79992C8.21983 7.85576 8.11202 7.9349 8.02275 8.03275C7.93349 8.1306 7.86455 8.24521 7.81994 8.36992C7.76905 8.4919 7.74286 8.62276 7.74286 8.75492C7.74286 8.88709 7.76905 9.01794 7.81994 9.13992C7.91994 9.34992 8.01994 9.55992 8.13994 9.77992C8.20527 9.89451 8.29262 9.99504 8.39697 10.0757C8.50132 10.1564 8.62059 10.2157 8.74794 10.25C8.87528 10.2844 9.00816 10.2933 9.13894 10.2761C9.26972 10.2589 9.39581 10.216 9.50994 10.1499C9.67335 10.0562 9.80698 9.9183 9.89544 9.752C9.9839 9.5857 10.0236 9.39779 10.0099 9.20992L10.5799 8.99992C11.0323 8.79153 11.3907 8.42182 11.5849 7.96314C11.7791 7.50446 11.7952 6.98982 11.6299 6.51992C11.4685 6.09667 11.3381 5.66218 11.2399 5.21992V5.11992C11.2399 4.91992 11.1599 4.71992 11.1299 4.53992C11.02 3.83153 10.6601 3.18591 10.1153 2.71998C9.57045 2.25405 8.87681 1.99861 8.15994 1.99992H5.15994C4.73046 1.99367 4.30466 2.07972 3.91131 2.25224C3.51796 2.42476 3.16624 2.67974 2.87994 2.99992C2.59539 3.32326 2.38381 3.70408 2.25957 4.11648C2.13533 4.52889 2.10135 4.96321 2.15994 5.38992C2.50709 8.12883 3.44542 10.7596 4.90994 13.0999ZM19.5199 12.8899L18.9199 12.7799H18.8399C18.3875 12.6831 17.943 12.5528 17.5099 12.3899C17.0473 12.224 16.5397 12.2342 16.0841 12.4186C15.6286 12.6031 15.2568 12.9489 15.0399 13.3899L14.8299 13.8499C14.1478 13.4554 13.5049 12.9966 12.9099 12.4799L21.7099 3.68992C21.8032 3.59668 21.8771 3.48599 21.9276 3.36417C21.9781 3.24235 22.004 3.11178 22.004 2.97992C22.004 2.84806 21.9781 2.71749 21.9276 2.59567C21.8771 2.47385 21.8032 2.36316 21.7099 2.26992C21.6167 2.17668 21.506 2.10272 21.3842 2.05226C21.2624 2.0018 21.1318 1.97583 20.9999 1.97583C20.8681 1.97583 20.7375 2.0018 20.6157 2.05226C20.4939 2.10272 20.3832 2.17668 20.2899 2.26992L2.28994 20.2699C2.19621 20.3629 2.12182 20.4735 2.07105 20.5953C2.02028 20.7172 1.99414 20.8479 1.99414 20.9799C1.99414 21.1119 2.02028 21.2426 2.07105 21.3645C2.12182 21.4864 2.19621 21.597 2.28994 21.6899C2.3829 21.7837 2.4935 21.858 2.61536 21.9088C2.73722 21.9596 2.86793 21.9857 2.99994 21.9857C3.13195 21.9857 3.26266 21.9596 3.38452 21.9088C3.50637 21.858 3.61698 21.7837 3.70994 21.6899L8.29994 17.0899C11.1725 19.6711 14.7605 21.3204 18.5899 21.8199C18.7231 21.8298 18.8568 21.8298 18.9899 21.8199C19.726 21.8238 20.4379 21.5568 20.9899 21.0699C21.3063 20.787 21.559 20.4401 21.7314 20.0522C21.9038 19.6644 21.9919 19.2444 21.9899 18.8199V15.8199C21.9846 15.1201 21.7348 14.4442 21.2837 13.9091C20.8327 13.3741 20.2088 13.0135 19.5199 12.8899ZM19.9999 18.8899C19.9998 19.0319 19.9693 19.1722 19.9107 19.3015C19.8521 19.4309 19.7666 19.5462 19.6599 19.6399C19.5506 19.7366 19.4215 19.8082 19.2815 19.8497C19.1416 19.8911 18.9943 19.9014 18.8499 19.8799C15.4528 19.4354 12.2681 17.9789 9.70994 15.6999L11.4799 13.9299C12.4995 14.8187 13.6369 15.5624 14.8599 16.1399C14.9819 16.1908 15.1128 16.217 15.2449 16.217C15.3771 16.217 15.508 16.1908 15.6299 16.1399C15.7547 16.0953 15.8693 16.0264 15.9671 15.9371C16.065 15.8478 16.1441 15.74 16.1999 15.6199L16.8199 14.2099C17.3417 14.4035 17.8764 14.5605 18.4199 14.6799H18.5299L19.2199 14.8099C19.4455 14.8607 19.6465 14.9881 19.7887 15.1705C19.931 15.3528 20.0056 15.5788 19.9999 15.8099V18.8899Z" fill="current"/>
</svg>
