<svg width="24" height="24" viewBox="0 0 24 24" fill="none" xmlns="http://www.w3.org/2000/svg">
<path d="M19.8501 5.56004L21.6401 3.77004C21.7448 3.68039 21.8298 3.57008 21.8898 3.44601C21.9499 3.32195 21.9836 3.18681 21.9889 3.0491C21.9942 2.91138 21.971 2.77404 21.9207 2.64572C21.8705 2.51739 21.7942 2.40085 21.6968 2.30339C21.5993 2.20594 21.4827 2.12968 21.3544 2.0794C21.2261 2.02913 21.0888 2.00592 20.951 2.01124C20.8133 2.01656 20.6782 2.05029 20.5541 2.11032C20.4301 2.17034 20.3197 2.25536 20.2301 2.36004L18.4401 4.15004L16.6401 2.36004C16.4488 2.19622 16.2027 2.11061 15.951 2.12033C15.6994 2.13005 15.4606 2.23438 15.2825 2.41248C15.1044 2.59057 15.0001 2.82931 14.9904 3.08099C14.9807 3.33266 15.0663 3.57874 15.2301 3.77004L17.0001 5.56004L15.2101 7.36004C15.0239 7.5474 14.9193 7.80086 14.9193 8.06504C14.9193 8.32923 15.0239 8.58268 15.2101 8.77004C15.3975 8.95629 15.6509 9.06083 15.9151 9.06083C16.1793 9.06083 16.4327 8.95629 16.6201 8.77004L18.4401 7.00004L20.2301 8.79004C20.4175 8.97629 20.6709 9.08083 20.9351 9.08083C21.1993 9.08083 21.4527 8.97629 21.6401 8.79004C21.8264 8.60268 21.9309 8.34923 21.9309 8.08504C21.9309 7.82086 21.8264 7.5674 21.6401 7.38004L19.8501 5.56004ZM19.4401 13C19.2201 13 18.9901 12.93 18.7701 12.88C18.3246 12.7819 17.8868 12.6515 17.4601 12.49C16.9962 12.3213 16.4862 12.33 16.0284 12.5146C15.5706 12.6993 15.1972 13.0467 14.9801 13.49L14.7601 13.94C13.7861 13.3982 12.8911 12.7253 12.1001 11.94C11.3149 11.1491 10.6419 10.254 10.1001 9.28004L10.5201 9.00004C10.9635 8.78296 11.3109 8.40957 11.4955 7.95173C11.6801 7.49389 11.6889 6.98395 11.5201 6.52004C11.3613 6.09246 11.231 5.65484 11.1301 5.21004C11.0801 4.99004 11.0401 4.76004 11.0101 4.53004C10.8887 3.82566 10.5197 3.18778 9.96972 2.73128C9.41972 2.27478 8.7248 2.02965 8.0101 2.04004H5.0101C4.57913 2.036 4.15235 2.12485 3.75881 2.30057C3.36527 2.47629 3.01421 2.73474 2.72953 3.05832C2.44485 3.38191 2.23324 3.76304 2.10909 4.17576C1.98494 4.58848 1.95118 5.0231 2.0101 5.45004C2.54284 9.63942 4.45613 13.5319 7.44775 16.5127C10.4394 19.4934 14.3388 21.3925 18.5301 21.91H18.9101C19.6475 21.9111 20.3595 21.6406 20.9101 21.15C21.2265 20.8671 21.4792 20.5202 21.6516 20.1324C21.8239 19.7445 21.9121 19.3245 21.9101 18.9V15.9C21.8979 15.2054 21.6449 14.5366 21.1944 14.0077C20.744 13.4788 20.1239 13.1227 19.4401 13ZM19.9401 19C19.9399 19.142 19.9095 19.2823 19.8509 19.4117C19.7923 19.541 19.7068 19.6563 19.6001 19.75C19.4884 19.8465 19.3577 19.9186 19.2165 19.9616C19.0753 20.0047 18.9267 20.0178 18.7801 20C15.035 19.5198 11.5563 17.8065 8.89282 15.1303C6.2293 12.4541 4.53251 8.96738 4.0701 5.22004C4.05419 5.07356 4.06813 4.92537 4.1111 4.78443C4.15407 4.64349 4.22517 4.51273 4.3201 4.40004C4.41381 4.29337 4.52916 4.20788 4.65848 4.14926C4.7878 4.09063 4.92812 4.06022 5.0701 4.06004H8.0701C8.30265 4.05487 8.52972 4.13092 8.71224 4.27511C8.89476 4.4193 9.02131 4.62261 9.0701 4.85004C9.1101 5.12337 9.1601 5.39337 9.2201 5.66004C9.33562 6.18719 9.48936 6.70522 9.6801 7.21004L8.2801 7.86004C8.1604 7.91496 8.05272 7.99299 7.96326 8.08964C7.87379 8.18629 7.8043 8.29966 7.75877 8.42324C7.71324 8.54682 7.69257 8.67817 7.69795 8.80976C7.70332 8.94135 7.73464 9.07059 7.7901 9.19004C9.2293 12.2728 11.7073 14.7508 14.7901 16.19C15.0336 16.2901 15.3066 16.2901 15.5501 16.19C15.6748 16.1454 15.7894 16.0765 15.8873 15.9872C15.9851 15.898 16.0643 15.7901 16.1201 15.67L16.7401 14.27C17.2571 14.4549 17.7847 14.6085 18.3201 14.73C18.5868 14.79 18.8568 14.84 19.1301 14.88C19.3575 14.9288 19.5608 15.0554 19.705 15.2379C19.8492 15.4204 19.9253 15.6475 19.9201 15.88L19.9401 19Z" fill="current"/>
</svg>
