<svg width="24" height="24" viewBox="0 0 24 24" fill="none" xmlns="http://www.w3.org/2000/svg">
<path d="M23.0001 9.31992C23.0628 9.06298 23.0271 8.79191 22.9001 8.55992C22.576 7.99757 22.1441 7.50474 21.6291 7.10972C21.114 6.7147 20.5261 6.42527 19.8989 6.25803C19.2718 6.09079 18.6178 6.04904 17.9745 6.13517C17.3312 6.22129 16.7112 6.43361 16.1501 6.75992L14.0001 7.99992L9.00011 5.64992C8.85796 5.57628 8.7002 5.53784 8.54011 5.53784C8.38002 5.53784 8.22226 5.57628 8.08011 5.64992L5.08011 7.37992C4.93185 7.46544 4.80802 7.58759 4.72047 7.73466C4.63293 7.88174 4.5846 8.04882 4.58011 8.21992C4.57527 8.39229 4.61508 8.56298 4.69568 8.71543C4.77628 8.86787 4.89493 8.99687 5.04011 9.08992L8.34011 11.1699L6.60011 12.1699L1.82011 12.7499C1.62796 12.7737 1.44683 12.8527 1.29873 12.9774C1.15063 13.1022 1.04192 13.2672 0.985801 13.4525C0.929679 13.6378 0.92856 13.8354 0.982579 14.0214C1.0366 14.2073 1.14343 14.3735 1.29011 14.4999L4.83011 17.5599C5.29616 18.0047 5.89301 18.2877 6.53236 18.3669C7.1717 18.4462 7.81957 18.3175 8.38011 17.9999L22.5001 9.92992C22.6205 9.86746 22.7268 9.78117 22.8128 9.6763C22.8987 9.57144 22.9625 9.45019 23.0001 9.31992ZM7.47011 16.3199C7.27802 16.4256 7.05651 16.4653 6.83969 16.4327C6.62286 16.4002 6.42274 16.2973 6.27011 16.1399L4.37011 14.5099L7.10011 14.1799C7.23426 14.1627 7.36354 14.1185 7.48011 14.0499L10.8401 12.1199C10.9898 12.0335 11.1145 11.9098 11.2022 11.7608C11.2898 11.6119 11.3373 11.4427 11.3401 11.2699C11.3422 11.0983 11.3 10.929 11.2177 10.7784C11.1354 10.6278 11.0157 10.5009 10.8701 10.4099L7.57011 8.31992L8.67011 7.68992L13.6701 10.0099C13.8123 10.0836 13.97 10.122 14.1301 10.122C14.2902 10.122 14.448 10.0836 14.5901 10.0099L17.1501 8.52992C17.6747 8.23592 18.2756 8.10638 18.8747 8.15809C19.4739 8.2098 20.0436 8.44038 20.5101 8.81992L7.47011 16.3199Z" fill="current"/>
</svg>
