<svg width="24" height="24" viewBox="0 0 24 24" fill="none" xmlns="http://www.w3.org/2000/svg">
<path d="M14.4102 16.8673C13.728 17.3676 12.8829 17.5934 12.0421 17.5001C11.2023 17.5936 10.3581 17.3681 9.67683 16.8683C9.48904 16.6818 9.23503 16.5773 8.97039 16.5777C8.70575 16.5781 8.45203 16.6833 8.26478 16.8703C8.07752 17.0573 7.97197 17.3108 7.97123 17.5755C7.97049 17.8401 8.07462 18.0943 8.26083 18.2823C8.7779 18.7274 9.37887 19.0645 10.0283 19.2736C10.6777 19.4828 11.3624 19.5598 12.0421 19.5001C12.7218 19.5595 13.4065 19.4825 14.056 19.2735C14.7055 19.0646 15.3067 18.7279 15.8243 18.2833C15.9176 18.1905 15.9917 18.0803 16.0423 17.9588C16.093 17.8374 16.1192 17.7071 16.1194 17.5755C16.1196 17.4439 16.0939 17.3136 16.0437 17.192C15.9935 17.0703 15.9198 16.9598 15.8268 16.8667C15.7339 16.7736 15.6234 16.6997 15.5019 16.6494C15.3803 16.599 15.25 16.5731 15.1184 16.5732C14.9868 16.5732 14.8565 16.5992 14.735 16.6497C14.6135 16.7002 14.5031 16.7741 14.4102 16.8673L14.4102 16.8673ZM9.20056 15.0017C9.39834 15.0017 9.59166 14.943 9.75608 14.8331C9.9205 14.7231 10.0486 14.5669 10.1243 14.3842C10.1999 14.2014 10.2196 14.0003 10.181 13.8064C10.1423 13.6124 10.0471 13.4342 9.90716 13.2944C9.76726 13.1546 9.58905 13.0594 9.39506 13.0209C9.20106 12.9824 9 13.0022 8.8173 13.078C8.6346 13.1537 8.47846 13.2819 8.36863 13.4464C8.25879 13.6109 8.2002 13.8043 8.20026 14.0021C8.20055 14.2672 8.30605 14.5214 8.4936 14.7088C8.68114 14.8963 8.93541 15.0016 9.20056 15.0017ZM15.2006 13.0017C15.0028 13.0017 14.8094 13.0603 14.6449 13.1701C14.4805 13.2799 14.3522 13.4361 14.2765 13.6188C14.2008 13.8015 14.1809 14.0026 14.2194 14.1965C14.2579 14.3905 14.3531 14.5688 14.4929 14.7086C14.6328 14.8485 14.8109 14.9438 15.0049 14.9825C15.1988 15.0211 15.3999 15.0014 15.5827 14.9257C15.7654 14.8501 15.9216 14.722 16.0316 14.5576C16.1415 14.3932 16.2002 14.1998 16.2003 14.0021C16.2 13.7369 16.0946 13.4828 15.9072 13.2953C15.7198 13.1077 15.4657 13.0022 15.2006 13.0017ZM23.0001 11.7804C23.0019 10.9873 22.7537 10.2138 22.2907 9.56994C21.8277 8.92603 21.1736 8.44445 20.4212 8.19366C19.6688 7.94286 18.8565 7.93561 18.0998 8.17295C17.3431 8.41028 16.6804 8.88012 16.2061 9.51566C15.2066 9.26121 14.1854 9.101 13.156 9.03715L14.0118 3.33215L16.0993 4.04199C16.1088 4.83612 16.4332 5.59399 17.0011 6.14914C17.569 6.7043 18.3341 7.01133 19.1282 7.00281C19.9223 6.99429 20.6806 6.6709 21.2365 6.10368C21.7924 5.53647 22.1004 4.77181 22.0928 3.97766V3.95518C22.0737 3.1697 21.7501 2.42238 21.1904 1.87101C20.6306 1.31963 19.8785 1.00735 19.0928 1.0001C18.642 1.00347 18.1979 1.10918 17.7939 1.30926C17.3899 1.50934 17.0366 1.79856 16.7608 2.1551L13.5225 1.05381C13.3839 1.00638 13.2366 0.990016 13.091 1.00586C12.9454 1.02171 12.805 1.06939 12.6799 1.14552C12.5547 1.22165 12.4479 1.32437 12.3668 1.4464C12.2858 1.56843 12.2326 1.70678 12.211 1.85166L11.1345 9.0271C10.0074 9.07645 8.88814 9.24015 7.79406 9.51566C7.21473 8.73423 6.35561 8.20716 5.3965 8.04476C4.4374 7.88237 3.45265 8.09724 2.64836 8.6444C1.84408 9.19156 1.2826 10.0286 1.08145 10.9803C0.880289 11.9321 1.05505 12.9247 1.56914 13.7505C1.20067 14.4435 1.00542 15.2153 1.00006 16.0001C1.00006 19.9249 5.83206 23.0001 12.0001 23.0001C18.1681 23.0001 23.0001 19.9249 23.0001 16.0001C22.9947 15.2156 22.7996 14.444 22.4314 13.7512C22.7988 13.1592 22.9956 12.4771 23.0001 11.7804ZM19.0928 3.0001C19.2906 3.0001 19.484 3.05875 19.6484 3.16863C19.8129 3.27851 19.941 3.43469 20.0167 3.61742C20.0924 3.80014 20.1122 4.00121 20.0736 4.19519C20.035 4.38917 19.9398 4.56735 19.7999 4.70721C19.6601 4.84706 19.4819 4.9423 19.2879 4.98089C19.0939 5.01947 18.8929 4.99967 18.7101 4.92398C18.5274 4.84829 18.3712 4.72012 18.2614 4.55567C18.1515 4.39122 18.0928 4.19788 18.0928 4.0001C18.0971 3.73623 18.2039 3.48437 18.3905 3.29776C18.5771 3.11114 18.829 3.00441 19.0928 3.0001ZM4.78033 10.0001C5.09111 10.0039 5.39534 10.09 5.66205 10.2496C4.6968 10.6647 3.80316 11.2296 3.01416 11.9235C3.01016 11.8757 3.00006 11.8285 3.00006 11.7804C3.00066 11.3084 3.18842 10.8559 3.52216 10.5222C3.85589 10.1885 4.30836 10.0007 4.78033 10.0001ZM12.0001 21.0001C7.12115 21.0001 3.00006 18.7101 3.00006 16.0001C3.00006 13.2901 7.12115 11.0001 12.0001 11.0001C16.879 11.0001 21.0001 13.2901 21.0001 16.0001C21.0001 18.7101 16.879 21.0001 12.0001 21.0001ZM20.986 11.9236C20.197 11.2296 19.3033 10.6647 18.3381 10.2496C18.6048 10.09 18.909 10.004 19.2198 10.0001C19.6918 10.0007 20.1442 10.1885 20.478 10.5222C20.8117 10.8559 20.9995 11.3084 21.0001 11.7804C21.0001 11.8285 20.99 11.8757 20.986 11.9236Z" fill="current"/>
</svg>
