<svg width="72" height="80" viewBox="0 0 72 80" fill="none" xmlns="http://www.w3.org/2000/svg">
<path d="M68.72 32.76C65.8428 32.2394 62.9238 31.985 60 32C58.32 32 56.68 32 55.04 32.32C52.9983 29.5955 50.3922 27.3442 47.4 25.72C49.9702 22.913 51.3971 19.2459 51.4 15.44C51.4 11.3451 49.7733 7.41783 46.8777 4.52227C43.9822 1.62671 40.0549 0 35.96 0C31.8651 0 27.9378 1.62671 25.0423 4.52227C22.1467 7.41783 20.52 11.3451 20.52 15.44C20.5229 19.2459 21.9498 22.913 24.52 25.72C21.5456 27.3526 18.9437 29.5867 16.88 32.28C15.32 32 13.68 32 12 32C9.07369 32.0114 6.15466 32.2926 3.28 32.84C2.34817 33.0104 1.50705 33.5059 0.906395 34.2384C0.305744 34.9709 -0.0154509 35.8928 -1.61806e-06 36.84V69.84C-0.000955947 70.4276 0.127579 71.0083 0.376463 71.5406C0.625347 72.0729 0.988467 72.5439 1.44 72.92C1.88868 73.2983 2.41512 73.5733 2.98197 73.7254C3.54882 73.8774 4.1422 73.9029 4.72 73.8C7.11364 73.2787 9.55108 72.984 12 72.92C19.7484 72.9115 27.3287 75.1786 33.8 79.44L34.32 79.64C34.8506 79.8702 35.4217 79.9926 36 80C36.3818 79.9952 36.7602 79.9277 37.12 79.8H37.4L37.92 79.6C44.4529 75.2292 52.1398 72.9037 60 72.92C62.4439 72.9314 64.8812 73.1724 67.28 73.64C67.8578 73.7429 68.4512 73.7175 69.018 73.5654C69.5849 73.4133 70.1113 73.1383 70.56 72.76C71.0115 72.3839 71.3746 71.9129 71.6235 71.3806C71.8724 70.8483 72.001 70.2676 72 69.68V36.68C71.9966 35.7465 71.6668 34.8437 71.0678 34.1278C70.4688 33.4119 69.6382 32.928 68.72 32.76ZM36 8C37.8738 8.13767 39.6261 8.97918 40.905 10.3555C42.184 11.7319 42.8948 13.5412 42.8948 15.42C42.8948 17.2988 42.184 19.1081 40.905 20.4845C39.6261 21.8608 37.8738 22.7023 36 22.84C34.1262 22.7023 32.3739 21.8608 31.0949 20.4845C29.816 19.1081 29.1052 17.2988 29.1052 15.42C29.1052 13.5412 29.816 11.7319 31.0949 10.3555C32.3739 8.97918 34.1262 8.13767 36 8ZM32 69.32C25.7307 66.4221 18.9067 64.9208 12 64.92C10.68 64.92 9.36 64.92 8 65.12V40C11.3542 39.6248 14.7433 39.692 18.08 40.2H18.52C23.2864 41.076 27.8539 42.8108 32 45.32V69.32ZM36 38.4C34.2213 37.3739 32.3773 36.4653 30.48 35.68H30.24C28.92 35.16 27.6 34.64 26.24 34.24C29.0173 32.0295 32.4507 30.8053 36 30.76C39.5399 30.7824 42.9724 31.9782 45.76 34.16C42.3644 35.2201 39.0923 36.6416 36 38.4ZM64 65.12C55.7866 64.2948 47.5018 65.6756 40 69.12V45.12C44.1536 42.6752 48.724 41.0206 53.48 40.24H54.28C57.4959 39.7392 60.7633 39.6585 64 40V65.12Z" fill="#06DCFF"/>
</svg>
