<svg width="24" height="24" viewBox="0 0 24 24" fill="none" xmlns="http://www.w3.org/2000/svg">
<path d="M2.87988 16.88C2.58513 17.1546 2.34873 17.4859 2.18476 17.8538C2.02079 18.2218 1.93262 18.6191 1.92552 19.0219C1.91841 19.4247 1.99251 19.8248 2.14339 20.1984C2.29428 20.5719 2.51885 20.9113 2.80373 21.1962C3.0886 21.481 3.42794 21.7056 3.80149 21.8565C4.17504 22.0074 4.57516 22.0815 4.97797 22.0744C5.38078 22.0673 5.77804 21.9791 6.14603 21.8151C6.51403 21.6512 6.84523 21.4147 7.11988 21.12C7.68168 20.5575 7.99724 19.795 7.99724 19C7.99724 18.205 7.68168 17.4425 7.11988 16.88C6.5476 16.337 5.78878 16.0343 4.99988 16.0343C4.21098 16.0343 3.45216 16.337 2.87988 16.88ZM5.70988 19.71C5.61692 19.8037 5.50632 19.8781 5.38446 19.9289C5.2626 19.9797 5.13189 20.0058 4.99988 20.0058C4.86787 20.0058 4.73716 19.9797 4.61531 19.9289C4.49345 19.8781 4.38284 19.8037 4.28988 19.71C4.19615 19.617 4.12176 19.5064 4.07099 19.3846C4.02022 19.2627 3.99408 19.132 3.99408 19C3.99408 18.868 4.02022 18.7373 4.07099 18.6154C4.12176 18.4936 4.19615 18.383 4.28988 18.29C4.38284 18.1963 4.49345 18.1219 4.61531 18.0711C4.73716 18.0203 4.86787 17.9942 4.99988 17.9942C5.13189 17.9942 5.2626 18.0203 5.38446 18.0711C5.50632 18.1219 5.61692 18.1963 5.70988 18.29C5.80361 18.383 5.878 18.4936 5.92877 18.6154C5.97954 18.7373 6.00568 18.868 6.00568 19C6.00568 19.132 5.97954 19.2627 5.92877 19.3846C5.878 19.5064 5.80361 19.617 5.70988 19.71ZM4.99988 12C4.73467 12 4.48031 12.1054 4.29278 12.2929C4.10524 12.4804 3.99988 12.7348 3.99988 13C3.99988 13.2652 4.10524 13.5196 4.29278 13.7071C4.48031 13.8946 4.73467 14 4.99988 14C6.32596 14 7.59773 14.5268 8.53542 15.4645C9.4731 16.4021 9.99988 17.6739 9.99988 19C9.99988 19.2652 10.1052 19.5196 10.2928 19.7071C10.4803 19.8946 10.7347 20 10.9999 20C11.2651 20 11.5195 19.8946 11.707 19.7071C11.8945 19.5196 11.9999 19.2652 11.9999 19C11.9999 17.1435 11.2624 15.363 9.94963 14.0503C8.63687 12.7375 6.8564 12 4.99988 12ZM4.99988 8C4.73467 8 4.48031 8.10536 4.29278 8.29289C4.10524 8.48043 3.99988 8.73478 3.99988 9C3.99988 9.26522 4.10524 9.51957 4.29278 9.70711C4.48031 9.89464 4.73467 10 4.99988 10C7.38683 10 9.67602 10.9482 11.3638 12.636C13.0517 14.3239 13.9999 16.6131 13.9999 19C13.9999 19.2652 14.1052 19.5196 14.2928 19.7071C14.4803 19.8946 14.7347 20 14.9999 20C15.2651 20 15.5195 19.8946 15.707 19.7071C15.8945 19.5196 15.9999 19.2652 15.9999 19C15.9999 16.0826 14.841 13.2847 12.7781 11.2218C10.7152 9.15893 7.91726 8 4.99988 8Z" fill="current"/>
</svg>
