<svg width="24" height="24" viewBox="0 0 24 24" fill="none" xmlns="http://www.w3.org/2000/svg">
<path d="M22.6099 7.05011L16.9999 1.39011C16.9065 1.29743 16.7957 1.22411 16.6738 1.17434C16.552 1.12458 16.4215 1.09935 16.2899 1.10011C16.0276 1.10122 15.7762 1.20537 15.5899 1.39011L1.38991 15.5401C1.20366 15.7275 1.09912 15.9809 1.09912 16.2451C1.09912 16.5093 1.20366 16.7628 1.38991 16.9501L7.04991 22.6101C7.14335 22.7028 7.25417 22.7761 7.37601 22.8259C7.49784 22.8757 7.62831 22.9009 7.75991 22.9001C8.02225 22.899 8.27365 22.7949 8.45991 22.6101L11.2899 19.7801L19.7799 11.2901L22.6099 8.46011C22.7962 8.27275 22.9007 8.0193 22.9007 7.75511C22.9007 7.49093 22.7962 7.23748 22.6099 7.05011ZM19.0699 9.17011L18.3599 8.46011C18.1726 8.27386 17.9191 8.16932 17.6549 8.16932C17.3907 8.16932 17.1373 8.27386 16.9499 8.46011C16.8562 8.55308 16.7818 8.66368 16.731 8.78554C16.6803 8.9074 16.6541 9.0381 16.6541 9.17011C16.6541 9.30213 16.6803 9.43283 16.731 9.55469C16.7818 9.67655 16.8562 9.78715 16.9499 9.88011L17.6599 10.5901L16.2399 12.0001L14.1199 9.88011C13.9286 9.71629 13.6825 9.63068 13.4309 9.6404C13.1792 9.65012 12.9404 9.75446 12.7624 9.93255C12.5843 10.1106 12.4799 10.3494 12.4702 10.6011C12.4605 10.8527 12.5461 11.0988 12.7099 11.2901L14.8299 13.4101L13.4099 14.8301L12.7099 14.1201C12.5216 13.9318 12.2662 13.826 11.9999 13.826C11.7336 13.826 11.4782 13.9318 11.2899 14.1201C11.1016 14.3084 10.9958 14.5638 10.9958 14.8301C10.9958 15.0964 11.1016 15.3518 11.2899 15.5401L11.9999 16.2401L10.5899 17.6601L8.45991 15.5401C8.27255 15.3539 8.0191 15.2493 7.75491 15.2493C7.49073 15.2493 7.23728 15.3539 7.04991 15.5401C6.86366 15.7275 6.75912 15.9809 6.75912 16.2451C6.75912 16.5093 6.86366 16.7628 7.04991 16.9501L9.16991 19.0701L7.75991 20.4901L3.50991 16.2401L16.2399 3.51011L20.4899 7.76011L19.0699 9.17011Z" fill="current"/>
</svg>
