<svg width="24" height="24" viewBox="0 0 24 24" fill="none" xmlns="http://www.w3.org/2000/svg">
<path d="M21.7099 20.2899L5.70994 4.28994L3.70994 2.28994C3.52164 2.10164 3.26624 1.99585 2.99994 1.99585C2.73364 1.99585 2.47824 2.10164 2.28994 2.28994C2.10164 2.47824 1.99585 2.73364 1.99585 2.99994C1.99585 3.26624 2.10164 3.52164 2.28994 3.70994L3.99994 5.40994V11.8799C4.00064 13.312 4.34307 14.7232 4.99876 15.9963C5.65446 17.2695 6.6045 18.3678 7.76994 19.1999L11.4199 21.8099C11.5893 21.9305 11.792 21.9953 11.9999 21.9953C12.2078 21.9953 12.4106 21.9305 12.5799 21.8099L16.2299 19.1999C16.5321 18.9863 16.8194 18.7524 17.0899 18.4999L20.2899 21.7099C20.3829 21.8037 20.4935 21.8781 20.6154 21.9288C20.7372 21.9796 20.8679 22.0057 20.9999 22.0057C21.132 22.0057 21.2627 21.9796 21.3845 21.9288C21.5064 21.8781 21.617 21.8037 21.7099 21.7099C21.8037 21.617 21.8781 21.5064 21.9288 21.3845C21.9796 21.2627 22.0057 21.132 22.0057 20.9999C22.0057 20.8679 21.9796 20.7372 21.9288 20.6154C21.8781 20.4935 21.8037 20.3829 21.7099 20.2899ZM15.0699 17.5799L11.9999 19.7699L8.92994 17.5799C8.02298 16.9318 7.28393 16.0764 6.77429 15.085C6.26466 14.0935 5.99917 12.9947 5.99994 11.8799V7.40994L15.6699 17.0899C15.4799 17.2599 15.2799 17.4199 15.0699 17.5799ZM10.0699 5.06994C10.7422 4.84482 11.3891 4.54988 11.9999 4.18994C13.7991 5.28469 15.9026 5.772 17.9999 5.57994V11.8799C18.0006 12.2754 17.9671 12.6702 17.8999 13.0599C17.8785 13.19 17.8831 13.323 17.9132 13.4513C17.9434 13.5796 17.9987 13.7007 18.0758 13.8075C18.1529 13.9144 18.2504 14.005 18.3627 14.074C18.475 14.1431 18.5998 14.1893 18.7299 14.2099H18.8899C19.1296 14.213 19.3625 14.1299 19.546 13.9757C19.7296 13.8215 19.8516 13.6066 19.8899 13.3699C19.9684 12.8738 20.0086 12.3723 20.0099 11.8699V4.42994C20.009 4.28223 19.9753 4.13658 19.9113 4.00344C19.8473 3.87031 19.7547 3.753 19.6399 3.65994C19.5258 3.56568 19.3921 3.49794 19.2486 3.46162C19.105 3.42531 18.9552 3.42132 18.8099 3.44994C17.7402 3.68199 16.6339 3.68891 15.5614 3.47027C14.4888 3.25163 13.4735 2.8122 12.5799 2.17994C12.4125 2.06381 12.2137 2.00159 12.0099 2.00159C11.8062 2.00159 11.6073 2.06381 11.4399 2.17994C10.8234 2.60526 10.1501 2.94188 9.43994 3.17994C9.31519 3.22196 9.19993 3.28815 9.10075 3.37471C9.00157 3.46128 8.92042 3.56653 8.86192 3.68446C8.80342 3.80239 8.76871 3.93069 8.7598 4.06203C8.75088 4.19337 8.76792 4.32519 8.80994 4.44994C8.85196 4.5747 8.91815 4.68995 9.00471 4.78913C9.09128 4.88831 9.19653 4.96947 9.31446 5.02797C9.55264 5.14611 9.82799 5.16481 10.0799 5.07994L10.0699 5.06994Z" fill="current"/>
</svg>
