<svg width="24" height="24" viewBox="0 0 24 24" fill="none" xmlns="http://www.w3.org/2000/svg">
<path d="M19.0701 4.93008C18.1476 3.97498 17.0442 3.21316 15.8241 2.68907C14.6041 2.16498 13.2919 1.88911 11.9641 1.87757C10.6363 1.86604 9.3195 2.11905 8.09054 2.62186C6.86158 3.12467 5.74506 3.8672 4.80613 4.80613C3.8672 5.74506 3.12467 6.86158 2.62186 8.09054C2.11905 9.3195 1.86604 10.6363 1.87757 11.9641C1.88911 13.2919 2.16498 14.6041 2.68907 15.8241C3.21316 17.0442 3.97498 18.1476 4.93008 19.0701C5.85255 20.0252 6.95599 20.787 8.17603 21.3111C9.39607 21.8352 10.7083 22.111 12.0361 22.1226C13.3639 22.1341 14.6807 21.8811 15.9096 21.3783C17.1386 20.8755 18.2551 20.133 19.194 19.194C20.133 18.2551 20.8755 17.1386 21.3783 15.9096C21.8811 14.6807 22.1341 13.3639 22.1226 12.0361C22.111 10.7083 21.8352 9.39607 21.3111 8.17603C20.787 6.95599 20.0252 5.85255 19.0701 4.93008ZM18.2301 7.00008H12.7601L15.1101 4.65008C16.3254 5.16858 17.3962 5.97513 18.2301 7.00008ZM9.00008 4.60008C10.2272 4.10892 11.5554 3.9236 12.8701 4.06008L9.00008 7.93008V4.60008ZM7.00008 5.77008V11.2401L5.19008 9.43008L4.65008 8.89008C5.16858 7.67477 5.97513 6.60394 7.00008 5.77008ZM4.60008 15.0001C4.10775 13.7733 3.92238 12.4448 4.06008 11.1301L7.93008 15.0001H4.60008ZM5.77008 17.0001H11.2401L8.89008 19.3501C7.67477 18.8316 6.60394 18.025 5.77008 17.0001ZM15.0001 19.4001C13.7732 19.892 12.4448 20.0774 11.1301 19.9401L15.0001 16.0701V19.4001ZM15.0001 13.2401L13.2401 15.0001H10.7501L9.00008 13.2401V10.7601L10.7601 9.00008H13.2401L15.0001 10.7601V13.2401ZM17.0001 18.2401V12.7601L19.3501 15.1101C18.8316 16.3254 18.025 17.3962 17.0001 18.2301V18.2401ZM16.0701 9.00008H19.4001C19.892 10.227 20.0774 11.5554 19.9401 12.8701L16.0701 9.00008Z" fill="current"/>
</svg>
