<svg width="24" height="24" viewBox="0 0 24 24" fill="none" xmlns="http://www.w3.org/2000/svg">
<path d="M21.4344 14.1555C21.5767 13.4895 21.6476 12.8102 21.6459 12.1292C21.6389 10.8839 21.3864 9.6522 20.903 8.50452C20.4196 7.35684 19.7148 6.31568 18.8287 5.44059C17.9427 4.56549 16.8929 3.87362 15.7393 3.40451C14.5857 2.93541 13.3509 2.69827 12.1056 2.70667C11.5609 2.70527 11.017 2.75272 10.4807 2.84845C9.64808 2.32528 8.69112 2.03336 7.70825 2.00269C6.72537 1.97203 5.75207 2.20374 4.88845 2.67399C4.02483 3.14424 3.30206 3.83605 2.79449 4.67827C2.28691 5.5205 2.01285 6.48273 2.00049 7.466C2.00112 8.43541 2.26131 9.38696 2.75403 10.2218C2.63178 10.8426 2.56861 11.4736 2.56537 12.1063C2.57581 13.343 2.83178 14.5653 3.31844 15.7023C3.80509 16.8393 4.51272 17.8683 5.40027 18.7295C6.28782 19.5908 7.33759 20.2672 8.48867 20.7195C9.63975 21.1718 10.8692 21.3909 12.1056 21.3642C12.6907 21.3686 13.2746 21.313 13.8483 21.1984C14.6401 21.6784 15.5388 21.9539 16.4636 22C17.3966 22.0177 18.3184 21.7947 19.1402 21.3526C19.962 20.9106 20.6561 20.2643 21.1556 19.476C21.6551 18.6878 21.9431 17.7842 21.9919 16.8523C22.0408 15.9204 21.8487 14.9916 21.4344 14.1555ZM16.4395 15.9931C16.0257 16.5478 15.4619 16.9728 14.8146 17.2178C14.0137 17.5367 13.1561 17.6888 12.2943 17.6649C11.2933 17.6974 10.2992 17.4875 9.39667 17.0532C8.86878 16.772 8.4162 16.368 8.07703 15.8754C7.77595 15.4636 7.60401 14.9717 7.58303 14.462C7.58066 14.3325 7.6069 14.204 7.65987 14.0858C7.71284 13.9676 7.79125 13.8626 7.88949 13.7781C8.10121 13.5858 8.38007 13.4843 8.66592 13.4957C8.89714 13.4861 9.12382 13.5618 9.30292 13.7084C9.49941 13.8916 9.6522 14.1167 9.75 14.367C9.87097 14.6808 10.0379 14.9748 10.2452 15.2396C10.4348 15.4884 10.6864 15.6832 10.9747 15.8044C11.3695 15.9708 11.7952 16.0511 12.2234 16.04C12.8292 16.0731 13.4303 15.9169 13.9433 15.5929C14.1413 15.4772 14.3061 15.3122 14.4217 15.1141C14.5373 14.916 14.5998 14.6913 14.6031 14.462C14.6099 14.2999 14.5818 14.1383 14.5209 13.988C14.4599 13.8377 14.3675 13.7022 14.2498 13.5906C13.9903 13.345 13.6746 13.1667 13.3303 13.0714C12.9542 12.9537 12.4349 12.8359 11.7992 12.6953C11.0691 12.5408 10.3525 12.3282 9.65625 12.0595C9.12112 11.845 8.65042 11.4961 8.28974 11.0463C7.94857 10.5927 7.77376 10.0355 7.79462 9.46826C7.79395 8.88912 7.98449 8.32596 8.33667 7.86621C8.73571 7.36889 9.26615 6.99336 9.8678 6.78221C10.6315 6.51301 11.4379 6.38551 12.2474 6.40598C12.885 6.39782 13.5202 6.48492 14.132 6.66441C14.6079 6.80229 15.0547 7.02589 15.4504 7.3242C15.7657 7.55923 16.0302 7.85563 16.228 8.19554C16.3792 8.46133 16.4602 8.7612 16.4636 9.06693C16.4639 9.19948 16.4369 9.33068 16.3842 9.45228C16.3314 9.57389 16.2541 9.68328 16.1571 9.7736C16.0603 9.87509 15.9431 9.95488 15.8132 10.0077C15.6833 10.0605 15.5437 10.0852 15.4035 10.0801C15.176 10.0935 14.9511 10.0268 14.7678 9.8914C14.5785 9.71446 14.4194 9.50783 14.2966 9.27964C14.1092 8.90586 13.8441 8.57641 13.519 8.31333C13.0833 8.04072 12.5709 7.91674 12.0588 7.96C11.5299 7.93535 11.0054 8.06657 10.5505 8.33738C10.3871 8.42525 10.2492 8.55387 10.1502 8.71077C10.0513 8.86766 9.99455 9.04748 9.9856 9.23277C9.98686 9.43633 10.0529 9.63419 10.1743 9.79765C10.3202 9.97265 10.5061 10.1099 10.7163 10.1979C10.931 10.315 11.1607 10.4023 11.3989 10.4574C11.6345 10.5284 12.0119 10.6221 12.5527 10.7399C13.2125 10.8817 13.8255 11.0464 14.3675 11.211C14.8583 11.3564 15.326 11.5704 15.7569 11.8468C16.1238 12.0879 16.4301 12.4103 16.6522 12.789C16.8792 13.2167 16.9926 13.6955 16.9816 14.1795C17.0096 14.8278 16.8186 15.4666 16.4395 15.9931Z" fill="current"/>
</svg>
