<svg width="80" height="80" viewBox="0 0 80 80" fill="none" xmlns="http://www.w3.org/2000/svg">
<path d="M76 48H72V8H76C77.0609 8 78.0783 7.57857 78.8284 6.82843C79.5786 6.07828 80 5.06087 80 4C80 2.93913 79.5786 1.92172 78.8284 1.17157C78.0783 0.421427 77.0609 0 76 0H4C2.93913 0 1.92172 0.421427 1.17157 1.17157C0.421427 1.92172 0 2.93913 0 4C0 5.06087 0.421427 6.07828 1.17157 6.82843C1.92172 7.57857 2.93913 8 4 8H8V48H4C2.93913 48 1.92172 48.4214 1.17157 49.1716C0.421427 49.9217 0 50.9391 0 52C0 53.0609 0.421427 54.0783 1.17157 54.8284C1.92172 55.5786 2.93913 56 4 56H36V60.6L17.8 72.6C17.0533 73.0622 16.4795 73.7572 16.1671 74.5779C15.8546 75.3986 15.8209 76.2993 16.0712 77.141C16.3214 77.9827 16.8417 78.7187 17.5517 79.2354C18.2618 79.7521 19.1221 80.0208 20 80C20.7864 80.009 21.5558 79.7712 22.2 79.32L36 70.2V76C36 77.0609 36.4214 78.0783 37.1716 78.8284C37.9217 79.5786 38.9391 80 40 80C41.0609 80 42.0783 79.5786 42.8284 78.8284C43.5786 78.0783 44 77.0609 44 76V70.2L57.8 79.32C58.4442 79.7712 59.2136 80.009 60 80C60.8546 79.9934 61.6846 79.7133 62.3684 79.2007C63.0522 78.688 63.5539 77.9699 63.7999 77.1514C64.0458 76.333 64.0232 75.4573 63.7353 74.6526C63.4474 73.8479 62.9094 73.1566 62.2 72.68L44 60.68V56H76C77.0609 56 78.0783 55.5786 78.8284 54.8284C79.5786 54.0783 80 53.0609 80 52C80 50.9391 79.5786 49.9217 78.8284 49.1716C78.0783 48.4214 77.0609 48 76 48ZM64 48H16V8H64V48ZM30.44 41.04C31.5061 41.6699 32.7217 42.0021 33.96 42.0021C35.1983 42.0021 36.4139 41.6699 37.48 41.04L49.48 34.08C50.5059 33.4503 51.3532 32.5682 51.941 31.5177C52.5288 30.4673 52.8374 29.2837 52.8374 28.08C52.8374 26.8763 52.5288 25.6927 51.941 24.6423C51.3532 23.5918 50.5059 22.7097 49.48 22.08L37.48 15.12C36.4139 14.4901 35.1983 14.1579 33.96 14.1579C32.7217 14.1579 31.5061 14.4901 30.44 15.12C29.3657 15.7256 28.4751 16.6104 27.8625 17.6807C27.2499 18.751 26.9381 19.967 26.96 21.2V35.12C26.9667 36.326 27.2921 37.5087 27.9032 38.5484C28.5144 39.588 29.3895 40.4476 30.44 41.04ZM34.96 22.72L44 28L34.88 33.28L34.96 22.72Z" fill="#06DCFF"/>
</svg>
