<svg width="24" height="24" viewBox="0 0 24 24" fill="none" xmlns="http://www.w3.org/2000/svg">
<path d="M21.9512 15.6144C21.3339 15.4707 20.7518 15.2043 20.2396 14.831C19.7274 14.4577 19.2956 13.9852 18.9698 13.4415C18.8211 13.2219 18.5913 13.0703 18.3309 13.0201C18.0704 12.9699 17.8007 13.0253 17.5811 13.1739C17.3615 13.3226 17.2099 13.5524 17.1597 13.8128C17.1095 14.0733 17.1649 14.343 17.3135 14.5626C17.933 15.5077 18.7533 16.3046 19.7159 16.8966C19.5811 16.922 19.4346 16.9464 19.2745 16.9718C18.99 17.0323 18.7322 17.182 18.5387 17.3991C18.3452 17.6161 18.2259 17.8893 18.1983 18.1788C17.5316 18.0651 16.8507 18.0638 16.1836 18.1749C15.4643 18.3337 14.7932 18.6614 14.2256 19.1309C13.6418 19.6487 12.901 19.9554 12.1221 20.002H11.8614C11.0815 19.9553 10.34 19.6478 9.7559 19.129C9.19642 18.6656 8.53569 18.3404 7.82719 18.1798C7.15137 18.0719 6.46259 18.0732 5.78719 18.1837C5.76082 17.8956 5.64376 17.6232 5.45285 17.4058C5.26194 17.1884 5.007 17.0371 4.72469 16.9737C4.56746 16.9493 4.42293 16.9249 4.29012 16.8995C4.96985 16.5063 5.57698 15.9993 6.08504 15.4005C6.3195 15.1286 6.53177 14.8382 6.71981 14.5323C6.86014 14.3075 6.90547 14.0362 6.84586 13.778C6.78625 13.5198 6.62657 13.2958 6.4019 13.1552C6.17723 13.0147 5.90596 12.9691 5.64768 13.0284C5.38941 13.0878 5.16526 13.2473 5.02449 13.4718C4.89127 13.6885 4.74141 13.8945 4.57625 14.088C3.93716 14.8882 3.03072 15.4309 2.02352 15.6163C1.73119 15.6626 1.46554 15.8133 1.27575 16.0404C1.08596 16.2676 0.98489 16.5557 0.99125 16.8517C0.990914 17.0356 1.03022 17.2175 1.10649 17.3849C1.42192 18.1007 2.26176 18.5529 3.89066 18.8595L3.92192 18.9894C3.95024 19.1075 3.97953 19.2276 4.01371 19.337C4.09037 19.6148 4.25797 19.8589 4.4897 20.0303C4.72143 20.2017 5.00393 20.2904 5.29203 20.2823C5.49559 20.2771 5.69784 20.248 5.89457 20.1954C6.41768 20.0894 6.95509 20.0739 7.48344 20.1495C7.89778 20.2722 8.28082 20.4827 8.60649 20.7667C9.52581 21.5257 10.67 21.9599 11.8614 22.0021H12.1221C13.3209 21.9581 14.4717 21.5194 15.3955 20.7541C15.7228 20.4693 16.1095 20.2611 16.5274 20.1447C16.7334 20.1085 16.9422 20.0908 17.1514 20.092C17.4727 20.0914 17.7931 20.1271 18.1065 20.1984C18.3095 20.2363 18.5152 20.2576 18.7217 20.2619C19.0025 20.2695 19.2778 20.1827 19.5035 20.0154C19.7292 19.8481 19.8924 19.61 19.9668 19.3391C20.0049 19.217 20.0342 19.0998 20.0615 18.9846L20.0928 18.8606C21.7168 18.5549 22.5596 18.1057 22.8604 17.4201C22.9365 17.2712 22.9798 17.1077 22.9874 16.9406C23.0121 16.63 22.9194 16.3213 22.7275 16.0758C22.5357 15.8302 22.2586 15.6655 21.9512 15.6144ZM3.8018 11.1485C4.00641 11.1873 4.218 11.1615 4.4073 11.0747C4.5966 10.9879 4.75425 10.8445 4.85844 10.6642C5.25453 10.8658 5.68891 10.9809 6.13285 11.002C6.60387 11.0083 7.05845 10.8291 7.39848 10.503C7.50605 10.4027 7.59017 10.2799 7.64486 10.1434C7.69955 10.0068 7.72346 9.85989 7.71488 9.71305L7.67875 9.11149C7.51495 7.92461 7.5679 6.71786 7.83504 5.5499C8.17251 4.78276 8.72878 4.13221 9.43421 3.6797C10.1396 3.22719 10.9629 2.99283 11.8009 3.00596L12.1886 3.00205C13.0258 2.99087 13.8478 3.22643 14.552 3.67935C15.2562 4.13227 15.8115 4.78249 16.1486 5.54893C16.4157 6.71786 16.4686 7.92555 16.3048 9.11338L16.295 9.27647L16.2677 9.71983C16.2622 9.86424 16.2871 10.0082 16.341 10.1423C16.3948 10.2764 16.4763 10.3977 16.5802 10.4981C16.9167 10.8227 17.3666 11.0031 17.8341 11.0011C18.268 10.9632 18.69 10.839 19.0753 10.6358C19.1534 10.8138 19.2816 10.9651 19.4443 11.0714C19.6069 11.1777 19.797 11.2344 19.9913 11.2345H20.0089C20.2741 11.2298 20.5266 11.12 20.7108 10.9291C20.8951 10.7383 20.996 10.4821 20.9913 10.2169C20.9654 9.88295 20.8379 9.56493 20.626 9.30553C20.414 9.04613 20.1278 8.85776 19.8058 8.76572C19.5712 8.66966 19.3199 8.62115 19.0664 8.623C18.8129 8.62484 18.5624 8.67701 18.3292 8.77647C18.5044 7.41935 18.3835 6.04037 17.9747 4.73447C17.4826 3.6114 16.6703 2.65835 15.6395 1.99448C14.6086 1.33062 13.4049 0.985412 12.1788 1.00204L11.7862 1.00595C10.5633 0.991003 9.36307 1.33679 8.33553 2.0001C7.308 2.6634 6.49872 3.61482 6.00883 4.73545C5.597 6.05889 5.47706 7.4559 5.65727 8.83018C5.62309 8.81455 5.58598 8.79698 5.54594 8.77842C5.30158 8.67954 5.03939 8.63235 4.77589 8.63982C4.51239 8.6473 4.2533 8.70927 4.01494 8.82185C3.77658 8.93442 3.56412 9.09515 3.39096 9.2939C3.2178 9.49266 3.08769 9.72513 3.00883 9.97666C2.95886 10.2372 3.01429 10.5069 3.16295 10.7266C3.31162 10.9463 3.54137 11.098 3.8018 11.1485Z" fill="current"/>
</svg>
