<svg width="24" height="24" viewBox="0 0 24 24" fill="none" xmlns="http://www.w3.org/2000/svg">
<path d="M17 9.27979C17.3956 9.27979 17.7823 9.16249 18.1112 8.94272C18.4401 8.72296 18.6964 8.41061 18.8478 8.04515C18.9991 7.6797 19.0388 7.27757 18.9616 6.88961C18.8844 6.50164 18.6939 6.14528 18.4142 5.86557C18.1345 5.58587 17.7782 5.39539 17.3902 5.31822C17.0022 5.24105 16.6001 5.28065 16.2346 5.43203C15.8692 5.5834 15.5568 5.83975 15.3371 6.16865C15.1173 6.49754 15 6.88422 15 7.27979C15 7.81022 15.2107 8.31893 15.5858 8.694C15.9609 9.06907 16.4696 9.27979 17 9.27979ZM2.71001 13.9198C2.90817 13.9831 3.0992 14.0669 3.28001 14.1698C3.90194 14.5336 4.60949 14.7253 5.33001 14.7253C6.05054 14.7253 6.75808 14.5336 7.38001 14.1698C7.77109 13.9508 8.2118 13.8358 8.66001 13.8358C9.10822 13.8358 9.54893 13.9508 9.94001 14.1698L10.15 14.2698C10.7568 14.5652 11.4266 14.7078 12.1011 14.6851C12.7757 14.6625 13.4344 14.4753 14.02 14.1398C14.4111 13.9208 14.8518 13.8058 15.3 13.8058C15.7482 13.8058 16.1889 13.9208 16.58 14.1398C17.2138 14.502 17.9301 14.6948 18.66 14.6998C19.3644 14.6925 20.0543 14.4993 20.66 14.1398C20.8408 14.0369 21.0319 13.9531 21.23 13.8898C21.3778 13.8796 21.5215 13.8367 21.6507 13.7642C21.7799 13.6917 21.8914 13.5914 21.9771 13.4706C22.0628 13.3497 22.1205 13.2113 22.1462 13.0654C22.1719 12.9195 22.1648 12.7697 22.1255 12.6269C22.0862 12.484 22.0157 12.3517 21.919 12.2395C21.8223 12.1272 21.7018 12.0379 21.5664 11.9779C21.4309 11.9178 21.2838 11.8887 21.1357 11.8925C20.9876 11.8963 20.8422 11.9329 20.71 11.9998C20.3611 12.1081 20.0256 12.2557 19.71 12.4398C19.3908 12.6241 19.0286 12.7211 18.66 12.7211C18.2914 12.7211 17.9293 12.6241 17.61 12.4398C16.9173 12.049 16.1354 11.8437 15.34 11.8437C14.5446 11.8437 13.7628 12.049 13.07 12.4398C12.9759 12.4858 12.8791 12.5259 12.78 12.5598L14.34 10.9998C14.3758 10.9535 14.406 10.9031 14.43 10.8498C14.4753 10.8006 14.5155 10.747 14.55 10.6898C14.5547 10.6265 14.5547 10.563 14.55 10.4998C14.5557 10.4366 14.5557 10.373 14.55 10.3098C14.5548 10.2499 14.5548 10.1897 14.55 10.1298C14.5557 10.0666 14.5557 10.003 14.55 9.93979C14.5204 9.881 14.487 9.82421 14.45 9.76979C14.4241 9.71218 14.3904 9.65836 14.35 9.60979L11.28 6.27979C11.1992 6.19173 11.1047 6.11743 11 6.05979C10.9303 6.05056 10.8597 6.05056 10.79 6.05979C10.7337 6.05064 10.6763 6.05064 10.62 6.05979C10.4869 6.00622 10.3428 5.98564 10.2 5.99979L6.66001 7.31979C6.41078 7.41005 6.20757 7.59558 6.09507 7.83559C5.98256 8.07561 5.96995 8.35048 6.06001 8.59979C6.15028 8.84902 6.3358 9.05222 6.57582 9.16473C6.81584 9.27724 7.0907 9.28985 7.34001 9.19979L10.27 8.12979L12.27 10.2498L10.37 12.1498C9.73342 11.9023 9.04987 11.7991 8.36858 11.8475C7.68729 11.8959 7.02522 12.0948 6.43001 12.4298C6.11077 12.6141 5.74864 12.7111 5.38001 12.7111C5.01139 12.7111 4.64925 12.6141 4.33001 12.4298C4.01443 12.2457 3.67894 12.0981 3.33001 11.9898C3.20206 11.942 3.06569 11.921 2.92931 11.928C2.79292 11.935 2.65941 11.9698 2.53701 12.0304C2.4146 12.091 2.3059 12.1759 2.2176 12.2801C2.1293 12.3843 2.06327 12.5055 2.02359 12.6361C1.98391 12.7668 1.97142 12.9042 1.98688 13.0399C2.00234 13.1756 2.04543 13.3067 2.11349 13.4251C2.18155 13.5435 2.27314 13.6467 2.38261 13.7283C2.49209 13.81 2.61712 13.8683 2.75001 13.8998L2.71001 13.9198ZM20.71 17.0098C20.3611 17.1181 20.0256 17.2657 19.71 17.4498C19.3908 17.6341 19.0286 17.7311 18.66 17.7311C18.2914 17.7311 17.9293 17.6341 17.61 17.4498C16.9173 17.059 16.1354 16.8537 15.34 16.8537C14.5446 16.8537 13.7628 17.059 13.07 17.4498C12.7481 17.6368 12.3824 17.7354 12.01 17.7354C11.6377 17.7354 11.272 17.6368 10.95 17.4498C10.2573 17.059 9.47538 16.8537 8.68001 16.8537C7.88465 16.8537 7.10275 17.059 6.41001 17.4498C6.09077 17.6341 5.72864 17.7311 5.36001 17.7311C4.99139 17.7311 4.62925 17.6341 4.31001 17.4498C3.99443 17.2657 3.65894 17.1181 3.31001 17.0098C3.18206 16.962 3.04569 16.941 2.90931 16.948C2.77292 16.955 2.63941 16.9898 2.51701 17.0504C2.3946 17.111 2.2859 17.1959 2.1976 17.3001C2.1093 17.4043 2.04327 17.5255 2.00359 17.6561C1.96391 17.7868 1.95142 17.9242 1.96688 18.0599C1.98234 18.1956 2.02543 18.3267 2.09349 18.4451C2.16155 18.5635 2.25314 18.6667 2.36261 18.7483C2.47209 18.83 2.59712 18.8883 2.73001 18.9198C2.92817 18.9831 3.11919 19.0669 3.30001 19.1698C3.92194 19.5336 4.62949 19.7253 5.35001 19.7253C6.07054 19.7253 6.77808 19.5336 7.40001 19.1698C7.79109 18.9508 8.2318 18.8358 8.68001 18.8358C9.12822 18.8358 9.56894 18.9508 9.96001 19.1698C10.5873 19.5285 11.2974 19.7172 12.02 19.7172C12.7426 19.7172 13.4527 19.5285 14.08 19.1698C14.4711 18.9508 14.9118 18.8358 15.36 18.8358C15.8082 18.8358 16.2489 18.9508 16.64 19.1698C17.2738 19.532 17.9901 19.7248 18.72 19.7298C19.4244 19.7225 20.1143 19.5293 20.72 19.1698C20.9008 19.0669 21.0919 18.9831 21.29 18.9198C21.4161 18.8817 21.5334 18.8192 21.6353 18.7357C21.7372 18.6523 21.8217 18.5496 21.8839 18.4335C21.9461 18.3175 21.9849 18.1903 21.9979 18.0592C22.011 17.9282 21.9981 17.7959 21.96 17.6698C21.9219 17.5437 21.8594 17.4264 21.776 17.3245C21.6925 17.2226 21.5898 17.1381 21.4738 17.0759C21.3577 17.0137 21.2305 16.9749 21.0995 16.9619C20.9684 16.9488 20.8361 16.9617 20.71 16.9998V17.0098Z" fill="current"/>
</svg>
