<svg width="24" height="24" viewBox="0 0 24 24" fill="none" xmlns="http://www.w3.org/2000/svg">
<path d="M20.7099 16.1002L19.0699 14.4602C18.9264 14.327 18.828 14.1522 18.7886 13.9604C18.7491 13.7686 18.7706 13.5692 18.8499 13.3902C19.1987 12.6412 19.3828 11.8263 19.3899 11.0002C19.3946 10.967 19.3946 10.9333 19.3899 10.9002C19.3934 9.70356 19.0228 8.53579 18.3299 7.56016C16.991 5.68893 15.2166 4.1719 13.1599 3.14016C11.8554 2.50153 10.3844 2.28453 8.95101 2.51926C7.51759 2.75398 6.19269 3.42879 5.15994 4.45016L4.48994 5.12016C3.45782 6.15683 2.77642 7.49081 2.54145 8.93467C2.30649 10.3785 2.52977 11.8597 3.17994 13.1702L3.27994 13.3402C2.74628 13.8938 2.44558 14.6312 2.43994 15.4002C2.44391 15.9308 2.58855 16.4508 2.8591 16.9073C3.12965 17.3638 3.51644 17.7403 3.98 17.9986C4.44357 18.2568 4.96733 18.3874 5.49786 18.3772C6.02839 18.3669 6.5467 18.2161 6.99994 17.9402C7.17994 18.0802 7.33994 18.2302 7.51994 18.3602C7.89845 18.6233 8.30827 18.8383 8.73994 19.0002H8.82994C9.00994 19.0702 9.19994 19.1302 9.39994 19.1902H9.54994C9.86115 19.2701 10.1792 19.3203 10.4999 19.3402H10.7799H10.8999H11.1199C11.3299 19.3402 11.5299 19.3402 11.7399 19.2802H11.9099C12.4016 19.1957 12.8794 19.0443 13.3299 18.8302C13.5095 18.7579 13.7062 18.7392 13.8961 18.7765C14.086 18.8138 14.261 18.9054 14.3999 19.0402L15.8599 20.5002C16.4934 21.1359 17.3525 21.4953 18.2499 21.5002C19.0027 21.4921 19.7217 21.1865 20.2499 20.6502L20.6299 20.2702C21.1815 19.7212 21.4982 18.9794 21.5131 18.2013C21.5281 17.4233 21.2401 16.6699 20.7099 16.1002ZM5.40994 16.4202C5.21216 16.4202 5.01882 16.3615 4.85437 16.2516C4.68992 16.1418 4.56175 15.9856 4.48606 15.8028C4.41037 15.6201 4.39057 15.4191 4.42916 15.2251C4.46774 15.0311 4.56298 14.8529 4.70283 14.7131C4.84269 14.5732 5.02087 14.478 5.21485 14.4394C5.40883 14.4008 5.6099 14.4206 5.79262 14.4963C5.97535 14.572 6.13153 14.7001 6.24141 14.8646C6.35129 15.029 6.40994 15.2224 6.40994 15.4202C6.40994 15.6854 6.30458 15.9397 6.11705 16.1273C5.92951 16.3148 5.67516 16.4202 5.40994 16.4202ZM8.50994 16.5602L8.24994 16.3602C8.35407 16.0576 8.40811 15.7401 8.40994 15.4202C8.40994 14.6245 8.09387 13.8615 7.53126 13.2988C6.96865 12.7362 6.20559 12.4202 5.40994 12.4202C5.27994 12.4202 5.15994 12.4202 5.02994 12.4202L4.93994 12.2602C4.47482 11.3247 4.3144 10.2671 4.4812 9.23576C4.648 8.20445 5.13365 7.2513 5.86994 6.51016L6.53994 5.84016C7.2906 5.12071 8.24687 4.65317 9.27567 4.50261C10.3045 4.35206 11.3546 4.52598 12.2799 5.00016C13.9598 5.84038 15.4189 7.06318 16.5399 8.57016L8.50994 16.5602ZM19.2899 18.9302L18.9199 19.3102C18.4999 19.7302 17.8499 19.6502 17.3099 19.1102L15.8499 17.6602C15.42 17.233 14.8707 16.9461 14.2745 16.8372C13.6783 16.7283 13.0631 16.8026 12.5099 17.0502C12.1947 17.2047 11.8573 17.3092 11.5099 17.3602C11.3188 17.3967 11.1245 17.4134 10.9299 17.4102H10.5899H10.4899L17.3599 10.5402C17.4299 11.2253 17.3124 11.9166 17.0199 12.5402C16.7723 13.0933 16.6981 13.7086 16.807 14.3048C16.9159 14.901 17.2028 15.4502 17.6299 15.8802L19.2699 17.5302C19.4559 17.7145 19.5621 17.9643 19.5658 18.2261C19.5696 18.4878 19.4705 18.7406 19.2899 18.9302Z" fill="current"/>
</svg>
