<svg width="24" height="24" viewBox="0 0 24 24" fill="none" xmlns="http://www.w3.org/2000/svg">
<path d="M21.9 7.59022L20.9 3.72022C20.7981 3.3359 20.6209 2.97566 20.3786 2.66043C20.1363 2.34521 19.8337 2.0813 19.4885 1.88404C19.1433 1.68678 18.7623 1.56011 18.3677 1.51138C17.9731 1.46266 17.5728 1.49286 17.19 1.60022L15.26 2.12022C15.1323 2.15386 15.0125 2.21246 14.9076 2.29262C14.8027 2.37279 14.7147 2.47294 14.6487 2.58729C14.5827 2.70164 14.54 2.82794 14.523 2.95888C14.5061 3.08983 14.5152 3.22283 14.55 3.35022L14.81 4.35022L4.18996 7.16022C3.9343 7.22829 3.71604 7.3949 3.58296 7.62356C3.44989 7.85223 3.41285 8.12431 3.47996 8.38022L3.73996 9.38022L2.73996 9.64022C2.47475 9.67337 2.23356 9.81052 2.06947 10.0215C1.90537 10.2325 1.83181 10.5 1.86496 10.7652C1.89812 11.0304 2.03527 11.2716 2.24625 11.4357C2.45722 11.5998 2.72475 11.6734 2.98996 11.6402C3.07632 11.6506 3.16361 11.6506 3.24996 11.6402L4.24996 11.3702L4.50996 12.3702C4.57887 12.6227 4.74402 12.8381 4.96996 12.9702C5.1214 13.0601 5.29388 13.1084 5.46996 13.1102C5.55597 13.1254 5.64396 13.1254 5.72996 13.1102L8.99996 12.0802V12.5002C9.00066 12.9442 9.10329 13.3821 9.29996 13.7802L4.29996 18.7802C4.11166 18.9672 4.00535 19.2213 4.00441 19.4867C4.00347 19.752 4.10799 20.0069 4.29496 20.1952C4.48194 20.3835 4.73606 20.4898 5.00143 20.4908C5.26679 20.4917 5.52166 20.3872 5.70996 20.2002L10.71 15.2002L10.99 15.3102V21.5002C10.99 21.7654 11.0953 22.0198 11.2829 22.2073C11.4704 22.3949 11.7247 22.5002 11.99 22.5002C12.2552 22.5002 12.5095 22.3949 12.6971 22.2073C12.8846 22.0198 12.99 21.7654 12.99 21.5002V15.3202C13.089 15.2863 13.1859 15.2462 13.28 15.2002L18.28 20.2002C18.4683 20.3872 18.7231 20.4917 18.9885 20.4908C19.2539 20.4898 19.508 20.3835 19.695 20.1952C19.8819 20.0069 19.9865 19.752 19.9855 19.4867C19.9846 19.2213 19.8783 18.9672 19.69 18.7802L14.69 13.7802C14.8841 13.3808 14.9898 12.9442 15 12.5002V10.5002L16.35 10.1402L16.6 11.1402C16.6586 11.3584 16.7893 11.5503 16.9709 11.6846C17.1525 11.819 17.3742 11.888 17.6 11.8802H17.86L19.79 11.3602C20.18 11.2578 20.5455 11.0779 20.8644 10.831C21.1834 10.5842 21.4493 10.2756 21.6462 9.92368C21.8432 9.57175 21.9672 9.18373 22.0108 8.78279C22.0544 8.38186 22.0167 7.97626 21.9 7.59022ZM13 12.5002C12.9989 12.7577 12.8986 13.0048 12.72 13.1902C12.5346 13.3689 12.2874 13.4692 12.03 13.4702C11.7676 13.4691 11.5162 13.365 11.33 13.1802C11.1452 12.994 11.0411 12.7426 11.04 12.4802V11.4802L13 11.0002V12.5002ZM6.18996 10.7602L5.66996 8.83022L15.33 6.24022L15.59 7.24022L15.85 8.24022L6.18996 10.7602ZM19.87 8.86022C19.8044 8.97499 19.7167 9.07562 19.612 9.15629C19.5073 9.23697 19.3877 9.29608 19.26 9.33022L18.26 9.59022L17.48 6.69022L17 4.76022L16.74 3.76022L17.74 3.50022C17.8674 3.46549 18.0004 3.45634 18.1313 3.47328C18.2622 3.49023 18.3885 3.53294 18.5029 3.59895C18.6172 3.66496 18.7174 3.75296 18.7976 3.85787C18.8777 3.96279 18.9363 4.08254 18.97 4.21022L19.97 8.08022C20.0069 8.21024 20.017 8.3464 19.9999 8.48046C19.9827 8.61453 19.9385 8.74371 19.87 8.86022Z" fill="current"/>
</svg>
