<svg width="24" height="24" viewBox="0 0 24 24" fill="none" xmlns="http://www.w3.org/2000/svg">
<path d="M13.4999 14.9998H11.2299L12.6799 12.4998C12.7456 12.3855 12.7881 12.2595 12.805 12.1288C12.8219 11.9981 12.813 11.8654 12.7786 11.7382C12.7443 11.6109 12.6852 11.4917 12.6048 11.3874C12.5243 11.283 12.4241 11.1954 12.3099 11.1298C12.1956 11.0641 12.0696 11.0216 11.9389 11.0047C11.8082 10.9877 11.6755 10.9967 11.5483 11.0311C11.421 11.0654 11.3018 11.1245 11.1975 11.2049C11.0931 11.2853 11.0056 11.3855 10.9399 11.4998L8.62989 15.4998C8.54212 15.6518 8.49592 15.8243 8.49592 15.9998C8.49592 16.1753 8.54212 16.3478 8.62989 16.4998C8.71799 16.6524 8.84486 16.779 8.99764 16.8668C9.15041 16.9546 9.32368 17.0005 9.49989 16.9998H11.7699L10.3199 19.4998C10.1873 19.7305 10.1518 20.0045 10.2212 20.2614C10.2905 20.5183 10.4592 20.7372 10.6899 20.8698C10.9206 21.0024 11.1946 21.0379 11.4515 20.9685C11.7084 20.8991 11.9273 20.7305 12.0599 20.4998L14.3699 16.4998C14.4577 16.3478 14.5039 16.1753 14.5039 15.9998C14.5039 15.8243 14.4577 15.6518 14.3699 15.4998C14.2818 15.3472 14.1549 15.2206 14.0021 15.1328C13.8494 15.045 13.6761 14.9991 13.4999 14.9998ZM18.4199 7.20979C17.8082 5.8056 16.7528 4.64079 15.4156 3.89395C14.0784 3.14711 12.5332 2.85946 11.0168 3.07511C9.50039 3.29077 8.09659 3.99781 7.02061 5.08785C5.94462 6.17788 5.25585 7.59074 5.05989 9.10979C4.10648 9.33811 3.27011 9.90862 2.70963 10.713C2.14914 11.5173 1.90357 12.4995 2.01955 13.473C2.13553 14.4465 2.60498 15.3435 3.33876 15.9936C4.07253 16.6438 5.01952 17.0019 5.99989 16.9998C6.26511 16.9998 6.51946 16.8944 6.707 16.7069C6.89453 16.5194 6.99989 16.265 6.99989 15.9998C6.99989 15.7346 6.89453 15.4802 6.707 15.2927C6.51946 15.1051 6.26511 14.9998 5.99989 14.9998C5.46946 14.9998 4.96075 14.7891 4.58568 14.414C4.2106 14.0389 3.99989 13.5302 3.99989 12.9998C3.99989 12.4694 4.2106 11.9606 4.58568 11.5856C4.96075 11.2105 5.46946 10.9998 5.99989 10.9998C6.26511 10.9998 6.51946 10.8944 6.707 10.7069C6.89453 10.5194 6.99989 10.265 6.99989 9.99979C7.00244 8.81707 7.42418 7.67354 8.19016 6.77237C8.95614 5.8712 10.0168 5.27074 11.1836 5.07766C12.3505 4.88459 13.548 5.1114 14.5635 5.7178C15.5789 6.3242 16.3465 7.27093 16.7299 8.38979C16.7886 8.55977 16.892 8.71078 17.0292 8.82693C17.1665 8.94308 17.3325 9.02007 17.5099 9.04979C18.2429 9.18504 18.8993 9.58832 19.3512 10.1811C19.8031 10.7738 20.0182 11.5135 19.9546 12.2562C19.8909 12.9988 19.5531 13.6912 19.0069 14.1984C18.4607 14.7056 17.7452 14.9913 16.9999 14.9998C16.7347 14.9998 16.4803 15.1051 16.2928 15.2927C16.1052 15.4802 15.9999 15.7346 15.9999 15.9998C15.9999 16.265 16.1052 16.5194 16.2928 16.7069C16.4803 16.8944 16.7347 16.9998 16.9999 16.9998C18.1992 16.9965 19.3575 16.5622 20.2633 15.7761C21.1691 14.99 21.7622 13.9045 21.9343 12.7175C22.1065 11.5306 21.8463 10.3213 21.2011 9.31025C20.556 8.29919 19.5689 7.55371 18.4199 7.20979Z" fill="current"/>
</svg>
