<svg width="24" height="24" viewBox="0 0 24 24" fill="none" xmlns="http://www.w3.org/2000/svg">
<path d="M11.5799 16.4999H10.3199L11.1799 14.9999C11.2523 14.886 11.3009 14.7588 11.3228 14.6257C11.3446 14.4926 11.3394 14.3565 11.3073 14.2255C11.2752 14.0945 11.217 13.9713 11.136 13.8634C11.0551 13.7555 10.9532 13.6651 10.8365 13.5976C10.7197 13.5301 10.5905 13.4869 10.4566 13.4707C10.3227 13.4544 10.1869 13.4654 10.0574 13.503C9.92787 13.5406 9.80728 13.6039 9.70289 13.6893C9.59849 13.7747 9.51245 13.8804 9.44993 13.9999L7.71993 16.9999C7.63242 17.1514 7.58622 17.3233 7.58595 17.4984C7.58568 17.6734 7.63136 17.8454 7.71842 17.9973C7.80547 18.1491 7.93086 18.2754 8.08204 18.3636C8.23322 18.4518 8.40491 18.4988 8.57993 18.4999H9.84993L8.99993 19.9999C8.86733 20.2306 8.83181 20.5046 8.9012 20.7615C8.97059 21.0184 9.1392 21.2372 9.36993 21.3699C9.60067 21.5025 9.87464 21.538 10.1316 21.4686C10.3885 21.3992 10.6073 21.2306 10.7399 20.9999L12.4699 17.9999C12.5577 17.8478 12.6039 17.6754 12.6039 17.4999C12.6039 17.3243 12.5577 17.1519 12.4699 16.9999C12.3802 16.8443 12.2501 16.7157 12.0935 16.6277C11.9369 16.5398 11.7595 16.4956 11.5799 16.4999ZM21.6999 7.56986C21.5795 7.45153 21.431 7.36563 21.2684 7.32016C21.1058 7.2747 20.9343 7.27115 20.7699 7.30986C20.5533 7.35937 20.3321 7.38618 20.1099 7.38986C19.3143 7.38986 18.5512 7.07379 17.9886 6.51118C17.426 5.94857 17.1099 5.18551 17.1099 4.38986C17.1128 4.17092 17.1396 3.95296 17.1899 3.73986C17.2297 3.57479 17.2267 3.40232 17.1814 3.23871C17.136 3.07509 17.0497 2.92572 16.9307 2.80467C16.8116 2.68362 16.6637 2.59487 16.5009 2.54679C16.338 2.49871 16.1656 2.49288 15.9999 2.52986C15.0047 2.7496 14.1019 3.27242 13.4161 4.02636C12.7302 4.78029 12.2948 5.72829 12.1699 6.73986C11.6267 6.58462 11.0649 6.50389 10.4999 6.49986C9.05879 6.49904 7.6655 7.01696 6.5748 7.95892C5.48411 8.90088 4.7689 10.2039 4.55993 11.6299C3.85164 11.8238 3.22259 12.2363 2.7623 12.8085C2.30202 13.3807 2.03396 14.0835 1.99629 14.8169C1.95863 15.5503 2.15327 16.2769 2.55251 16.8933C2.95175 17.5096 3.53524 17.9844 4.21993 18.2499C4.34419 18.3089 4.47929 18.3417 4.61679 18.3461C4.75429 18.3506 4.89123 18.3266 5.01904 18.2757C5.14685 18.2248 5.26278 18.1481 5.35959 18.0503C5.4564 17.9526 5.532 17.8359 5.58166 17.7076C5.63133 17.5793 5.65398 17.4422 5.64822 17.3047C5.64245 17.1673 5.60839 17.0325 5.54815 16.9088C5.48792 16.7851 5.40282 16.6752 5.29816 16.5859C5.19351 16.4966 5.07156 16.4299 4.93993 16.3899C4.61777 16.2592 4.35101 16.0207 4.18524 15.7151C4.01948 15.4095 3.965 15.0558 4.03114 14.7145C4.09727 14.3732 4.27991 14.0655 4.54782 13.8439C4.81573 13.6224 5.15228 13.5007 5.49993 13.4999C5.76515 13.4999 6.0195 13.3945 6.20704 13.207C6.39458 13.0194 6.49993 12.7651 6.49993 12.4999C6.49993 11.439 6.92136 10.4216 7.67151 9.67143C8.42165 8.92129 9.43907 8.49986 10.4999 8.49986C11.2759 8.49924 12.0346 8.72894 12.6799 9.15986C13.4069 9.63802 13.9581 10.3402 14.2499 11.1599C14.3071 11.3317 14.4098 11.4848 14.5472 11.6028C14.6846 11.7208 14.8514 11.7993 15.0299 11.8299C15.5473 11.9215 16.0186 12.1853 16.3672 12.5785C16.7158 12.9717 16.9212 13.4711 16.9502 13.9958C16.9791 14.5204 16.8299 15.0395 16.5267 15.4686C16.2235 15.8978 15.7841 16.2119 15.2799 16.3599C15.0147 16.3957 14.7746 16.5354 14.6124 16.7482C14.4501 16.9611 14.3791 17.2296 14.4149 17.4949C14.4507 17.7601 14.5904 18.0002 14.8033 18.1624C15.0161 18.3246 15.2847 18.3957 15.5499 18.3599C15.6393 18.3744 15.7305 18.3744 15.8199 18.3599C16.7364 18.1074 17.5444 17.5603 18.1191 16.8031C18.6938 16.0458 19.0033 15.1205 18.9999 14.1699C19.0038 13.473 18.8355 12.786 18.5099 12.1699C19.3687 11.93 20.1466 11.4622 20.761 10.8161C21.3755 10.17 21.8036 9.36961 21.9999 8.49986C22.0337 8.33213 22.0238 8.15855 21.9713 7.99572C21.9187 7.83289 21.8253 7.68626 21.6999 7.56986ZM17.1099 10.3899C16.9702 10.4011 16.8297 10.4011 16.6899 10.3899C16.4716 10.2402 16.2407 10.1098 15.9999 9.99986C15.5901 9.1017 14.9649 8.31855 14.1799 7.71986C14.1799 7.59986 14.1799 7.46986 14.1799 7.34986C14.1799 6.91654 14.2737 6.48835 14.455 6.09476C14.6363 5.70117 14.9006 5.35152 15.2299 5.06986C15.3848 6.13671 15.8803 7.12495 16.6426 7.88724C17.4048 8.64952 18.3931 9.14502 19.4599 9.29986C19.1746 9.64558 18.8153 9.92295 18.4086 10.1116C18.002 10.3002 17.5582 10.3953 17.1099 10.3899Z" fill="current"/>
</svg>
