<svg width="24" height="24" viewBox="0 0 24 24" fill="none" xmlns="http://www.w3.org/2000/svg">
<path d="M20.8281 6.79688V6.92188H20.9531H21.4688C22.5628 6.92188 23.4531 7.81218 23.4531 8.90625V17.3438C23.4531 18.4378 22.5628 19.3281 21.4688 19.3281H20.9531H20.8281V19.4531V21.8906C20.8281 22.9847 19.9378 23.875 18.8438 23.875H5.15625C4.06218 23.875 3.17188 22.9847 3.17188 21.8906V19.4531V19.3281H3.04688H2.53125C1.43718 19.3281 0.546875 18.4378 0.546875 17.3438V8.90625C0.546875 7.81218 1.43718 6.92188 2.53125 6.92188H3.04688H3.17188V6.79688V2.10938C3.17188 1.0153 4.06218 0.125 5.15625 0.125H14.517C15.4432 0.125 16.3403 0.510695 16.9776 1.18283L19.8981 4.2635C20.4979 4.89625 20.8281 5.72445 20.8281 6.5963V6.79688ZM19.5469 6.92188H19.6719V6.79688V6.5963C19.6719 6.022 19.4542 5.47583 19.059 5.05905L16.1385 1.97838C15.7183 1.53521 15.1276 1.28125 14.517 1.28125H5.15625C4.69951 1.28125 4.32812 1.65264 4.32812 2.10938V6.79688V6.92188H4.45312H19.5469ZM4.45312 19.3281H4.32812V19.4531V21.8906C4.32812 22.3474 4.69951 22.7188 5.15625 22.7188H18.8438C19.3005 22.7188 19.6719 22.3474 19.6719 21.8906V19.4531V19.3281H19.5469H4.45312ZM21.4688 18.1719C21.9255 18.1719 22.2969 17.8005 22.2969 17.3438V8.90625C22.2969 8.44951 21.9255 8.07812 21.4688 8.07812H2.53125C2.07451 8.07812 1.70312 8.44951 1.70312 8.90625V17.3438C1.70312 17.8005 2.07451 18.1719 2.53125 18.1719H21.4688Z" fill="current" stroke="current" stroke-width="0.25"/>
<path d="M7.45097 9.79688H4.5C4.11169 9.79688 3.79688 10.1117 3.79688 10.5C3.79688 10.8883 4.11169 11.2031 4.5 11.2031H5.26641V15.8434C5.26641 16.2317 5.58122 16.5465 5.96953 16.5465C6.35784 16.5465 6.67266 16.2317 6.67266 15.8434V11.2031H7.45097C7.83928 11.2031 8.15409 10.8883 8.15409 10.5C8.15409 10.1117 7.83928 9.79688 7.45097 9.79688Z" fill="current"/>
<path d="M19.451 9.79688H16.5C16.1117 9.79688 15.7969 10.1117 15.7969 10.5C15.7969 10.8883 16.1117 11.2031 16.5 11.2031H17.2664V15.8434C17.2664 16.2317 17.5812 16.5465 17.9695 16.5465C18.3578 16.5465 18.6727 16.2317 18.6727 15.8434V11.2031H19.451C19.8393 11.2031 20.1541 10.8883 20.1541 10.5C20.1541 10.1117 19.8393 9.79688 19.451 9.79688Z" fill="current"/>
<path d="M12.8601 12.9822L14.3235 10.905C14.5472 10.5875 14.4711 10.1489 14.1536 9.92524C13.8362 9.7016 13.3975 9.77768 13.1739 10.0951L12.0007 11.7605L10.8294 10.0954C10.6059 9.77791 10.1674 9.7016 9.84972 9.92491C9.5321 10.1484 9.45574 10.5869 9.67919 10.9046L11.1404 12.9817L9.40961 15.4385C9.18597 15.7559 9.26205 16.1946 9.57949 16.4182C9.70258 16.5049 9.84386 16.5466 9.98378 16.5466C10.2048 16.5466 10.4223 16.4427 10.5592 16.2483L11.9998 14.2034L13.4381 16.248C13.5751 16.4426 13.7927 16.5466 14.0139 16.5466C14.1536 16.5466 14.2948 16.505 14.4178 16.4186C14.7354 16.1951 14.8118 15.7565 14.5883 15.4389L12.8601 12.9822Z" fill="current"/>
</svg>
