<svg width="24" height="24" viewBox="0 0 24 24" fill="none" xmlns="http://www.w3.org/2000/svg">
<path d="M14.4899 10.8598C14.8248 10.3988 15.0257 9.85411 15.0704 9.28602C15.115 8.71793 15.0018 8.14854 14.743 7.64082C14.4843 7.13309 14.0902 6.7068 13.6044 6.40906C13.1185 6.11133 12.5597 5.95375 11.9899 5.95375C11.42 5.95375 10.8613 6.11133 10.3754 6.40906C9.88953 6.7068 9.49545 7.13309 9.23672 7.64082C8.978 8.14854 8.86472 8.71793 8.90939 9.28602C8.95407 9.85411 9.15497 10.3988 9.48988 10.8598C9.06505 11.1306 8.68683 11.4683 8.36988 11.8598C8.28715 11.9668 8.22631 12.0891 8.19083 12.2197C8.15535 12.3502 8.14593 12.4865 8.16311 12.6206C8.18029 12.7548 8.22373 12.8843 8.29095 13.0017C8.35817 13.1191 8.44785 13.2221 8.55488 13.3048C8.66191 13.3876 8.78418 13.4484 8.91472 13.4839C9.04526 13.5194 9.18152 13.5288 9.3157 13.5116C9.44988 13.4944 9.57936 13.451 9.69675 13.3838C9.81414 13.3165 9.91715 13.2268 9.99988 13.1198C10.2441 12.8094 10.5554 12.5582 10.9104 12.385C11.2653 12.2119 11.6549 12.1212 12.0499 12.1198C12.4449 12.1212 12.8344 12.2119 13.1894 12.385C13.5444 12.5582 13.8557 12.8094 14.0999 13.1198C14.194 13.2358 14.3129 13.3293 14.4479 13.3933C14.5829 13.4574 14.7305 13.4903 14.8799 13.4898C15.0673 13.489 15.2508 13.4354 15.4093 13.3353C15.5678 13.2352 15.695 13.0926 15.7763 12.9236C15.8576 12.7547 15.8898 12.5664 15.8692 12.38C15.8487 12.1937 15.7761 12.0169 15.6599 11.8698C15.3287 11.4705 14.9333 11.1292 14.4899 10.8598ZM11.9999 10.1298C11.786 10.1297 11.577 10.0666 11.3987 9.94854C11.2204 9.83044 11.0808 9.66251 10.9972 9.46566C10.9137 9.26881 10.8899 9.05173 10.9288 8.84146C10.9677 8.63118 11.0676 8.437 11.2161 8.28308C11.3646 8.12917 11.555 8.02233 11.7638 7.97586C11.9725 7.9294 12.1903 7.94536 12.39 8.02176C12.5898 8.09816 12.7626 8.23162 12.8871 8.40553C13.0115 8.57944 13.082 8.78612 13.0899 8.99982C13.0953 9.14629 13.071 9.29234 13.0187 9.42924C12.9663 9.56614 12.8869 9.69107 12.7851 9.79656C12.6834 9.90205 12.5614 9.98593 12.4265 10.0432C12.2915 10.1005 12.1465 10.1299 11.9999 10.1298ZM20.4599 9.62982C20.3195 8.16873 19.8031 6.7689 18.9611 5.56664C18.119 4.36437 16.98 3.40065 15.6549 2.76931C14.3298 2.13798 12.8638 1.86054 11.3996 1.96402C9.93543 2.06751 8.52301 2.54838 7.29988 3.35982C6.24908 4.06247 5.36693 4.98912 4.71682 6.07321C4.06672 7.1573 3.66478 8.37193 3.53988 9.62982C3.41736 10.8795 3.57455 12.1407 4.00005 13.3221C4.42555 14.5035 5.10868 15.5753 5.99988 16.4598L11.2999 21.7698C11.3928 21.8636 11.5034 21.9379 11.6253 21.9887C11.7472 22.0395 11.8779 22.0656 12.0099 22.0656C12.1419 22.0656 12.2726 22.0395 12.3945 21.9887C12.5163 21.9379 12.6269 21.8636 12.7199 21.7698L17.9999 16.4598C18.8911 15.5753 19.5742 14.5035 19.9997 13.3221C20.4252 12.1407 20.5824 10.8795 20.4599 9.62982ZM16.5999 15.0498L11.9999 19.6498L7.39988 15.0498C6.72197 14.3719 6.20268 13.5521 5.87935 12.6496C5.55601 11.747 5.43667 10.784 5.52988 9.82982C5.6237 8.86092 5.93164 7.92498 6.43145 7.08966C6.93126 6.25435 7.61044 5.54053 8.41988 4.99982C9.48083 4.29506 10.7262 3.91912 11.9999 3.91912C13.2736 3.91912 14.5189 4.29506 15.5799 4.99982C16.3869 5.53844 17.0646 6.2491 17.5642 7.08076C18.0639 7.91242 18.3732 8.84442 18.4699 9.80982C18.5661 10.7672 18.4483 11.7341 18.1249 12.6404C17.8014 13.5466 17.2805 14.3697 16.5999 15.0498Z" fill="current"/>
</svg>
