<svg width="24" height="24" viewBox="0 0 24 24" fill="none" xmlns="http://www.w3.org/2000/svg">
<path d="M20 16.1798V7.8198C20.4797 7.65269 20.9091 7.36652 21.2479 6.98812C21.5868 6.60972 21.824 6.15148 21.9374 5.65635C22.0507 5.16122 22.0365 4.64542 21.8961 4.15728C21.7556 3.66915 21.4935 3.22466 21.1343 2.8655C20.7752 2.50633 20.3307 2.24424 19.8426 2.10378C19.3544 1.96333 18.8386 1.94912 18.3435 2.06248C17.8484 2.17585 17.3901 2.41307 17.0117 2.75191C16.6333 3.09076 16.3472 3.52014 16.18 3.9998H7.82004C7.65293 3.52014 7.36676 3.09076 6.98836 2.75191C6.60996 2.41307 6.15172 2.17585 5.6566 2.06248C5.16147 1.94912 4.64566 1.96333 4.15753 2.10378C3.66939 2.24424 3.22491 2.50633 2.86574 2.8655C2.50657 3.22466 2.24448 3.66915 2.10403 4.15728C1.96358 4.64542 1.94937 5.16122 2.06273 5.65635C2.17609 6.15148 2.41331 6.60972 2.75216 6.98812C3.09101 7.36652 3.52038 7.65269 4.00004 7.8198V16.1798C3.52038 16.3469 3.09101 16.6331 2.75216 17.0115C2.41331 17.3899 2.17609 17.8481 2.06273 18.3432C1.94937 18.8384 1.96358 19.3542 2.10403 19.8423C2.24448 20.3305 2.50657 20.7749 2.86574 21.1341C3.22491 21.4933 3.66939 21.7554 4.15753 21.8958C4.64566 22.0363 5.16147 22.0505 5.6566 21.9371C6.15172 21.8238 6.60996 21.5865 6.98836 21.2477C7.36676 20.9088 7.65293 20.4795 7.82004 19.9998H16.18C16.3472 20.4795 16.6333 20.9088 17.0117 21.2477C17.3901 21.5865 17.8484 21.8238 18.3435 21.9371C18.8386 22.0505 19.3544 22.0363 19.8426 21.8958C20.3307 21.7554 20.7752 21.4933 21.1343 21.1341C21.4935 20.7749 21.7556 20.3305 21.8961 19.8423C22.0365 19.3542 22.0507 18.8384 21.9374 18.3432C21.824 17.8481 21.5868 17.3899 21.2479 17.0115C20.9091 16.6331 20.4797 16.3469 20 16.1798ZM19 3.9998C19.1978 3.9998 19.3912 4.05845 19.5556 4.16833C19.7201 4.27821 19.8482 4.43439 19.9239 4.61712C19.9996 4.79984 20.0194 5.00091 19.9808 5.19489C19.9422 5.38887 19.847 5.56705 19.7072 5.70691C19.5673 5.84676 19.3891 5.942 19.1951 5.98059C19.0012 6.01917 18.8001 5.99937 18.6174 5.92368C18.4346 5.84799 18.2785 5.71982 18.1686 5.55537C18.0587 5.39092 18 5.19758 18 4.9998C18 4.73458 18.1054 4.48023 18.2929 4.29269C18.4805 4.10516 18.7348 3.9998 19 3.9998ZM5.00004 3.9998C5.19783 3.9998 5.39117 4.05845 5.55561 4.16833C5.72006 4.27821 5.84824 4.43439 5.92392 4.61712C5.99961 4.79984 6.01942 5.00091 5.98083 5.19489C5.94225 5.38887 5.847 5.56705 5.70715 5.70691C5.5673 5.84676 5.38912 5.942 5.19514 5.98059C5.00115 6.01917 4.80009 5.99937 4.61736 5.92368C4.43464 5.84799 4.27846 5.71982 4.16858 5.55537C4.05869 5.39092 4.00004 5.19758 4.00004 4.9998C4.00004 4.73458 4.1054 4.48023 4.29294 4.29269C4.48047 4.10516 4.73483 3.9998 5.00004 3.9998ZM5.00004 19.9998C4.80226 19.9998 4.60892 19.9412 4.44447 19.8313C4.28003 19.7214 4.15185 19.5652 4.07617 19.3825C4.00048 19.1998 3.98067 18.9987 4.01926 18.8047C4.05784 18.6107 4.15309 18.4325 4.29294 18.2927C4.43279 18.1528 4.61097 18.0576 4.80495 18.019C4.99894 17.9804 5.2 18.0002 5.38273 18.0759C5.56545 18.1516 5.72163 18.2798 5.83151 18.4442C5.9414 18.6087 6.00004 18.802 6.00004 18.9998C6.00004 19.265 5.89469 19.5194 5.70715 19.7069C5.51961 19.8944 5.26526 19.9998 5.00004 19.9998ZM16.18 17.9998H7.82004C7.67073 17.5804 7.42994 17.1995 7.11514 16.8847C6.80035 16.5699 6.41944 16.3291 6.00004 16.1798V7.8198C6.41944 7.67048 6.80035 7.42969 7.11514 7.1149C7.42994 6.80011 7.67073 6.4192 7.82004 5.9998H16.18C16.3294 6.4192 16.5702 6.80011 16.8849 7.1149C17.1997 7.42969 17.5806 7.67048 18 7.8198V16.1798C17.5806 16.3291 17.1997 16.5699 16.8849 16.8847C16.5702 17.1995 16.3294 17.5804 16.18 17.9998ZM19 19.9998C18.8023 19.9998 18.6089 19.9412 18.4445 19.8313C18.28 19.7214 18.1519 19.5652 18.0762 19.3825C18.0005 19.1998 17.9807 18.9987 18.0193 18.8047C18.0578 18.6107 18.1531 18.4325 18.2929 18.2927C18.4328 18.1528 18.611 18.0576 18.805 18.019C18.9989 17.9804 19.2 18.0002 19.3827 18.0759C19.5655 18.1516 19.7216 18.2798 19.8315 18.4442C19.9414 18.6087 20 18.802 20 18.9998C20 19.265 19.8947 19.5194 19.7072 19.7069C19.5196 19.8944 19.2653 19.9998 19 19.9998Z" fill="current"/>
</svg>
