<svg width="24" height="24" viewBox="0 0 24 24" fill="none" xmlns="http://www.w3.org/2000/svg">
<path d="M20.5899 6.89997C20.569 6.86502 20.5456 6.8316 20.5199 6.79997C19.2265 4.67125 17.1851 3.10187 14.7955 2.39903C12.4058 1.69619 9.83987 1.91048 7.5999 2.99997H7.5299C5.98446 3.79582 4.67318 4.98077 3.72537 6.43797C2.77757 7.89516 2.22599 9.57425 2.12503 11.3096C2.02408 13.045 2.37724 14.7767 3.14969 16.334C3.92213 17.8913 5.08717 19.2203 6.5299 20.19L6.8599 20.39L6.9599 20.46C8.47053 21.4179 10.2119 21.9499 11.9999 22H12.2099C13.9562 21.9615 15.662 21.4662 17.1574 20.5636C18.6529 19.6609 19.8857 18.3822 20.7334 16.8549C21.581 15.3276 22.0137 13.6049 21.9886 11.8583C21.9634 10.1117 21.4812 8.40223 20.5899 6.89997ZM18.9999 8.05997C19.267 8.52257 19.4849 9.01192 19.6499 9.51997C18.6807 9.20471 17.669 9.03947 16.6499 9.02997C16.5475 9.01001 16.4423 9.01001 16.3399 9.02997C15.1113 9.04626 13.8968 9.29391 12.7599 9.75997C12.067 9.32573 11.4462 8.78588 10.9199 8.15997C12.1421 7.44325 13.5299 7.05712 14.9467 7.03959C16.3634 7.02205 17.7603 7.37372 18.9999 8.05997ZM11.9999 3.99997C13.4049 3.99271 14.7862 4.3622 15.9999 5.06997C15.6684 5.02514 15.3344 5.00175 14.9999 4.99997C13.1645 5.00348 11.3655 5.51205 9.7999 6.46997C9.50454 5.85331 9.28945 5.20133 9.1599 4.52997C10.0661 4.18068 11.0287 4.00102 11.9999 3.99997ZM5.9999 6.70997C6.39895 6.26643 6.84489 5.86744 7.3299 5.51997C7.6638 6.7948 8.24886 7.99014 9.05078 9.0359C9.8527 10.0817 10.8553 10.9568 11.9999 11.61C11.9286 12.6102 11.6672 13.5876 11.2299 14.49C9.69788 13.9245 8.37561 12.9038 7.44069 11.5649C6.50577 10.226 6.00299 8.63299 5.9999 6.99997V6.70997ZM3.9999 12C4.00169 11.1965 4.12302 10.3977 4.3599 9.62997C4.75524 11.0818 5.47312 12.4257 6.46004 13.5615C7.44696 14.6973 8.67748 15.5958 10.0599 16.19C9.264 17.1226 8.26046 17.8556 7.1299 18.33C6.15861 17.5847 5.37132 16.6264 4.82867 15.529C4.28602 14.4316 4.00249 13.2242 3.9999 12ZM11.8599 20C10.9683 19.987 10.0855 19.8213 9.2499 19.51C10.5616 18.7015 11.6674 17.5991 12.4799 16.29C13.4007 14.8224 13.9245 13.1408 13.9999 11.41C14.577 11.2203 15.1745 11.0994 15.7799 11.05C16.2071 12.7653 16.0542 14.5737 15.345 16.1929C14.6358 17.8121 13.4103 19.1508 11.8599 20ZM16.0799 18.88C17.329 17.1741 18.0015 15.1143 17.9999 13C17.9955 12.3692 17.9352 11.7401 17.8199 11.12C18.5719 11.2529 19.302 11.4884 19.9899 11.82V12C19.989 13.3857 19.6281 14.7473 18.9427 15.9516C18.2573 17.1559 17.2708 18.1615 16.0799 18.87V18.88Z" fill="current"/>
</svg>
