<svg width="24" height="24" viewBox="0 0 24 24" fill="none" xmlns="http://www.w3.org/2000/svg">
<path d="M17 14.9998C16.6982 14.9995 16.4017 14.9202 16.14 14.7698C15.6487 14.4662 15.0826 14.3053 14.505 14.3053C13.9275 14.3053 13.3613 14.4662 12.87 14.7698C12.607 14.9216 12.3087 15.0016 12.005 15.0016C11.7013 15.0016 11.403 14.9216 11.14 14.7698C10.6487 14.4662 10.0826 14.3053 9.50502 14.3053C8.92747 14.3053 8.36132 14.4662 7.87002 14.7698C7.60521 14.9214 7.30517 15.0007 7.00002 14.9998C6.7348 14.9998 6.48045 15.1051 6.29291 15.2927C6.10538 15.4802 6.00002 15.7346 6.00002 15.9998C6.00002 16.265 6.10538 16.5194 6.29291 16.7069C6.48045 16.8944 6.7348 16.9998 7.00002 16.9998C7.66857 17.0003 8.32492 16.8207 8.90002 16.4798C9.07986 16.3671 9.28779 16.3073 9.50002 16.3073C9.71225 16.3073 9.92018 16.3671 10.1 16.4798C10.676 16.8183 11.3319 16.9968 12 16.9968C12.6681 16.9968 13.324 16.8183 13.9 16.4798C14.0799 16.3671 14.2878 16.3073 14.5 16.3073C14.7122 16.3073 14.9202 16.3671 15.1 16.4798C15.6751 16.8207 16.3315 17.0003 17 16.9998C17.2652 16.9998 17.5196 16.8944 17.7071 16.7069C17.8947 16.5194 18 16.265 18 15.9998C18 15.7346 17.8947 15.4802 17.7071 15.2927C17.5196 15.1051 17.2652 14.9998 17 14.9998ZM17 18.9998C16.6982 18.9995 16.4017 18.9202 16.14 18.7698C15.6487 18.4662 15.0826 18.3053 14.505 18.3053C13.9275 18.3053 13.3613 18.4662 12.87 18.7698C12.607 18.9216 12.3087 19.0016 12.005 19.0016C11.7013 19.0016 11.403 18.9216 11.14 18.7698C10.6487 18.4662 10.0826 18.3053 9.50502 18.3053C8.92747 18.3053 8.36132 18.4662 7.87002 18.7698C7.60521 18.9214 7.30517 19.0007 7.00002 18.9998C6.7348 18.9998 6.48045 19.1051 6.29291 19.2927C6.10538 19.4802 6.00002 19.7346 6.00002 19.9998C6.00002 20.265 6.10538 20.5194 6.29291 20.7069C6.48045 20.8944 6.7348 20.9998 7.00002 20.9998C7.66857 21.0003 8.32492 20.8207 8.90002 20.4798C9.07986 20.3671 9.28779 20.3073 9.50002 20.3073C9.71225 20.3073 9.92018 20.3671 10.1 20.4798C10.676 20.8183 11.3319 20.9968 12 20.9968C12.6681 20.9968 13.324 20.8183 13.9 20.4798C14.0799 20.3671 14.2878 20.3073 14.5 20.3073C14.7122 20.3073 14.9202 20.3671 15.1 20.4798C15.6751 20.8207 16.3315 21.0003 17 20.9998C17.2652 20.9998 17.5196 20.8944 17.7071 20.7069C17.8947 20.5194 18 20.265 18 19.9998C18 19.7346 17.8947 19.4802 17.7071 19.2927C17.5196 19.1051 17.2652 18.9998 17 18.9998ZM18.42 7.20979C17.8083 5.8056 16.753 4.64079 15.4158 3.89395C14.0785 3.14711 12.5333 2.85946 11.0169 3.07511C9.50052 3.29077 8.09672 3.99781 7.02074 5.08785C5.94475 6.17788 5.25598 7.59074 5.06002 9.10979C4.18743 9.32075 3.41118 9.81912 2.85615 10.5247C2.30111 11.2303 1.99957 12.1021 2.00002 12.9998C1.99823 13.5662 2.11677 14.1265 2.34777 14.6437C2.57878 15.1609 2.91699 15.6231 3.34002 15.9998C3.52232 16.1606 3.75695 16.2494 4.00002 16.2498C4.14277 16.2484 4.28356 16.2164 4.41293 16.156C4.54229 16.0957 4.65723 16.0083 4.75002 15.8998C4.92482 15.7008 5.01352 15.4405 4.99665 15.1762C4.97977 14.9118 4.85871 14.665 4.66002 14.4898C4.448 14.3046 4.27906 14.0753 4.16504 13.8179C4.05103 13.5605 3.99471 13.2813 4.00002 12.9998C4.00002 12.4694 4.21073 11.9606 4.58581 11.5856C4.96088 11.2105 5.46959 10.9998 6.00002 10.9998C6.26524 10.9998 6.51959 10.8944 6.70713 10.7069C6.89466 10.5194 7.00002 10.265 7.00002 9.99979C7.00257 8.81707 7.42431 7.67354 8.19029 6.77237C8.95627 5.8712 10.0169 5.27074 11.1838 5.07766C12.3506 4.88459 13.5482 5.1114 14.5636 5.7178C15.579 6.3242 16.3466 7.27093 16.73 8.38979C16.7887 8.55977 16.8921 8.71078 17.0294 8.82693C17.1666 8.94308 17.3327 9.02007 17.51 9.04979C18.2059 9.16983 18.8371 9.53148 19.2925 10.0711C19.748 10.6107 19.9985 11.2937 20 11.9998C20.0133 12.7357 19.7491 13.4497 19.26 13.9998C19.1565 14.0938 19.0739 14.2085 19.0175 14.3365C18.9611 14.4644 18.9322 14.6028 18.9326 14.7426C18.933 14.8825 18.9627 15.0206 19.0198 15.1483C19.0769 15.2759 19.1602 15.3901 19.2642 15.4836C19.3682 15.5771 19.4906 15.6477 19.6236 15.6909C19.7566 15.7341 19.8972 15.7489 20.0363 15.7344C20.1753 15.7199 20.3098 15.6764 20.431 15.6067C20.5523 15.537 20.6575 15.4427 20.74 15.3298C21.5618 14.4165 22.0114 13.2283 22 11.9998C21.9991 10.9222 21.6501 9.87375 21.005 9.0106C20.3599 8.14746 19.4532 7.51582 18.42 7.20979Z" fill="current"/>
</svg>
