<svg width="24" height="24" viewBox="0 0 24 24" fill="none" xmlns="http://www.w3.org/2000/svg">
<path d="M6.91992 5.51019L3.70992 2.29019C3.61669 2.19695 3.506 2.12299 3.38417 2.07253C3.26235 2.02207 3.13178 1.99609 2.99992 1.99609C2.86806 1.99609 2.7375 2.02207 2.61567 2.07253C2.49385 2.12299 2.38316 2.19695 2.28992 2.29019C2.10162 2.47849 1.99583 2.73388 1.99583 3.00019C1.99583 3.26649 2.10162 3.52188 2.28992 3.71019L4.55992 6.00019C3.40689 6.65567 2.34455 7.45915 1.39992 8.39019C1.21367 8.57755 1.10913 8.831 1.10913 9.09519C1.10913 9.35937 1.21367 9.61282 1.39992 9.80019C1.49254 9.89467 1.60298 9.96984 1.72486 10.0213C1.84673 10.0728 1.97762 10.0996 2.10992 10.1002C2.37226 10.0991 2.62366 9.99493 2.80992 9.81019C3.76286 8.86515 4.85568 8.07252 6.04992 7.46019L7.53992 9.00019C6.30066 9.54188 5.17439 10.312 4.21992 11.2702C4.11593 11.3606 4.03174 11.4715 3.97264 11.596C3.91354 11.7205 3.88081 11.8558 3.87649 11.9935C3.87217 12.1313 3.89636 12.2684 3.94754 12.3963C3.99873 12.5243 4.0758 12.6402 4.17392 12.737C4.27205 12.8337 4.3891 12.9091 4.51775 12.9585C4.6464 13.0079 4.78386 13.0301 4.92152 13.0238C5.05917 13.0176 5.19404 12.9829 5.31766 12.9221C5.44129 12.8612 5.551 12.7754 5.63992 12.6702C6.60949 11.7049 7.79076 10.9791 9.08992 10.5502L10.7099 12.1602C9.32359 12.4269 8.04887 13.1026 7.04992 14.1002C6.94593 14.1906 6.86174 14.3015 6.80264 14.426C6.74354 14.5505 6.71081 14.6858 6.70649 14.8235C6.70217 14.9613 6.72636 15.0984 6.77754 15.2263C6.82873 15.3543 6.9058 15.4702 7.00392 15.567C7.10205 15.6637 7.2191 15.7391 7.34775 15.7885C7.4764 15.8379 7.61386 15.8601 7.75152 15.8538C7.88917 15.8476 8.02404 15.8129 8.14766 15.7521C8.27129 15.6912 8.381 15.6054 8.46992 15.5002C8.93063 15.0301 9.47961 14.6557 10.0854 14.3982C10.6911 14.1408 11.3418 14.0056 11.9999 14.0002C12.2109 14.0007 12.4215 14.0175 12.6299 14.0502L20.2899 21.7102C20.3829 21.8039 20.4935 21.8783 20.6153 21.9291C20.7372 21.9798 20.8679 22.006 20.9999 22.006C21.1319 22.006 21.2626 21.9798 21.3845 21.9291C21.5064 21.8783 21.617 21.8039 21.7099 21.7102C21.8037 21.6172 21.878 21.5066 21.9288 21.3848C21.9796 21.2629 22.0057 21.1322 22.0057 21.0002C22.0057 20.8682 21.9796 20.7375 21.9288 20.6156C21.878 20.4937 21.8037 20.3831 21.7099 20.2902L6.91992 5.51019ZM11.9999 16.0002C11.4066 16.0002 10.8266 16.1761 10.3332 16.5058C9.83987 16.8354 9.45535 17.304 9.22828 17.8521C9.00122 18.4003 8.94181 19.0035 9.05757 19.5855C9.17332 20.1674 9.45905 20.7019 9.8786 21.1215C10.2982 21.5411 10.8327 21.8268 11.4147 21.9425C11.9966 22.0583 12.5998 21.9989 13.148 21.7718C13.6962 21.5448 14.1647 21.1602 14.4943 20.6669C14.824 20.1735 14.9999 19.5935 14.9999 19.0002C14.9999 18.2045 14.6839 17.4415 14.1212 16.8789C13.5586 16.3163 12.7956 16.0002 11.9999 16.0002ZM11.9999 20.0002C11.8021 20.0002 11.6088 19.9415 11.4444 19.8317C11.2799 19.7218 11.1517 19.5656 11.076 19.3829C11.0004 19.2001 10.9806 18.9991 11.0191 18.8051C11.0577 18.6111 11.153 18.4329 11.2928 18.2931C11.4327 18.1532 11.6109 18.058 11.8048 18.0194C11.9988 17.9808 12.1999 18.0006 12.3826 18.0763C12.5653 18.152 12.7215 18.2802 12.8314 18.4446C12.9413 18.6091 12.9999 18.8024 12.9999 19.0002C12.9999 19.2654 12.8946 19.5198 12.707 19.7073C12.5195 19.8948 12.2651 20.0002 11.9999 20.0002ZM22.6099 8.39019C21.0119 6.79361 19.074 5.57856 16.9407 4.83572C14.8075 4.09289 12.534 3.84145 10.2899 4.10019C10.1586 4.11463 10.0314 4.1548 9.91561 4.2184C9.79982 4.282 9.69768 4.36779 9.61504 4.47086C9.44813 4.67903 9.37075 4.94497 9.39992 5.21019C9.4291 5.4754 9.56243 5.71817 9.7706 5.88507C9.97876 6.05198 10.2447 6.12936 10.5099 6.10019C12.4559 5.87809 14.4269 6.09619 16.2772 6.73836C18.1276 7.38052 19.8099 8.43033 21.1999 9.81019C21.3882 9.99716 21.6431 10.1017 21.9085 10.1007C22.1738 10.0998 22.4279 9.99349 22.6149 9.80519C22.8019 9.61688 22.9064 9.36201 22.9055 9.09665C22.9045 8.83129 22.7982 8.57716 22.6099 8.39019ZM18.3599 12.6302C18.55 12.7955 18.7955 12.8829 19.0473 12.875C19.2991 12.8671 19.5387 12.7645 19.7181 12.5876C19.8975 12.4107 20.0035 12.1727 20.015 11.921C20.0264 11.6693 19.9425 11.4226 19.7799 11.2302C18.4442 9.87898 16.7741 8.90594 14.9399 8.41019C14.8092 8.35971 14.6694 8.33725 14.5295 8.34427C14.3896 8.35129 14.2527 8.38763 14.1278 8.45093C14.0028 8.51423 13.8925 8.60308 13.8041 8.71173C13.7156 8.82037 13.651 8.94639 13.6144 9.0816C13.5778 9.21682 13.57 9.35822 13.5915 9.49665C13.613 9.63507 13.6634 9.76743 13.7393 9.88514C13.8153 10.0029 13.9151 10.1033 14.0323 10.18C14.1496 10.2566 14.2816 10.3078 14.4199 10.3302C15.9101 10.7432 17.2676 11.5357 18.3599 12.6302Z" fill="current"/>
</svg>
